<svg width="9" height="10" viewBox="0 0 9 10" fill="none" xmlns="http://www.w3.org/2000/svg">
<path d="M5.42553 1.05929L4.53759 1.74288L3.72596 0.970216L3.19283 1.95587L2.13711 1.58012L2.05097 2.69741L0.933682 2.78355L1.30943 3.83927L0.323776 4.3724L1.09644 5.18403L0.412846 6.07197L1.44883 6.49915L1.18549 7.58837L2.30566 7.55725L2.50811 8.65941L3.51878 8.17537L4.15202 9.09989L4.87843 8.24662L5.83297 8.83366L6.14952 7.7587L7.2603 7.90674L7.11226 6.79596L8.18722 6.47941L7.60018 5.52487L8.45345 4.79846L7.52893 4.16522L8.01297 3.15456L6.91081 2.9521L6.94193 1.83193L5.85271 2.09527L5.42553 1.05929Z" fill="#FAF8EC"/>
</svg>
