<svg width="333" height="337" viewBox="0 0 333 337" fill="none" xmlns="http://www.w3.org/2000/svg">
<g clip-path="url(#clip0_314_2477)">
<g opacity="0.9">
<g opacity="0.8">
<path opacity="0.9" d="M281.584 202L274.453 108.337C274.453 108.025 274.141 107.775 273.828 107.775C268.386 108.087 226.853 110.46 223.287 111.147C219.409 111.896 219.284 111.272 216.157 111.771C213.092 112.271 210.402 112.708 207.149 112.771C203.897 112.833 189.948 114.332 185.82 114.456C181.692 114.644 167.618 116.018 164.178 116.205C160.737 116.392 146.226 117.891 141.91 118.141C137.531 118.39 113.324 119.764 106.631 120.763C99.9386 121.762 78.9843 123.511 73.7926 123.698C68.6009 123.885 35.3243 127.132 31.5087 127.444C27.7557 127.757 26.6923 127.444 22.6266 128.506C18.5608 129.567 1.92249 131.753 -2.51857 133.002C-6.89708 134.251 -33.606 139.808 -39.6733 140.994C-44.9276 142.056 -54.185 144.054 -56.5619 144.616C-56.8746 144.678 -57.0623 144.991 -56.9997 145.303C-56.1866 149.362 -51.4953 173.589 -50.9949 174.526C-50.432 175.587 -46.5539 195.756 -45.8033 197.879C-45.0527 200.002 -40.6742 221.482 -40.1737 223.793C-39.7359 225.791 -37.6092 235.407 -37.0462 237.904C-36.9837 238.217 -36.6709 238.404 -36.3582 238.342C-31.8546 237.405 -2.39347 231.223 3.61134 229.662C10.1791 227.976 33.5103 223.293 40.0155 221.857C46.5207 220.421 61.4702 216.737 64.8479 216.05C68.2256 215.363 69.2264 215.238 69.977 214.863C70.7276 214.489 71.0404 214.052 71.8535 214.176C72.6667 214.301 74.6057 214.988 75.9818 215.113C77.2954 215.238 79.9851 215.3 83.9883 215.425C87.9915 215.55 96.3106 215.425 101.19 215.55C106.068 215.675 111.198 215.488 114.075 215.55C116.952 215.55 124.396 215.55 129.337 214.988C134.341 214.426 138.657 214.551 146.038 213.677C153.419 212.74 158.423 212.615 162.739 212.116C167.055 211.616 180.378 211.054 186.008 210.43C191.637 209.743 199.268 209.368 203.709 208.931C208.213 208.494 209.839 208.557 211.716 208.244C213.592 207.932 213.905 207.495 217.158 207.183C220.41 206.871 227.791 206.496 237.361 205.622C246.931 204.748 253.437 204.498 256.689 204.186C259.942 203.874 263.507 204.061 269.074 203.499C273.64 203.062 279.145 202.687 280.959 202.562C281.271 202.562 281.522 202.25 281.522 201.938L281.584 202Z" fill="#DABA7B"/>
</g>
<mask id="mask0_314_2477" style="mask-type:luminance" maskUnits="userSpaceOnUse" x="18" y="66" width="184" height="239">
<path d="M187.508 121.575C194.451 110.46 203.396 98.5337 200.831 85.733C192.2 85.5457 183.568 85.3584 174.936 85.2335C173.935 85.2335 172.934 85.2335 172.121 84.6715C170.495 83.7349 170.182 81.6119 170.057 79.7386C169.681 74.8057 168.806 68.9361 164.24 67.0004C160.987 65.5642 157.234 67.0004 153.981 68.3117C141.722 73.4319 129.524 78.802 118.578 86.2326C113.574 89.6669 108.57 93.6007 102.565 94.5374C93.6831 95.9111 83.4874 90.4786 76.1065 95.6613C73.667 97.4097 72.0407 100.095 70.5395 102.655C52.1498 133.876 33.4473 165.909 27.3174 201.626C25.3158 213.052 24.6903 224.792 20.9373 235.781C20.0616 238.342 18.9982 240.902 18.6855 243.587C17.8098 251.142 22.8138 258.011 27.5676 264.005C29.0062 265.816 30.4449 267.627 31.8835 269.438C34.5732 272.81 37.2629 276.244 40.3904 279.179C47.6462 285.985 57.7167 290.168 67.5997 289.107C72.6037 288.545 78.7336 287.171 81.6734 291.168C82.7368 292.604 83.1121 294.477 84.3631 295.726C87.5532 298.848 92.7448 295.726 95.9974 292.729C96.2476 294.415 96.5604 296.038 96.8106 297.724C99.1249 298.161 101.564 297.724 103.503 296.413C104.942 300.222 111.697 299.972 112.886 296.038C112.886 299.098 114.137 302.157 116.201 304.405C126.334 299.785 134.216 291.168 139.72 281.551C145.224 271.873 148.54 261.195 151.542 250.518C154.857 238.841 157.859 227.04 160.612 215.238C162.488 206.996 161.3 201.001 160.987 193.009C160.674 185.328 164.615 176.711 166.929 169.343C172.121 152.796 178.376 136.374 187.571 121.575H187.508Z" fill="white"/>
</mask>
<g mask="url(#mask0_314_2477)">
<g opacity="0.8">
<path opacity="0.9" d="M208.275 32.2826L119.954 0C119.954 0 119.329 0 119.204 0.374653C117.265 5.43246 102.253 44.1466 101.44 47.7682C100.564 51.6396 99.8758 51.4523 99.0627 54.4495C98.2495 57.4467 97.4989 60.0069 96.2479 63.0665C94.9969 66.0637 90.5559 79.3015 88.9921 83.1104C87.4283 86.9194 82.8622 100.282 81.6737 103.467C80.4853 106.651 75.794 120.451 74.2303 124.51C72.6665 128.568 63.9095 151.172 62.033 157.666C60.1565 164.16 53.0883 183.954 51.1493 188.762C49.2102 193.57 38.389 225.166 37.0755 228.725C35.7619 232.285 35.0739 233.096 34.3233 237.218C33.6352 241.339 28.7563 257.386 28.0683 261.945C27.3802 266.44 21.438 293.041 19.9993 299.035C18.8109 304.218 16.8093 313.459 16.3089 315.832C16.2463 316.144 16.434 316.457 16.7467 316.519C20.7499 317.456 44.8317 323.2 45.8951 323.138C47.0835 323.013 67.0996 327.883 69.3514 328.071C71.6032 328.258 92.9953 333.129 95.3097 333.628C97.3113 334.065 107.007 336.063 109.446 336.563C109.759 336.625 110.071 336.438 110.134 336.126C111.135 331.63 117.64 302.345 118.703 296.163C119.892 289.482 125.209 266.378 126.647 259.884C128.023 253.39 130.838 238.217 131.589 234.907C132.402 231.598 132.652 230.599 132.652 229.787C132.652 228.975 132.339 228.476 132.777 227.789C133.215 227.102 134.654 225.603 135.342 224.417C136.03 223.23 137.218 220.858 138.97 217.298C140.721 213.739 144.036 206.059 146.163 201.75C148.29 197.379 150.229 192.634 151.48 190.011C152.731 187.389 155.796 180.645 157.297 175.899C158.798 171.154 160.8 167.22 162.989 160.164C165.178 153.108 167.117 148.425 168.493 144.366C169.869 140.307 174.811 127.881 176.562 122.511C178.314 117.079 181.066 110.023 182.505 105.777C184.006 101.531 184.694 100.032 185.194 98.2214C185.695 96.4106 185.444 95.9111 186.445 92.8514C187.509 89.7917 190.261 82.9231 193.388 73.869C196.516 64.8149 199.018 58.8205 200.081 55.7608C201.144 52.7011 202.771 49.5166 204.585 44.209C206.086 39.8381 208.025 34.7178 208.65 33.0319C208.776 32.7197 208.65 32.345 208.275 32.2826Z" fill="#DABA7B"/>
</g>
</g>
</g>
</g>
<defs>
<clipPath id="clip0_314_2477">
<rect width="390" height="337" fill="white" transform="translate(-57)"/>
</clipPath>
</defs>
</svg>
