<svg width="351" height="118" viewBox="0 0 351 118" fill="none" xmlns="http://www.w3.org/2000/svg">
<g clip-path="url(#clip0_314_2469)">
<g opacity="0.9">
<mask id="mask0_314_2469" style="mask-type:luminance" maskUnits="userSpaceOnUse" x="4" y="2" width="371" height="116">
<path d="M369.385 18.0443C368.24 22.7119 369.171 28.1765 373.824 31.1933C369.242 32.1041 371.533 37.5686 370.889 41.3255C370.316 44.4562 366.952 46.847 365.663 49.8639C364.231 53.3931 366.164 57.6622 370.244 59.5407C364.374 66.1437 362.943 75.1374 366.45 82.7081C364.947 87.7741 364.374 93.011 364.732 98.1909C329.011 103.997 292.86 108.152 256.494 110.657C224.208 112.877 191.78 113.845 159.351 114.755C125.276 115.723 91.2726 116.748 57.1975 117.715C47.6049 118 38.0124 118.285 28.4198 117.431C23.5519 116.975 18.4693 116.121 15.1048 113.332C11.7402 110.543 11.3823 105.249 15.5343 103.2C12.6708 102.745 9.73578 102.232 6.87233 101.777C8.87674 100.639 10.9527 99.4432 12.9572 98.3048C9.87895 94.2064 7.87453 89.5957 7.23026 84.8711C6.22805 84.5865 5.22584 84.245 4.22363 83.9604C8.23247 80.8865 12.2413 77.8697 16.2501 74.7959C15.749 73.0882 15.1763 71.3805 14.6752 69.6728C14.031 67.5667 13.3867 65.4606 12.814 63.3545C10.6664 54.5315 11.0243 45.3101 13.8878 36.601C14.6752 34.0964 15.0332 30.4533 11.8118 29.7703C12.3845 25.8426 12.9572 21.915 13.5299 17.9874C13.673 16.9628 13.8878 15.8812 14.7468 15.1412C15.8206 14.1736 17.6103 14.0597 19.1852 14.0028C66.4321 14.0028 114.037 10.7013 161.212 9.05055L305.029 4.04138C328.438 3.24447 352.133 0.682965 374.898 4.66753C373.681 9.22132 370.531 13.3766 369.385 17.9874V18.0443Z" fill="white"/>
</mask>
<g mask="url(#mask0_314_2469)">
<g opacity="0.81">
<path opacity="0.9" d="M0 17.2474C0 17.2474 0.930622 22.9965 2.076 31.5918C3.22138 40.1871 4.36677 51.6854 4.79628 63.0699C5.2258 74.5112 5.08263 85.8957 4.7247 94.4341C4.36677 102.972 4.00883 108.665 4.00883 108.665C4.00883 108.949 4.29518 109.177 4.65311 109.177C9.44939 109.063 37.726 108.494 44.3835 108.038C48.0344 107.754 60.2041 107.242 72.159 106.9C84.0423 106.559 95.6393 106.331 97.7153 106.331C101.867 106.388 106.807 106.16 107.666 106.331C108.596 106.445 108.167 106.615 109.813 106.672C111.46 106.672 113.035 106.786 113.751 106.672C114.538 106.615 117.33 106.672 118.475 106.672C119.621 106.672 138.018 107.071 141.097 106.9C142.672 106.843 156.917 106.672 172.022 106.445C187.055 106.217 202.518 105.875 206.455 105.875C214.329 105.875 214.974 105.648 220.199 105.249C225.425 104.851 233.3 104.566 237.738 103.769C242.176 102.972 250.838 102.403 251.268 102.346H251.554C251.554 102.346 252.199 102.062 252.27 101.777V101.663C252.342 101.379 252.7 101.151 253.058 101.151C254.489 101.151 257.925 101.151 259.286 101.322C261.004 101.492 267.661 100.98 269.236 100.98C270.811 100.98 275.536 100.866 279.187 100.525C282.837 100.183 284.985 100.411 288.708 99.8417C292.43 99.2725 296.439 99.4432 301.736 99.0448C307.034 98.6463 321.637 97.9063 329.154 97.451C336.67 97.0525 345.977 96.9956 350.558 96.7679C355.068 96.5402 360.437 96.5402 364.517 96.7679C367.954 96.9386 375.255 97.2802 377.475 97.394C377.833 97.394 378.119 97.1663 378.19 96.8248C378.548 93.5233 380.266 78.1543 381.197 68.819C382.199 58.4022 384.633 41.724 384.633 37.9671C384.633 34.5518 388.284 13.3197 388.928 10.0182C388.928 9.79054 388.714 9.56285 388.356 9.50593C385.278 9.33516 372.464 8.65209 359.22 8.4244C345.977 8.19671 332.518 8.4244 327.364 8.48132C321.852 8.59517 312.617 9.16439 304.17 9.73362C295.795 10.3028 288.063 10.8721 285.558 11.1567C280.475 11.7259 272.601 11.9536 270.811 12.1244C269.021 12.2951 265.227 12.4659 261.72 12.9213C258.212 13.3197 244.467 14.0597 229.864 14.9705C222.562 15.4259 212.826 15.9382 203.448 16.2797C194.07 16.6212 184.979 16.792 179.324 16.7351C168.013 16.6212 146.609 16.4505 140.596 16.3935C134.582 16.3935 133.007 16.2797 127.996 16.3366C122.985 16.3366 117.545 16.2228 114.61 16.3935C111.675 16.5643 106.377 16.5643 105.733 16.5643C105.089 16.5643 104.373 16.3935 103.299 15.9951C102.225 15.5966 101.653 15.0843 99.6481 15.0274C97.7153 14.9705 80.3914 14.9135 67.5775 15.0274C54.8351 15.1412 38.943 15.4259 30.9969 15.5397C23.8382 15.6535 4.58152 16.3935 0.644277 16.6212C0.286345 16.6212 0 16.9058 0.0715863 17.1904L0 17.2474Z" fill="#DABA7B"/>
</g>
</g>
</g>
</g>
<defs>
<clipPath id="clip0_314_2469">
<rect width="389" height="118" fill="white"/>
</clipPath>
</defs>
</svg>
