<svg width="283" height="145" viewBox="0 0 283 145" fill="none" xmlns="http://www.w3.org/2000/svg">
<g clip-path="url(#clip0_305_1524)">
<g filter="url(#filter0_d_305_1524)">
<path d="M283 118.93V113.467C281.261 113.467 279.77 111.978 279.77 110.24C279.77 108.502 281.261 107.012 283 107.012V104.033C281.261 104.033 279.77 102.543 279.77 100.805C279.77 99.0668 281.261 97.577 283 97.577V94.5976C281.261 94.5976 279.77 93.232 279.77 91.3699C279.77 89.5077 281.261 88.1421 283 88.1421V85.1627C281.261 85.1627 279.77 83.6729 279.77 81.9349C279.77 80.1969 281.261 78.7072 283 78.7072V75.7277C281.261 75.7277 279.77 74.238 279.77 72.5C279.77 70.762 281.261 69.2722 283 69.2722V66.2928C281.261 66.2928 279.77 64.8031 279.77 63.0651C279.77 61.327 281.261 59.8373 283 59.8373V56.8579C281.261 56.8579 279.77 55.3681 279.77 53.6301C279.77 51.8921 281.261 50.4024 283 50.4024V47.4229C281.261 47.4229 279.77 45.9332 279.77 44.1952C279.77 42.4572 281.261 40.9675 283 40.9675V37.988C281.261 37.988 279.77 36.4983 279.77 34.7603C279.77 33.0223 281.261 31.5325 283 31.5325V25.3253C268.59 25.3253 256.912 13.6558 256.912 -0.744873H253.806C253.806 0.993141 252.315 2.48287 250.576 2.48287C248.837 2.48287 247.346 0.993141 247.346 -0.744873H244.613C244.613 0.993141 243.122 2.48287 241.383 2.48287C239.644 2.48287 238.153 0.993141 238.153 -0.744873H235.42C235.42 0.993141 233.929 2.48287 232.19 2.48287C230.45 2.48287 228.96 0.993141 228.96 -0.744873H226.226C226.226 0.993141 224.736 2.48287 222.996 2.48287C221.257 2.48287 219.766 0.993141 219.766 -0.744873H217.033C217.033 0.993141 215.543 2.48287 213.803 2.48287C212.064 2.48287 210.573 0.993141 210.573 -0.744873H207.84C207.84 0.993141 206.349 2.48287 204.61 2.48287C202.871 2.48287 201.38 0.993141 201.38 -0.744873H198.647C198.647 0.993141 197.156 2.48287 195.417 2.48287C193.678 2.48287 192.187 0.993141 192.187 -0.744873H189.454C189.454 0.993141 187.963 2.48287 186.224 2.48287C184.485 2.48287 182.994 0.993141 182.994 -0.744873H180.261C180.261 0.993141 178.77 2.48287 177.031 2.48287C175.291 2.48287 173.801 0.993141 173.801 -0.744873H171.068C171.068 0.993141 169.577 2.48287 167.838 2.48287C166.098 2.48287 164.608 0.993141 164.608 -0.744873H161.874C161.874 0.993141 160.384 2.48287 158.644 2.48287C156.905 2.48287 155.414 0.993141 155.414 -0.744873H152.681C152.681 0.993141 151.19 2.48287 149.451 2.48287C147.712 2.48287 146.221 0.993141 146.221 -0.744873H143.488C143.488 0.993141 141.997 2.48287 140.258 2.48287C138.519 2.48287 137.028 0.993141 137.028 -0.744873H134.295C134.295 0.993141 132.804 2.48287 131.065 2.48287C129.326 2.48287 127.835 0.993141 127.835 -0.744873H125.102C125.102 0.993141 123.611 2.48287 121.872 2.48287C120.133 2.48287 118.642 0.993141 118.642 -0.744873H115.909C115.909 0.993141 114.418 2.48287 112.679 2.48287C110.939 2.48287 109.449 0.993141 109.449 -0.744873H106.715C106.715 0.993141 105.225 2.48287 103.485 2.48287C101.746 2.48287 100.255 0.993141 100.255 -0.744873H97.5224C97.5224 0.993141 96.0316 2.48287 94.2923 2.48287C92.5531 2.48287 91.0623 0.993141 91.0623 -0.744873H88.3292C88.3292 0.993141 86.9626 2.48287 85.0992 2.48287C83.2357 2.48287 81.8691 0.993141 81.8691 -0.744873H79.136C79.136 0.993141 77.6453 2.48287 75.906 2.48287C74.1668 2.48287 72.676 0.993141 72.676 -0.744873H69.9429C69.9429 0.993141 68.4521 2.48287 66.7129 2.48287C64.9736 2.48287 63.4828 0.993141 63.4828 -0.744873H60.7497C60.7497 0.993141 59.259 2.48287 57.5197 2.48287C55.7805 2.48287 54.2897 0.993141 54.2897 -0.744873H51.5566C51.5566 0.993141 50.0658 2.48287 48.3266 2.48287C46.5873 2.48287 45.0965 0.993141 45.0965 -0.744873H42.3634C42.3634 0.993141 40.8727 2.48287 39.1334 2.48287C37.3942 2.48287 35.9034 0.993141 35.9034 -0.744873H33.1703C33.1703 0.993141 31.6795 2.48287 29.9403 2.48287C28.201 2.48287 26.7102 0.993141 26.7102 -0.744873H24.1014C24.1014 13.6558 12.4236 25.3253 -1.9873 25.3253V31.5325C-0.24806 31.5325 1.24272 33.0223 1.24272 34.7603C1.24272 36.4983 -0.24806 37.988 -1.9873 37.988V40.9675C-0.24806 40.9675 1.24272 42.4572 1.24272 44.1952C1.24272 45.9332 -0.24806 47.4229 -1.9873 47.4229V50.4024C-0.24806 50.4024 1.24272 51.8921 1.24272 53.6301C1.24272 55.3681 -0.24806 56.8579 -1.9873 56.8579V59.8373C-0.24806 59.8373 1.24272 61.327 1.24272 63.0651C1.24272 64.8031 -0.24806 66.2928 -1.9873 66.2928V69.2722C-0.24806 69.2722 1.24272 70.6378 1.24272 72.5C1.24272 74.3622 -0.24806 75.7277 -1.9873 75.7277V78.7072C-0.24806 78.7072 1.24272 80.1969 1.24272 81.9349C1.24272 83.6729 -0.24806 85.1627 -1.9873 85.1627V88.1421C-0.24806 88.1421 1.24272 89.5077 1.24272 91.3699C1.24272 93.232 -0.24806 94.5976 -1.9873 94.5976V97.577C-0.24806 97.577 1.24272 99.0668 1.24272 100.805C1.24272 102.543 -0.24806 104.033 -1.9873 104.033V107.012C-0.24806 107.012 1.24272 108.378 1.24272 110.24C1.24272 112.102 -0.24806 113.467 -1.9873 113.467V118.93C12.4236 118.93 24.1014 130.599 24.1014 145H26.7102C26.7102 143.262 28.201 141.772 29.9403 141.772C31.6795 141.772 33.1703 143.262 33.1703 145H35.9034C35.9034 143.262 37.3942 141.772 39.1334 141.772C40.8727 141.772 42.3634 143.262 42.3634 145H45.0965C45.0965 143.262 46.5873 141.772 48.3266 141.772C50.0658 141.772 51.5566 143.262 51.5566 145H54.2897C54.2897 143.262 55.7805 141.772 57.5197 141.772C59.259 141.772 60.7497 143.262 60.7497 145H63.4828C63.4828 143.262 64.9736 141.772 66.7129 141.772C68.4521 141.772 69.9429 143.262 69.9429 145H72.676C72.676 143.262 74.1668 141.772 75.906 141.772C77.6453 141.772 79.136 143.262 79.136 145H81.8691C81.8691 143.262 83.3599 141.772 85.0992 141.772C86.8384 141.772 88.3292 143.262 88.3292 145H91.0623C91.0623 143.262 92.5531 141.772 94.2923 141.772C96.0316 141.772 97.5224 143.262 97.5224 145H100.255C100.255 143.262 101.746 141.772 103.485 141.772C105.225 141.772 106.715 143.262 106.715 145H109.449C109.449 143.262 110.815 141.772 112.679 141.772C114.542 141.772 115.909 143.262 115.909 145H118.642C118.642 143.262 120.008 141.772 121.872 141.772C123.735 141.772 125.102 143.262 125.102 145H127.835C127.835 143.262 129.326 141.772 131.065 141.772C132.804 141.772 134.295 143.262 134.295 145H137.028C137.028 143.262 138.519 141.772 140.258 141.772C141.997 141.772 143.488 143.262 143.488 145H146.221C146.221 143.262 147.588 141.772 149.451 141.772C151.315 141.772 152.681 143.262 152.681 145H155.414C155.414 143.262 156.905 141.772 158.644 141.772C160.384 141.772 161.874 143.262 161.874 145H164.608C164.608 143.262 165.974 141.772 167.838 141.772C169.701 141.772 171.068 143.262 171.068 145H173.801C173.801 143.262 175.291 141.772 177.031 141.772C178.77 141.772 180.261 143.262 180.261 145H182.994C182.994 143.262 184.485 141.772 186.224 141.772C187.963 141.772 189.454 143.262 189.454 145H192.187C192.187 143.262 193.678 141.772 195.417 141.772C197.156 141.772 198.647 143.262 198.647 145H201.38C201.38 143.262 202.871 141.772 204.61 141.772C206.349 141.772 207.84 143.262 207.84 145H210.573C210.573 143.262 212.064 141.772 213.803 141.772C215.543 141.772 217.033 143.262 217.033 145H219.766C219.766 143.262 221.257 141.772 222.996 141.772C224.736 141.772 226.226 143.262 226.226 145H228.96C228.96 143.262 230.45 141.772 232.19 141.772C233.929 141.772 235.42 143.262 235.42 145H238.153C238.153 143.262 239.644 141.772 241.383 141.772C243.122 141.772 244.613 143.262 244.613 145H247.346C247.346 143.262 248.837 141.772 250.576 141.772C252.315 141.772 253.806 143.262 253.806 145H256.912C256.912 130.599 268.59 118.93 283 118.93Z" fill="#FD6954"/>
</g>
<path d="M257.036 2.60693H252.439C252.439 2.60693 251.321 3.22765 250.576 3.22765C249.954 3.22765 249.209 2.97937 248.712 2.60693H243.37C243.37 2.60693 242.252 3.22765 241.507 3.22765C240.761 3.22765 240.14 2.97937 239.643 2.60693H234.301C234.301 2.60693 233.183 3.22765 232.438 3.22765C231.817 3.22765 231.071 2.97937 230.574 2.60693H225.232C225.232 2.60693 224.114 3.22765 223.369 3.22765C222.623 3.22765 222.002 2.97937 221.505 2.60693H216.163C216.163 2.60693 215.045 3.22765 214.3 3.22765C213.679 3.22765 212.933 2.97937 212.436 2.60693H207.095C207.095 2.60693 205.976 3.22765 205.231 3.22765C204.486 3.22765 203.864 2.97937 203.368 2.60693H198.026C198.026 2.60693 196.907 3.22765 196.162 3.22765C195.541 3.22765 194.796 2.97937 194.299 2.60693H188.957C188.957 2.60693 187.714 3.22765 187.093 3.22765C186.472 3.22765 185.727 2.97937 185.23 2.60693H179.888C179.888 2.60693 178.645 3.22765 178.024 3.22765C177.403 3.22765 176.658 2.97937 176.161 2.60693H170.819C170.819 2.60693 169.577 3.22765 168.955 3.22765C168.334 3.22765 167.589 2.97937 167.092 2.60693H161.75C161.75 2.60693 160.508 3.22765 159.886 3.22765C159.265 3.22765 158.52 2.97937 158.023 2.60693H152.681C152.681 2.60693 151.563 3.22765 150.818 3.22765C150.072 3.22765 149.451 2.97937 148.954 2.60693H143.612C143.612 2.60693 142.37 3.22765 141.749 3.22765C141.127 3.22765 140.382 2.97937 139.885 2.60693H134.543C134.543 2.60693 133.425 3.22765 132.68 3.22765C131.934 3.22765 131.313 2.97937 130.816 2.60693H125.474C125.474 2.60693 124.232 3.22765 123.611 3.22765C122.99 3.22765 122.244 2.97937 121.747 2.60693H116.405C116.405 2.60693 115.287 3.22765 114.542 3.22765C113.796 3.22765 113.175 2.97937 112.678 2.60693H107.336C107.336 2.60693 106.218 3.22765 105.473 3.22765C104.728 3.22765 104.106 2.97937 103.609 2.60693H98.2675C98.2675 2.60693 97.1494 3.22765 96.404 3.22765C95.6586 3.22765 95.0374 2.97937 94.5405 2.60693H89.1985C89.1985 2.60693 88.0805 3.22765 87.3351 3.22765C86.5897 3.22765 85.9685 2.97937 85.4716 2.60693H80.1296C80.1296 2.60693 79.0115 3.22765 78.2662 3.22765C77.5208 3.22765 76.8996 2.97937 76.4027 2.60693H71.0607C71.0607 2.60693 69.9426 3.22765 69.1972 3.22765C68.4518 3.22765 67.8307 2.97937 67.3338 2.60693H61.9918C61.9918 2.60693 60.8737 3.22765 60.1283 3.22765C59.5072 3.22765 58.7618 2.97937 58.2648 2.60693H52.9229C52.9229 2.60693 51.8048 3.22765 51.0594 3.22765C50.314 3.22765 49.6928 2.97937 49.1959 2.60693H43.8539C43.8539 2.60693 42.7359 3.22765 41.9905 3.22765C41.3693 3.22765 40.6239 2.97937 40.127 2.60693H34.785C34.785 2.60693 33.6669 3.22765 32.9215 3.22765C32.1762 3.22765 31.555 2.97937 31.0581 2.60693H26.9584C26.9584 3.22765 26.8342 3.84837 26.71 4.46909H258.278C258.278 3.84837 258.03 3.22765 258.03 2.60693H257.036Z" fill="#C83632"/>
<path d="M258.154 7.94507H24.8467C24.5983 8.56579 24.474 9.18651 24.2256 9.80723H258.899C258.651 9.18651 258.402 8.56579 258.154 7.94507Z" fill="#C83632"/>
<path d="M260.514 13.2832H22.4855C22.1128 13.9039 21.6159 14.5246 21.2432 15.1454H261.756C261.756 15.1454 260.886 13.9039 260.514 13.2832Z" fill="#C83632"/>
<path d="M264.614 18.4973H18.3864C17.7652 19.118 17.0198 19.8629 16.2744 20.3595H266.85C266.105 19.7388 265.359 19.118 264.614 18.4973Z" fill="#C83632"/>
<path d="M272.44 23.8354H10.6835C8.69577 24.7045 6.58383 25.3252 4.34766 25.6976H278.776C276.539 25.3252 274.428 24.7045 272.44 23.8354Z" fill="#C83632"/>
<path d="M283 29.1738H0V31.036H283V29.1738Z" fill="#C83632"/>
<path d="M279.77 35.505C279.77 35.505 279.77 34.7601 280.018 34.3877H2.98145C2.98145 34.3877 3.22991 35.1326 3.22991 35.505C3.22991 35.7533 3.22991 36.0016 3.22991 36.374H280.018C280.018 36.374 280.018 35.8774 280.018 35.505H279.77Z" fill="#C83632"/>
<path d="M283 39.7258H0V41.588H283V39.7258Z" fill="#C83632"/>
<path d="M279.77 45.0642H3.22977C3.22977 45.8091 2.9813 46.4298 2.48438 46.9264H280.639C280.639 46.9264 279.894 45.6849 279.894 45.0642H279.77Z" fill="#C83632"/>
<path d="M283 51.0231V50.4023H0V51.0231C0.993854 51.0231 1.98771 51.5196 2.48464 52.2645H280.391C281.012 51.5196 281.882 51.0231 282.876 51.0231H283Z" fill="#C83632"/>
<path d="M283 57.4785C281.758 57.4785 280.64 56.7336 280.143 55.7405H2.85733C2.3604 56.7336 1.24232 57.4785 0 57.4785L283 57.6026V57.4785Z" fill="#C83632"/>
<path d="M281.136 60.9546H1.86328C2.48444 61.4512 2.98137 62.0719 3.22983 62.8167H279.894C280.018 62.0719 280.515 61.327 281.136 60.9546Z" fill="#C83632"/>
<path d="M283 66.7893C282.379 66.7893 281.758 66.6652 281.261 66.2927H1.73924C1.73924 66.2927 0.621159 66.7893 0 66.7893V68.1549H283V66.7893Z" fill="#C83632"/>
<path d="M279.77 72.8724C279.77 72.8724 279.77 71.8793 280.018 71.5068H2.98145C2.98145 71.5068 3.22991 72.3758 3.22991 72.8724C3.22991 73.1207 3.22991 73.2448 3.22991 73.4931H279.894C279.894 73.4931 279.894 73.1207 279.894 72.8724H279.77Z" fill="#C83632"/>
<path d="M283 76.845H0V78.7071H283V76.845Z" fill="#C83632"/>
<path d="M279.77 82.3074H3.22956C3.22956 83.0522 2.98109 83.673 2.6084 84.1695H280.391C280.391 84.1695 279.77 83.0522 279.77 82.3074Z" fill="#C83632"/>
<path d="M283 88.3902V87.5212H0V88.3902C0.869622 88.3902 1.73924 88.7627 2.3604 89.3834H280.764C280.764 89.3834 282.13 88.3902 283.124 88.3902H283Z" fill="#C83632"/>
<path d="M280.018 92.8594H2.98129C2.60859 93.8525 1.73897 94.4732 0.745117 94.7215H282.13C281.136 94.4732 280.267 93.7284 279.894 92.8594H280.018Z" fill="#C83632"/>
<path d="M281.634 98.0735H1.49121C2.2366 98.4459 2.85776 99.1908 3.10622 99.9356H280.019C280.267 99.0666 280.888 98.4459 281.634 98.0735Z" fill="#C83632"/>
<path d="M283 104.156C282.254 104.156 281.509 103.908 280.888 103.412H2.11173C2.11173 103.412 0.869414 104.156 0.124023 104.156V105.274H283.124V104.156H283Z" fill="#C83632"/>
<path d="M279.77 110.24C279.77 110.24 279.894 109.122 280.267 108.626H2.85742C2.85742 108.626 3.23012 109.619 3.23012 110.24C3.23012 110.24 3.23012 110.488 3.23012 110.612H279.894C279.894 110.612 279.894 110.364 279.894 110.24H279.77Z" fill="#C83632"/>
<path d="M283 113.964H0V115.826H283V113.964Z" fill="#C83632"/>
<path d="M278.776 119.302H4.34766C6.58383 119.675 8.69577 120.295 10.6835 121.164H272.44C274.428 120.295 276.539 119.675 278.776 119.302Z" fill="#C83632"/>
<path d="M266.85 124.64H16.2744C17.0198 125.261 17.7652 125.882 18.3864 126.503H264.614C265.359 125.882 265.98 125.137 266.85 124.64Z" fill="#C83632"/>
<path d="M261.756 129.979H21.2432C21.7401 130.599 22.1128 131.22 22.4855 131.841H260.514C260.886 131.22 261.259 130.599 261.756 129.979Z" fill="#C83632"/>
<path d="M258.899 135.193H24.2256C24.474 135.813 24.7225 136.434 24.8467 137.055H258.03C258.278 136.434 258.527 135.813 258.775 135.193H258.899Z" fill="#C83632"/>
<path d="M257.284 140.531H25.7158C25.7158 141.151 25.9643 141.772 25.9643 142.393H30.0639C30.0639 142.393 31.182 141.772 31.9274 141.772C32.6728 141.772 33.294 142.02 33.7909 142.393H39.1329C39.1329 142.393 40.2509 141.772 40.9963 141.772C41.7417 141.772 42.3629 142.02 42.8598 142.393H48.2018C48.2018 142.393 49.3199 141.772 50.0653 141.772C50.8106 141.772 51.4318 142.02 51.9287 142.393H57.2707C57.2707 142.393 58.3888 141.772 59.1342 141.772C59.8796 141.772 60.5007 142.02 60.9976 142.393H66.3396C66.3396 142.393 67.4577 141.772 68.2031 141.772C68.8242 141.772 69.5696 142.02 70.0666 142.393H75.4085C75.4085 142.393 76.5266 141.772 77.272 141.772C78.0174 141.772 78.6386 142.02 79.1355 142.393H84.4775C84.4775 142.393 85.5955 141.772 86.3409 141.772C86.9621 141.772 87.7075 142.02 88.2044 142.393H93.5464C93.5464 142.393 94.6645 141.772 95.4098 141.772C96.1552 141.772 96.7764 142.02 97.2733 142.393H102.615C102.615 142.393 103.733 141.772 104.479 141.772C105.1 141.772 105.845 142.02 106.342 142.393H111.684C111.684 142.393 112.802 141.772 113.548 141.772C114.293 141.772 114.914 142.02 115.411 142.393H120.753C120.753 142.393 121.995 141.772 122.617 141.772C123.238 141.772 123.983 142.02 124.48 142.393H129.822C129.822 142.393 131.064 141.772 131.686 141.772C132.307 141.772 133.052 142.02 133.549 142.393H138.891C138.891 142.393 140.133 141.772 140.754 141.772C141.376 141.772 142.121 142.02 142.618 142.393H147.96C147.96 142.393 149.078 141.772 149.823 141.772C150.569 141.772 151.19 142.02 151.687 142.393H157.029C157.029 142.393 158.271 141.772 158.892 141.772C159.513 141.772 160.259 142.02 160.756 142.393H166.098C166.098 142.393 167.216 141.772 167.961 141.772C168.707 141.772 169.328 142.02 169.825 142.393H175.167C175.167 142.393 176.409 141.772 177.03 141.772C177.651 141.772 178.397 142.02 178.894 142.393H184.236C184.236 142.393 185.354 141.772 186.099 141.772C186.844 141.772 187.466 142.02 187.963 142.393H193.304C193.304 142.393 194.547 141.772 195.168 141.772C195.789 141.772 196.535 142.02 197.031 142.393H202.373C202.373 142.393 203.492 141.772 204.237 141.772C204.982 141.772 205.603 142.02 206.1 142.393H211.442C211.442 142.393 212.56 141.772 213.306 141.772C214.051 141.772 214.672 142.02 215.169 142.393H220.511C220.511 142.393 221.629 141.772 222.375 141.772C223.12 141.772 223.741 142.02 224.238 142.393H229.58C229.58 142.393 230.698 141.772 231.444 141.772C232.189 141.772 232.81 142.02 233.307 142.393H238.649C238.649 142.393 239.767 141.772 240.513 141.772C241.134 141.772 241.879 142.02 242.376 142.393H247.718C247.718 142.393 248.836 141.772 249.581 141.772C250.327 141.772 250.948 142.02 251.445 142.393H256.042C256.042 141.772 256.166 141.151 256.29 140.531H257.284Z" fill="#C83632"/>
<path d="M112.245 65V47.864H121.701C126.677 47.864 129.165 49.344 129.165 52.304C129.165 53.92 128.269 55.12 126.477 55.904C127.597 56.272 128.429 56.792 128.973 57.464C129.533 58.12 129.813 58.952 129.813 59.96C129.813 61.608 129.157 62.864 127.845 63.728C126.549 64.576 124.653 65 122.157 65H112.245ZM121.461 54.368C122.725 54.368 123.357 53.944 123.357 53.096C123.357 52.648 123.205 52.336 122.901 52.16C122.597 51.968 122.093 51.872 121.389 51.872H117.861V54.368H121.461ZM121.605 60.992C122.453 60.992 123.053 60.872 123.405 60.632C123.773 60.392 123.957 60.008 123.957 59.48C123.957 58.952 123.765 58.576 123.381 58.352C123.013 58.112 122.405 57.992 121.557 57.992H117.861V60.992L121.605 60.992ZM144.634 47.864H150.826V57.272C150.826 60.056 150.074 62.112 148.57 63.44C147.082 64.768 144.778 65.432 141.658 65.432C138.538 65.432 136.226 64.768 134.722 63.44C133.234 62.112 132.49 60.056 132.49 57.272V47.864H138.682V57.776C138.682 58.72 138.914 59.408 139.378 59.84C139.842 60.272 140.602 60.488 141.658 60.488C142.714 60.488 143.474 60.272 143.938 59.84C144.402 59.408 144.634 58.72 144.634 57.776V47.864ZM159.691 65V58.712L152.659 47.864H159.259L162.859 53.912L166.483 47.864H172.915L165.883 58.712V65H159.691ZM87.0143 89L87.0143 76.832H80.9423V71.864L99.2783 71.864V76.832H93.2063L93.2063 89L87.0143 89ZM101.37 89L101.37 71.864H107.562V89H101.37ZM129.939 82.352C129.779 84.576 128.851 86.312 127.155 87.56C125.459 88.808 123.195 89.432 120.363 89.432C118.267 89.432 116.459 89.088 114.939 88.4C113.435 87.696 112.275 86.664 111.459 85.304C110.643 83.944 110.235 82.32 110.235 80.432C110.235 78.624 110.635 77.04 111.435 75.68C112.235 74.32 113.395 73.272 114.915 72.536C116.435 71.8 118.275 71.432 120.435 71.432C123.011 71.432 125.059 71.952 126.579 72.992C128.099 74.032 129.107 75.6 129.603 77.696L123.459 78.32C123.219 77.632 122.859 77.136 122.379 76.832C121.915 76.528 121.259 76.376 120.411 76.376C119.179 76.376 118.243 76.72 117.603 77.408C116.979 78.096 116.667 79.104 116.667 80.432C116.667 83.136 117.947 84.488 120.507 84.488C122.379 84.488 123.467 83.776 123.771 82.352H129.939ZM144.98 89L140.492 82.4L138.476 84.2V89H132.284V71.864H138.476V77.72L144.476 71.864H151.364L144.596 78.464L151.988 89H144.98ZM154.057 89V71.864H169.561V76.256H160.105V78.176H169.081V82.544H160.105V84.608H170.161L169.657 89H154.057ZM177.413 89V76.832H171.341V71.864H189.677V76.832H183.605V89H177.413ZM202.28 77.336C202.072 76.728 201.744 76.296 201.296 76.04C200.864 75.784 200.24 75.656 199.424 75.656C198.608 75.656 197.976 75.752 197.528 75.944C197.096 76.12 196.88 76.384 196.88 76.736C196.88 76.992 196.976 77.184 197.168 77.312C197.376 77.44 197.752 77.552 198.296 77.648L202.184 78.296C204.504 78.68 206.16 79.296 207.152 80.144C208.16 80.976 208.664 82.168 208.664 83.72C208.664 87.528 205.632 89.432 199.568 89.432C193.808 89.432 190.744 87.36 190.376 83.216H196.448C196.704 84.544 197.752 85.208 199.592 85.208C201.56 85.208 202.544 84.784 202.544 83.936C202.544 83.664 202.408 83.456 202.136 83.312C201.88 83.152 201.464 83.024 200.888 82.928L197.792 82.448C195.424 82.08 193.672 81.448 192.536 80.552C191.4 79.64 190.832 78.424 190.832 76.904C190.832 75.192 191.608 73.856 193.16 72.896C194.728 71.92 196.896 71.432 199.664 71.432C202.24 71.432 204.24 71.888 205.664 72.8C207.104 73.696 207.936 75.04 208.16 76.832L202.28 77.336Z" fill="#FAF8EC"/>
</g>
<defs>
<filter id="filter0_d_305_1524" x="-11.9873" y="-10.7449" width="304.988" height="165.745" filterUnits="userSpaceOnUse" color-interpolation-filters="sRGB">
<feFlood flood-opacity="0" result="BackgroundImageFix"/>
<feColorMatrix in="SourceAlpha" type="matrix" values="0 0 0 0 0 0 0 0 0 0 0 0 0 0 0 0 0 0 127 0" result="hardAlpha"/>
<feOffset/>
<feGaussianBlur stdDeviation="5"/>
<feComposite in2="hardAlpha" operator="out"/>
<feColorMatrix type="matrix" values="0 0 0 0 0 0 0 0 0 0 0 0 0 0 0 0 0 0 0.25 0"/>
<feBlend mode="normal" in2="BackgroundImageFix" result="effect1_dropShadow_305_1524"/>
<feBlend mode="normal" in="SourceGraphic" in2="effect1_dropShadow_305_1524" result="shape"/>
</filter>
<clipPath id="clip0_305_1524">
<rect width="283" height="145" fill="white"/>
</clipPath>
</defs>
</svg>
