<svg width="26" height="26" viewBox="0 0 26 26" fill="none" xmlns="http://www.w3.org/2000/svg">
<g clip-path="url(#clip0_386_7601)">
<path d="M23.6364 0H2.36364C1.06364 0 0 1.06364 0 2.36364V23.6364C0 24.9364 1.06364 26 2.36364 26H11.2273C11.5582 26 11.8182 25.74 11.8182 25.4091V17.1364C11.8182 16.8055 11.5582 16.5455 11.2273 16.5455H10.0691C9.73818 16.5455 9.47818 16.2855 9.47818 15.9545V12.4091C9.47818 12.0782 9.73818 11.8182 10.0691 11.8182H11.2273C11.5582 11.8182 11.8182 11.5582 11.8182 11.2273V10.0455C11.8182 7.11455 14.2055 4.72727 17.1364 4.72727H20.6818C21.0127 4.72727 21.2727 4.98727 21.2727 5.31818V8.86364C21.2727 9.19455 21.0127 9.45455 20.6818 9.45455H17.1364C16.8055 9.45455 16.5455 9.71455 16.5455 10.0455V11.2273C16.5455 11.5582 16.8055 11.8182 17.1364 11.8182H20.6818C20.8591 11.8182 21.0245 11.8891 21.1309 12.0309C21.2491 12.1609 21.2964 12.3382 21.2609 12.5155L20.67 16.0609C20.6227 16.3445 20.3745 16.5573 20.0909 16.5573H17.1364C16.8055 16.5573 16.5455 16.8173 16.5455 17.1482V25.4209C16.5455 25.7518 16.8055 26.0118 17.1364 26.0118H23.6364C24.9364 26.0118 26 24.9482 26 23.6482V2.36364C26 1.06364 24.9364 0 23.6364 0Z" fill="white"/>
</g>
<defs>
<clipPath id="clip0_386_7601">
<rect width="26" height="26" fill="white"/>
</clipPath>
</defs>
</svg>
