<svg width="1560" height="3" viewBox="0 0 1560 3" fill="none" xmlns="http://www.w3.org/2000/svg">
<path d="M1542.56 0.224199C1541.13 0.384342 1539.35 0.533808 1536.18 0.565836C1535.29 0.565836 1533.55 0.672598 1533.55 0.672598C1531.77 0.886121 1528.24 0.83274 1524.72 0.83274C1522.09 0.886121 1520.3 1.09964 1516.78 0.886121C1513.26 0.992882 1508.84 0.939502 1506.21 1.09964C1502.68 1.31317 1499.16 1.36655 1494.74 1.20641V1.04626C1489.44 1.15302 1485.07 1.20641 1479.76 1.31317C1477.97 1.25979 1477.13 1.15302 1476.23 1.04626C1473.6 1.15302 1471.82 1.41993 1470.08 1.04626C1466.55 1.04626 1463.03 1.04626 1460.4 1.25979H1451.61C1449.83 1.31317 1448.09 1.36655 1444.56 1.41993C1446.35 1.25979 1447.2 1.15302 1448.98 0.992883C1443.67 1.15302 1439.3 1.25979 1434.89 1.41993V1.04626C1430.47 1.09964 1426.95 1.15302 1423.42 1.20641C1422.53 1.09964 1421.64 1.04626 1420.79 0.992883C1419.01 1.04626 1417.27 1.15302 1414.64 1.15302C1412 0.939502 1408.48 0.939502 1404.96 1.04626C1401.43 1.15302 1398.8 1.31317 1396.12 1.04626H1394.34C1391.71 1.09964 1388.18 1.04626 1386.4 1.04626C1383.77 1.09964 1381.98 1.04626 1379.35 1.04626C1377.57 1.04626 1376.72 1.09964 1374.94 1.09964C1372.31 1.15302 1369.63 1.20641 1367 1.20641C1362.58 1.15302 1359.06 1.25979 1354.64 1.41993V1.04626C1352.86 1.04626 1351.12 1.15302 1348.49 1.04626H1345.85C1344.07 1.15302 1342.33 1.20641 1341.44 1.04626H1332.61C1331.72 1.09964 1329.98 1.20641 1327.34 1.31317C1324.71 1.04626 1321.19 0.886121 1315.88 1.04626C1313.25 1.15302 1309.73 1.04626 1306.2 1.04626C1302.68 1.04626 1300.05 1.15302 1296.52 1.15302H1290.37C1289.47 1.20641 1287.74 1.31317 1285.06 1.41993V1.15302C1279.8 0.992883 1278.01 1.41993 1273.6 1.41993C1272.7 1.36655 1272.7 1.25979 1272.7 1.20641H1260.35C1256.82 0.992883 1251.52 1.20641 1246.25 1.20641H1241.84C1234.79 1.04626 1228.63 1.04626 1223.33 1.36655C1222.43 1.31317 1221.59 1.25979 1220.69 1.15302C1218.91 1.25979 1217.17 1.36655 1214.54 1.47331C1212.75 1.36655 1211.02 1.25979 1209.28 1.20641C1208.38 1.15302 1206.64 1.15302 1204.86 1.15302C1199.6 1.20641 1194.29 1.25979 1189.87 1.31317C1184.56 1.41993 1180.19 1.31317 1175.78 1.31317H1167.84C1165.21 1.09964 1163.42 1.31317 1160.79 1.31317C1158.16 1.36655 1152.85 1.52669 1152.85 1.52669V1.25979C1147.59 1.20641 1142.28 1.15302 1138.76 1.36655C1135.23 1.31317 1131.71 1.31317 1128.18 1.31317C1128.18 1.15302 1124.66 1.20641 1122.88 1.20641C1121.09 1.25979 1118.46 1.25979 1115.83 1.25979H1111.41C1108.78 1.20641 1105.26 1.36655 1101.73 1.36655V1.20641C1099.99 1.25979 1098.21 1.31317 1098.21 1.31317C1097.32 1.36655 1095.58 1.41993 1095.58 1.41993C1091.16 1.47331 1089.42 1.47331 1087.64 1.58007C1085.85 1.41993 1084.12 1.31317 1082.33 1.20641C1078.81 1.20641 1075.28 1.52669 1070.87 1.20641C1069.98 1.25979 1068.24 1.36655 1067.34 1.36655C1064.4 1.2242 1060.28 1.25979 1054.99 1.47331V1.20641C1052.36 1.25979 1050.57 1.31317 1047.94 1.36655C1047.05 1.31317 1046.16 1.25979 1046.16 1.20641C1044.37 1.25979 1042.63 1.36655 1040.85 1.36655C1039.06 1.31317 1039.06 1.25979 1039.06 1.25979C1033.8 1.36655 1028.49 1.15302 1024.08 1.41993C1017.03 1.09964 1009.98 1.25979 1003.83 1.52669C1001.2 1.31317 996.779 1.25979 992.364 1.20641C986.208 1.15302 982.684 1.36655 979.161 1.47331C976.529 1.36655 973.897 1.20641 971.221 1.20641C968.589 1.25979 966.805 1.41993 963.281 1.52669C965.021 1.41993 965.021 1.31317 965.021 1.25979H964.129C962.345 1.31317 959.713 1.41993 957.973 1.41993C956.189 1.31317 954.45 1.20641 953.558 1.20641C949.142 1.20641 945.618 1.25979 942.986 1.41993C941.202 1.52669 939.463 1.63345 936.831 1.68683C937.723 1.58007 938.615 1.47331 938.615 1.36655C936.831 1.25979 934.199 1.47331 933.307 1.25979C933.307 1.25979 928.891 1.20641 928.044 1.25979C922.78 1.47331 918.365 1.47331 913.949 1.20641C911.317 1.31317 908.685 1.41993 906.009 1.52669C906.901 1.47331 907.793 1.36655 907.793 1.31317H892.806C887.498 1.31317 883.127 1.41993 877.819 1.52669V1.31317C874.295 1.36655 869.879 1.41993 866.356 1.41993C862.832 1.41993 860.2 1.41993 857.524 1.31317H853.108C849.584 1.47331 847.8 1.47331 846.061 1.31317C842.537 1.41993 839.013 1.52669 835.489 1.63345V1.31317C826.658 1.41993 817.87 1.25979 809.039 1.41993H806.407C802.883 1.31317 800.252 1.36655 798.467 1.58007C797.575 1.52669 795.836 1.52669 795.836 1.52669C790.572 1.31317 787.896 1.31317 783.48 1.52669C779.957 1.68683 776.433 1.79359 772.017 1.58007H769.385C764.077 1.84698 758.814 1.52669 753.506 1.68683H751.722V1.47331C749.09 1.52669 747.306 1.58007 744.674 1.58007C742.89 1.58007 740.258 1.47331 737.627 1.47331C734.995 1.47331 733.211 1.63345 730.579 1.74021C729.687 1.63345 727.948 1.58007 727.948 1.47331C724.424 1.58007 720.9 1.68683 717.376 1.47331C714.745 1.63345 712.068 1.74021 710.329 1.90036C712.113 1.79359 712.113 1.68683 712.113 1.52669C706.85 1.63345 701.542 1.68683 697.126 1.52669C696.234 1.52669 694.494 1.63345 692.71 1.63345C690.926 1.63345 689.186 1.84697 686.555 1.63345C685.663 1.52669 683.031 1.68683 680.399 1.52669C678.615 1.36655 675.136 1.36655 672.46 1.52669C669.828 1.63345 668.044 1.74021 664.52 1.63345C664.52 1.63345 663.628 1.68683 661.888 1.68683V1.47331H640.746C638.114 1.47331 633.698 1.68683 633.698 1.68683C630.754 1.6121 626.651 1.63345 621.343 1.74021V1.41993C618.711 1.52669 616.035 1.63345 613.403 1.74021C613.403 1.63345 615.143 1.52669 615.143 1.41993C612.511 1.52669 610.727 1.63345 607.203 1.74021C605.419 1.68683 603.679 1.58007 601.048 1.47331C599.263 1.47331 595.784 1.58007 592.216 1.58007C591.324 1.52669 590.432 1.47331 590.432 1.41993C585.168 1.68683 578.968 1.68683 571.921 1.58007C568.397 1.52669 565.766 1.58007 562.242 1.47331C560.502 1.41993 557.826 1.58007 555.194 1.58007C553.41 1.58007 550.778 1.47331 548.147 1.47331C546.362 1.47331 544.623 1.58007 543.731 1.63345C541.947 1.74021 540.207 1.84698 537.575 1.84698C538.467 1.74021 539.315 1.63345 540.207 1.47331H536.683C531.42 1.47331 526.112 1.58007 520.804 1.47331C518.172 1.41993 515.541 1.58007 512.865 1.63345C511.125 1.58007 509.341 1.52669 507.601 1.47331C505.862 1.52669 504.077 1.63345 501.446 1.52669C500.554 1.47331 497.922 1.63345 495.29 1.74021C494.398 1.68683 494.398 1.52669 494.398 1.52669H489.982C486.459 1.58007 482.935 1.63345 479.411 1.63345H477.627C473.211 1.41993 468.795 1.52669 465.271 1.63345C464.379 1.74021 461.748 1.63345 460.856 1.63345C455.592 1.47331 451.176 1.47331 446.76 1.63345H444.129C441.497 1.63345 439.713 1.41993 436.189 1.52669C433.558 1.58007 430.034 1.63345 427.357 1.63345C423.834 1.68683 421.202 1.68683 417.678 1.68683C417.678 1.63345 418.57 1.58007 419.462 1.41993C415.939 1.63345 413.307 1.58007 410.631 1.58007C408.847 1.52669 406.215 1.58007 404.475 1.58007H394.796C390.38 1.36655 385.117 1.47331 380.701 1.47331C375.393 1.41993 371.022 1.41993 366.606 1.68683C365.714 1.79359 363.974 1.79359 362.19 1.79359C362.19 1.68683 363.974 1.58007 363.974 1.47331H362.19C359.559 1.52669 357.774 1.58007 356.035 1.58007C350.727 1.47331 346.356 1.58007 341.94 1.68683C341.048 1.63345 340.156 1.52669 339.308 1.47331C336.676 1.58007 334.892 1.63345 333.153 1.74021C330.521 1.52669 328.737 1.36655 324.321 1.52669H321.689C317.273 1.41993 313.75 1.47331 310.226 1.58007C309.334 1.63345 306.702 1.68683 305.81 1.52669H301.394C297.87 1.63345 294.347 1.68683 290.823 1.79359C289.039 1.90036 288.191 1.90036 286.407 1.79359C284.623 1.68683 281.991 1.68683 279.36 1.63345C277.575 1.52669 274.944 1.52669 273.204 1.63345H270.572C266.157 1.47331 261.741 1.58007 258.217 1.74021C257.325 1.79359 255.585 1.79359 255.585 1.79359V1.58007C253.801 1.68683 252.062 1.74021 249.43 1.84698V1.52669C247.646 1.58007 245.906 1.63345 244.122 1.68683C242.338 1.41993 238.814 1.58007 236.182 1.58007C233.551 1.58007 230.874 1.79359 227.351 1.58007C226.459 1.52669 223.827 1.68683 221.195 1.74021V1.52669C212.363 1.47331 204.468 1.74021 194.745 1.74021C195.637 1.68683 195.637 1.63345 195.637 1.52669C193.005 1.68683 190.329 1.36655 186.805 1.52669C184.173 1.68683 180.65 1.68683 177.126 1.79359C176.234 1.68683 175.342 1.63345 175.342 1.58007C173.558 1.63345 171.818 1.74021 168.294 1.84698C169.186 1.68683 170.926 1.58007 170.926 1.47331H166.51C162.986 1.41993 159.462 1.41993 155.939 1.41993C151.523 1.41993 146.26 1.41993 142.736 1.74021C142.736 1.79359 140.952 1.79359 139.212 1.84698C140.104 1.74021 140.996 1.68683 140.996 1.58007C137.472 1.68683 135.688 1.31317 131.317 1.41993C126.901 1.52669 123.377 1.58007 118.962 1.68683V1.47331H115.438C109.282 1.63345 103.082 1.41993 97.8189 1.63345C97.8189 1.63345 96.0348 1.52669 95.1873 1.52669C94.2952 1.58007 93.4031 1.63345 91.6635 1.68683C87.2477 1.36655 82.8318 1.63345 77.5685 1.68683C75.7843 1.63345 74.9368 1.58007 73.1526 1.47331C71.3684 1.58007 68.7368 1.68683 66.9972 1.79359C65.213 1.68683 63.4734 1.58007 61.6893 1.47331C58.1655 1.63345 54.6417 1.74021 50.2259 1.84698V1.47331C44.0704 1.52669 39.6546 1.84697 32.6071 1.79359C33.4992 1.74021 34.3913 1.68683 34.3913 1.58007C29.0833 1.36655 28.2358 1.79359 23.82 1.79359C24.7121 1.68683 24.7121 1.58007 24.7121 1.47331C22.0804 1.58007 20.2962 1.68683 17.6645 1.79359C14.1408 1.74021 12.3566 1.47331 8.83284 1.63345L7.04865 1.58007C6.15656 1.36655 2.6328 1.20641 2.6328 0.950178C2.6328 0.83274 2.32057 0.704626 2.32057 0.587189C-0.578728 1.07829 -0.534123 1.53737 1.16085 2.04982C5.5767 1.99644 7.31628 2.04982 7.31628 2.15658C6.42419 2.26335 4.68461 2.42349 7.31628 2.42349C9.94795 2.37011 9.94795 2.58363 11.7321 2.58363C15.2559 2.47687 19.6717 2.79715 24.0876 2.58363C24.9797 2.53025 27.6114 2.58363 27.6114 2.58363C30.243 2.74377 32.0272 2.69039 34.6589 2.58363C36.4431 2.47687 42.5985 2.31673 42.5985 2.31673V2.58363C45.2302 2.58363 47.9064 2.53025 48.7539 2.58363C54.0619 2.85053 58.4331 2.69039 62.849 2.58363C67.2648 2.85053 71.6807 2.69039 76.0519 2.69039C81.3599 2.74377 83.9915 2.31673 88.4074 2.31673V2.53025C90.1916 2.47687 91.039 2.42349 92.8232 2.37011V2.53025C98.1312 2.79715 103.395 2.53025 107.81 2.37011C109.595 2.47687 111.334 2.53025 112.226 2.63701C115.75 2.58363 118.382 2.47687 121.905 2.37011C122.798 2.69039 127.213 2.47687 128.953 2.58363C132.477 2.74377 134.261 2.47687 137.785 2.47687C138.677 2.53025 139.569 2.63701 140.416 2.63701H145.724C149.248 2.69039 152.772 2.63701 156.296 2.58363H161.603C164.235 2.69039 167.759 2.69039 170.435 2.69039C173.067 2.74377 175.743 2.69039 178.375 2.69039C183.683 2.69039 188.946 2.74377 193.362 2.47687C194.254 2.42349 195.994 2.53025 197.778 2.53025C196.886 2.63701 196.886 2.69039 196.886 2.74377C203.041 2.90391 207.457 2.69039 212.765 2.42349C210.981 2.58363 210.981 2.63701 210.981 2.69039C211.873 2.63701 213.612 2.53025 215.397 2.53025V2.69039C217.181 2.69039 218.92 2.47687 220.705 2.69039H224.228C226.012 2.63701 226.86 2.53025 228.644 2.47687H230.428V2.79715C234.844 2.69039 237.476 2.58363 241 2.47687C241.892 2.58363 241.892 2.63701 241.892 2.69039C244.523 2.58363 247.2 2.47687 249.831 2.69039C250.723 2.74377 252.463 2.74377 253.355 2.74377C257.771 2.69039 262.187 2.74377 265.711 2.53025H269.234V2.79715C271.866 2.74377 275.39 2.63701 278.066 2.58363V2.69039C285.114 2.69039 291.269 2.90391 297.469 2.69039H300.993C306.301 2.74377 311.564 2.9573 316.872 2.69039C318.656 2.63701 323.027 2.63701 323.027 2.69039C323.919 2.85053 326.551 2.79715 328.335 2.79715C331.859 2.79715 336.275 2.69039 340.691 2.63701C345.999 2.90391 348.63 2.90391 355.678 2.63701C358.31 2.53025 361.833 2.42349 364.51 2.31673C363.618 2.42349 361.878 2.58363 360.094 2.74377H365.402C368.926 2.74377 372.449 2.63701 375.973 2.63701C381.281 2.69039 384.805 2.58363 388.328 2.37011H390.96C390.96 2.53025 389.176 2.63701 389.176 2.79715C395.331 2.74377 401.531 2.74377 407.687 2.69039C410.319 2.69039 412.995 2.69039 414.734 2.79715C416.519 2.74377 417.366 2.69039 419.15 2.63701C420.934 2.85053 423.566 2.85053 426.198 2.74377C427.982 2.69039 429.722 2.58363 431.506 2.53025H432.398V2.74377C436.814 2.74377 442.077 2.37011 447.385 2.74377C452.693 2.47687 458.848 2.47687 465.004 2.47687C466.743 2.53025 467.635 2.63701 468.528 2.63701H471.159C472.943 2.79715 474.683 2.74377 477.315 2.63701H479.946C485.21 2.79715 489.625 2.63701 494.041 2.47687C494.933 2.53025 495.826 2.58363 496.673 2.58363C501.089 2.74377 504.613 2.74377 508.136 2.47687C509.028 2.42349 510.768 2.37011 511.66 2.31673C509.876 2.47687 508.136 2.58363 507.244 2.69039C511.66 2.58363 515.184 2.31673 520.447 2.53025C521.339 2.58363 521.339 2.69039 521.339 2.69039H531.911C535.434 2.69039 538.066 2.58363 541.59 2.47687V2.63701C546.006 2.58363 550.422 2.53025 553.053 2.53025C555.685 2.58363 557.469 2.69039 558.361 2.69039C561.885 2.69039 565.409 2.58363 568.932 2.58363C571.564 2.58363 575.088 2.53025 576.872 2.58363C580.396 2.69039 582.18 2.58363 584.812 2.47687C586.596 2.42349 587.443 2.31673 589.227 2.31673C588.335 2.37011 586.596 2.47687 586.596 2.53025C589.227 2.47687 591.904 2.47687 591.904 2.47687C594.535 2.63701 596.32 2.58363 599.843 2.47687H604.259C608.675 2.69039 611.307 2.58363 614.83 2.47687C616.615 2.37011 619.246 2.26335 622.77 2.15658C621.878 2.37011 621.878 2.47687 621.878 2.58363C625.402 2.85053 627.141 2.42349 631.557 2.53025C633.341 2.58363 636.82 2.37011 641.236 2.26335C640.344 2.42349 638.605 2.47687 638.605 2.58363V2.63701C643.021 2.47687 647.436 2.37011 652.7 2.26335C655.331 2.31673 659.747 2.47687 663.271 2.58363C665.903 2.37011 669.426 2.42349 672.95 2.53025C676.474 2.37011 679.998 2.26335 682.629 2.15658C681.737 2.26335 679.998 2.37011 679.106 2.47687C681.737 2.69039 684.369 2.26335 687.937 2.47687C689.721 2.58363 692.353 2.31673 695.877 2.37011C697.661 2.37011 701.14 2.26335 704.664 2.20996V2.53025C708.188 2.42349 709.972 2.31673 712.604 2.20996V2.47687C714.388 2.42349 716.127 2.31673 717.912 2.31673C718.804 2.37011 720.543 2.47687 721.435 2.47687C724.067 2.47687 727.591 2.47687 730.223 2.31673H732.007V2.47687H742.578C746.102 2.42349 747.886 2.31673 751.41 2.31673C754.933 2.31673 757.565 2.47687 760.241 2.47687H771.705C777.86 2.53025 783.168 2.53025 787.584 2.26335H789.324V2.47687C791.955 2.42349 793.739 2.37011 795.479 2.37011H804.311C806.942 2.37011 809.619 2.53025 812.25 2.37011L814.034 2.42349H817.558C820.19 2.37011 821.974 2.26335 824.606 2.20996C825.498 2.31673 826.345 2.37011 826.345 2.47687C829.869 2.42349 834.285 2.31673 837.809 2.26335C838.701 2.37011 838.701 2.42349 838.701 2.47687H842.225C845.748 2.63701 849.272 2.31673 852.796 2.47687C855.428 2.26335 857.212 2.42349 858.951 2.47687C864.215 2.37011 868.63 2.31673 873.046 2.20996C872.154 2.42349 873.938 2.53025 876.57 2.53025C881.833 2.53025 886.249 2.47687 889.773 2.26335C890.665 2.20996 892.405 2.20996 892.405 2.20996V2.42349C897.103 2.28114 900.329 2.29893 902.084 2.47687C904.716 2.37011 908.239 2.26335 911.763 2.1032C912.655 2.26335 913.547 2.42349 914.395 2.53025C916.134 2.47687 918.811 2.53025 921.442 2.53025H946.109C947.848 2.53025 949.632 2.37011 951.417 2.31673C952.309 2.26335 954.048 2.15658 954.94 2.15658C954.048 2.20996 953.201 2.26335 952.309 2.37011C954.048 2.31673 955.832 2.20996 956.724 2.20996C961.14 2.31673 957.617 2.37011 956.724 2.53025C960.248 2.42349 961.988 2.42349 963.772 2.31673C967.296 2.1032 970.82 2.20996 974.343 2.20996C976.975 2.26335 979.607 2.37011 981.391 2.42349C984.915 2.31673 986.654 2.26335 989.33 2.15658C990.223 2.20996 991.962 2.31673 991.962 2.31673C993.746 2.20996 995.486 2.20996 995.486 2.20996C997.27 2.31673 998.118 2.42349 999.01 2.42349C1001.64 2.47687 1003.43 2.47687 1006.06 2.47687C1009.58 2.47687 1013.1 2.53025 1015.74 2.47687C1019.26 2.37011 1021.89 2.42349 1024.57 2.47687C1028.98 2.58363 1033.36 2.58363 1036.92 2.42349C1038.66 2.31673 1040.45 2.20996 1042.19 2.42349H1052.76C1054.54 2.31673 1056.28 2.47687 1057.17 2.47687C1060.7 2.42349 1064.22 2.37011 1065.96 2.42349C1072.12 2.53025 1077.42 2.47687 1083.58 2.42349C1088 2.31673 1092.41 2.20996 1095.94 2.42349C1099.46 2.31673 1102.98 2.20996 1106.51 2.1032V2.15658C1105.61 2.26335 1103.88 2.31673 1103.88 2.42349C1108.29 2.37011 1111.81 2.31673 1116.23 2.31673C1120.65 2.58363 1122.39 2.47687 1128.59 2.26335C1132.11 2.31673 1135.63 2.42349 1138.27 2.42349C1144.42 2.31673 1149.73 2.42349 1154.99 2.42349C1161.15 2.42349 1166.46 2.37011 1171.72 2.15658C1172.61 2.20996 1172.61 2.31673 1172.61 2.31673C1177.03 2.20996 1181.4 2.26335 1185.81 2.47687C1189.34 2.31673 1191.97 2.31673 1195.49 2.47687C1197.23 2.37011 1199.91 2.26335 1202.54 2.1032C1201.65 2.42349 1208.7 2.04982 1207.8 2.42349C1208.7 2.37011 1210.44 2.31673 1212.22 2.26335C1216.64 2.58363 1221.9 2.47687 1226.31 2.26335C1227.21 2.31673 1227.21 2.42349 1227.21 2.42349C1230.73 2.47687 1233.36 2.15658 1236.89 2.42349C1238.67 2.37011 1240.41 2.31673 1242.19 2.20996C1244.83 2.37011 1248.35 2.42349 1251.87 2.37011H1257.14C1260.66 2.47687 1265.08 2.37011 1268.6 2.47687C1269.49 2.47687 1271.23 2.37011 1273.02 2.37011C1273.91 2.31673 1275.65 2.31673 1276.54 2.31673C1279.17 2.37011 1280.96 2.31673 1282.69 2.20996H1284.48C1285.37 2.31673 1285.37 2.42349 1285.37 2.47687C1291.53 2.69039 1293.31 2.26335 1297.73 2.26335V2.53025H1302.99C1307.41 2.63701 1310.93 2.58363 1314.45 2.42349C1316.24 2.31673 1318.87 2.26335 1322.39 2.15658C1320.61 2.37011 1318.87 2.47687 1316.24 2.58363C1319.76 2.63701 1323.28 2.63701 1325.92 2.47687C1326.81 2.42349 1328.55 2.31673 1330.33 2.31673H1331.22C1330.33 2.42349 1329.44 2.47687 1329.44 2.58363C1331.22 2.47687 1333.86 2.42349 1335.6 2.31673C1336.49 2.42349 1337.38 2.47687 1337.38 2.58363C1340.9 2.47687 1343.54 2.31673 1347.06 2.20996C1346.17 2.31673 1344.43 2.42349 1344.43 2.47687C1350.58 2.69039 1354.11 2.42349 1359.41 2.26335C1358.52 2.37011 1357.68 2.42349 1357.68 2.58363C1362.09 2.53025 1365.61 2.42349 1369.14 2.42349C1374.45 2.47687 1377.08 2.37011 1381.49 2.26335C1384.13 2.20996 1385.91 2.20996 1387.65 2.37011H1389.43C1391.22 2.20996 1392.96 2.37011 1394.74 2.37011H1400.05C1400.94 2.31673 1401.83 2.26335 1403.57 2.37011C1405.36 2.42349 1407.99 2.31673 1409.73 2.37011C1414.14 2.53025 1416.78 2.42349 1419.41 2.26335C1420.3 2.20996 1421.19 2.15658 1423.82 2.04982C1422.93 2.20996 1422.04 2.31673 1421.19 2.47687C1424.72 2.37011 1426.5 2.26335 1428.24 2.26335C1430.02 2.20996 1433.55 2.20996 1433.55 2.20996C1437.07 2.42349 1441.49 2.26335 1445.01 2.42349H1448.53C1451.17 2.26335 1452.95 2.37011 1455.58 2.42349C1455.98 2.41281 1456.34 2.40214 1456.7 2.38078L1459.11 2.26335C1459.11 2.26335 1458.04 2.3274 1456.7 2.38078L1449.65 2.7331C1449.65 2.7331 1449.43 2.78648 1449.43 2.79715C1450.32 2.74377 1452.95 2.74377 1452.95 2.74377C1456.47 2.9573 1459.11 2.79715 1461.78 2.74377H1463.57C1462.67 2.79715 1461.78 2.90391 1461.78 3.01068C1465.31 2.90391 1467.94 2.90391 1470.61 2.90391C1475.92 2.90391 1477.66 2.85053 1482.97 2.90391H1488.28C1491.8 2.85053 1495.32 2.69039 1499.74 2.58363C1498.85 2.74377 1497.96 2.79715 1497.96 2.90391C1505 3.01068 1505.9 2.9573 1509.42 2.63701C1510.31 2.74377 1511.2 2.79715 1511.2 2.90391H1514.73C1520.04 2.90391 1525.3 3.01068 1530.61 2.79715C1532.39 2.74377 1535.91 2.74377 1537.65 2.79715C1543.81 2.9573 1549.12 2.90391 1555.27 2.90391C1558.8 2.9573 1560.58 2.79715 1558.8 2.58363C1558.8 2.42349 1557.9 2.26335 1558.8 2.1032V1.8363C1557.01 1.88968 1555.27 1.94306 1552.64 1.94306C1555.27 1.67616 1557.06 1.51601 1559.69 1.36655H1554.38C1555.27 1.20641 1556.17 1.04626 1557.01 0.939502C1560.54 0.725979 1560.54 0.459075 1560.54 0.202847C1560.54 0.128114 1560.31 0.0640569 1560.14 0C1554.56 0.202847 1548.85 0.266904 1543.1 0.224199H1542.56Z" fill="#363428"/>
</svg>
