<svg width="1726" height="4" viewBox="0 0 1726 4" fill="none" xmlns="http://www.w3.org/2000/svg">
<path d="M1705.72 0.224199C1704.14 0.384342 1702.17 0.533808 1698.66 0.565836C1697.68 0.565836 1695.75 0.672598 1695.75 0.672598C1693.78 0.886121 1689.88 0.83274 1685.99 0.83274C1683.08 0.886121 1681.11 1.09964 1677.21 0.886121C1673.31 0.992883 1668.43 0.939502 1665.52 1.09964C1661.62 1.31317 1657.73 1.36655 1652.84 1.20641V1.04626C1646.97 1.15302 1642.14 1.20641 1636.27 1.31317C1634.3 1.25979 1633.36 1.15302 1632.37 1.04626C1629.46 1.15302 1627.49 1.41993 1625.57 1.04626C1621.67 1.04626 1617.78 1.04626 1614.87 1.25979H1605.15C1603.18 1.31317 1601.25 1.36655 1597.36 1.41993C1599.33 1.25979 1600.27 1.15302 1602.24 0.992883C1596.37 1.15302 1591.54 1.25979 1586.65 1.41993V1.04626C1581.77 1.09964 1577.87 1.15302 1573.98 1.20641C1572.99 1.09964 1572 1.04626 1571.07 0.992883C1569.09 1.04626 1567.17 1.15302 1564.26 1.15302C1561.35 0.939502 1557.45 0.939502 1553.56 1.04626C1549.66 1.15302 1546.75 1.31317 1543.79 1.04626H1541.82C1538.91 1.09964 1535.01 1.04626 1533.04 1.04626C1530.13 1.09964 1528.16 1.04626 1525.25 1.04626C1523.27 1.04626 1522.34 1.09964 1520.36 1.09964C1517.45 1.15302 1514.49 1.20641 1511.58 1.20641C1506.7 1.15302 1502.81 1.25979 1497.92 1.41993V1.04626C1495.95 1.04626 1494.03 1.15302 1491.12 1.04626H1488.21C1486.23 1.15302 1484.31 1.20641 1483.32 1.04626H1473.56C1472.57 1.09964 1470.65 1.20641 1467.74 1.31317C1464.83 1.04626 1460.93 0.886121 1455.06 1.04626C1452.15 1.15302 1448.25 1.04626 1444.36 1.04626C1440.46 1.04626 1437.55 1.15302 1433.66 1.15302H1426.85C1425.86 1.20641 1423.94 1.31317 1420.98 1.41993V1.15302C1415.16 0.992883 1413.19 1.41993 1408.3 1.41993C1407.32 1.36655 1407.32 1.25979 1407.32 1.20641H1393.65C1389.76 0.992883 1383.89 1.20641 1378.07 1.20641H1373.19C1365.39 1.04626 1358.59 1.04626 1352.72 1.36655C1351.73 1.31317 1350.79 1.25979 1349.81 1.15302C1347.83 1.25979 1345.91 1.36655 1343 1.47331C1341.03 1.36655 1339.1 1.25979 1337.18 1.20641C1336.19 1.15302 1334.27 1.15302 1332.3 1.15302C1326.48 1.20641 1320.61 1.25979 1315.73 1.31317C1309.86 1.41993 1305.02 1.31317 1300.14 1.31317H1291.36C1288.45 1.09964 1286.48 1.31317 1283.57 1.31317C1280.66 1.36655 1274.79 1.52669 1274.79 1.52669V1.25979C1268.97 1.20641 1263.1 1.15302 1259.2 1.36655C1255.31 1.31317 1251.41 1.31317 1247.51 1.31317C1247.51 1.15302 1243.62 1.20641 1241.64 1.20641C1239.67 1.25979 1236.76 1.25979 1233.85 1.25979H1228.97C1226.06 1.20641 1222.16 1.36655 1218.26 1.36655V1.20641C1216.34 1.25979 1214.37 1.31317 1214.37 1.31317C1213.38 1.36655 1211.46 1.41993 1211.46 1.41993C1206.57 1.47331 1204.65 1.47331 1202.68 1.58007C1200.71 1.41993 1198.78 1.31317 1196.81 1.20641C1192.91 1.20641 1189.02 1.52669 1184.13 1.20641C1183.15 1.25979 1181.22 1.36655 1180.24 1.36655C1176.98 1.2242 1172.43 1.25979 1166.57 1.47331V1.20641C1163.66 1.25979 1161.69 1.31317 1158.78 1.36655C1157.8 1.31317 1156.81 1.25979 1156.81 1.20641C1154.84 1.25979 1152.91 1.36655 1150.94 1.36655C1148.97 1.31317 1148.97 1.25979 1148.97 1.25979C1143.15 1.36655 1137.28 1.15302 1132.39 1.41993C1124.6 1.09964 1116.81 1.25979 1110 1.52669C1107.09 1.31317 1102.21 1.25979 1097.33 1.20641C1090.52 1.15302 1086.62 1.36655 1082.73 1.47331C1079.82 1.36655 1076.91 1.20641 1073.95 1.20641C1071.04 1.25979 1069.06 1.41993 1065.17 1.52669C1067.09 1.41993 1067.09 1.31317 1067.09 1.25979H1066.1C1064.13 1.31317 1061.22 1.41993 1059.3 1.41993C1057.33 1.31317 1055.4 1.20641 1054.42 1.20641C1049.53 1.20641 1045.64 1.25979 1042.73 1.41993C1040.75 1.52669 1038.83 1.63345 1035.92 1.68683C1036.91 1.58007 1037.89 1.47331 1037.89 1.36655C1035.92 1.25979 1033.01 1.47331 1032.02 1.25979C1032.02 1.25979 1027.14 1.20641 1026.2 1.25979C1020.38 1.47331 1015.5 1.47331 1010.62 1.20641C1007.71 1.31317 1004.8 1.41993 1001.84 1.52669C1002.82 1.47331 1003.81 1.36655 1003.81 1.31317H987.238C981.369 1.31317 976.535 1.41993 970.666 1.52669V1.31317C966.77 1.36655 961.887 1.41993 957.99 1.41993C954.094 1.41993 951.184 1.41993 948.224 1.31317H943.341C939.445 1.47331 937.472 1.47331 935.548 1.31317C931.652 1.41993 927.756 1.52669 923.859 1.63345V1.31317C914.093 1.41993 904.377 1.25979 894.611 1.41993H891.701C887.804 1.31317 884.894 1.36655 882.922 1.58007C881.935 1.52669 880.012 1.52669 880.012 1.52669C874.191 1.31317 871.232 1.31317 866.349 1.52669C862.453 1.68683 858.556 1.79359 853.673 1.58007H850.763C844.894 1.84698 839.074 1.52669 833.205 1.68683H831.232V1.47331C828.322 1.52669 826.349 1.58007 823.439 1.58007C821.466 1.58007 818.556 1.47331 815.646 1.47331C812.736 1.47331 810.763 1.63345 807.853 1.74021C806.866 1.63345 804.943 1.58007 804.943 1.47331C801.046 1.58007 797.15 1.68683 793.254 1.47331C790.344 1.63345 787.384 1.74021 785.461 1.90036C787.433 1.79359 787.433 1.68683 787.433 1.52669C781.613 1.63345 775.744 1.68683 770.861 1.52669C769.875 1.52669 767.951 1.63345 765.978 1.63345C764.005 1.63345 762.082 1.84698 759.172 1.63345C758.185 1.52669 755.275 1.68683 752.365 1.52669C750.392 1.36655 746.545 1.36655 743.586 1.52669C740.676 1.63345 738.703 1.74021 734.807 1.63345C734.807 1.63345 733.82 1.68683 731.897 1.68683V1.47331H708.518C705.608 1.47331 700.725 1.68683 700.725 1.68683C697.47 1.6121 692.932 1.63345 687.062 1.74021V1.41993C684.152 1.52669 681.193 1.63345 678.283 1.74021C678.283 1.63345 680.207 1.52669 680.207 1.41993C677.297 1.52669 675.324 1.63345 671.427 1.74021C669.454 1.68683 667.531 1.58007 664.621 1.47331C662.648 1.47331 658.801 1.58007 654.855 1.58007C653.869 1.52669 652.882 1.47331 652.882 1.41993C647.062 1.68683 640.206 1.68683 632.413 1.58007C628.517 1.52669 625.607 1.58007 621.71 1.47331C619.787 1.41993 616.827 1.58007 613.917 1.58007C611.945 1.58007 609.035 1.47331 606.125 1.47331C604.152 1.47331 602.228 1.58007 601.242 1.63345C599.269 1.74021 597.345 1.84698 594.435 1.84698C595.422 1.74021 596.359 1.63345 597.345 1.47331H593.449C587.629 1.47331 581.759 1.58007 575.89 1.47331C572.98 1.41993 570.07 1.58007 567.111 1.63345C565.187 1.58007 563.214 1.52669 561.291 1.47331C559.367 1.52669 557.394 1.63345 554.484 1.52669C553.498 1.47331 550.588 1.63345 547.678 1.74021C546.691 1.68683 546.691 1.52669 546.691 1.52669H541.808C537.912 1.58007 534.015 1.63345 530.119 1.63345H528.146C523.263 1.41993 518.38 1.52669 514.484 1.63345C513.497 1.74021 510.587 1.63345 509.601 1.63345C503.781 1.47331 498.898 1.47331 494.015 1.63345H491.105C488.195 1.63345 486.222 1.41993 482.325 1.52669C479.415 1.58007 475.519 1.63345 472.56 1.63345C468.663 1.68683 465.753 1.68683 461.857 1.68683C461.857 1.63345 462.843 1.58007 463.83 1.41993C459.933 1.63345 457.023 1.58007 454.064 1.58007C452.091 1.52669 449.181 1.58007 447.257 1.58007H436.554C431.671 1.36655 425.851 1.47331 420.968 1.47331C415.099 1.41993 410.265 1.41993 405.383 1.68683C404.396 1.79359 402.473 1.79359 400.5 1.79359C400.5 1.68683 402.473 1.58007 402.473 1.47331H400.5C397.59 1.52669 395.617 1.58007 393.693 1.58007C387.824 1.47331 382.99 1.58007 378.107 1.68683C377.121 1.63345 376.134 1.52669 375.197 1.47331C372.287 1.58007 370.314 1.63345 368.391 1.74021C365.481 1.52669 363.508 1.36655 358.625 1.52669H355.715C350.832 1.41993 346.936 1.47331 343.039 1.58007C342.053 1.63345 339.143 1.68683 338.156 1.52669H333.273C329.377 1.63345 325.48 1.68683 321.584 1.79359C319.611 1.90036 318.674 1.90036 316.701 1.79359C314.728 1.68683 311.818 1.68683 308.908 1.63345C306.935 1.52669 304.025 1.52669 302.102 1.63345H299.192C294.309 1.47331 289.426 1.58007 285.529 1.74021C284.543 1.79359 282.619 1.79359 282.619 1.79359V1.58007C280.646 1.68683 278.723 1.74021 275.813 1.84698V1.52669C273.84 1.58007 271.916 1.63345 269.943 1.68683C267.97 1.41993 264.074 1.58007 261.164 1.58007C258.254 1.58007 255.295 1.79359 251.398 1.58007C250.412 1.52669 247.502 1.68683 244.592 1.74021V1.52669C234.826 1.47331 226.096 1.74021 215.343 1.74021C216.33 1.68683 216.33 1.63345 216.33 1.52669C213.42 1.68683 210.461 1.36655 206.564 1.52669C203.654 1.68683 199.758 1.68683 195.861 1.79359C194.875 1.68683 193.888 1.63345 193.888 1.58007C191.915 1.63345 189.992 1.74021 186.095 1.84698C187.082 1.68683 189.005 1.58007 189.005 1.47331H184.122C180.226 1.41993 176.33 1.41993 172.433 1.41993C167.55 1.41993 161.73 1.41993 157.834 1.74021C157.834 1.79359 155.861 1.79359 153.937 1.84698C154.924 1.74021 155.91 1.68683 155.91 1.58007C152.014 1.68683 150.041 1.31317 145.207 1.41993C140.324 1.52669 136.428 1.58007 131.545 1.68683V1.47331H127.648C120.842 1.63345 113.986 1.41993 108.166 1.63345C108.166 1.63345 106.193 1.52669 105.256 1.52669C104.27 1.58007 103.283 1.63345 101.36 1.68683C96.4766 1.36655 91.5937 1.63345 85.7737 1.68683C83.8008 1.63345 82.8636 1.58007 80.8907 1.47331C78.9178 1.58007 76.0078 1.68683 74.0843 1.79359C72.1114 1.68683 70.1878 1.58007 68.2149 1.47331C64.3184 1.63345 60.422 1.74021 55.5391 1.84698V1.47331C48.7326 1.52669 43.8497 1.84697 36.0567 1.79359C37.0432 1.74021 38.0296 1.68683 38.0296 1.58007C32.1603 1.36655 31.2231 1.79359 26.3402 1.79359C27.3267 1.68683 27.3267 1.58007 27.3267 1.47331C24.4166 1.58007 22.4438 1.68683 19.5337 1.79359C15.6373 1.74021 13.6644 1.47331 9.7679 1.63345L7.79501 1.58007C6.80856 1.36655 2.9121 1.20641 2.9121 0.950178C2.9121 0.83274 2.56684 0.704626 2.56684 0.587189C-0.639113 1.07829 -0.589791 1.53737 1.28446 2.04982C6.16737 1.99644 8.09094 2.04982 8.09094 2.15658C7.1045 2.26335 5.18093 2.42349 8.09094 2.42349C11.001 2.37011 11.001 2.58363 12.9739 2.58363C16.8703 2.47687 21.7532 2.79715 26.6362 2.58363C27.6226 2.53025 30.5326 2.58363 30.5326 2.58363C33.4426 2.74377 35.4155 2.69039 38.3255 2.58363C40.2984 2.47687 47.1049 2.31673 47.1049 2.31673V2.58363C50.015 2.58363 52.9743 2.53025 53.9114 2.58363C59.7808 2.85053 64.6144 2.69039 69.4973 2.58363C74.3802 2.85053 79.2631 2.69039 84.0967 2.69039C89.9661 2.74377 92.8761 2.31673 97.759 2.31673V2.53025C99.7319 2.47687 100.669 2.42349 102.642 2.37011V2.53025C108.511 2.79715 114.331 2.53025 119.214 2.37011C121.187 2.47687 123.111 2.53025 124.097 2.63701C127.994 2.58363 130.904 2.47687 134.8 2.37011C135.787 2.69039 140.669 2.47687 142.593 2.58363C146.489 2.74377 148.462 2.47687 152.359 2.47687C153.345 2.53025 154.332 2.63701 155.269 2.63701H161.138C165.035 2.69039 168.931 2.63701 172.828 2.58363H178.697C181.607 2.69039 185.503 2.69039 188.463 2.69039C191.373 2.74377 194.332 2.69039 197.242 2.69039C203.112 2.69039 208.932 2.74377 213.814 2.47687C214.801 2.42349 216.725 2.53025 218.697 2.53025C217.711 2.63701 217.711 2.69039 217.711 2.74377C224.517 2.90391 229.4 2.69039 235.27 2.42349C233.297 2.58363 233.297 2.63701 233.297 2.69039C234.283 2.63701 236.207 2.53025 238.18 2.53025V2.69039C240.153 2.69039 242.076 2.47687 244.049 2.69039H247.946C249.918 2.63701 250.856 2.53025 252.828 2.47687H254.801V2.79715C259.684 2.69039 262.594 2.58363 266.491 2.47687C267.477 2.58363 267.477 2.63701 267.477 2.69039C270.387 2.58363 273.347 2.47687 276.257 2.69039C277.243 2.74377 279.167 2.74377 280.153 2.74377C285.036 2.69039 289.919 2.74377 293.815 2.53025H297.712V2.79715C300.622 2.74377 304.518 2.63701 307.478 2.58363V2.69039C315.271 2.69039 322.077 2.90391 328.933 2.69039H332.829C338.699 2.74377 344.519 2.9573 350.388 2.69039C352.361 2.63701 357.195 2.63701 357.195 2.69039C358.181 2.85053 361.091 2.79715 363.064 2.79715C366.96 2.79715 371.843 2.69039 376.726 2.63701C382.596 2.90391 385.506 2.90391 393.299 2.63701C396.209 2.53025 400.105 2.42349 403.064 2.31673C402.078 2.42349 400.154 2.58363 398.181 2.74377H404.051C407.947 2.74377 411.844 2.63701 415.74 2.63701C421.61 2.69039 425.506 2.58363 429.403 2.37011H432.313C432.313 2.53025 430.34 2.63701 430.34 2.79715C437.146 2.74377 444.002 2.74377 450.808 2.69039C453.718 2.69039 456.678 2.69039 458.601 2.79715C460.574 2.74377 461.511 2.69039 463.484 2.63701C465.457 2.85053 468.367 2.85053 471.277 2.74377C473.25 2.69039 475.174 2.58363 477.147 2.53025H478.133V2.74377C483.016 2.74377 488.836 2.37011 494.705 2.74377C500.575 2.47687 507.381 2.47687 514.188 2.47687C516.111 2.53025 517.098 2.63701 518.084 2.63701H520.994C522.967 2.79715 524.891 2.74377 527.801 2.63701H530.711C536.531 2.79715 541.414 2.63701 546.297 2.47687C547.283 2.53025 548.269 2.58363 549.207 2.58363C554.089 2.74377 557.986 2.74377 561.882 2.47687C562.869 2.42349 564.792 2.37011 565.779 2.31673C563.806 2.47687 561.882 2.58363 560.896 2.69039C565.779 2.58363 569.675 2.31673 575.495 2.53025C576.482 2.58363 576.482 2.69039 576.482 2.69039H588.171C592.068 2.69039 594.978 2.58363 598.874 2.47687V2.63701C603.757 2.58363 608.64 2.53025 611.55 2.53025C614.46 2.58363 616.433 2.69039 617.419 2.69039C621.316 2.69039 625.212 2.58363 629.109 2.58363C632.019 2.58363 635.915 2.53025 637.888 2.58363C641.785 2.69039 643.757 2.58363 646.667 2.47687C648.64 2.42349 649.578 2.31673 651.55 2.31673C650.564 2.37011 648.64 2.47687 648.64 2.53025C651.55 2.47687 654.51 2.47687 654.51 2.47687C657.42 2.63701 659.393 2.58363 663.289 2.47687H668.172C673.055 2.69039 675.965 2.58363 679.861 2.47687C681.834 2.37011 684.744 2.26335 688.641 2.15658C687.654 2.37011 687.654 2.47687 687.654 2.58363C691.551 2.85053 693.474 2.42349 698.357 2.53025C700.33 2.58363 704.177 2.37011 709.06 2.26335C708.074 2.42349 706.15 2.47687 706.15 2.58363V2.63701C711.033 2.47687 715.916 2.37011 721.736 2.26335C724.646 2.31673 729.529 2.47687 733.425 2.58363C736.336 2.37011 740.232 2.42349 744.128 2.53025C748.025 2.37011 751.921 2.26335 754.831 2.15658C753.845 2.26335 751.921 2.37011 750.935 2.47687C753.845 2.69039 756.755 2.26335 760.701 2.47687C762.674 2.58363 765.584 2.31673 769.48 2.37011C771.453 2.37011 775.3 2.26335 779.197 2.20996V2.53025C783.093 2.42349 785.066 2.31673 787.976 2.20996V2.47687C789.949 2.42349 791.872 2.31673 793.845 2.31673C794.832 2.37011 796.755 2.47687 797.742 2.47687C800.652 2.47687 804.548 2.47687 807.458 2.31673H809.431V2.47687H821.121C825.017 2.42349 826.99 2.31673 830.887 2.31673C834.783 2.31673 837.693 2.47687 840.652 2.47687H853.328C860.135 2.53025 866.004 2.53025 870.887 2.26335H872.811V2.47687C875.721 2.42349 877.693 2.37011 879.617 2.37011H889.383C892.293 2.37011 895.252 2.53025 898.162 2.37011L900.135 2.42349H904.031C906.942 2.37011 908.914 2.26335 911.824 2.20996C912.811 2.31673 913.748 2.37011 913.748 2.47687C917.644 2.42349 922.527 2.31673 926.424 2.26335C927.41 2.37011 927.41 2.42349 927.41 2.47687H931.307C935.203 2.63701 939.1 2.31673 942.996 2.47687C945.906 2.26335 947.879 2.42349 949.803 2.47687C955.623 2.37011 960.506 2.31673 965.389 2.20996C964.402 2.42349 966.375 2.53025 969.285 2.53025C975.105 2.53025 979.988 2.47687 983.884 2.26335C984.871 2.20996 986.794 2.20996 986.794 2.20996V2.42349C991.99 2.28114 995.557 2.29893 997.497 2.47687C1000.41 2.37011 1004.3 2.26335 1008.2 2.1032C1009.19 2.26335 1010.17 2.42349 1011.11 2.53025C1013.03 2.47687 1015.99 2.53025 1018.9 2.53025H1046.18C1048.1 2.53025 1050.08 2.37011 1052.05 2.31673C1053.03 2.26335 1054.96 2.15658 1055.94 2.15658C1054.96 2.20996 1054.02 2.26335 1053.03 2.37011C1054.96 2.31673 1056.93 2.20996 1057.92 2.20996C1062.8 2.31673 1058.9 2.37011 1057.92 2.53025C1061.81 2.42349 1063.74 2.42349 1065.71 2.31673C1069.61 2.1032 1073.5 2.20996 1077.4 2.20996C1080.31 2.26335 1083.22 2.37011 1085.19 2.42349C1089.09 2.31673 1091.01 2.26335 1093.97 2.15658C1094.96 2.20996 1096.88 2.31673 1096.88 2.31673C1098.85 2.20996 1100.78 2.20996 1100.78 2.20996C1102.75 2.31673 1103.69 2.42349 1104.67 2.42349C1107.58 2.47687 1109.56 2.47687 1112.47 2.47687C1116.36 2.47687 1120.26 2.53025 1123.17 2.47687C1127.07 2.37011 1129.98 2.42349 1132.94 2.47687C1137.82 2.58363 1142.65 2.58363 1146.6 2.42349C1148.52 2.31673 1150.5 2.20996 1152.42 2.42349H1164.11C1166.08 2.31673 1168 2.47687 1168.99 2.47687C1172.89 2.42349 1176.78 2.37011 1178.71 2.42349C1185.51 2.53025 1191.38 2.47687 1198.19 2.42349C1203.07 2.31673 1207.96 2.20996 1211.85 2.42349C1215.75 2.31673 1219.65 2.20996 1223.54 2.1032V2.15658C1222.56 2.26335 1220.63 2.31673 1220.63 2.42349C1225.51 2.37011 1229.41 2.31673 1234.29 2.31673C1239.18 2.58363 1241.1 2.47687 1247.96 2.26335C1251.85 2.31673 1255.75 2.42349 1258.66 2.42349C1265.47 2.31673 1271.34 2.42349 1277.16 2.42349C1283.96 2.42349 1289.83 2.37011 1295.65 2.15658C1296.64 2.20996 1296.64 2.31673 1296.64 2.31673C1301.52 2.20996 1306.35 2.26335 1311.24 2.47687C1315.13 2.31673 1318.04 2.31673 1321.94 2.47687C1323.86 2.37011 1326.82 2.26335 1329.73 2.1032C1328.75 2.42349 1336.54 2.04982 1335.55 2.42349C1336.54 2.37011 1338.46 2.31673 1340.44 2.26335C1345.32 2.58363 1351.14 2.47687 1356.02 2.26335C1357.01 2.31673 1357.01 2.42349 1357.01 2.42349C1360.9 2.47687 1363.81 2.15658 1367.71 2.42349C1369.68 2.37011 1371.61 2.31673 1373.58 2.20996C1376.49 2.37011 1380.39 2.42349 1384.28 2.37011H1390.1C1394 2.47687 1398.88 2.37011 1402.78 2.47687C1403.77 2.47687 1405.69 2.37011 1407.66 2.37011C1408.65 2.31673 1410.57 2.31673 1411.56 2.31673C1414.47 2.37011 1416.44 2.31673 1418.37 2.20996H1420.34C1421.32 2.31673 1421.32 2.42349 1421.32 2.47687C1428.13 2.69039 1430.1 2.26335 1434.99 2.26335V2.53025H1440.81C1445.69 2.63701 1449.59 2.58363 1453.48 2.42349C1455.46 2.31673 1458.37 2.26335 1462.26 2.15658C1460.29 2.37011 1458.37 2.47687 1455.46 2.58363C1459.35 2.63701 1463.25 2.63701 1466.16 2.47687C1467.15 2.42349 1469.07 2.31673 1471.04 2.31673H1472.03C1471.04 2.42349 1470.05 2.47687 1470.05 2.58363C1472.03 2.47687 1474.94 2.42349 1476.86 2.31673C1477.85 2.42349 1478.83 2.47687 1478.83 2.58363C1482.73 2.47687 1485.64 2.31673 1489.54 2.20996C1488.55 2.31673 1486.63 2.42349 1486.63 2.47687C1493.43 2.69039 1497.33 2.42349 1503.2 2.26335C1502.21 2.37011 1501.28 2.42349 1501.28 2.58363C1506.16 2.53025 1510.06 2.42349 1513.95 2.42349C1519.82 2.47687 1522.73 2.37011 1527.61 2.26335C1530.52 2.20996 1532.5 2.20996 1534.42 2.37011H1536.39C1538.37 2.20996 1540.29 2.37011 1542.26 2.37011H1548.13C1549.12 2.31673 1550.11 2.26335 1552.03 2.37011C1554 2.42349 1556.91 2.31673 1558.84 2.37011C1563.72 2.53025 1566.63 2.42349 1569.54 2.26335C1570.52 2.20996 1571.51 2.15658 1574.42 2.04982C1573.43 2.20996 1572.45 2.31673 1571.51 2.47687C1575.41 2.37011 1577.38 2.26335 1579.3 2.26335C1581.28 2.20996 1585.17 2.20996 1585.17 2.20996C1589.07 2.42349 1593.95 2.26335 1597.85 2.42349H1601.75C1604.66 2.26335 1606.63 2.37011 1609.54 2.42349C1609.98 2.41281 1610.38 2.40214 1610.77 2.38078L1613.44 2.26335C1613.44 2.26335 1612.25 2.3274 1610.77 2.38078L1602.98 2.7331C1602.98 2.7331 1602.73 2.78648 1602.73 2.79715C1603.72 2.74377 1606.63 2.74377 1606.63 2.74377C1610.53 2.9573 1613.44 2.79715 1616.39 2.74377H1618.37C1617.38 2.79715 1616.39 2.90391 1616.39 3.01068C1620.29 2.90391 1623.2 2.90391 1626.16 2.90391C1632.03 2.90391 1633.95 2.85053 1639.82 2.90391H1645.69C1649.59 2.85053 1653.48 2.69039 1658.37 2.58363C1657.38 2.74377 1656.39 2.79715 1656.39 2.90391C1664.19 3.01068 1665.17 2.9573 1669.07 2.63701C1670.06 2.74377 1671.04 2.79715 1671.04 2.90391H1674.94C1680.81 2.90391 1686.63 3.01068 1692.5 2.79715C1694.47 2.74377 1698.37 2.74377 1700.29 2.79715C1707.1 2.9573 1712.97 2.90391 1719.77 2.90391C1723.67 2.9573 1725.64 2.79715 1723.67 2.58363C1723.67 2.42349 1722.68 2.26335 1723.67 2.1032V1.8363C1721.7 1.88968 1719.77 1.94306 1716.86 1.94306C1719.77 1.67616 1721.75 1.51601 1724.66 1.36655H1718.79C1719.77 1.20641 1720.76 1.04626 1721.7 0.939502C1725.59 0.725979 1725.59 0.459075 1725.59 0.202847C1725.59 0.128114 1725.35 0.0640569 1725.15 0C1718.98 0.202847 1712.67 0.266904 1706.31 0.224199H1705.72Z" fill="#FAF8EC"/>
</svg>
