<svg width="26" height="26" viewBox="0 0 26 26" fill="none" xmlns="http://www.w3.org/2000/svg">
<g clip-path="url(#clip0_386_7603)">
<path d="M18.9327 26H7.06727C3.16727 26 0 22.8327 0 18.9327V7.06727C0 3.16727 3.16727 0 7.06727 0H18.9327C22.8327 0 26 3.16727 26 7.06727V18.9327C26 22.8327 22.8327 26 18.9327 26ZM7.06727 2.36364C4.47909 2.36364 2.36364 4.46727 2.36364 7.06727V18.9327C2.36364 21.5209 4.46727 23.6364 7.06727 23.6364H18.9327C21.5209 23.6364 23.6364 21.5327 23.6364 18.9327V7.06727C23.6364 4.47909 21.5327 2.36364 18.9327 2.36364H7.06727Z" fill="white"/>
<path d="M13.0001 20.091C9.08827 20.091 5.90918 16.9119 5.90918 13.0001C5.90918 9.08827 9.08827 5.90918 13.0001 5.90918C16.9119 5.90918 20.091 9.08827 20.091 13.0001C20.091 16.9119 16.9119 20.091 13.0001 20.091ZM13.0001 8.27282C10.3883 8.27282 8.27282 10.3883 8.27282 13.0001C8.27282 15.6119 10.3883 17.7274 13.0001 17.7274C15.6119 17.7274 17.7274 15.6119 17.7274 13.0001C17.7274 10.3883 15.6119 8.27282 13.0001 8.27282Z" fill="white"/>
<path d="M20.091 5.90953C20.7437 5.90953 21.2728 5.38042 21.2728 4.72772C21.2728 4.07502 20.7437 3.5459 20.091 3.5459C19.4383 3.5459 18.9092 4.07502 18.9092 4.72772C18.9092 5.38042 19.4383 5.90953 20.091 5.90953Z" fill="white"/>
</g>
<defs>
<clipPath id="clip0_386_7603">
<rect width="26" height="26" fill="white"/>
</clipPath>
</defs>
</svg>
