<svg width="187" height="50" viewBox="0 0 187 50" fill="none" xmlns="http://www.w3.org/2000/svg">
<path fill-rule="evenodd" clip-rule="evenodd" d="M173.821 49.3578C173.821 49.3578 173.613 49.4495 173.406 49.4954C173.094 49.4495 172.887 49.3578 172.575 49.4954H172.16C171.745 49.3578 171.226 49.4954 170.811 49.3119C170.811 49.3119 170.396 49.3119 170.189 49.3578C169.981 49.3578 169.774 49.4495 169.358 49.5413C169.462 49.4037 169.566 49.3119 169.67 49.1743C169.358 49.2661 169.255 49.3119 169.151 49.3578C168.84 49.4954 168.528 49.5872 168.009 49.4495C167.802 49.4037 167.491 49.4954 167.283 49.4495C167.075 49.3578 166.972 49.4037 166.868 49.4495C166.66 49.4495 166.453 49.4495 166.245 49.4495C166.038 49.4495 165.83 49.3119 165.623 49.4495H165.415C165.208 49.3119 165 49.3119 164.689 49.3578C164.17 49.4495 163.858 49.5413 163.236 49.4954C162.821 49.4954 162.406 49.5872 161.887 49.633C161.887 49.4954 161.991 49.4495 162.094 49.3578C161.472 49.4954 161.057 49.7248 160.33 49.5413C160.33 49.4954 160.538 49.4037 160.641 49.3119C160.226 49.4037 159.915 49.5413 159.5 49.633C159.5 49.5413 159.396 49.4954 159.292 49.4037C159.085 49.4954 158.774 49.5413 158.566 49.633C158.566 49.5413 158.67 49.4954 158.774 49.4037C158.774 49.4037 158.774 49.4037 158.67 49.4037C158.462 49.4037 158.255 49.4954 158.151 49.5413C157.84 49.6789 157.425 49.6789 157.009 49.633C157.321 49.5413 157.528 49.4495 157.736 49.2661C157.321 49.3578 157.009 49.4037 156.802 49.4954C156.387 49.633 155.972 49.6789 155.453 49.5872C155.245 49.5872 155.038 49.5872 154.83 49.5872C154.83 49.5413 154.83 49.4495 154.83 49.3578C154.311 49.3578 154.104 49.7248 153.377 49.5413C153.377 49.4954 153.377 49.4037 153.274 49.3119H153.066C152.858 49.4037 152.651 49.4495 152.34 49.4037C152.236 49.4037 152.028 49.4037 151.925 49.4495C151.717 49.4495 151.509 49.5413 151.406 49.5413C150.991 49.4495 150.472 49.5413 150.057 49.4495C149.849 49.4495 149.641 49.4495 149.434 49.4495C149.019 49.4954 148.604 49.4495 148.292 49.3119C148.085 49.4037 147.877 49.4495 147.67 49.4954C147.255 49.2661 146.943 49.5413 146.528 49.4954C146.528 49.4954 146.528 49.4037 146.425 49.3578C145.906 49.5413 145.283 49.633 144.764 49.3578C144.557 49.4037 144.349 49.4495 144.245 49.4954C144.349 49.1743 143.519 49.4954 143.623 49.2202C143.311 49.3578 143 49.4495 142.792 49.5413C142.377 49.4037 142.066 49.4037 141.651 49.5413C141.132 49.3578 140.613 49.3119 140.094 49.4037C140.094 49.4037 140.094 49.3119 139.991 49.2661C139.368 49.4495 138.745 49.4954 138.019 49.4954C137.396 49.4954 136.774 49.4037 136.047 49.4954C135.736 49.4954 135.321 49.4037 134.906 49.3578C134.179 49.5413 133.972 49.633 133.453 49.4037C132.934 49.4037 132.519 49.4495 132 49.4954C132 49.4037 132.208 49.3578 132.311 49.2661C132.311 49.2661 132.311 49.2661 132.311 49.2202C131.896 49.3119 131.481 49.4037 131.066 49.4954C130.651 49.3119 130.132 49.4037 129.613 49.4954C128.887 49.5413 128.264 49.5872 127.538 49.4954C127.33 49.4495 126.915 49.4954 126.5 49.5413C126.396 49.5413 126.189 49.4037 125.981 49.4954C125.877 49.4954 125.67 49.4954 125.462 49.4954C125.255 49.4954 125.151 49.4954 124.943 49.4954H124.736C124.528 49.3119 124.321 49.4037 124.113 49.4954C123.698 49.633 123.179 49.633 122.66 49.5413C122.349 49.4954 122.038 49.4495 121.623 49.5413C121.311 49.5872 120.896 49.5413 120.481 49.5413C120.17 49.5413 119.962 49.5413 119.651 49.4954C119.547 49.4954 119.443 49.4037 119.236 49.3119C119.236 49.3119 119.028 49.3119 118.821 49.4037C118.821 49.4037 118.613 49.3119 118.509 49.2661C118.198 49.3578 117.991 49.4037 117.575 49.4954C117.368 49.4495 117.057 49.3578 116.745 49.3119C116.33 49.3119 115.915 49.2202 115.5 49.4037C115.292 49.4954 115.085 49.4954 114.67 49.5872C114.774 49.4495 115.189 49.4037 114.67 49.3119C114.566 49.3119 114.358 49.4037 114.151 49.4495C114.255 49.3578 114.358 49.3119 114.462 49.2661C114.358 49.2661 114.151 49.3578 114.047 49.4037C113.84 49.4495 113.632 49.5872 113.425 49.5872C112.491 49.5872 111.453 49.5872 110.519 49.5872C110.208 49.5872 109.896 49.5413 109.689 49.5872C109.585 49.4954 109.481 49.3578 109.377 49.2202C108.962 49.3578 108.547 49.4495 108.236 49.5413C107.925 49.3119 107.925 49.3119 107.094 49.4954C107.094 49.4495 107.094 49.3578 107.094 49.3119C107.094 49.3119 106.887 49.3119 106.783 49.3578C106.368 49.5413 105.849 49.5872 105.226 49.5872C104.915 49.5872 104.708 49.4954 104.811 49.3119C104.292 49.4037 103.774 49.4495 103.151 49.5413C102.943 49.4954 102.736 49.3578 102.425 49.5413C102.009 49.4037 101.594 49.6789 101.179 49.5413C101.179 49.5413 100.868 49.5413 100.764 49.5413C100.764 49.4954 100.764 49.4495 100.66 49.3578C100.245 49.4037 99.7264 49.4954 99.3113 49.5413C99.3113 49.4495 99.2075 49.4037 99.1038 49.3119C98.7924 49.3578 98.5849 49.4495 98.2736 49.4954C98.1698 49.4954 97.9623 49.4954 97.8585 49.4954L97.6509 49.4495C97.3396 49.5872 97.0283 49.4495 96.717 49.4495C96.4057 49.4495 95.9906 49.4495 95.6792 49.4495C95.4717 49.4495 95.2641 49.4954 94.9528 49.5413C94.9528 49.4954 94.9528 49.4037 94.9528 49.3578H94.7453C94.2264 49.5872 93.6038 49.5872 92.8773 49.5413C92.4623 49.5413 91.9434 49.5413 91.5283 49.5413C91.217 49.5413 90.9057 49.4037 90.4906 49.4037C90.0755 49.4037 89.8679 49.4954 89.4528 49.5413C89.3491 49.5413 89.1415 49.5413 89.0377 49.5413C88.7264 49.5413 88.5189 49.5413 88.2075 49.5413C88.2075 49.5413 88.2075 49.4495 88.2075 49.4037H88C87.6887 49.5413 87.2736 49.5413 86.9623 49.5413C86.8585 49.5413 86.6509 49.4495 86.5472 49.4037C86.3396 49.4037 86.1321 49.4954 85.9245 49.5413C85.9245 49.4495 85.9245 49.4037 85.9245 49.3119C85.6132 49.4037 85.4057 49.4954 84.9906 49.5872C84.9906 49.4954 84.9906 49.4037 84.9906 49.3119C84.5755 49.3578 84.1604 49.4495 83.9528 49.4495C83.5377 49.4037 83.2264 49.633 83.0189 49.5413C82.6038 49.3578 82.2924 49.7248 81.9811 49.5413C82.0849 49.4495 82.2924 49.3578 82.3962 49.2661C82.0849 49.3578 81.6698 49.4495 81.2547 49.5872C80.8396 49.4954 80.4245 49.4495 80.1132 49.633C79.6981 49.5413 79.1792 49.4037 78.8679 49.3578C78.2453 49.4495 77.7264 49.5413 77.2075 49.6789C77.2075 49.6789 77.2075 49.6789 77.2075 49.633C77.2075 49.5413 77.4151 49.4954 77.5189 49.3578C77 49.4495 76.5849 49.633 76.3774 49.5872C75.8585 49.4954 75.6509 49.8624 75.2358 49.633C75.2358 49.5413 75.2358 49.4495 75.3396 49.2661C74.9245 49.3578 74.6132 49.4495 74.4057 49.5413C73.9906 49.633 73.6792 49.7248 73.1604 49.5413C73.0566 49.5413 72.7453 49.5413 72.6415 49.5413C72.2264 49.633 72.0189 49.6789 71.7075 49.5413C71.7075 49.5413 71.3962 49.5413 71.0849 49.5872C71.0849 49.5413 71.2924 49.4495 71.3962 49.4037C71.1887 49.4037 71.0849 49.4954 70.8774 49.5413C70.566 49.633 70.3585 49.7248 69.9434 49.633C69.7358 49.5872 69.3207 49.633 69.0094 49.633C68.5943 49.633 68.1792 49.7248 67.7642 49.7248C67.6604 49.7248 67.4528 49.633 67.1415 49.5872C66.8302 49.5872 66.3113 49.633 65.7924 49.6789C65.7924 49.6789 65.7924 49.5872 65.7924 49.5413C65.3773 49.633 65.066 49.7248 64.6509 49.7248C64.2358 49.7248 63.8208 49.7248 63.4057 49.7248C63.4057 49.7248 63.4057 49.633 63.3019 49.5872C62.6792 49.4037 62.2641 49.633 61.7453 49.7248C61.8491 49.633 62.0566 49.5413 62.2641 49.4037C62.1604 49.4495 61.9528 49.4954 61.8491 49.5413C61.434 49.7706 61.0189 49.7706 60.5 49.633C60.3962 49.633 60.2924 49.5872 60.1887 49.5413C59.6698 49.6789 59.1509 49.8165 58.5283 49.6789C58.5283 49.6789 58.3208 49.6789 58.217 49.6789C57.9057 49.7706 57.6981 49.8165 57.4906 49.6789C57.4906 49.6789 57.283 49.6789 57.1792 49.6789C57.0755 49.6789 56.9717 49.5872 56.7641 49.5413C56.0377 49.5413 55.3113 49.5413 54.6887 49.7706C54.066 49.4495 53.4434 49.7706 52.9245 49.7706V49.5872H52.8208C52.6132 49.633 52.4057 49.7248 52.1981 49.7706C51.8868 49.8624 51.5755 49.8624 51.3679 49.6789C51.1604 49.7248 51.0566 49.7706 50.8491 49.8165C50.6415 49.7248 50.3302 49.7248 50.0189 49.7248C49.2924 49.7706 48.566 49.7706 47.8396 49.8165C47.8396 49.6789 48.0472 49.5872 48.0472 49.4495C47.8396 49.4495 47.7358 49.4495 47.7358 49.4495C47.3208 49.633 46.9057 49.7248 46.283 49.6789C45.8679 49.6789 45.4528 49.7706 45.0377 49.7706C44.8302 49.7706 44.7264 49.7706 44.4151 49.7706C44.6226 49.633 44.8302 49.4954 44.934 49.4037C44.6226 49.4954 44.2075 49.5872 43.8962 49.6789C43.066 49.9083 42.7547 49.9083 42.1321 49.6789C41.6132 49.7248 41.0943 49.8165 40.6792 49.8165C40.4717 49.8165 40.1604 49.8624 40.0566 49.7248C40.0566 49.6789 39.5377 49.6789 39.3302 49.7248C38.7075 49.9541 38.0849 49.7706 37.4623 49.7248C37.3585 49.7248 37.1509 49.7248 37.0472 49.7248C36.3208 49.9083 35.5943 49.7248 34.7641 49.7248V49.633C34.4528 49.6789 34.0377 49.7706 33.7264 49.8165C33.7264 49.7248 33.7264 49.633 33.7264 49.5872C33.7264 49.5872 33.4151 49.5872 33.3113 49.5872C32.8962 49.7706 32.3774 49.7248 31.8585 49.7706C31.7547 49.7706 31.5472 49.7706 31.4434 49.7248C31.1321 49.5413 30.8208 49.633 30.5094 49.7248C30.5094 49.6789 30.5094 49.633 30.4057 49.5413C29.9906 49.633 29.6792 49.7248 29.1604 49.8165C29.1604 49.6789 29.1604 49.633 29.1604 49.5413H28.9528C28.7453 49.5872 28.6415 49.6789 28.434 49.7248C28.3302 49.7248 28.0189 49.7248 28.0189 49.7248C27.8113 49.5413 27.6038 49.7248 27.3962 49.7248C27.3962 49.6789 27.3962 49.633 27.3962 49.5872C27.1887 49.5872 26.9811 49.6789 26.8774 49.7248C26.8774 49.6789 26.8774 49.633 27.0849 49.4954C26.4623 49.7248 25.9434 49.9083 25.217 49.7706C25.217 49.7248 25.217 49.6789 25.3208 49.5872C25.1132 49.5872 24.9057 49.4954 24.8019 49.5413C24.283 49.7706 23.6604 49.7248 23.0377 49.7248C22.7264 49.7248 22.4151 49.7706 22.1038 49.7248C21.7925 49.7248 21.3774 49.7248 21.066 49.633C20.8585 49.633 20.6509 49.633 20.4434 49.633C20.0283 49.6789 19.6132 49.7248 19.1981 49.6789C18.9906 49.6789 18.783 49.6789 18.5755 49.6789C18.4717 49.6789 18.3679 49.5872 18.2641 49.5413C17.8491 49.5413 17.6415 49.7706 17.2264 49.633C17.0189 49.5413 16.5 49.7248 16.3962 49.4495C15.9811 49.5413 15.6698 49.633 15.2547 49.6789C15.1509 49.5872 14.9434 49.5413 14.7358 49.4495C14.217 49.5872 13.5943 49.8165 12.9717 49.5872C12.9717 49.5872 12.9717 49.5413 12.9717 49.4495C12.7641 49.4954 12.6604 49.5413 12.4528 49.5872C12.4528 49.5413 12.4528 49.4495 12.4528 49.4037C11.934 49.4037 11.6226 49.7706 11 49.7248C10.4811 49.7248 9.96226 49.8624 9.4434 49.633C8.92453 49.7248 8.40566 49.8624 7.78302 49.633C7.67924 49.5872 7.36792 49.633 7.0566 49.633V49.4037C7.0566 49.4037 6.33019 49.5413 6.12264 49.633C5.81132 49.7248 5.60377 49.7706 5.29245 49.633C5.29245 49.633 4.98113 49.5872 4.87736 49.633C4.35849 49.8165 3.83962 49.5413 3.42453 49.633C3.21698 49.633 3.21698 49.4495 2.90566 49.4954C2.59434 49.4954 2.80189 49.3578 2.90566 49.2661C2.90566 49.1743 2.69811 49.1284 2.17925 49.1743C1.9717 48.7156 1.9717 48.3028 2.38679 47.844C2.17925 47.844 2.07547 47.844 1.86792 47.844C1.86792 47.7064 1.86792 47.6147 1.9717 47.4771C1.9717 47.3394 2.17925 47.2477 1.9717 47.156C1.76415 46.9266 1.76415 46.6972 1.9717 46.4679C1.9717 46.3761 1.9717 46.2844 2.07547 46.1927C2.07547 46.1927 2.07547 46.0092 2.07547 45.6422C1.34906 45.4587 2.07547 45.2294 2.07547 45C1.9717 44.9541 1.66038 44.9083 1.76415 44.7706C1.86792 44.633 1.86792 44.4495 2.07547 44.3119C2.38679 44.0826 2.17925 43.8991 2.07547 43.6697C2.28302 43.578 2.49057 43.4862 2.69811 43.3486C2.38679 43.3486 2.17925 43.2569 1.86792 43.211C1.86792 43.1651 1.9717 43.0275 2.07547 42.9358C2.07547 42.844 2.28302 42.7523 1.86792 42.7064C1.86792 42.7064 1.76415 42.5688 1.76415 42.4771C1.76415 42.3395 1.86792 42.2018 1.9717 42.0642C1.9717 41.9725 1.9717 41.9266 1.86792 41.8807L1.76415 41.789C1.76415 41.5138 1.76415 41.2844 1.76415 41.0092C1.76415 40.8257 1.76415 40.5963 2.28302 40.4587C2.28302 40.4587 2.28302 40.4587 2.17925 40.4128C2.07547 40.4128 1.9717 40.4128 1.76415 40.4128C1.76415 40.3211 1.76415 40.2294 1.86792 40.1376C1.86792 40.0459 2.07547 39.9541 1.86792 39.8165C1.76415 39.7248 1.86792 39.5413 2.07547 39.3578C2.07547 39.2661 2.28302 39.2202 2.38679 39.0826H0.311321C0.311321 38.7156 0.415094 38.3945 0.622642 38.0275C0.622642 38.0275 0.415094 37.9816 0.311321 37.9358C0.103774 37.5229 0.622642 37.156 0.933962 36.7431C0.726415 36.789 0.622641 36.8349 0.415094 36.8349C0.415094 36.6972 0.207547 36.6055 0.207547 36.4679C0.207547 36.3303 0.207547 36.1927 0.311321 36.1009C0.415094 35.9633 0.830189 35.9174 0.830189 35.7339C0.726415 35.7339 0.622641 35.7339 0.415094 35.7798C0.415094 35.7798 0.207547 35.7798 0 35.8257C0 35.6422 0 35.5046 0.207547 35.4128C0.415094 35.2294 0.415094 35.1376 0.207547 34.9541C0.103774 34.8624 0.103774 34.6789 0.207547 34.5872C0.207547 34.4495 0.415094 34.3119 0.207547 34.1743C0.622641 33.9908 0.207547 33.7615 0.415094 33.578C0.415094 33.578 0.415094 33.4862 0.415094 33.4404C0.415094 33.3028 0.415094 33.1651 0.415094 33.0275C0.415094 33.0275 0.207547 33.0275 0 33.0275C0.207547 32.8899 0.415094 32.7523 0.518868 32.6147H0.103774C0.103774 32.6147 0.518868 32.3394 0.726415 32.2018C0.415094 32.2018 0.311321 32.2477 0.103774 32.2936C0.103774 32.1101 0.207547 31.9266 0.311321 31.7431C0.311321 31.7431 0 31.6514 0.207547 31.5138C0.311321 31.3761 0.415094 31.2385 0.415094 31.1009V31.0092C0 30.7798 0.415094 30.5963 0.622642 30.367C0.622642 30.367 0.622642 30.3211 0.622642 30.2294C0.415094 30.2752 0.207547 30.3211 0 30.367C0.207547 30.0917 -0.103774 29.8624 0.311321 29.633C0 29.3578 0.622642 29.0826 0.311321 28.7615C0.311321 28.7156 0.103774 28.6239 0.103774 28.578C0.103774 28.5321 0.311321 28.4862 0.415094 28.4404C0.207547 28.4404 0.103774 28.3486 0 28.3486C0.207547 28.1651 0.415094 27.9817 0.622642 27.7523C0.311321 27.7982 0.207547 27.844 0 27.8899C0 27.6605 0.207547 27.5229 0.518868 27.3395C0.518868 27.2477 0.103774 27.156 0.311321 26.9725C0.311321 26.9725 0.207547 26.8349 0.103774 26.789C0.207547 26.6055 0.311321 26.3761 0.518868 26.1927H0.207547C0.207547 26.1927 0.311321 25.7798 0.415094 25.5505C0.415094 25.5505 0.311321 25.5505 0.103774 25.5046C0.207547 25.4128 0.311321 25.3211 0.415094 25.2294C-0.207547 25.1376 0.207547 24.9083 0.103774 24.7248C0.103774 24.4954 0.103774 24.3578 0.415094 24.1743C0.415094 24.1743 0.207547 24.0826 0.103774 24.0367C0.518868 23.8073 0.207547 23.578 0.103774 23.3486C0.207547 23.2569 0.415094 23.211 0.622642 23.0734H0.103774C0.103774 23.0734 0.415094 22.8899 0.726415 22.7523C0.518868 22.7523 0.415094 22.7523 0.207547 22.7523C0 22.5229 0.415094 22.3853 0.726415 22.2018C0.518868 22.1101 0.311321 22.0642 0.103774 21.9725C0.103774 21.6972 0.830189 21.6514 1.03774 21.3761C0.726415 21.3761 0.518868 21.3761 0.415094 21.3761C0.207547 21.1009 1.14151 20.8257 0.415094 20.5963C0.622641 20.5046 0.830189 20.4128 1.03774 20.3211C0.415094 20.1376 0.311321 19.9083 0.726415 19.633C0.830189 19.5413 0.830189 19.4037 0.933962 19.3119C0.726415 19.2661 0.518868 19.1743 0.311321 19.1284C0.311321 19.0826 0.518868 18.9908 0.622642 18.945C0.518868 18.945 0.415094 18.8532 0.207547 18.8073C0.415094 18.6239 0.622642 18.3945 0.933962 18.211C0.518868 18.1193 0.415094 17.9817 0.622642 17.7982H0.415094C0.415094 17.6606 0.415094 17.5688 0.415094 17.4312C0.415094 17.3853 0.415094 17.2936 0.415094 17.2477C0.622641 17.1101 0.415094 17.0183 0.415094 16.9266C0.415094 16.8349 0.415094 16.7431 0.415094 16.6514C0.518868 16.5138 0.830189 16.3761 0.415094 16.2385V16.1927C0.830189 16.055 0.415094 15.9174 0.415094 15.7798C0.933962 15.4587 0.830189 15.367 0.311321 15.2752C0.518868 15.0459 0.830189 14.8165 0.415094 14.5872C0.622641 14.4495 0.933962 14.3578 1.14151 14.2661C1.14151 14.2661 1.14151 14.2661 1.14151 14.2202C1.03774 14.2202 0.830189 14.2202 0.726415 14.2202C0.933962 14.0673 0.830189 13.945 0.415094 13.8532C0.518868 13.578 0.103774 13.211 0.830189 12.9358C0.415094 12.7523 0.726415 12.5688 0.830189 12.3394C0.103774 12.2018 0.518868 11.9266 0.415094 11.6972C0.311321 11.422 0.933962 11.2844 1.14151 11.0092C0.830189 11.055 0.726415 11.1009 0.518868 11.1468C0.518868 11.0092 0.622641 10.8716 0.830189 10.7798C0.933962 10.6881 1.14151 10.5963 1.34906 10.4587C1.03774 10.4587 0.933962 10.4587 0.726415 10.4587C0.726415 10.4128 0.933962 10.3211 1.03774 10.2752C0.830189 10.2294 0.726415 10.1835 0.415094 10.0917C0.830189 9.90826 1.14151 9.72477 1.5566 9.54129C1.14151 9.49541 0.933962 9.6789 0.518868 9.72477C0.518868 9.63303 0.518868 9.49541 0.518868 9.40367C0.518868 9.22018 0.933962 9.0367 0.518868 8.85321C0.518868 8.85321 0.518868 8.76147 0.622642 8.7156C0.830189 8.57798 0.622641 8.48624 0.415094 8.3945C1.03774 8.16514 0.622642 7.84404 0.933962 7.56881H0.726415C0.726415 7.56881 0.622641 7.56881 0.415094 7.61468C0.726415 7.43119 0.830189 7.33945 1.14151 7.20183C1.03774 7.20183 0.933962 7.20183 0.830189 7.20183C0.933962 7.11009 1.03774 7.06422 1.14151 6.97248C1.14151 6.78899 0.622642 6.65138 0.726415 6.42202C0.726415 6.23853 0.622642 6.05505 0.726415 5.87156C0.726415 5.68807 1.14151 5.50459 1.34906 5.27523C1.03774 5.3211 0.830189 5.36697 0.622642 5.41284C0.518868 5.09174 0.830189 4.90826 1.34906 4.63303C0.726415 4.63303 0.726415 4.40367 0.622642 4.26606C0.622642 4.0367 0.622642 3.80734 0.933962 3.62385C1.03774 3.53211 1.14151 3.44037 1.24528 3.34862C0.933962 3.25688 1.14151 3.07339 0.622642 3.02752C0.622642 2.75229 0.830189 2.47706 0.933962 2.20183C0.933962 2.15596 0.933962 2.06422 0.933962 2.06422C0.622642 1.97248 0.726415 1.83486 0.933962 1.74312C1.14151 1.6055 0.933962 1.55963 0.830189 1.46789C0.830189 1.23853 1.5566 1.19266 1.45283 0.917431C1.45283 0.733945 1.76415 0.550459 1.86792 0.321101C1.66038 0.321101 1.5566 0.366973 1.34906 0.412844C1.45283 0.229358 1.76415 0.137615 2.07547 0.137615C2.49057 0.137615 3.00943 -0.0458716 3.42453 0.137615C4.25472 -0.0458716 4.98113 -0.0458716 5.29245 0.137615C5.70755 0.137615 6.22641 0.0458716 6.53774 0.0917431C6.95283 0.183486 7.36792 0.0917431 7.88679 0.137615H8.09434C8.50943 0.275229 9.0283 0.229358 9.4434 0.137615H9.75472C9.96226 0.229358 10.1698 0.229358 10.3774 0.137615C10.5849 0.0917431 10.6887 0.0917431 10.7925 0.137615C10.7925 0.137615 11 0.137615 11.1038 0.137615C11.4151 0.0458716 11.7264 0 12.0377 0.137615C12.0377 0.137615 12.2453 0.137615 12.3491 0.137615C12.7642 0 12.9717 0.0917431 13.1792 0.229358C13.5943 0.229358 14.1132 0.229358 14.4245 0.137615C14.9434 0.0458716 15.3585 0.137615 15.7736 0.183486C16.1887 0.183486 16.6038 0.183486 17.0189 0.137615C17.0189 0.137615 17.0189 0.183486 17.0189 0.275229C17.2264 0.275229 17.5377 0.0917432 17.7453 0.275229C18.0566 0.229358 18.3679 0.183486 18.5755 0.137615C19.1981 0.0458716 19.717 0.0458716 20.1321 0.229358C20.2358 0.229358 20.4434 0.183486 20.6509 0.137615C20.6509 0.229358 20.4434 0.321101 20.3396 0.412844C20.5472 0.412844 20.6509 0.366973 20.8585 0.366973C21.1698 0.366973 21.5849 0.275229 21.8962 0.275229C22.8302 0.275229 22.8302 0.275229 23.4528 0.137615C23.4528 0.229358 23.5566 0.275229 23.6604 0.412844C23.9717 0.321101 24.3868 0.183486 24.8019 0.0917431C24.8019 0.183486 24.8019 0.275229 25.0094 0.366973C25.3208 0.275229 25.5283 0.183486 25.8396 0.0458716C25.8396 0.137615 25.9434 0.229358 26.0472 0.321101C26.1509 0.321101 26.2547 0.321101 26.4623 0.275229V0.458716H26.6698C27.0849 0.366972 27.6038 0.229358 28.0189 0.137615H28.1226C28.7453 0.321101 29.3679 0.137615 30.0943 0.137615C29.8868 0.275229 29.6792 0.412844 29.3679 0.59633C29.8868 0.59633 30.0943 0.412844 30.3019 0.321101C30.717 0.137615 31.1321 0.137615 31.6509 0.137615C31.6509 0.137615 31.6509 0.137615 31.7547 0.137615C32.1006 0.229358 32.4465 0.229358 32.7924 0.137615C32.7924 0.137615 32.5849 0.321101 32.3774 0.412844C33 0.412844 33.2075 0.0458716 33.8302 0.0917431C33.8302 0.137615 33.8302 0.183486 34.0377 0.275229C34.2453 0.275229 34.4528 0.229358 34.6604 0.183486C34.9717 0.0917431 35.283 0.0458716 35.5943 0.183486C36.0094 0.275229 36.217 0.183486 36.5283 0.137615C36.8396 0.412844 37.3585 0.321101 37.8774 0.229358C37.8774 0.321101 37.6698 0.412844 37.6698 0.504587C38.5 0.458716 39.1226 0.137615 39.9528 0.137615C39.9528 0.229358 40.1604 0.275229 40.1604 0.321101C40.5755 0.183486 40.9906 0.0458716 41.5094 0.229358C41.5094 0.229358 41.8208 0.229358 42.0283 0.183486C42.6509 0.0917431 42.9623 0.137615 43.2736 0.321101C43.5849 0.275229 43.8962 0.183486 44.2076 0.137615V0.321101C44.2076 0.321101 45.0377 0.183486 45.4528 0.137615C45.6604 0.275229 45.8679 0.366972 46.0755 0.458716C46.4906 0.366972 46.8019 0.275229 47.1132 0.183486C47.1132 0.229358 46.9057 0.321101 46.8019 0.366973C47.0094 0.321101 47.217 0.183486 47.3208 0.229358C47.8396 0.366973 48.1509 0.137615 48.566 0.0917431C48.6698 0.0917431 48.8774 0.0917431 48.9811 0.0917431C49.3962 0.229358 49.8113 0.0917431 50.2264 0.0917431C50.2264 0.137615 50.2264 0.183486 50.2264 0.275229C50.434 0.183486 50.6415 0.137615 50.8491 0.0458716C50.9528 0.137615 51.0566 0.229358 51.2641 0.275229C51.4717 0.275229 51.6792 0.229358 51.8868 0.183486C52.0943 0.183486 52.3019 0.183486 52.4057 0.183486C52.6132 0.183486 52.717 0.183486 52.9245 0.183486V0.321101C52.9245 0.321101 53.0283 0.321101 53.1321 0.321101C53.5472 0.137615 54.066 0.137615 54.5849 0.183486C54.7924 0.183486 55 0.183486 55.2075 0.183486C55.6226 0.137615 56.1415 0.0917431 56.6604 0.0458716C56.6604 0.183486 56.6604 0.229358 56.5566 0.366973C57.283 0.183486 58.0094 0.321101 58.5283 0.137615C58.7358 0.229358 58.9434 0.321101 59.0472 0.321101C59.3585 0.229358 59.6698 0.321101 59.9811 0.321101C60.3962 0.321101 60.9151 0.229358 61.3302 0.183486C61.434 0.183486 61.6415 0.183486 61.7453 0.183486C62.1604 0.229358 62.5755 0.183486 62.9906 0.183486V0.366973C62.9906 0.366973 63.717 0.229358 64.1321 0.137615C64.1321 0.183486 64.3396 0.229358 64.4434 0.321101C64.9623 0.275229 65.4811 0.183486 66.1038 0.137615C66.2075 0.229358 66.3113 0.275229 66.4151 0.366973C66.6226 0.275229 66.8302 0.229358 66.934 0.137615C66.934 0.275229 67.1415 0.366972 67.2453 0.550459C67.5566 0.458716 67.7641 0.412844 67.8679 0.321101C68.0755 0.275229 68.283 0.183486 68.4906 0.0917431C68.5943 0.183486 68.6981 0.321101 68.8019 0.366973C69.0094 0.366973 69.217 0.366972 69.4245 0.321101C69.6321 0.275229 69.7358 0.504587 69.9434 0.321101C70.0472 0.229358 70.2547 0.229358 70.4623 0.137615C70.4623 0.229358 70.4623 0.275229 70.4623 0.366973C70.8774 0.275229 71.1887 0.183486 71.5 0.0917431C71.6038 0.183486 71.7075 0.229358 71.8113 0.321101H72.0189C72.5377 0.229358 72.9528 0.137615 73.4717 0.321101C73.5755 0.321101 73.8868 0.321101 74.0943 0.321101C74.1981 0.321101 74.3019 0.275229 74.5094 0.275229C75.2358 0.275229 75.9623 0.229358 76.6887 0.183486C76.6887 0.275229 76.6887 0.321101 76.7924 0.412844C77 0.366973 77.2075 0.321101 77.4151 0.229358C77.4151 0.229358 77.4151 0.275229 77.4151 0.321101C78.0377 0.137615 78.6604 0.183486 79.283 0.137615C79.283 0.137615 79.4906 0.229358 79.6981 0.275229C80.0094 0.275229 80.3207 0.183486 80.6321 0.137615C80.9434 0.137615 81.2547 0.137615 81.566 0.183486C81.566 0.275229 81.3585 0.321101 81.3585 0.412844C81.566 0.321101 81.7736 0.229358 81.9811 0.183486C82.1887 0.0917431 82.3962 0 82.7075 0.183486C82.7075 0.229358 83.2264 0.229358 83.434 0.183486C83.8491 0.0917431 84.0566 0.183486 84.4717 0.183486C84.5755 0.137615 84.783 0.0917431 84.9906 2.56327e-08C84.9906 0.0917431 84.9906 0.0917431 84.9906 0.183486C85.1981 0.229358 85.4057 0.275229 85.6132 0.183486C86.0283 0.0458716 86.5472 -0.0917431 86.9623 0.183486C86.9623 0.183486 87.2736 0.183486 87.4811 0.183486C87.6887 0.183486 87.8962 0.0917431 88.1038 0.0458716C88.1038 0.183486 88.3113 0.275229 88.4151 0.366973C88.4151 0.366973 88.6226 0.366972 88.6226 0.321101C89.1415 0.0917431 89.8679 0.0458716 90.4906 0.137615C90.8019 0.137615 91.0094 0.275229 91.217 0.137615C91.4245 0.229358 91.6321 0.229358 91.9434 0.0917431C91.7358 0.183486 91.7358 0.275229 91.5283 0.366973C92.0472 0.412844 92.1509 0.229358 92.3585 0.183486L92.566 0.275229C92.9811 0.275229 93.2924 0.183486 93.8113 0.275229C94.1226 0.321101 94.6415 0.183486 95.1604 0.137615C95.1604 0.229358 95.1604 0.275229 95.1604 0.412844C95.4717 0.321101 95.783 0.229358 96.0943 0.137615C96.0943 0.137615 96.3019 0.229358 96.4057 0.275229C96.6132 0.229358 96.717 0.183486 96.9245 0.137615C97.3396 0.275229 97.7547 0.229358 98.1698 0.183486C98.3773 0.183486 98.6887 0.137615 98.7925 0.183486C99.2076 0.275229 99.6226 0.275229 100.038 0.137615V0.458716C100.038 0.458716 100.453 0.321101 100.764 0.229358C100.764 0.275229 100.972 0.321101 100.972 0.366973C102.009 0.137615 103.047 0.137615 104.189 0.183486C104.915 0.183486 105.642 0.183486 106.368 0.183486C106.783 0.183486 107.094 0.183486 107.198 0.366973C107.717 0.275229 108.34 0.366972 108.858 0.183486C109.066 0.0917431 109.585 0.137615 109.896 0.183486C110.104 0.183486 110.208 0.321101 110.311 0.412844C110.83 0.366973 111.245 0.0917431 112.075 0.183486C112.075 0.275229 111.868 0.366972 111.868 0.458716C112.179 0.366972 112.387 0.275229 112.698 0.183486C112.698 0.229358 112.906 0.275229 113.009 0.366973C113.113 0.366973 113.321 0.275229 113.425 0.275229V0.412844C114.981 0.137615 114.981 0.183486 115.5 0.366973C115.915 0.183486 116.33 0.137615 116.953 0.183486C116.953 0.229358 116.953 0.321101 116.953 0.366973H117.16C117.679 0.0917431 118.406 0.137615 119.028 0.183486C119.132 0.183486 119.34 0.183486 119.443 0.183486C119.443 0.229358 119.34 0.275229 119.236 0.366973C119.651 0.366973 119.858 0.229358 120.17 0.137615C120.17 0.137615 120.274 0.229358 120.377 0.229358C120.689 0.229358 120.896 0.137615 121.208 0.183486C121.623 0.183486 121.726 0.229358 121.934 0.183486C122.557 0.366972 123.179 0.183486 123.802 0.229358C123.802 0.229358 123.802 0.321101 123.906 0.412844C124.321 0.412844 124.632 0.0458716 125.047 0.412844C125.566 0.321101 126.085 0.275229 126.604 0.183486C126.604 0.275229 126.604 0.366972 126.5 0.458716C127.123 0.412844 127.642 0.0458716 128.472 0.229358C128.472 0.229358 128.472 0.275229 128.472 0.321101C128.472 0.321101 128.472 0.366973 128.575 0.412844C128.783 0.321101 128.991 0.275229 129.302 0.183486C129.406 0.275229 129.613 0.366972 129.717 0.458716C130.236 0.366972 130.755 0.275229 131.17 0.183486C131.377 0.183486 131.481 0.183486 131.689 0.229358C131.896 0.366973 132.311 0.229358 132.623 0.229358C132.934 0.229358 133.141 0.137615 133.453 0.229358C133.453 0.229358 133.66 0.229358 133.764 0.229358C133.972 0.229358 134.179 0.229358 134.491 0.137615C134.491 0.229358 134.283 0.321101 134.283 0.412844C134.698 0.366973 135.217 0.321101 135.632 0.229358C136.047 0.458716 136.462 0.137615 136.877 0.229358C137.292 0.229358 137.811 0.229358 138.226 0.229358C138.226 0.321101 138.226 0.366973 138.33 0.412844C138.745 0.366973 139.264 0.275229 139.783 0.229358C139.783 0.275229 139.887 0.321101 139.991 0.412844C140.406 0.366973 140.717 0.275229 141.132 0.229358C141.547 0.229358 141.962 0.229358 142.377 0.229358C142.377 0.321101 142.585 0.412844 142.585 0.504587C142.792 0.504587 143 0.458716 143.104 0.412844C143.311 0.366973 143.519 0.275229 143.726 0.183486C143.83 0.275229 143.934 0.366972 144.141 0.458716C144.453 0.458716 144.972 0.412844 145.283 0.321101C145.906 0.137615 146.632 0.137615 147.255 0.321101C147.255 0.412844 147.255 0.504587 147.255 0.688073C147.877 0.412844 148.5 0.366972 149.123 0.321101C149.33 0.321101 149.641 0.321101 149.849 0.321101C150.057 0.321101 150.264 0.321101 150.575 0.321101C150.887 0.229358 151.406 0.229358 151.717 0.275229C152.236 0.366973 152.858 0.275229 153.377 0.275229C153.585 0.275229 153.689 0.366973 154 0.412844C154 0.412844 154.104 0.412844 154.311 0.321101C154.415 0.321101 154.623 0.321101 154.726 0.412844C155.038 0.59633 155.349 0.504587 155.764 0.412844C156.491 0.229358 156.802 0.183486 157.528 0.412844C157.528 0.412844 157.736 0.458716 157.84 0.412844C158.255 0.275229 158.462 0.412844 158.67 0.504587C159.085 0.412844 159.604 0.321101 160.019 0.229358C160.019 0.275229 160.123 0.321101 160.123 0.366973C160.434 0.366973 160.642 0.366972 160.953 0.321101C161.368 0.229358 161.575 0.275229 161.679 0.458716C162.613 0.275229 163.443 0.366972 164.274 0.321101C165.104 0.229358 166.038 0.275229 166.972 0.229358V0.366973C166.972 0.366973 167.075 0.366973 167.179 0.366973C167.698 0.229358 168.321 0.458716 168.736 0.366973C169.151 0.229358 169.67 0.229358 170.189 0.275229C170.396 0.275229 170.604 0.275229 170.915 0.275229C171.123 0.275229 171.33 0.275229 171.434 0.275229C171.849 0.275229 172.16 0.321101 172.575 0.275229C172.783 0.275229 173.094 0.275229 172.991 0.458716C173.198 0.366972 173.406 0.321101 173.717 0.229358C173.717 0.321101 173.717 0.412844 173.613 0.504587H173.821C174.132 0.412844 174.236 0.229358 174.755 0.275229C174.755 0.321101 174.547 0.412844 174.443 0.458716C175.17 0.642202 175.585 0.412844 175.792 0.321101C176.623 0.321101 177.141 0.321101 177.868 0.275229V0.550459C177.868 0.550459 178.387 0.366973 178.594 0.275229C178.802 0.366973 178.906 0.458716 179.009 0.504587C179.736 0.458716 180.151 0.0917431 181.085 0.229358C181.085 0.229358 181.085 0.275229 181.189 0.321101C181.396 0.321101 181.604 0.229358 181.811 0.229358C182.123 0.183486 182.33 0.137615 182.642 0.229358C182.849 0.321101 183.264 0.366973 183.575 0.229358C183.887 0.0917431 184.302 0.137615 184.406 0.229358C184.613 0.366973 184.717 0.321101 185.028 0.366973C185.547 0.366973 185.651 0.504587 185.443 0.733945C185.651 0.825688 186.066 0.825688 185.858 1.00917C185.755 1.10092 185.547 1.23853 185.443 1.33028C185.962 1.37615 186.066 1.42202 185.962 1.69725C185.962 1.83486 185.962 1.97248 185.962 2.15596C185.962 2.15596 185.962 2.24771 185.962 2.29358C186.481 2.56881 185.962 2.75229 185.755 2.93578C185.858 3.07339 186.066 3.16514 186.066 3.25688C186.066 3.34862 185.858 3.44037 185.755 3.57798H186.17C186.377 3.94495 186.17 4.26606 185.755 4.58716C185.962 4.58716 186.066 4.58716 186.274 4.58716C186.274 4.86239 186.274 5.18349 186.274 5.45872C186.274 5.68807 185.962 5.87156 185.651 6.05505C185.755 6.10092 185.858 6.14679 186.066 6.23853C185.858 6.42202 185.651 6.6055 185.34 6.83486C185.651 6.92661 185.755 6.74312 186.066 6.74312C186.377 6.97248 186.066 7.15596 185.755 7.33945C185.962 7.33945 186.066 7.38532 186.274 7.43119C186.274 7.56881 186.066 7.75229 185.962 7.93578C185.962 7.93578 186.17 8.07339 186.17 8.11927C186.17 8.21101 186.17 8.34862 185.962 8.3945C185.651 8.53211 185.962 8.62385 185.962 8.76147C185.962 8.76147 186.17 8.76147 186.274 8.76147C186.066 8.89908 185.962 9.0367 186.17 9.17431C186.17 9.26605 186.17 9.40367 185.962 9.54129C185.858 9.58716 185.858 9.6789 185.755 9.81651C185.962 9.81651 186.17 9.81651 186.377 9.81651C186.17 9.95413 185.962 10.0459 185.755 10.1835C185.962 10.1835 186.17 10.1835 186.377 10.1835C186.377 10.4128 186.377 10.6422 186.17 10.8716C186.066 11.0092 185.962 11.1468 185.858 11.3303C185.755 11.422 185.858 11.6514 186.377 11.6055C186.17 11.7431 186.066 11.8349 185.962 11.9266C186.377 12.1101 186.377 12.3394 186.066 12.5688C185.962 12.7064 185.651 12.7982 185.962 12.9358C185.962 12.9358 185.962 13.0275 185.962 13.0734C185.962 13.1651 185.858 13.2569 185.651 13.3945C185.858 13.3945 185.962 13.3945 186.17 13.3945C186.377 13.6697 185.651 13.6697 185.547 13.8991C185.962 13.8991 186.066 13.7615 186.377 13.7156C186.17 14.1284 186.377 14.5872 185.651 14.9541C185.858 14.9541 185.962 14.9541 185.962 14.9541C186.274 14.9541 186.377 15 186.274 15.0917C186.274 15.1835 186.274 15.2752 186.066 15.3211C185.858 15.5046 186.066 15.6422 186.066 15.8257C186.066 16.0092 186.066 16.1927 185.858 16.4679C185.858 16.4679 186.066 16.6055 186.274 16.6972C185.962 16.8349 185.651 17.0183 185.236 17.2477C185.547 17.2018 185.651 17.156 185.755 17.156C185.962 17.3853 186.481 17.6147 185.962 17.8899V17.9817C185.962 17.9817 186.066 18.0734 185.962 18.0734C185.547 18.3028 185.651 18.6697 185.132 18.8991C185.132 18.8991 185.132 18.8991 185.132 18.9908C185.443 18.9908 185.651 18.9908 185.962 18.9908C185.962 19.1284 185.547 19.2661 185.962 19.3578C185.962 19.3578 185.962 19.4037 185.962 19.4495C185.962 19.6789 185.858 20.4128 185.547 20.6422C185.547 20.6422 185.755 20.6881 185.858 20.7339C185.755 20.8257 185.547 20.9174 185.443 21.055C185.651 21.055 185.755 21.1468 185.962 21.1468C185.962 21.2385 185.755 21.3761 185.547 21.5138C185.755 21.5138 185.858 21.5596 185.962 21.5596C185.755 21.789 185.443 21.9266 185.651 22.1101C185.651 22.1101 185.651 22.2936 185.443 22.3394C185.34 22.4312 185.132 22.4771 184.925 22.6147C185.236 22.6147 185.443 22.6147 185.651 22.6147C185.962 22.8899 185.755 23.1651 185.34 23.4404C185.443 23.4404 185.547 23.4404 185.651 23.4404C185.443 23.5321 185.34 23.6697 185.028 23.8073C185.34 23.8073 185.547 23.7615 185.651 23.7156C185.651 23.7615 185.651 23.8532 185.651 23.8532C185.858 24.0367 185.651 24.1743 185.651 24.3578C185.651 24.4495 185.651 24.5413 185.651 24.7248C185.651 24.7248 185.443 24.8624 185.236 24.9541C185.443 25.0459 185.651 25.0917 185.858 25.1835C185.651 25.4128 185.443 25.6422 185.236 25.8716C185.651 26.0092 185.028 26.3761 185.858 26.5138C185.651 26.6055 185.443 26.6972 185.236 26.789C185.236 26.9266 185.236 27.0642 185.236 27.2477C185.34 27.2477 185.651 27.3395 185.651 27.3395C185.651 27.4771 185.547 27.6605 185.34 27.7982C185.34 27.8899 185.028 27.9816 184.821 28.0734C185.132 28.0734 185.236 28.0734 185.443 28.1193C185.236 28.211 185.132 28.3028 185.028 28.4404C185.028 28.4404 185.028 28.4404 185.028 28.578C185.34 28.4862 185.443 28.4404 185.755 28.3486C185.755 28.4862 185.132 28.578 185.755 28.7156C185.547 28.8532 185.443 28.9908 185.755 29.0826V29.1743C185.755 29.3119 185.443 29.4495 185.547 29.5413C185.755 29.7248 185.236 29.7248 185.236 29.8165C185.236 29.9083 185.236 30.0917 185.651 30.1376C185.547 30.3211 185.858 30.5505 185.547 30.7339C185.132 30.9174 185.236 31.055 185.34 31.3303C185.34 31.5596 185.443 31.8349 185.755 32.0642C185.651 32.1101 185.443 32.2018 185.34 32.2477C185.34 32.3395 185.132 32.4771 185.34 32.4771C185.962 32.7523 185.651 33.0275 185.34 33.3027C185.547 33.3027 185.651 33.3027 185.858 33.3027C185.858 33.3486 185.651 33.3945 185.755 33.4404C185.962 33.6697 185.755 33.8991 185.547 34.0826C185.547 34.0826 185.547 34.2202 185.547 34.2661C185.755 34.4495 185.962 34.633 185.547 34.9083C185.34 35.0459 185.132 35.2752 185.547 35.4587C185.547 35.5963 185.34 35.7339 185.236 35.9174C185.443 35.9174 185.547 35.9174 185.651 35.9174C185.651 35.9174 185.651 35.9174 185.651 35.9633C185.34 36.1009 185.443 36.2844 185.443 36.4679C185.443 36.6514 185.443 36.8807 185.443 37.0642C185.443 37.0642 185.651 37.0642 185.755 37.0183C185.547 37.2477 185.443 37.4771 185.34 37.7523C185.547 37.7523 185.755 37.7523 185.858 37.7523C185.755 37.844 185.651 37.9358 185.443 38.0734C185.962 38.2569 185.858 38.4404 185.443 38.6697C185.755 38.8532 185.858 38.9908 185.547 39.2202C185.443 39.2661 185.34 39.4037 185.547 39.4495C185.858 39.7248 185.547 39.9083 185.132 40.0459C185.132 40.0459 185.132 40.0917 184.925 40.1376C185.236 40.1376 185.443 40.1376 185.651 40.1835C185.547 40.5505 185.858 40.8716 185.651 41.2385C185.651 41.2385 185.478 41.2997 185.132 41.422C185.132 41.422 185.443 41.2844 185.651 41.1927C185.443 41.3761 185.236 41.5138 185.132 41.7431C185.34 41.7431 185.547 41.7431 185.755 41.7431C185.443 41.9266 185.962 42.2477 185.236 42.3853C186.17 42.6605 185.755 42.8899 185.443 43.211C185.132 43.4404 185.236 43.6697 185.443 43.8991C185.443 43.945 185.651 44.0826 185.443 44.1284C185.236 44.2661 185.443 44.4037 185.651 44.4495C185.651 44.5872 185.132 44.6789 185.651 44.8165C185.651 44.8165 185.651 44.9541 185.651 45C185.651 45.0917 185.443 45.1376 185.34 45.2294C185.443 45.2294 185.651 45.2752 185.755 45.3211C185.755 45.5963 185.443 45.9174 185.547 46.1927C185.547 46.3303 185.547 46.422 185.443 46.5596C185.443 46.6514 185.443 46.789 185.547 46.9266C185.547 46.9725 185.755 47.0642 185.755 47.0642C185.547 47.2477 185.755 47.3853 185.755 47.5688C185.755 47.7982 185.755 48.0275 185.34 48.211C185.236 48.3028 185.132 48.4404 185.028 48.578C185.34 48.578 185.443 48.578 185.651 48.578C185.34 48.7156 185.132 48.8532 184.821 49.0826C185.132 49.0826 185.34 49.0367 185.547 48.9908C185.547 49.0826 185.547 49.1743 185.547 49.2202C185.443 49.3578 185.547 49.4954 185.547 49.633C185.755 49.8165 185.547 49.9541 185.132 49.9083C184.406 49.9083 183.783 49.9541 183.057 49.8165C182.849 49.7706 182.434 49.7706 182.226 49.8165C181.604 50 180.981 49.9083 180.358 49.9083C180.151 49.9083 180.047 49.9083 179.943 49.9083C179.943 49.8165 179.84 49.7706 179.736 49.6789C179.321 49.9541 179.217 50 178.387 49.9083C178.387 49.8165 178.491 49.7706 178.594 49.633C178.075 49.7248 177.66 49.8624 177.245 49.9083C177.038 49.9083 176.83 49.9083 176.623 49.9083C176 49.8624 175.792 49.9083 175.17 49.9083C174.858 49.9083 174.547 49.9083 174.132 50C174.132 49.9083 174.236 49.8165 174.34 49.7706H174.132C173.821 49.8165 173.509 49.9541 173.094 49.7706C173.094 49.7706 172.783 49.7706 172.679 49.8165C172.679 49.7706 172.783 49.6789 172.887 49.5413C172.541 49.6636 172.472 49.7401 172.679 49.7706L173.821 49.3578ZM69.1132 0.688073C69.1132 0.688073 68.5943 0.733945 68.283 0.779816C67.9717 0.550459 67.8679 0.550459 67.0377 0.779816C67.0377 0.688073 67.2453 0.642202 67.3491 0.550459C66.6226 0.458716 66.2075 0.642202 65.6887 0.779816C65.4811 0.733945 65.3774 0.688073 65.1698 0.642202C64.7547 0.825688 64.3396 0.825688 63.8208 0.733945C63.6132 0.733945 63.4057 0.733945 63.1981 0.733945C62.783 0.733945 62.4717 0.779817 62.0566 0.733945C61.9528 0.733945 61.8491 0.59633 61.6415 0.458716C61.3302 0.550459 61.0189 0.642202 60.6038 0.733945C60.5 0.550459 60.1887 0.59633 59.9811 0.642202C59.4623 0.733945 58.9434 0.779817 58.3208 0.642202C58.217 0.642202 58.0094 0.642202 57.9057 0.642202C57.3868 0.642202 56.8679 0.733945 56.3491 0.779816C56.3491 0.779816 56.1415 0.779816 56.0377 0.779816C56.0377 0.688073 56.2453 0.59633 56.2453 0.458716C56.2453 0.458716 56.2453 0.458716 56.1415 0.458716C55.8302 0.550459 55.6226 0.642202 55.3113 0.733945C55.2075 0.688073 55.1038 0.59633 55 0.59633C54.2736 0.59633 53.5472 0.825688 52.8208 0.642202C52.5094 0.779817 52.0943 0.642202 51.783 0.642202C51.3679 0.642202 51.1604 0.642202 50.8491 0.504587C50.8491 0.504587 50.434 0.535168 49.6038 0.59633H49.5C49.1887 0.733945 48.7736 0.688073 48.3585 0.688073C47.8396 0.688073 47.4245 0.688073 47.0094 0.733945C47.0094 0.642202 46.9057 0.59633 46.8019 0.504587C46.3868 0.550459 46.0755 0.59633 45.7641 0.642202C45.6604 0.550459 45.5566 0.458716 45.3491 0.275229C45.1415 0.412844 45.1415 0.504587 44.934 0.550459C44.934 0.550459 44.7264 0.642202 44.6226 0.642202C44.1038 0.59633 43.6887 0.642202 43.1698 0.642202C42.5472 0.642202 41.9245 0.550459 41.1981 0.59633C40.4717 0.59633 39.7453 0.550459 39.0189 0.59633C38.6038 0.642202 37.8774 0.779817 37.566 0.458716C37.0472 0.504587 36.7358 0.59633 36.3208 0.642202C35.5943 0.688073 34.8679 0.412844 34.1415 0.642202C33.7264 0.458716 33.3113 0.642202 32.7924 0.59633C32.5849 0.59633 32.3774 0.59633 32.1698 0.59633C31.7547 0.59633 31.4434 0.779817 31.1321 0.504587C31.1321 0.504587 30.9245 0.504587 30.8208 0.504587C30.5094 0.504587 30.3019 0.504587 29.9906 0.504587C29.9906 0.412844 30.0943 0.366973 30.1981 0.229358C29.8868 0.321101 29.6792 0.366973 29.5755 0.412844C29.3679 0.458716 29.2641 0.504587 29.0566 0.59633C28.5377 0.733945 28.0189 0.688073 27.5 0.59633C27.2925 0.550459 26.8774 0.550459 26.6698 0.59633C26.2547 0.688073 25.8396 0.825688 25.3208 0.642202C25.3208 0.642202 25.217 0.642202 25.1132 0.642202C24.6981 0.642202 24.3868 0.733945 24.0755 0.733945C24.0755 0.642202 24.0755 0.550459 24.0755 0.550459C23.6604 0.550459 23.3491 0.550459 22.934 0.550459C22.7264 0.550459 22.5189 0.550459 22.2075 0.642202C21.7925 0.779817 21.2736 0.733945 20.8585 0.550459C20.1321 0.779817 19.3019 0.733945 18.4717 0.59633C18.1604 0.59633 17.8491 0.59633 17.5377 0.59633C17.2264 0.642202 16.9151 0.733945 16.6038 0.59633C16.6038 0.59633 16.3962 0.59633 16.2925 0.59633C15.7736 0.59633 15.1509 0.642202 14.6321 0.688073C14.6321 0.59633 14.6321 0.550459 14.5283 0.458716C14.3208 0.550459 14.217 0.59633 14.0094 0.642202L13.8019 0.550459C13.3868 0.642202 12.9717 0.550459 12.5566 0.59633C11.934 0.59633 11.3113 0.688073 10.6887 0.688073C10.3774 0.412844 10.3774 0.412844 9.85849 0.504587C9.4434 0.59633 8.92453 0.779817 8.40566 0.504587C8.09434 0.550459 7.88679 0.59633 7.57547 0.642202C7.57547 0.504587 7.4717 0.366973 7.36792 0.275229C7.0566 0.366973 6.74528 0.504587 6.33019 0.642202C6.33019 0.550459 6.33019 0.458716 6.22642 0.412844C5.70755 0.458716 5.18868 0.504587 4.66981 0.550459V0.321101C4.66981 0.321101 4.04717 0.642202 3.5283 0.550459C3.00943 0.688073 2.49057 0.825688 2.17925 1.10092C2.17925 1.10092 2.17925 1.19266 2.17925 1.23853C2.17925 1.6055 2.38679 1.97248 1.5566 2.24771C1.5566 2.24771 1.45283 2.33945 1.24528 2.47706C1.66038 2.38532 1.86792 2.33945 2.17925 2.29358C2.17925 2.43119 2.07547 2.52294 2.17925 2.61468C2.38679 2.98165 2.07547 3.25688 1.5566 3.57798C1.5566 3.57798 1.5566 3.57798 1.5566 3.66972C1.76415 3.66972 1.9717 3.66972 2.17925 3.66972C1.86792 3.94495 1.86792 3.94495 2.17925 4.17431V4.26606C2.07547 4.54128 1.9717 4.86239 1.76415 5.13761C1.76415 5.13761 1.9717 5.13761 2.28302 5.09174C2.07547 5.22936 1.9717 5.27523 1.76415 5.36697C2.28302 5.59633 2.28302 5.82569 1.76415 6.00917C2.17924 6.2844 2.38679 6.55963 1.86792 6.88073C1.86792 6.88073 1.86792 6.97248 1.86792 7.01835C1.86792 7.15596 1.9717 7.33945 2.07547 7.47706C1.86792 7.56881 1.66038 7.66055 1.34906 7.79816C1.76415 7.79816 1.9717 7.79816 2.28302 7.79816C2.07547 8.11927 1.86792 8.3945 1.76415 8.66972C1.76415 8.7156 1.76415 8.80734 1.76415 8.85321C1.76415 8.99082 1.86792 9.08257 1.9717 9.26606H2.38679C2.38679 9.26606 2.38679 9.40367 2.28302 9.44954C1.9717 9.6789 2.28302 9.95413 2.17925 10.1835C2.69811 10.4128 2.38679 10.5963 1.9717 10.7798C2.17925 10.9633 2.38679 11.1927 2.17925 11.422C2.07547 11.5596 2.17925 11.6972 2.17925 11.8349C2.28302 11.9266 2.17925 12.1101 2.17925 12.2477C2.17925 12.4312 1.9717 12.6606 2.17925 12.844C2.28302 13.0275 2.17925 13.1651 2.17925 13.3486C2.17925 13.4404 1.9717 13.6239 2.07547 13.6697C2.49057 13.8073 2.17925 13.945 2.17925 14.0826C2.17925 14.1743 2.17925 14.3119 2.17925 14.4037C2.28302 14.5413 2.28302 14.633 2.17925 14.7706C2.07547 14.8165 1.9717 14.9083 2.17925 14.9541C2.17925 14.9541 2.17925 15.0917 2.17925 15.1376C2.17925 15.2294 1.9717 15.3211 1.86792 15.4128C2.69811 15.4587 1.66038 15.7798 2.28302 15.9174C2.17924 16.1009 1.9717 16.2385 1.86792 16.422C2.07547 16.422 2.17925 16.422 2.38679 16.422C2.28302 16.6055 2.17925 16.7431 1.9717 16.8349C1.9717 16.8349 2.17924 16.8807 2.28302 16.9266C2.07547 17.0642 1.9717 17.156 1.76415 17.2477C2.17924 17.3394 2.28302 17.3853 2.28302 17.5229C2.17924 17.7982 1.9717 18.0275 1.76415 18.3486C2.07547 18.3486 2.17925 18.5321 2.07547 18.6697C2.07547 18.7615 2.07547 18.8532 2.07547 18.8991C2.49057 19.0367 2.07547 19.1743 2.07547 19.3119C2.90566 19.5872 2.07547 19.8165 1.86792 20.0459C2.07547 20.0459 2.28302 20.0459 2.49057 20.0459C2.28302 20.367 2.07547 20.6422 1.86792 20.9633C2.07547 20.9633 2.17925 20.9633 2.38679 21.0092C2.38679 21.2844 1.86792 21.5138 2.07547 21.789C1.76415 21.9725 2.07547 22.1101 2.28302 22.2936C2.17924 22.3853 2.07547 22.4312 1.86792 22.5688C2.07547 22.5688 2.17924 22.5688 2.28302 22.5688C2.28302 22.7523 2.38679 22.9816 2.28302 23.1651C2.28302 23.3486 1.86792 23.5321 1.66038 23.7156C1.86792 23.7156 1.9717 23.7156 2.17925 23.7156C1.9717 23.8532 1.86792 23.9908 1.76415 24.0367C1.86792 24.1743 2.07547 24.2661 2.07547 24.3119C2.07547 24.5413 2.07547 24.7706 2.07547 25C2.07547 25.1376 2.07547 25.3211 2.07547 25.5046C2.49057 25.7339 2.07547 26.055 1.86792 26.3303C2.28302 26.3303 2.28302 26.422 2.17925 26.5596C2.17925 26.6972 1.86792 26.8807 1.9717 26.9266C2.38679 27.1101 2.17925 27.2477 1.9717 27.3853C1.86792 27.4771 1.86792 27.6147 1.9717 27.7523C1.9717 27.844 1.66038 27.9816 2.17925 28.0275C2.17925 28.0275 2.17925 28.2569 2.17925 28.3486C2.17925 28.4862 2.17924 28.6239 2.28302 28.7156C2.28302 28.7156 2.28302 28.8532 2.28302 28.8991C1.9717 29.1284 2.38679 29.3578 2.07547 29.5872C2.49057 29.7248 1.9717 29.8165 1.9717 29.9541C2.28302 29.9541 2.38679 30 2.38679 30.1376C2.28302 30.4587 2.17925 30.7798 2.07547 31.1009C2.49057 31.2844 2.49057 31.2844 2.28302 31.5596C2.28302 31.6514 2.07547 31.7431 1.9717 31.8349C1.9717 31.8349 1.9717 31.8349 1.9717 31.9266C2.07547 31.9266 2.28302 31.9266 2.38679 31.9266C2.38679 31.9725 2.38679 32.0183 2.38679 32.0642C2.38679 32.2477 2.07547 32.4312 2.28302 32.5688C2.69811 32.844 2.07547 32.8899 1.9717 33.0275C1.9717 33.0275 1.9717 33.0734 1.9717 33.1193C2.17925 33.1193 2.28302 33.1193 2.49057 33.1193C2.49057 33.211 2.38679 33.211 2.28302 33.2569C1.9717 33.4404 2.38679 33.6239 2.28302 33.8073C2.90566 33.8991 2.49057 34.0826 2.49057 34.2202C2.49057 34.3119 2.49057 34.4037 2.49057 34.4954C2.49057 34.7248 2.59434 34.9541 2.17925 35.1376C2.17925 35.1376 2.17925 35.1376 2.17925 35.2294C2.17925 35.2294 2.38679 35.2294 2.59434 35.3211C2.07547 35.4587 2.59434 35.6422 2.59434 35.7798C2.38679 36.055 2.80189 36.3303 2.38679 36.5596C2.38679 36.5596 2.38679 36.6514 2.49057 36.6514C2.49057 36.6972 2.59434 36.7431 2.59434 36.8349C2.59434 37.1101 2.59434 37.4312 2.28302 37.7064C2.07547 37.844 2.07547 37.9816 2.28302 38.1193C2.38679 38.1193 2.49057 38.1193 2.59434 38.1193C2.59434 38.211 2.38679 38.3486 2.49057 38.3486C2.80189 38.4404 2.59434 38.5321 2.49057 38.6239C2.49057 38.6697 2.28302 38.7615 2.38679 38.7615C2.69811 38.945 2.38679 39.0367 2.17925 39.1743C2.28302 39.2661 2.49057 39.3578 2.49057 39.4037C2.38679 39.5413 2.49057 39.6789 2.49057 39.8165C2.59434 39.9083 2.59434 40.0459 2.49057 40.1376C2.38679 40.1835 2.28302 40.2752 2.28302 40.367C2.49057 40.367 2.59434 40.4128 2.69811 40.4587C2.07547 40.7339 2.28302 41.1009 2.07547 41.4679C2.28302 41.4679 2.38679 41.4679 2.69811 41.5138C2.49057 41.7431 2.38679 41.9725 2.17925 42.2018C2.38679 42.2018 2.49057 42.2018 2.59434 42.156C2.59434 42.3394 2.59434 42.4771 2.59434 42.6147C2.38679 42.7064 2.17925 42.7982 1.86792 42.8899C2.07547 42.9817 2.17924 43.0275 2.28302 43.0734C2.28302 43.1193 2.49057 43.211 2.49057 43.2569C2.21384 43.5015 2.21384 43.685 2.49057 43.8073C2.49057 43.8073 2.07547 44.0367 1.76415 44.2202C2.07547 44.2202 2.17925 44.1284 2.49057 44.0826C2.17925 44.2661 2.07547 44.4037 2.49057 44.5413C2.49057 44.5413 2.49057 44.6789 2.49057 44.7248C2.49057 44.7706 2.38679 44.8624 2.49057 44.8624C2.80189 45.0459 2.17925 45.2752 2.49057 45.4587C2.28302 45.6422 2.49057 45.7798 2.49057 45.9633C2.49057 46.1009 2.49057 46.1927 2.49057 46.3303C2.38679 46.4679 2.28302 46.6514 2.49057 46.7431C2.80189 46.8807 2.69811 46.9725 2.49057 47.1101C2.38679 47.2018 2.28302 47.2936 2.17925 47.4312C2.38679 47.4312 2.49057 47.4771 2.69811 47.5229C2.17925 47.7064 2.38679 47.9817 2.38679 48.211C2.38679 48.4404 2.80189 48.578 2.90566 48.7615L3.11321 48.8073C3.5283 48.6697 3.73585 48.8991 4.15094 48.945C4.46226 48.8532 4.66981 48.7615 4.98113 48.6697C4.98113 48.7615 4.98113 48.8532 4.87736 48.945C5.39623 48.945 5.5 48.578 6.12264 48.7615C6.12264 48.8532 6.01887 48.8991 5.91509 48.945C6.74528 48.9908 7.26415 48.7156 7.99057 48.6697C7.99057 48.8073 7.99057 48.8532 7.99057 48.9908C8.50943 48.8991 8.92453 48.8073 9.33962 48.6697C9.54717 48.7615 9.75472 48.8532 9.96226 48.945C10.1698 48.8532 10.4811 48.7615 10.6887 48.6697C10.8962 48.7615 11 48.8073 11.2075 48.8532C11.8302 48.8073 12.3491 48.578 12.8679 48.8532C13.0755 48.8073 13.1792 48.7615 13.283 48.7156C13.3868 48.7156 13.5943 48.8073 13.5943 48.8073C14.217 48.6239 14.9434 48.8073 15.6698 48.6697C15.7736 48.6697 15.9811 48.6697 16.0849 48.6697C16.0849 48.7615 16.0849 48.8073 16.0849 48.8532C16.6038 48.7615 17.0189 48.7156 17.5377 48.6238C18.0566 48.5321 18.2641 48.8532 18.6792 48.7615C18.6792 48.8532 18.5755 48.8991 18.4717 48.9908C18.6792 48.945 18.8868 48.945 18.8868 48.8991C19.3019 48.6239 19.9245 48.6238 20.4434 48.6238C20.8585 48.6238 21.2736 48.6239 21.6887 48.6697C21.8962 48.6697 22.1038 48.6697 22.2075 48.6697C22.2075 48.7615 22 48.8532 21.8962 48.9908C22.3113 48.8991 22.5189 48.8073 22.7264 48.7615C22.7264 48.8073 22.8302 48.8532 22.934 48.945C23.3491 48.8532 23.7641 48.8532 24.0755 48.7156C24.4906 48.578 24.8019 48.8532 25.1132 48.7156C25.1132 48.8073 25.1132 48.8532 25.0094 48.8991C26.1509 48.8991 27.0849 48.6697 28.1226 48.7156C28.1226 48.8073 28.1226 48.8532 28.1226 48.8991C28.434 48.8532 28.7453 48.7156 28.8491 48.7615C29.2641 48.945 29.5755 48.7615 29.8868 48.7615C30.1981 48.7615 30.6132 48.6239 30.8208 48.8532C31.0283 48.8073 31.2358 48.7615 31.4434 48.7156C31.4434 48.8073 31.4434 48.8532 31.4434 48.9908C31.7547 48.8991 31.9623 48.8532 32.1698 48.7615V48.945C32.1698 48.945 32.3774 48.945 32.4811 48.8991C32.8962 48.7615 33.4151 48.6697 33.934 48.8073C33.934 48.8073 34.1415 48.8073 34.2453 48.8073C34.4528 48.7156 34.7641 48.7156 34.9717 48.8073C35.283 48.8532 35.5943 48.8532 35.8019 48.945C36.0094 49.0367 36.1132 49.0367 36.3208 48.945C36.7358 48.8532 37.1509 48.8073 37.566 48.7156C37.7736 48.7156 38.0849 48.7156 38.0849 48.7156C38.1887 48.8532 38.5 48.8073 38.6038 48.7615C39.0189 48.6697 39.434 48.6239 39.9528 48.7156C39.9528 48.7156 40.1604 48.7156 40.2641 48.7156C40.783 48.578 40.9906 48.7156 41.3019 48.8991C41.5094 48.8073 41.717 48.7615 42.0283 48.6697C42.1321 48.7156 42.2358 48.8073 42.3396 48.8532C42.8585 48.7615 43.3774 48.6697 44 48.7615C44.2075 48.7615 44.4151 48.7156 44.7264 48.6697C44.7264 48.6697 44.8302 48.6697 44.934 48.6697C44.934 48.7615 44.7264 48.8532 44.7264 48.945C44.934 48.945 45.1415 48.945 45.2453 48.8532C45.7641 48.6239 46.283 48.6239 46.9057 48.6697C47.4245 48.6697 48.0472 48.578 48.566 48.7615C48.566 48.7615 48.566 48.7615 48.6698 48.7615C48.8774 48.7615 48.9811 48.7615 49.1887 48.7615C49.3962 48.7615 49.5 48.7615 49.7075 48.7615C49.9151 48.7615 50.2264 48.7156 50.434 48.7615C50.7453 48.7615 51.0566 48.8073 51.4717 48.6238C51.3679 48.7615 51.2641 48.8073 51.2641 48.8532C51.6792 48.8532 51.9906 48.8532 52.4057 48.8073C52.717 48.8073 53.1321 48.7615 53.4434 48.7156C53.8585 48.6239 54.066 48.8073 54.3773 48.8073C54.4811 48.8073 54.5849 48.8073 54.6887 48.8073C55.2075 48.6697 55.7264 48.6697 56.3491 48.8073C56.4528 48.8073 56.7641 48.8991 56.8679 48.8073C57.283 48.7156 57.8019 48.6239 58.3208 48.8073C58.3208 48.8073 58.4245 48.8073 58.5283 48.8073C58.9434 48.8073 59.3585 48.7615 59.7736 48.7156C59.9811 48.7156 60.1887 48.7156 60.2924 48.7156C60.2924 48.7156 60.2925 48.8532 60.3962 48.8991C60.7075 48.8073 61.0189 48.6697 61.1226 48.7156C61.434 48.8073 61.6415 48.7156 61.8491 48.6697C62.0566 48.7156 62.2641 48.7615 62.4717 48.8073C62.783 48.7615 63.0943 48.6239 63.4057 48.6697C64.0283 48.7615 64.6509 48.6697 65.2736 48.6697C65.3773 48.6697 65.4811 48.6697 65.6887 48.6697C65.5849 48.8073 65.4811 48.8991 65.3774 48.9908C65.6887 48.9908 65.8962 48.8991 66.1038 48.8073C66.2075 48.7615 66.4151 48.6697 66.6226 48.6697C66.934 48.6697 67.2453 48.7615 67.4528 48.7615C67.7641 48.7615 68.0755 48.6239 68.283 48.6697C68.6981 48.7615 69.0094 48.7156 69.4245 48.7615C70.2547 48.8532 70.9811 48.8532 71.6038 48.6238C71.6038 48.6697 71.7075 48.7156 71.8113 48.7615C72.2264 48.7615 72.6415 48.6697 72.8491 48.6697C73.1604 48.7615 73.3679 48.8532 73.5755 48.8991C73.9906 48.8073 74.1981 48.7156 74.5094 48.6238C74.5094 48.7156 74.3019 48.8073 74.3019 48.8991C74.6132 48.8073 74.9245 48.7156 75.2358 48.6238C75.2358 48.7615 75.2358 48.8073 75.2358 48.8991C75.8585 48.8073 76.3428 48.792 76.6887 48.8532C76.6887 48.8532 77.2075 48.6697 77.5189 48.6697C78.1415 48.6697 78.7642 48.6697 79.3868 48.6697C79.5943 48.6697 79.8019 48.6697 80.0094 48.6697C80.0094 48.6697 80.0094 48.7615 80.0094 48.8532C80.217 48.8532 80.3207 48.8073 80.3207 48.8073C80.7358 48.8991 80.9434 48.8073 81.2547 48.7156C81.566 48.578 81.9811 48.578 82.1887 48.7156C82.5 48.8532 82.8113 48.7156 82.9151 48.8073C83.2264 48.9908 83.434 48.8073 83.6415 48.8073C83.8491 48.8073 84.0566 48.7156 84.1604 48.7156C84.6792 48.8532 85.3019 48.8073 85.9245 48.7156C85.9245 48.8532 85.9245 48.945 85.717 49.0367C85.9245 48.8991 86.2358 48.8073 86.5472 48.6697C86.9623 48.8532 87.3773 48.7615 87.7924 48.6697C87.7924 48.7615 88 48.8073 88.1038 48.8991C88.4151 48.8073 88.6226 48.6697 88.934 48.6697C89.2453 48.6697 89.5566 48.7615 89.7641 48.7615C90.0755 48.7615 90.283 48.7156 90.5943 48.6697C90.5943 48.7615 90.5943 48.8073 90.5943 48.8532H90.8019C91.4245 48.7156 92.0472 48.9908 92.6698 48.7615C92.6698 48.7615 92.8774 48.7615 92.9811 48.7615C93.5 48.945 93.9151 48.8532 94.3302 48.7156C94.8491 48.5321 95.1604 48.5321 95.783 48.7156C95.783 48.7156 95.9906 48.7156 96.0943 48.7615C96.3019 48.578 96.6132 48.5321 97.0283 48.6238C97.0283 48.6238 97.2358 48.6238 97.3396 48.6238C98.3773 48.4862 99.4151 48.6239 100.453 48.5321C100.453 48.6239 100.453 48.7156 100.453 48.8073C100.868 48.7156 101.283 48.6239 101.698 48.5321C101.906 48.6697 102.113 48.6697 102.528 48.5321C102.632 48.5321 102.943 48.5321 103.047 48.5321C103.358 48.6239 103.67 48.6238 104.085 48.6238C104.5 48.6238 105.019 48.578 105.434 48.5321V48.7156C106.057 48.6239 106.575 48.5321 107.198 48.5321C107.717 48.5321 108.34 48.5321 108.962 48.5321C108.962 48.578 108.858 48.6697 108.755 48.7156C109.066 48.6239 109.377 48.5321 109.689 48.4404C110.208 48.6697 110.726 48.6697 111.349 48.4862C111.453 48.4404 111.972 48.4862 111.972 48.4862C112.075 48.6697 112.387 48.4862 112.594 48.578C112.594 48.6697 112.491 48.7615 112.387 48.8532C112.698 48.8073 112.906 48.7156 113.113 48.6238C113.425 48.4862 113.84 48.4404 114.358 48.4404C114.462 48.4404 114.67 48.5321 114.877 48.6238C115.085 48.6238 115.396 48.5321 115.604 48.4862C115.604 48.4862 115.604 48.4862 115.708 48.4862C115.708 48.5321 115.708 48.6239 115.5 48.7156C115.915 48.6239 116.123 48.4862 116.434 48.4404C116.745 48.4404 117.057 48.578 117.368 48.6697C117.783 48.578 118.198 48.3945 118.925 48.4404C119.443 48.4862 119.962 48.5321 120.274 48.7156C121 48.4862 121.83 48.3486 122.66 48.6238C123.179 48.3945 123.802 48.578 124.425 48.4862C124.425 48.4862 124.425 48.5321 124.632 48.578C124.84 48.578 125.047 48.4862 125.255 48.4404C125.255 48.4862 125.358 48.5321 125.462 48.578C125.774 48.5321 125.981 48.4862 126.292 48.4404C126.292 48.5321 126.292 48.578 126.292 48.6697C127.226 48.3945 127.226 48.3945 127.745 48.578C127.849 48.578 128.057 48.4862 128.16 48.4404C128.679 48.7156 129.094 48.4404 129.509 48.4404C129.717 48.5321 129.925 48.6239 130.132 48.7615C130.34 48.6697 130.547 48.6697 131.066 48.6238C131.066 48.6238 131.274 48.578 131.377 48.5321C131.377 48.5321 131.585 48.4862 131.792 48.4404C131.792 48.5321 131.792 48.578 131.792 48.578C132.208 48.578 132.623 48.4404 132.934 48.4862C133.141 48.4862 133.349 48.4862 133.453 48.4862C133.764 48.4862 134.075 48.4862 134.283 48.4404C134.491 48.4404 134.906 48.3945 134.906 48.5321C135.321 48.5321 135.736 48.5321 136.151 48.578C136.566 48.3945 137.189 48.4404 137.811 48.4862V48.7156C137.811 48.7156 138.434 48.578 138.745 48.5321C139.057 48.5321 139.264 48.3486 139.575 48.5321C139.575 48.5321 139.783 48.5321 139.887 48.5321C140.094 48.5321 140.302 48.5321 140.509 48.5321C141.028 48.5321 141.547 48.6239 142.17 48.5321C142.689 48.4862 143.311 48.4404 143.934 48.3945C144.141 48.3945 144.349 48.3945 144.453 48.4404C144.66 48.4862 144.868 48.578 145.075 48.6697C145.387 48.578 145.594 48.4862 145.802 48.3945C145.906 48.4862 146.009 48.5321 146.113 48.578C146.736 48.3028 147.462 48.3027 148.292 48.4404C148.396 48.4404 148.604 48.4404 148.811 48.4404C149.434 48.4404 150.057 48.2569 150.472 48.4404C150.783 48.4404 150.991 48.4404 151.198 48.4404C151.406 48.4404 151.717 48.4404 151.925 48.4404C151.925 48.4862 151.925 48.578 152.028 48.6238C152.547 48.6238 152.755 48.2569 153.377 48.3945C153.377 48.4862 153.377 48.5321 153.377 48.6238C153.689 48.5321 153.896 48.4404 154 48.3945C154.311 48.3945 154.519 48.3945 154.726 48.3945C155.142 48.3945 155.453 48.3027 155.868 48.3027C156.283 48.3027 156.698 48.3945 157.009 48.3027C157.632 48.1651 158.047 48.3027 158.358 48.5321C158.67 48.4404 158.877 48.3486 158.981 48.3027C159.292 48.3027 159.5 48.3027 159.708 48.3027H160.019C160.123 48.4404 160.33 48.3945 160.538 48.3027H160.849C161.16 48.3945 161.368 48.3027 161.575 48.3027C161.575 48.3945 161.575 48.4862 161.575 48.6238C162.094 48.4862 162.509 48.3945 163.028 48.4404C163.34 48.4404 163.651 48.3945 163.962 48.3486C164.17 48.3486 164.274 48.3027 164.481 48.3027C164.792 48.3027 165 48.3486 165.311 48.3027C165.519 48.3027 165.934 48.3486 166.245 48.3027H166.453C166.764 48.5321 167.075 48.3945 167.491 48.3027C167.906 48.211 168.321 48.211 168.632 48.3945C168.943 48.3945 169.151 48.3027 169.358 48.2569C169.462 48.3027 169.566 48.3486 169.67 48.4404C170.085 48.3945 170.5 48.3486 171.019 48.3027V48.6238C171.538 48.4862 172.057 48.3945 172.679 48.2569C172.472 48.3945 172.368 48.4862 172.16 48.6238C172.575 48.578 172.783 48.5321 172.991 48.4862C173.302 48.4862 173.509 48.4862 173.821 48.4862H174.028C174.34 48.3027 174.755 48.3027 175.17 48.3027C175.377 48.6239 175.585 48.3945 175.896 48.3027C176 48.3945 176.104 48.4862 176.311 48.5321C176.934 48.4404 177.453 48.3945 178.075 48.3027V48.4404C178.594 48.578 179.009 48.5321 179.425 48.3486C179.736 48.211 180.255 48.2569 180.67 48.1651C181.085 48.3486 181.292 48.1651 181.604 48.1193C182.019 48.1193 182.434 48.1651 182.642 47.9817C182.642 47.9817 182.849 47.8899 182.953 47.8899C183.472 47.844 183.679 47.6147 183.887 47.4312C184.094 47.2936 184.302 47.156 184.406 47.0183C184.406 46.9725 184.198 46.8349 184.302 46.8349C184.613 46.6972 184.302 46.5596 184.302 46.422C184.509 46.3303 184.613 46.2385 184.717 46.1468C184.509 46.1468 184.509 46.1468 184.406 46.1468C184.406 46.0092 184.613 45.8716 184.406 45.7798C184.094 45.5505 183.783 45.4128 183.991 45.1376C183.991 45.1376 183.991 45.1376 183.991 45.0917C183.783 44.7706 183.783 44.4954 184.198 44.2202C183.887 44.0826 183.783 43.945 183.887 43.7615C183.887 43.6697 184.094 43.6239 184.198 43.578C184.509 43.3945 184.509 43.3945 184.094 43.2569C184.094 43.2569 183.991 43.211 183.783 43.1651C183.887 42.9358 183.991 42.7523 184.198 42.4771C184.198 42.4771 184.094 42.4771 183.991 42.4771C183.991 42.3853 184.406 42.2477 184.302 42.2477C183.991 42.0642 184.302 41.9266 184.302 41.789C184.302 41.6055 184.302 41.5138 184.094 41.3761C184.094 41.3303 183.887 41.2385 183.783 41.1927C183.887 40.9633 184.406 40.7798 183.887 40.5505C183.887 40.4587 184.094 40.367 184.198 40.2294C183.991 40.2294 183.887 40.2294 183.783 40.2294C183.575 40 183.991 39.8165 184.198 39.633C183.991 39.633 183.783 39.633 183.679 39.5872C183.679 39.4495 183.679 39.3119 183.679 39.2202C183.679 39.0826 183.783 38.945 183.887 38.8532C183.887 38.7615 183.887 38.6239 183.887 38.5321C183.887 38.4404 183.991 38.3028 183.887 38.2569C183.472 38.0734 183.991 37.9817 183.991 37.8899C183.887 37.8899 183.679 37.844 183.679 37.7982C183.679 37.5688 183.679 37.3395 183.575 37.1101C183.575 36.8349 183.783 36.6514 184.198 36.422C183.887 36.422 183.783 36.3761 183.679 36.3303C183.679 36.1468 183.679 35.9633 183.679 35.8257C183.679 35.5046 183.575 35.1376 183.783 34.8165C183.783 34.7248 183.783 34.633 183.783 34.5872C183.575 34.4954 183.679 34.4037 183.679 34.3119C183.679 33.945 183.887 33.6239 183.679 33.3027C183.472 32.8899 183.679 32.5229 183.991 32.156C183.679 32.0183 183.472 31.6055 183.679 31.3761C183.783 31.2385 183.679 31.1009 183.679 30.9174C183.679 30.7798 183.679 30.5963 183.679 30.4128C183.679 30.3211 183.575 30.2294 183.575 30.1376C183.575 29.8624 183.991 29.5872 183.575 29.3119C183.575 29.3119 183.575 29.2202 183.575 29.1743C183.575 29.0826 183.783 28.9908 183.887 28.8991C183.783 28.8991 183.679 28.8532 183.575 28.8073C183.679 28.578 183.887 28.3945 183.991 28.1651C183.679 28.0734 183.472 27.9816 183.679 27.844C183.679 27.7064 183.887 27.6147 183.991 27.4771C183.887 27.4771 183.679 27.4771 183.575 27.4771C183.575 27.2018 183.783 26.8807 183.575 26.6055C183.575 26.5596 183.575 26.4679 183.575 26.422C183.575 26.3761 183.575 26.2844 183.575 26.2385C183.575 26.055 183.472 25.8716 183.472 25.6881C183.472 25.4587 183.679 25.2294 183.575 25C183.368 24.7248 183.575 24.5872 184.094 24.4495C183.887 24.4495 183.679 24.4037 183.679 24.3578C183.679 24.1743 183.368 23.945 183.472 23.7615C183.679 23.4862 183.264 23.1651 183.679 22.8899C183.472 22.6605 183.679 22.4771 183.991 22.3394C183.991 22.3394 183.921 22.2018 183.783 21.9266C183.783 21.9266 183.575 21.8807 183.368 21.8349C183.368 21.6972 183.887 21.6514 183.679 21.4679C183.575 21.3761 183.679 21.1927 183.679 21.1009C184.094 21.1009 184.094 21.055 184.094 20.9633C184.094 20.9633 184.094 20.9633 183.991 20.9174C183.887 21.0092 183.783 21.055 183.679 21.1468C183.887 20.9174 183.472 20.8257 183.264 20.6881C183.472 20.5963 183.575 20.5046 183.679 20.4128C183.575 20.4128 183.472 20.367 183.264 20.3211C183.264 20.2294 183.472 20.1376 183.575 20.0459C183.575 19.9541 183.679 19.8165 183.575 19.7706C183.264 19.633 183.368 19.4954 183.575 19.3578C183.575 19.3578 183.575 19.2661 183.575 19.2202C183.368 18.8532 183.368 18.6697 183.575 18.2569C183.575 18.2569 183.575 18.1651 183.575 18.1193C183.575 18.0275 183.368 17.8899 183.575 17.844C183.783 17.7064 183.575 17.5229 183.679 17.3853C183.679 17.2477 183.991 17.1101 184.094 16.9266C184.094 16.8349 184.094 16.6972 183.575 16.7431C183.575 16.5596 183.575 16.422 183.575 16.2385C183.575 16.055 183.575 15.9174 183.575 15.7339C183.575 15.5963 183.679 15.4587 183.575 15.367C183.472 15.1835 183.368 15.0917 183.575 14.9541V14.9083C183.057 14.7248 183.575 14.5872 183.575 14.4037C183.575 14.3578 183.575 14.2661 183.575 14.2202C183.264 14.0826 183.16 13.8991 183.472 13.7615C183.575 13.6697 183.783 13.578 183.887 13.4862C183.679 13.4862 183.575 13.4862 183.472 13.4862C183.472 13.4404 183.575 13.3945 183.679 13.3028C183.575 13.3028 183.368 13.3028 183.264 13.3028C183.264 13.1651 183.472 13.0275 183.368 12.9358C183.264 12.844 183.368 12.7982 183.368 12.7523C183.472 12.6606 183.575 12.5688 183.679 12.5229C183.472 12.2477 183.264 12.0642 183.264 11.8807C183.264 11.7431 183.472 11.5596 183.575 11.422C183.575 11.3303 183.679 11.2385 183.783 11.1468C183.783 11.1468 183.783 11.1468 183.783 11.1009C183.679 11.1009 183.472 11.1009 183.368 11.1009C183.368 10.7339 183.368 10.4128 183.368 10.0459C183.368 9.72477 183.368 9.40367 183.368 9.0367C183.472 8.94495 183.679 8.85321 183.887 8.76147C183.679 8.76147 183.575 8.76147 183.472 8.80734C183.472 8.66972 183.679 8.53211 183.472 8.48624C183.264 8.3945 183.368 8.34862 183.472 8.25688V8.11927C183.057 8.02752 183.368 7.88991 183.472 7.79816C183.575 7.66055 183.783 7.52294 183.887 7.33945C183.679 7.33945 183.472 7.33945 183.264 7.33945C183.472 7.15596 183.575 7.01835 183.679 6.88073C183.575 6.74312 183.264 6.69725 183.264 6.51376C183.264 6.33028 183.368 6.23853 183.783 6.14679C183.575 5.9633 183.783 5.77982 183.783 5.6422C183.783 5.50459 183.575 5.36697 183.783 5.18349H183.16C183.16 5.18349 183.472 4.86239 183.679 4.6789C183.472 4.6789 183.368 4.6789 183.057 4.6789C183.16 4.49541 183.264 4.3578 183.368 4.17431C182.953 3.80734 183.057 3.57798 183.368 3.30275C182.849 3.07339 182.953 2.61468 183.679 2.24771C183.264 2.15596 183.679 1.88073 183.16 1.74312C183.16 1.55963 183.264 1.33028 183.368 1.14679C183.057 1.14679 182.641 1.19266 182.434 1.14679C182.123 1.10092 181.915 1.00917 181.604 1.14679C181.604 1.14679 181.604 1.14679 181.5 1.14679C181.292 1.00917 180.981 1.05505 180.774 1.05505C179.943 1.19266 179.321 1.05505 178.698 0.825688C178.283 1.00917 177.764 1.10092 177.245 1.00917C176.83 0.917431 176.415 1.14679 175.896 1.00917C175.896 1.00917 175.585 1.14679 175.274 1.00917C175.17 1.00917 174.858 1.00917 174.651 1.00917C174.651 1.00917 174.443 1.00917 174.34 1.00917C174.028 0.825688 173.717 0.917431 173.406 1.00917C173.406 1.00917 173.406 1.00917 173.302 1.00917C173.302 1.00917 173.302 0.917431 173.302 0.87156C172.991 0.917431 172.679 1.00917 172.264 1.05505C172.264 0.963303 172.368 0.87156 172.575 0.733945C172.16 0.87156 171.849 1.00917 171.642 1.05505C171.123 1.00917 170.604 0.963303 169.981 0.917431C169.774 1.00917 169.462 1.05505 169.047 1.05505C168.736 1.05505 168.425 1.05505 168.113 1.05505C167.594 1.14679 167.179 1.14679 166.764 1.14679C166.764 1.10092 166.764 1.05505 166.764 1.00917C166.141 0.963303 165.519 1.23853 164.896 1.05505C164.896 0.963303 165.104 0.917431 165.208 0.733945C164.792 0.917431 164.377 1.00917 164.066 1.10092C164.066 1.00917 164.066 0.963303 163.858 0.917431C163.547 0.917431 163.132 0.917431 162.925 1.00917C162.509 1.10092 161.991 1.14679 161.575 1.00917C161.991 1.00917 161.887 0.917431 161.991 0.825688C161.679 0.825688 161.575 0.917431 161.679 1.00917C161.679 1.00917 161.472 1.00917 161.368 1.00917C160.849 1.05505 160.434 1.10092 159.915 1.00917C159.5 0.963303 158.981 0.87156 158.566 1.00917C158.566 1.00917 158.255 1.05505 158.151 1.00917C157.736 0.917431 157.425 0.963303 157.009 1.00917C157.009 0.87156 157.321 0.779817 157.009 0.642202C156.491 0.779817 156.075 1.05505 155.349 0.963303C155.349 0.87156 155.141 0.779817 155.038 0.733945C154.519 0.825688 153.896 0.917431 153.377 0.963303C153.377 0.87156 153.377 0.825688 153.377 0.733945C153.066 0.825688 152.858 0.917431 152.651 0.963303C152.651 0.917431 152.651 0.87156 152.651 0.87156C152.34 0.87156 152.028 0.963303 151.821 0.87156C151.302 0.779816 150.783 0.825688 150.368 0.87156C150.057 0.87156 149.745 0.963303 149.434 1.00917C149.123 0.779817 149.123 0.779816 148.708 0.87156C148.5 0.87156 148.396 0.963303 148.189 1.00917C148.189 0.917431 148.189 0.87156 148.085 0.779816C147.462 1.05505 146.632 0.87156 145.906 0.963303C145.906 0.87156 145.906 0.825688 145.906 0.779816C145.075 0.779816 144.245 1.14679 143.519 0.779816C142.896 0.825688 142.274 0.87156 141.651 0.917431C141.236 0.917431 141.236 0.779816 141.236 0.688073C140.613 0.779816 139.991 0.825688 139.472 0.917431C139.472 0.87156 139.368 0.825688 139.264 0.733945C138.849 0.779817 138.434 0.87156 138.123 0.87156C137.708 0.87156 137.085 0.963303 136.774 0.87156C136.462 0.779816 136.255 0.779817 135.943 0.825688C135.632 0.87156 135.321 0.917431 134.906 0.963303C135.217 0.779817 135.425 0.642202 135.632 0.504587C135.632 0.504587 135.632 0.504587 135.528 0.458716C135.321 0.550459 135.113 0.59633 134.906 0.688073C134.698 0.779816 134.491 0.87156 134.283 1.00917C134.179 0.917431 134.075 0.87156 134.075 0.87156C133.557 0.87156 133.038 1.00917 132.83 0.917431C132.415 0.825688 132.208 0.917431 132.104 0.917431C131.896 0.825688 131.792 0.779816 131.689 0.688073C131.17 0.963303 130.651 0.963303 130.132 0.87156C130.028 0.87156 129.821 0.87156 129.613 0.87156C129.406 0.87156 129.198 0.917431 129.094 0.87156C128.887 0.87156 128.887 0.733945 128.783 0.688073C128.264 0.733945 127.745 0.87156 127.434 0.825688C126.915 0.733945 126.5 1.10092 126.085 0.825688C126.085 0.733945 126.292 0.642202 126.396 0.550459C126.396 0.550459 126.396 0.550459 126.396 0.504587C126.189 0.59633 125.877 0.688073 125.67 0.779816C125.462 0.87156 125.255 0.917431 124.943 0.825688C124.632 0.688073 124.321 0.688073 123.906 0.825688C123.802 0.87156 123.491 0.87156 123.387 0.87156C123.283 0.87156 123.179 0.779817 123.075 0.733945C122.764 0.779817 122.453 0.825688 122.142 0.87156C122.142 0.779816 122.142 0.733945 122.142 0.688073C121.726 0.688073 121.519 0.825688 121.208 0.87156C120.896 0.917431 120.585 0.87156 120.17 0.87156C119.34 0.87156 118.509 0.917431 117.679 0.87156C117.264 0.87156 116.745 0.87156 116.33 0.688073C116.226 0.642202 115.811 0.59633 115.396 0.688073C114.877 0.825688 114.255 0.825688 113.632 0.87156C113.632 0.779816 113.632 0.688073 113.632 0.550459C113.217 0.688073 113.009 0.779817 112.698 0.825688C112.387 0.825688 111.972 0.825688 111.66 0.825688C111.66 0.825688 111.557 0.825688 111.453 0.825688C111.038 0.825688 110.519 0.825688 110.104 0.825688C109.896 0.825688 109.792 0.688073 109.689 0.59633C109.066 0.825688 108.443 0.917431 107.613 0.779816C107.406 0.779816 107.198 0.779816 106.887 0.779816C106.887 0.779816 106.887 0.688073 106.679 0.642202C106.472 0.87156 106.16 0.87156 105.849 0.779816C105.642 0.733945 105.33 0.642202 105.123 0.779816C104.708 0.917431 104.189 0.688073 103.774 0.87156C103.566 0.733945 103.255 0.733945 102.943 0.825688C102.528 0.963303 102.009 0.917431 101.491 0.917431C101.179 0.917431 100.972 0.917431 100.66 0.87156V0.779816C100.142 0.825688 99.6226 0.87156 99.2075 0.917431C99.2075 0.825688 99.2075 0.779816 99.2075 0.688073C98.7924 0.733945 98.2736 0.779816 97.8585 0.87156C97.8585 0.87156 97.7547 0.825688 97.5472 0.779816C96.9245 1.00917 96.4057 1.00917 95.8868 0.779816C95.6792 0.825688 95.4717 0.917431 95.2642 0.963303C95.2642 0.87156 95.2642 0.779817 95.2642 0.733945C95.0566 0.733945 94.9528 0.779817 94.7453 0.825688C94.5377 0.825688 94.3302 0.825688 94.2264 0.87156C93.5 1.10092 92.8774 1.05505 92.1509 0.779816C91.9434 0.825688 91.7358 0.917431 91.4245 0.963303C91.1132 0.779817 90.4906 0.963303 90.1792 0.733945C89.9717 0.779817 89.7642 0.87156 89.6604 0.917431C89.4528 0.825688 89.2453 0.779817 88.934 0.825688C88.5189 0.87156 88 0.917431 87.6887 0.825688C87.066 0.733945 86.4434 0.825688 85.8208 0.825688C85.8208 0.825688 85.8208 0.825688 85.717 0.825688C85.717 0.779817 85.717 0.688073 85.717 0.642202C85.3019 0.550459 84.8868 0.550459 84.4717 0.688073C84.2641 0.779816 84.0566 0.779817 83.8491 0.825688C83.2264 0.963303 82.6038 0.688073 81.8773 0.825688C81.566 0.642202 81.3585 0.825688 81.0472 0.825688C81.0472 0.825688 80.9434 0.733945 80.8396 0.688073C79.8019 0.825688 78.6604 0.87156 77.6226 0.733945C77.2075 0.733945 76.7924 0.642202 76.2736 0.733945C75.9623 0.825688 75.6509 0.779817 75.4434 0.59633C75.0283 0.688073 74.717 0.825688 74.3019 0.642202C74.3019 0.550459 74.5094 0.458716 74.717 0.321101C73.8868 0.412844 73.6792 0.87156 72.7453 0.733945C72.1226 0.642202 71.2924 0.917431 70.7736 0.550459C70.4623 0.59633 70.2547 0.733945 70.0472 0.688073C69.5283 0.642202 69.1132 0.688073 68.5943 0.688073C68.5943 0.688073 68.5943 0.642202 68.3868 0.59633C68.5943 0.550459 68.6981 0.458716 69.0094 0.366973C68.4906 0.366973 68.3868 0.458716 68.3868 0.642202L69.1132 0.688073ZM186.896 47.4312C186.896 47.4312 186.377 47.4312 186.481 47.6147C186.585 47.5688 186.792 47.4771 186.896 47.4312ZM176.104 48.7156C176.104 48.7156 176.104 48.7156 176 48.6697C176 48.7156 175.792 48.7615 175.689 48.8073C175.792 48.8073 175.896 48.7156 176 48.6697L176.104 48.7156ZM187 6.97248C187 6.97248 186.896 6.92661 186.792 6.88073C186.792 6.92661 186.585 6.97248 186.481 7.01835C186.481 7.01835 186.585 7.01835 186.689 7.11009C186.689 7.06422 186.896 7.01835 187 6.97248ZM2.17925 19.6789C2.17925 19.6789 2.28302 19.633 2.28302 19.5872C2.28302 19.5872 2.28302 19.5413 2.17925 19.5413C2.17925 19.5413 2.07547 19.5413 2.07547 19.5872C2.07547 19.5872 2.07547 19.633 2.17925 19.6789Z" fill="#E23F3A"/>
<path d="M49.135 30.8149V25.2469L46.831 30.8149H43.871L41.567 25.2469V30.8149H37.871V19.3909H42.463L45.423 26.3189L48.383 19.3909H52.911V30.8149H49.135ZM68.6719 25.1029C68.6719 26.3296 68.3945 27.3963 67.8399 28.3029C67.2959 29.1989 66.4959 29.8923 65.4399 30.3829C64.3839 30.8629 63.1145 31.1029 61.6319 31.1029C60.2132 31.1029 58.9812 30.8736 57.9359 30.4149C56.9012 29.9456 56.1012 29.2629 55.5359 28.3669C54.9705 27.4603 54.6879 26.3723 54.6879 25.1029C54.6879 23.8763 54.9599 22.8149 55.5039 21.9189C56.0585 21.0123 56.8639 20.3189 57.9199 19.8389C58.9759 19.3483 60.2452 19.1029 61.7279 19.1029C63.1465 19.1029 64.3732 19.3376 65.4079 19.8069C66.4532 20.2656 67.2585 20.9483 67.8239 21.8549C68.3892 22.7509 68.6719 23.8336 68.6719 25.1029ZM64.3839 25.1029C64.3839 24.2389 64.1439 23.5723 63.6639 23.1029C63.1945 22.6336 62.5332 22.3989 61.6799 22.3989C60.8265 22.3989 60.1599 22.6336 59.6799 23.1029C59.2105 23.5723 58.9759 24.2389 58.9759 25.1029C58.9759 25.9669 59.2105 26.6336 59.6799 27.1029C60.1599 27.5723 60.8265 27.8069 61.6799 27.8069C62.5332 27.8069 63.1945 27.5723 63.6639 27.1029C64.1439 26.6336 64.3839 25.9669 64.3839 25.1029ZM78.4007 30.8149L76.2727 27.3269H74.3047V30.8149H70.4647V19.3909H76.5287C80.1234 19.3909 81.9207 20.6976 81.9207 23.3109C81.9207 24.0896 81.7661 24.7403 81.4567 25.2629C81.1581 25.7856 80.6727 26.2123 80.0007 26.5429L82.7847 30.8149H78.4007ZM76.2887 24.4629C76.9287 24.4629 77.3767 24.3776 77.6327 24.2069C77.8887 24.0363 78.0167 23.7483 78.0167 23.3429C78.0167 22.9483 77.8887 22.6709 77.6327 22.5109C77.3767 22.3403 76.9394 22.2549 76.3207 22.2549H74.3047V24.4629H76.2887ZM84.0741 30.8149V19.3909H94.4101V22.3189H88.1061V23.5989H94.0901V26.5109H88.1061V27.8869H94.8101L94.4741 30.8149H84.0741ZM100.918 30.8149V19.3909H105.046V30.8149H100.918ZM116.392 30.8149L111.368 24.7989V30.8149H107.48V19.3909H111.096L116.12 25.4069V19.3909H120.008V30.8149H116.392ZM126.561 27.1509V30.8149H122.433V19.3909H132.289V22.4309H126.561V24.1109H131.969V27.1509H126.561ZM147.437 25.1029C147.437 26.3296 147.16 27.3963 146.605 28.3029C146.061 29.1989 145.261 29.8923 144.205 30.3829C143.149 30.8629 141.88 31.1029 140.397 31.1029C138.979 31.1029 137.747 30.8736 136.701 30.4149C135.667 29.9456 134.867 29.2629 134.301 28.3669C133.736 27.4603 133.453 26.3723 133.453 25.1029C133.453 23.8763 133.725 22.8149 134.269 21.9189C134.824 21.0123 135.629 20.3189 136.685 19.8389C137.741 19.3483 139.011 19.1029 140.493 19.1029C141.912 19.1029 143.139 19.3376 144.173 19.8069C145.219 20.2656 146.024 20.9483 146.589 21.8549C147.155 22.7509 147.437 23.8336 147.437 25.1029ZM143.149 25.1029C143.149 24.2389 142.909 23.5723 142.429 23.1029C141.96 22.6336 141.299 22.3989 140.445 22.3989C139.592 22.3989 138.925 22.6336 138.445 23.1029C137.976 23.5723 137.741 24.2389 137.741 25.1029C137.741 25.9669 137.976 26.6336 138.445 27.1029C138.925 27.5723 139.592 27.8069 140.445 27.8069C141.299 27.8069 141.96 27.5723 142.429 27.1029C142.909 26.6336 143.149 25.9669 143.149 25.1029Z" fill="#E23F3A"/>
</svg>
