<svg width="245" height="164" viewBox="0 0 245 164" fill="none" xmlns="http://www.w3.org/2000/svg">
<g id="Group 906">
<g id="Group 905">
<path id="Vector" d="M223.352 77.8414C223.804 78.8503 223.502 79.4248 222.358 79.7551C220.292 80.3475 219.524 81.8769 219.456 83.9521C219.385 86.153 219.829 88.2282 220.654 90.2316C221.903 93.2618 223.115 96.31 224.492 99.2828C225.619 101.713 227.663 101.778 229.052 99.5054C229.543 98.6976 229.877 97.7892 230.235 96.9096C231.695 93.3193 233.177 89.7397 234.558 86.1207C234.956 85.0759 235.106 83.9162 235.253 82.7961C235.454 81.2594 234.672 80.1644 233.177 79.7048C233.008 79.6509 232.825 79.633 232.649 79.5971C231.939 79.4499 231.641 79.0334 231.763 78.3046C231.889 77.5434 232.423 77.6224 232.986 77.6404C235.73 77.7194 238.475 77.7912 241.222 77.8307C242.112 77.845 243.001 77.7553 243.934 77.7086C244.418 78.7175 244.364 79.3422 243.159 79.7587C241.186 80.4408 240.021 81.8949 239.203 83.8588C237 89.1437 234.69 94.3856 232.287 99.5808C229.03 106.621 225.626 113.59 222.344 120.616C221.591 122.232 221.153 123.999 220.432 125.632C219.567 127.589 218.524 129.463 217.605 131.398C216.766 133.175 215.955 134.967 215.198 136.78C214.571 138.284 214.614 138.306 215.837 139.333C217.975 141.124 220.389 142.37 223.101 143.056C224.744 143.472 226.214 142.991 227.534 142.148C229.249 141.049 229.683 139.153 228.901 137.067C228.209 135.225 228.241 135.297 229.981 134.489C234.106 132.576 237.901 133.495 241.186 136.166C244.042 138.489 245.121 141.774 244.504 145.497C243.851 149.454 241.742 152.348 238.062 153.945C236.713 154.531 235.218 154.904 233.758 155.062C230.289 155.435 226.849 155.227 223.499 154.075C219.987 152.868 216.558 151.504 213.348 149.615C212.218 148.951 210.984 148.463 209.857 147.792C209.086 147.332 208.598 147.397 208.039 148.104C206.816 149.651 205.481 151.109 204.269 152.664C202.396 155.066 199.954 156.789 197.45 158.39C188.504 164.106 178.808 165.136 168.578 162.91C162.545 161.596 157.336 158.789 153.215 154.268C148.982 149.626 147.049 144.061 148.272 137.721C148.785 135.064 149.937 132.619 151.676 130.497C156.25 124.918 162.297 122.142 169.321 121.327C171.806 121.037 174.328 120.875 176.825 120.918C180.939 120.993 184.795 122.401 188.601 123.794C194.742 126.038 200.388 129.294 205.915 132.759C207.228 133.581 208.516 134.454 209.832 135.272C210.865 135.915 211.145 135.89 211.637 134.838C212.949 132.026 214.305 129.23 215.407 126.336C216.63 123.126 216.364 119.841 215.001 116.717C212.16 110.215 209.208 103.76 206.353 97.265C204.696 93.4916 203.139 89.6751 201.532 85.8801C201.091 84.839 200.711 83.7619 200.158 82.7817C199.261 81.1948 198.11 79.8017 196.245 79.317C195.448 79.1088 195.366 78.6277 195.463 77.9779C195.556 77.3424 195.983 77.3244 196.521 77.346C200.933 77.5291 205.345 77.7445 209.761 77.8271C214.234 77.9096 218.707 77.845 223.352 77.845V77.8414ZM204.646 144.467C204.402 144.259 204.229 144.104 204.046 143.961C200.868 141.491 197.35 139.58 193.669 138.022C190.886 136.845 188.034 135.671 185.096 135.057C180.125 134.016 175.078 133.732 169.977 134.576C166.114 135.215 163.008 137.031 160.543 139.907C159.708 140.88 159.166 142.334 159.022 143.627C158.682 146.732 159.722 149.583 161.802 151.863C164.729 155.073 168.381 157.27 172.678 158.024C179.529 159.223 186.233 158.652 192.582 155.583C197.256 153.324 200.729 149.63 204.025 145.756C204.316 145.415 204.427 144.926 204.642 144.471L204.646 144.467Z" fill="#F1E22B"/>
<path id="Vector_2" d="M110.675 51.3022C110.27 50.4764 110.467 49.9989 111.127 49.5501C113.315 48.0709 114.197 45.7982 114.664 43.3353C115.751 37.5836 115.571 31.7924 114.987 26.0156C114.761 23.7681 114.301 21.4954 112.949 19.5853C112.411 18.8278 111.712 18.142 110.966 17.5855C110.424 17.1798 110.245 16.7059 110.492 16.2284C110.653 15.9196 111.192 15.6755 111.583 15.6396C114.786 15.3344 118.01 15.18 121.199 14.7815C123.082 14.5445 124.923 13.945 126.784 13.5141C127.251 13.4064 127.717 13.2843 128.19 13.2341C129.851 13.0653 130.239 13.3849 130.267 15.0113C130.3 17.0434 130.282 19.0791 130.285 21.1112C130.285 21.7467 130.285 22.3786 130.285 23.0141C130.411 23.0428 130.533 23.0751 130.658 23.1039C130.83 22.8561 131.071 22.6299 131.168 22.3535C133.384 16.0273 140.024 11.5825 147.535 12.7063C151.671 13.3238 154.709 15.5068 156.811 19.0432C157.259 19.7972 157.482 20.6948 157.772 21.5385C157.959 22.0806 158.077 22.6443 158.336 23.5921C158.669 22.8813 158.827 22.533 158.996 22.1919C161.722 16.6951 165.786 12.8966 172.181 12.5842C177.831 12.3078 182.447 14.3866 184.973 19.413C185.647 20.7558 186.042 22.3678 186.103 23.8758C186.289 28.475 186.128 33.0885 186.357 37.6877C186.483 40.2333 187.057 42.7644 187.559 45.2741C187.918 47.0836 188.861 48.6023 190.464 49.6219C191.171 50.0707 191.44 50.638 191.106 51.3776C189.058 51.3776 187.046 51.3632 185.03 51.3776C179.058 51.435 173.085 51.5104 167.113 51.5535C166.769 51.5535 166.421 51.3237 166.073 51.1981C166.22 50.8319 166.256 50.3113 166.528 50.1246C169.947 47.7693 170.435 44.1431 170.664 40.4666C170.894 36.7147 170.991 32.9521 171.044 29.193C171.069 27.4589 170.675 25.8074 169.796 24.2169C167.902 20.7881 163.4 21.0825 161.255 22.9351C159.469 24.4754 158.368 26.45 158.325 28.6904C158.235 33.4009 157.884 38.1437 158.755 42.829C158.963 43.9385 159.236 45.055 159.627 46.1106C160.176 47.5934 161.076 48.8356 162.461 49.7045C162.776 49.9056 163.088 50.4154 163.078 50.7708C163.056 51.4817 162.432 51.4745 161.865 51.4602C158.518 51.3812 155.175 51.2735 151.829 51.2663C147.765 51.2555 143.704 51.356 139.64 51.3596C139.188 51.3596 138.736 51.058 138.284 50.8929C138.521 50.4692 138.711 50.0061 139.002 49.6255C139.748 48.6489 140.842 47.816 141.247 46.721C141.921 44.9043 142.248 42.9403 142.578 41.0159C143.263 36.9912 143.041 32.9162 142.983 28.8627C142.965 27.5774 142.682 26.2346 142.237 25.0247C140.953 21.5349 137.104 20.3788 133.965 22.4145C132.018 23.6783 130.899 25.6207 130.644 27.7425C129.944 33.5804 129.948 39.4326 131.498 45.1843C131.95 46.861 132.76 48.272 134.245 49.2413C134.493 49.4029 134.833 49.5537 134.934 49.7907C135.081 50.1461 135.164 50.6093 135.056 50.9575C134.988 51.1729 134.525 51.3704 134.227 51.3919C133.513 51.4494 132.796 51.4099 132.079 51.3919C127.545 51.2914 123.011 51.1442 118.473 51.094C116.21 51.0688 113.943 51.216 111.676 51.2842C111.328 51.295 110.98 51.2842 110.679 51.2842L110.675 51.3022Z" fill="#F1E22B"/>
<path id="Vector_3" d="M111.838 63.5301C110.701 57.5738 113.757 53.8793 119.525 53.7501C123.797 53.6532 126.739 55.6494 128.295 59.4982C129.612 62.751 128.751 67.2533 126.201 69.8347C123.589 72.4808 120.286 73.5148 116.706 73.9456C111.878 74.5308 107.118 74.0318 102.573 72.4592C98.6918 71.1164 95.7217 68.4022 93.6054 64.8262C91.672 61.5518 90.969 57.94 90.7394 54.2097C90.5744 51.5313 90.4704 48.8457 90.3305 46.1673C90.3161 45.9052 90.2264 45.6467 90.0973 45.0113C89.6633 45.7114 89.4265 46.0848 89.2006 46.4653C87.7478 48.878 85.8037 50.5009 82.9161 51.0574C78.6835 51.8724 74.605 51.9226 70.8028 49.5638C67.1871 47.3198 65.9137 44.286 66.6634 40.0925C67.0364 37.9922 68.3565 36.5632 69.8415 35.2528C71.5202 33.77 73.45 32.639 75.6417 32.1651C79.6627 31.2963 83.7089 30.5602 87.7478 29.774C87.981 29.7273 88.2249 29.7237 88.4616 29.6914C90.3089 29.4401 90.3197 29.4221 90.291 27.5839C90.2623 25.6702 90.1942 23.7566 90.2372 21.8465C90.2874 19.6995 89.4158 17.8721 88.2895 16.1774C87.0555 14.3212 84.2326 13.4344 82.0517 14.0089C80.147 14.5115 79.4367 16.9206 80.7029 18.4501C81.5315 19.4518 82.5036 19.9688 83.82 19.8144C84.3473 19.7534 84.889 19.8037 85.4737 19.8037C86.3238 20.633 86.3489 21.7317 86.2018 22.7836C85.4952 27.8424 80.9612 30.6608 76.5994 30.0504C74.9207 29.817 73.4608 29.0667 72.0511 28.0829C68.7761 25.7923 68.6865 19.7103 71.6206 16.917C74.8956 13.7971 78.8018 12.4866 83.1349 12.2245C87.3819 11.966 91.629 12.2496 95.7433 13.3734C97.4937 13.8509 99.1904 14.7054 100.761 15.6389C103.477 17.2545 104.768 19.8431 104.973 22.938C105.127 25.2609 105.156 27.5911 105.181 29.9176C105.252 37.091 105.303 44.2681 105.349 51.4451C105.371 54.4358 105.335 57.4266 105.374 60.4137C105.417 63.5768 106.138 66.546 107.968 69.2028C109.492 71.418 112.638 72.6316 115.228 71.9063C117.064 71.3929 118.158 69.7485 118.044 67.6661C117.925 65.5299 116.587 63.7922 114.744 63.5481C113.811 63.426 112.85 63.5265 111.835 63.5265L111.838 63.5301ZM90.0399 30.9229C89.1575 31.1778 88.3469 31.3322 87.6043 31.6445C82.3207 33.8849 80.4698 38.2363 82.2418 43.8013C82.7117 45.2769 83.7985 46.1673 85.3732 46.3792C86.991 46.5982 88.146 45.8227 89.0176 44.5768C89.9323 43.27 90.3627 41.7836 90.3556 40.1859C90.3448 37.4931 90.3161 34.804 90.2767 32.1113C90.2731 31.7774 90.1475 31.4435 90.0399 30.9193V30.9229Z" fill="#F1E22B"/>
<path id="Vector_4" d="M36.0795 37.1597C36.2302 41.2419 36.614 45.0118 38.6155 48.4046C38.9922 49.0437 39.7741 49.4278 40.2656 50.0202C40.5669 50.3865 40.6673 50.9178 40.8574 51.3738C40.4593 51.5354 40.0575 51.8441 39.6594 51.8405C34.8815 51.7903 30.1072 51.6682 25.3293 51.6179C22.761 51.5928 20.1927 51.6754 17.6244 51.7077C17.1581 51.7149 16.6882 51.7077 15.9492 51.7077C16.1465 51.0076 16.1322 50.3254 16.4658 49.9843C18.9982 47.4065 19.6259 44.0639 20.3864 40.7393C21.2293 37.0664 20.8455 33.3576 20.8778 29.6632C20.9172 25.1178 20.8025 20.5725 20.7702 16.0307C20.7558 13.7904 20.3864 11.6362 19.3784 9.61125C18.4817 7.80891 16.4514 6.91133 14.2239 7.35653C12.3981 7.72274 11.1283 9.02243 10.9669 10.6919C10.7588 12.8677 11.9103 14.8531 13.9082 15.4922C14.909 15.8117 15.9923 15.862 17.1222 16.0487C19.4215 20.0878 15.8452 24.7696 11.7345 25.4194C7.55206 26.08 4.03321 25.0137 1.33578 21.3803C-0.339351 19.1256 -0.629898 13.1082 1.57252 10.5519C4.06908 7.65811 7.2113 5.77679 10.9418 5.4752C15.63 5.09822 20.3613 5.18798 25.0746 5.17721C29.7341 5.17003 34.3936 5.23465 39.0532 5.3639C42.8733 5.47161 46.6935 5.63318 50.5029 5.9204C54.5311 6.22558 58.2042 7.71197 61.3823 10.139C62.7597 11.191 63.9577 12.7025 64.7361 14.2571C66.4256 17.6392 66.8883 21.2331 66.0992 25.0424C64.9083 30.7869 61.2675 33.9895 55.93 35.7128C51.4785 37.149 46.9266 37.3823 42.303 37.1669C40.3373 37.0772 38.368 37.1526 36.0867 37.1526L36.0795 37.1597ZM36.0508 35.1743C37.0265 35.1743 37.8587 35.2389 38.6765 35.1635C42.2061 34.8332 45.4129 33.5371 47.5687 30.7295C50.9692 26.299 51.6184 21.2187 49.7855 15.9517C48.3327 11.7834 45.5133 8.80343 41.2592 7.37448C39.3652 6.73899 37.3673 7.31703 36.5171 8.886C36.0329 9.77999 35.8356 10.9289 35.832 11.9629C35.8141 19.0825 35.8787 26.1985 35.9253 33.3181C35.9289 33.8997 36.0042 34.4814 36.0544 35.1743H36.0508Z" fill="#F1E22B"/>
<path id="Vector_5" d="M81.6618 76.1651C80.9192 74.4525 80.3202 72.6897 79.4271 71.0884C77.2713 67.2216 74.2833 64.177 70.0183 62.6906C65.7857 61.215 61.4848 60.8093 57.3024 62.845C54.6875 64.1196 52.5173 66.0296 50.9498 68.489C46.6024 75.3178 46.154 82.5343 49.4684 89.837C52.9657 97.549 59.3865 101.34 67.5828 102.321C72.0952 102.859 76.5431 102.313 80.7829 100.662C82.5442 99.9761 84.1511 98.8954 85.8227 97.9834C85.9769 97.9009 86.0809 97.6711 86.2316 97.6495C86.7087 97.5777 87.2575 97.4126 87.6664 97.5706C88.3443 97.8362 88.0825 98.3856 87.8529 98.9205C86.7158 101.574 85.2129 103.994 83.3405 106.184C78.6523 111.673 72.5113 114.201 65.4951 114.969C62.0982 115.339 58.7049 115.454 55.326 114.869C49.8414 113.917 44.7909 112.075 40.4435 108.363C37.0753 105.487 34.5859 102.048 32.9502 98.0481C31.6661 94.9065 31.0778 91.5496 31.0742 88.0778C31.0742 84.6993 31.397 81.3998 32.3942 78.19C33.6318 74.2048 35.662 70.6827 38.6894 67.7494C43.4673 63.1143 49.1886 60.5472 55.7672 59.9728C59.0887 59.682 62.439 59.5994 65.7713 59.6748C68.8633 59.743 71.9481 60.2349 75.0437 60.3749C76.9951 60.4646 78.9643 60.2815 80.9193 60.1595C82.4975 60.0589 82.598 60.1451 82.7199 61.7428C83.0356 65.8501 83.3584 69.9538 83.7386 74.054C83.918 75.9999 83.7171 76.2584 81.6582 76.1651H81.6618Z" fill="#F1E22B"/>
<path id="Vector_6" d="M109.3 76.7137C115.821 76.5845 120.835 77.798 125.24 81.0724C127.299 82.6018 128.763 84.6447 130.007 86.8276C132.49 91.1827 133.221 95.9255 132.432 100.819C131.934 103.914 130.47 106.686 128.433 109.098C124.519 113.733 119.361 115.694 113.461 116.031C110.469 116.2 107.492 116.143 104.576 115.324C99.5143 113.899 95.2924 111.256 92.5053 106.696C90.9306 104.122 90.0159 101.297 90.0518 98.2089C90.0913 94.8628 89.9011 91.4879 91.4041 88.3571C92.0175 87.0826 92.6022 85.7434 93.4702 84.6483C95.4431 82.1566 97.7101 80.0096 100.712 78.6776C103.829 77.2954 107.008 76.4804 109.303 76.7137H109.3ZM105.34 96.9559C104.934 100.535 105.705 104.23 106.638 107.874C107.133 109.806 107.714 111.816 109.59 113.03C111.104 114.006 112.61 113.78 113.575 112.305C114.092 111.511 114.562 110.667 114.917 109.788C116.793 105.142 116.814 100.223 116.825 95.3367C116.832 92.4249 116.667 89.5024 115.975 86.6374C115.437 84.4185 114.87 82.2249 113.464 80.3758C112.051 78.5125 110.609 78.3294 108.988 80.0384C108.033 81.0436 107.183 82.3397 106.796 83.6538C105.54 87.9011 104.78 92.249 105.343 96.9559H105.34Z" fill="#F1E22B"/>
<path id="Vector_7" d="M164.462 77.554C165.706 77.554 166.836 77.5468 167.966 77.554C169.806 77.572 169.817 77.5756 169.792 75.6619C169.767 73.8093 169.681 71.9567 169.677 70.1005C169.677 64.6828 173.487 59.2829 178.975 57.5919C182.838 56.3999 186.791 56.2958 190.629 57.5237C193.925 58.5756 196.824 60.299 198.151 63.8498C200.149 69.1958 196.221 75.1988 190.532 75.3783C187.2 75.4824 184.495 74.154 182.411 71.5762C181.206 70.0898 181.023 68.0864 181.834 66.223C182.949 66.3163 184.068 66.5138 185.177 66.4779C187.081 66.4133 188.398 64.97 188.563 62.9558C188.721 61.0422 187.698 59.6563 185.733 59.2434C179.735 57.9796 176.317 62.1408 176.087 66.5713C176.03 67.6986 176.037 68.8511 176.184 69.9677C176.769 74.3335 181.224 77.5038 184.965 77.5504C187.533 77.5828 190.102 77.5899 192.67 77.6617C193.079 77.6725 193.664 77.8448 193.854 78.1464C194.273 78.8142 193.764 79.4928 192.849 79.4964C190.876 79.5072 188.907 79.4425 186.934 79.4354C184.976 79.4282 184.958 79.4856 184.972 81.4495C185.019 87.6679 185.037 93.89 185.091 100.108C185.119 103.408 185.532 106.646 186.515 109.82C187.038 111.504 187.885 112.865 189.334 113.827C190.062 114.312 190.435 114.865 190.188 115.68H164.752C165.111 114.958 165.211 114.348 165.549 114.15C168.106 112.642 168.809 110.086 169.232 107.479C169.627 105.077 169.839 102.622 169.864 100.187C169.932 93.7894 169.871 87.3915 169.831 80.9936C169.821 79.4461 169.724 79.3923 168.189 79.36C167.353 79.342 166.513 79.3707 165.678 79.3492C164.333 79.3133 164.333 79.3061 164.458 77.554H164.462Z" fill="#F1E22B"/>
<path id="Vector_8" d="M136.239 79.2235C135.069 79.2235 134.004 79.2379 132.942 79.2235C131.35 79.202 131.335 79.1733 131.328 77.2668C132.451 77.2668 133.574 77.2812 134.696 77.2668C136.325 77.2417 136.303 77.2309 136.346 75.5399C136.4 73.3318 136.432 71.1238 136.579 68.9229C137.031 62.1193 141.971 57.836 148.087 56.881C152.33 56.2168 156.484 56.601 160.408 58.8054C166.176 62.0475 166.14 69.3681 162.392 73.0518C160.265 75.1449 157.528 75.5255 154.733 75.0157C151.971 74.513 149.751 73.0733 148.452 70.4524C147.778 69.0953 147.717 67.5119 148.291 66.0255C149.407 66.162 150.515 66.4312 151.616 66.4061C153.686 66.3594 154.884 64.9664 155.099 62.604C155.243 61.0206 154.152 59.6025 152.301 59.1968C147.559 58.1592 144.069 60.1051 142.885 65.2141C142.699 66.0219 142.659 66.8693 142.598 67.7022C142.225 72.7825 146.896 76.9329 150.633 77.1519C153.431 77.3171 156.236 77.3386 159.038 77.475C159.443 77.493 160.021 77.6869 160.196 77.9885C160.612 78.7065 160.143 79.3564 159.253 79.3671C157.459 79.3923 155.67 79.3671 153.876 79.3671C153.23 79.3671 152.581 79.3671 151.846 79.3671C151.77 79.859 151.677 80.1929 151.677 80.5268C151.677 87.5243 151.724 94.5183 151.692 101.516C151.681 104.237 152.093 106.869 152.915 109.45C153.435 111.08 154.217 112.552 155.702 113.5C156.48 113.996 156.706 114.606 156.401 115.601C156.01 115.601 155.609 115.604 155.207 115.601C148.105 115.511 140.999 115.421 133.896 115.335C133.538 115.331 133.165 115.432 132.827 115.356C132.462 115.277 131.845 115.062 131.834 114.883C131.816 114.491 132.01 113.852 132.3 113.719C134.366 112.782 134.929 110.836 135.478 108.969C136.4 105.849 136.465 102.6 136.472 99.376C136.486 92.9242 136.407 86.4688 136.364 80.017C136.364 79.8411 136.31 79.6687 136.242 79.2307L136.239 79.2235Z" fill="#F1E22B"/>
<path id="Vector_9" d="M230.398 12.7851C230.606 16.4436 230.81 19.8293 230.975 23.2185C231.004 23.8109 231.291 24.5864 230.276 24.7803C229.264 24.9706 229.078 24.2561 228.848 23.5632C228.83 23.5057 228.819 23.4447 228.794 23.3909C227.783 21.1505 226.739 18.9137 224.798 17.3089C221.412 14.5012 217.535 13.5749 213.245 14.5695C211.835 14.8962 210.712 15.6286 210.415 17.2155C210.095 18.9101 210.587 20.3858 211.928 21.3659C213.56 22.5615 215.3 23.635 217.09 24.5793C220.099 26.1662 223.288 27.4264 226.212 29.1533C229.935 31.3542 233.02 34.2587 233.999 38.7466C234.688 41.9061 233.981 44.8035 232.005 47.349C229.928 50.0238 227.091 51.4456 223.826 52.0918C219.077 53.0325 214.335 52.6878 209.572 52.1062C206.971 51.7867 204.327 51.8441 201.702 51.74C201.404 51.7292 201.106 51.7867 200.809 51.7974C199.23 51.8585 199.119 51.8046 199.144 50.2715C199.176 48.3005 199.313 46.333 199.385 44.3619C199.428 43.2274 199.385 42.0856 199.478 40.9547C199.51 40.5597 199.74 39.9673 200.03 39.8525C200.748 39.5724 201.038 40.1397 201.278 40.7572C201.773 42.0282 202.279 43.3063 202.889 44.527C204.607 47.9702 207.599 49.6397 211.24 50.3218C213.435 50.7347 215.619 50.7311 217.807 50.1531C221.029 49.3058 221.391 46.2504 220.358 44.2111C219.439 42.398 217.811 41.364 216.147 40.4413C213.23 38.822 210.153 37.49 207.301 35.7739C205.12 34.4598 203.029 32.9052 201.174 31.1639C198.294 28.4568 197.785 24.985 198.753 21.2439C199.524 18.2603 201.54 16.2677 204.109 14.8172C206.318 13.5678 208.732 12.9071 211.293 12.8389C212.126 12.8174 212.972 12.7635 213.783 12.5948C216.297 12.0742 218.772 12.8425 221.272 12.7671C223.471 12.6989 225.677 12.7743 227.88 12.7851C228.64 12.7851 229.404 12.7851 230.387 12.7851H230.398Z" fill="#F1E22B"/>
</g>
<path id="Vector_10" d="M198.951 7.50705C199.259 9.36324 198.101 10.9466 197.344 12.5873C195.992 15.5135 193.779 17.7825 191.153 19.6244C190.844 19.8398 190.238 19.9331 189.926 19.7752C189.219 19.4233 189.7 18.9063 189.908 18.418C190.486 17.0609 191.167 15.7181 191.522 14.2999C191.87 12.9105 191.709 12.853 190.306 12.5084C187.681 11.8621 185.69 10.3254 185.015 7.71888C183.997 3.78389 186.802 0.624416 190.608 0.085869C195.49 -0.607062 199.087 2.98684 198.958 7.50705H198.951Z" fill="#F1E22B"/>
</g>
</svg>
