<svg width="148" height="148" viewBox="0 0 148 148" fill="none" xmlns="http://www.w3.org/2000/svg">
<path d="M89.139 15.55L95.4099 30.7577L111.399 26.8921L110.942 43.3356L127.121 46.3075L120.016 61.1436L133.587 70.4392L121.062 81.1026L129.679 95.1146L113.899 99.7615L116.073 116.067L99.7669 113.894L95.12 129.674L81.108 121.056L70.4446 133.582L61.1489 120.01L46.3129 127.116L43.3409 110.937L26.8975 111.394L30.7631 95.4045L15.5554 89.1337L25.5902 76.0991L14.2479 64.1849L28.7168 56.3588L23.201 40.8613L39.6022 39.5968L40.8667 23.1956L56.3642 28.7114L64.1903 14.2425L76.1045 25.5849L89.139 15.55Z" fill="#EFE2C7"/>
<path d="M56.1824 62.0774C55.2104 61.7534 54.4964 61.3034 54.0404 60.7274C53.5844 60.1394 53.3564 59.3894 53.3564 58.4774C53.3564 57.3854 53.7104 56.5034 54.4184 55.8314C55.1264 55.1594 56.0624 54.8234 57.2264 54.8234C58.3304 54.8234 59.1884 55.1054 59.8004 55.6694C60.4124 56.2334 60.8084 57.0974 60.9884 58.2614L59.0624 58.5674C58.8944 57.8234 58.6664 57.2954 58.3784 56.9834C58.1024 56.6714 57.7064 56.5154 57.1904 56.5154C56.6264 56.5154 56.1944 56.6774 55.8944 57.0014C55.5944 57.3254 55.4444 57.7874 55.4444 58.3874C55.4444 58.9034 55.5524 59.3054 55.7684 59.5934C55.9844 59.8694 56.3564 60.0974 56.8844 60.2774L58.2884 60.7454C58.9844 60.9734 59.5364 61.2614 59.9444 61.6094C60.3644 61.9454 60.6704 62.3534 60.8624 62.8334C61.0544 63.3134 61.1504 63.8954 61.1504 64.5794C61.1504 65.7194 60.7964 66.6314 60.0884 67.3154C59.3804 67.9874 58.4384 68.3234 57.2624 68.3234C54.7064 68.3234 53.3384 66.9854 53.1584 64.3094H55.2104C55.2824 65.1134 55.4804 65.7014 55.8044 66.0734C56.1404 66.4454 56.6324 66.6314 57.2804 66.6314C57.8444 66.6314 58.2824 66.4574 58.5944 66.1094C58.9064 65.7614 59.0624 65.2694 59.0624 64.6334C59.0624 64.0694 58.9364 63.6254 58.6844 63.3014C58.4444 62.9654 58.0424 62.7014 57.4784 62.5094L56.1824 62.0774ZM67.249 67.9994V66.8834C66.961 67.3154 66.619 67.6454 66.223 67.8734C65.827 68.1014 65.401 68.2154 64.945 68.2154C64.189 68.2154 63.595 67.9754 63.163 67.4954C62.731 67.0034 62.515 66.3254 62.515 65.4614C62.515 64.5254 62.833 63.7814 63.469 63.2294C64.105 62.6774 65.011 62.3594 66.187 62.2754L67.195 62.2034V61.6634C67.195 61.0034 67.093 60.5234 66.889 60.2234C66.685 59.9234 66.355 59.7734 65.899 59.7734C65.479 59.7734 65.161 59.8754 64.945 60.0794C64.741 60.2834 64.597 60.6254 64.513 61.1054L62.803 60.9254C62.959 60.0494 63.295 59.4014 63.811 58.9814C64.327 58.5614 65.053 58.3514 65.989 58.3514C67.033 58.3514 67.801 58.6334 68.293 59.1974C68.785 59.7614 69.031 60.6434 69.031 61.8434V67.9994H67.249ZM67.195 63.4814L66.367 63.5534C65.035 63.6734 64.369 64.2614 64.369 65.3174C64.369 65.7734 64.465 66.1274 64.657 66.3794C64.861 66.6194 65.149 66.7394 65.521 66.7394C66.025 66.7394 66.427 66.5474 66.727 66.1634C67.039 65.7674 67.195 65.2454 67.195 64.5974V63.4814ZM80.0493 67.9994V61.0514C80.0493 60.6794 79.9713 60.3974 79.8153 60.2054C79.6593 60.0134 79.4313 59.9174 79.1313 59.9174C78.7233 59.9174 78.3633 60.0854 78.0513 60.4214C77.7513 60.7574 77.6013 61.1474 77.6013 61.5914V67.9994H75.6933V61.0514C75.6933 60.6794 75.6153 60.3974 75.4593 60.2054C75.3033 60.0134 75.0753 59.9174 74.7753 59.9174C74.3673 59.9174 74.0073 60.0854 73.6953 60.4214C73.3953 60.7574 73.2453 61.1474 73.2453 61.5914V67.9994H71.3373V58.6394H73.2093V59.7194C73.4733 59.2874 73.7973 58.9514 74.1813 58.7114C74.5773 58.4714 74.9913 58.3514 75.4233 58.3514C75.9153 58.3514 76.3173 58.4714 76.6293 58.7114C76.9413 58.9514 77.1873 59.3294 77.3673 59.8454C77.6673 59.3774 78.0273 59.0114 78.4473 58.7474C78.8793 58.4834 79.3233 58.3514 79.7793 58.3514C80.4513 58.3514 80.9793 58.5854 81.3633 59.0534C81.7593 59.5094 81.9573 60.1334 81.9573 60.9254V67.9994H80.0493ZM90.6154 65.2814C90.4954 66.2654 90.1594 67.0154 89.6074 67.5314C89.0674 68.0354 88.3234 68.2874 87.3754 68.2874C86.1994 68.2874 85.3174 67.8854 84.7294 67.0814C84.1534 66.2774 83.8654 65.0534 83.8654 63.4094C83.8654 61.7894 84.1714 60.5414 84.7834 59.6654C85.4074 58.7894 86.2894 58.3514 87.4294 58.3514C88.4974 58.3514 89.3014 58.7414 89.8414 59.5214C90.3934 60.3014 90.6694 61.4414 90.6694 62.9414V63.7874H85.7734C85.7734 64.7354 85.9174 65.4854 86.2054 66.0374C86.5054 66.5774 86.9134 66.8474 87.4294 66.8474C87.8494 66.8474 88.1614 66.7274 88.3654 66.4874C88.5814 66.2354 88.7254 65.8334 88.7974 65.2814H90.6154ZM88.8334 62.5094C88.8334 61.5854 88.7134 60.8954 88.4734 60.4394C88.2334 59.9834 87.8674 59.7554 87.3754 59.7554C86.8714 59.7554 86.4934 59.9774 86.2414 60.4214C86.0014 60.8534 85.8574 61.5494 85.8094 62.5094H88.8334ZM42.9644 85.9994V73.1474H46.2044C47.5364 73.1474 48.5624 73.4954 49.2824 74.1914C50.0144 74.8754 50.3804 75.8414 50.3804 77.0894C50.3804 78.3974 50.0144 79.4174 49.2824 80.1494C48.5504 80.8694 47.5304 81.2294 46.2224 81.2294H44.9624V85.9994H42.9644ZM46.1504 79.4834C47.6384 79.4834 48.3824 78.7034 48.3824 77.1434C48.3824 76.3754 48.1964 75.8114 47.8244 75.4514C47.4644 75.0794 46.9004 74.8934 46.1324 74.8934H44.9624V79.4834H46.1504ZM52.0875 85.9994V76.6394H53.9595V77.8814C54.2235 77.4254 54.5235 77.0774 54.8595 76.8374C55.2075 76.5974 55.5735 76.4774 55.9575 76.4774C56.1855 76.4774 56.3895 76.5074 56.5695 76.5674L56.3355 78.3134C56.1315 78.2654 55.9095 78.2414 55.6695 78.2414C55.3935 78.2414 55.1295 78.3194 54.8775 78.4754C54.6255 78.6314 54.4155 78.8474 54.2475 79.1234C54.0795 79.3874 53.9955 79.6754 53.9955 79.9874V85.9994H52.0875ZM60.7608 86.2874C59.6088 86.2874 58.7328 85.8674 58.1328 85.0274C57.5328 84.1874 57.2328 82.9634 57.2328 81.3554C57.2328 79.7234 57.5448 78.4814 58.1688 77.6294C58.7928 76.7774 59.6928 76.3514 60.8688 76.3514C62.0208 76.3514 62.8968 76.7714 63.4968 77.6114C64.0968 78.4514 64.3968 79.6754 64.3968 81.2834C64.3968 82.9154 64.0848 84.1574 63.4608 85.0094C62.8368 85.8614 61.9368 86.2874 60.7608 86.2874ZM60.7968 84.7754C61.3728 84.7754 61.7868 84.5054 62.0388 83.9654C62.2908 83.4254 62.4168 82.5374 62.4168 81.3014C62.4168 80.0774 62.2908 79.2014 62.0388 78.6734C61.7988 78.1334 61.3968 77.8634 60.8328 77.8634C60.2568 77.8634 59.8428 78.1334 59.5908 78.6734C59.3388 79.2134 59.2128 80.1014 59.2128 81.3374C59.2128 82.5614 59.3328 83.4434 59.5728 83.9834C59.8248 84.5114 60.2328 84.7754 60.7968 84.7754ZM71.1033 84.4514C70.8633 84.8594 70.5513 85.1774 70.1673 85.4054C69.7953 85.6334 69.3933 85.7474 68.9613 85.7474C68.0133 85.7474 67.2753 85.3454 66.7473 84.5414C66.2313 83.7254 65.9733 82.5854 65.9733 81.1214C65.9733 79.6454 66.2493 78.4814 66.8013 77.6294C67.3533 76.7774 68.1033 76.3514 69.0513 76.3514C69.4473 76.3514 69.8253 76.4654 70.1853 76.6934C70.5573 76.9094 70.8753 77.2094 71.1393 77.5934V76.6394H73.0113V85.7834C73.0113 87.0194 72.7113 87.9794 72.1113 88.6634C71.5113 89.3474 70.6593 89.6894 69.5553 89.6894C68.4993 89.6894 67.7013 89.4434 67.1613 88.9514C66.6213 88.4714 66.3093 87.7334 66.2253 86.7374H68.0973C68.1813 87.2534 68.3373 87.6194 68.5653 87.8354C68.8053 88.0514 69.1653 88.1594 69.6453 88.1594C70.6173 88.1594 71.1033 87.4694 71.1033 86.0894V84.4514ZM71.1393 80.6354C71.1393 79.7594 71.0013 79.0814 70.7253 78.6014C70.4493 78.1214 70.0593 77.8814 69.5553 77.8814C69.0153 77.8814 68.6133 78.1454 68.3493 78.6734C68.0853 79.1894 67.9533 79.9814 67.9533 81.0494C67.9533 82.1174 68.0853 82.9154 68.3493 83.4434C68.6133 83.9594 69.0153 84.2174 69.5553 84.2174C70.0713 84.2174 70.4613 83.9894 70.7253 83.5334C71.0013 83.0654 71.1393 82.3934 71.1393 81.5174V80.6354ZM75.3911 85.9994V76.6394H77.2631V77.8814C77.5271 77.4254 77.8271 77.0774 78.1631 76.8374C78.5111 76.5974 78.8771 76.4774 79.2611 76.4774C79.4891 76.4774 79.6931 76.5074 79.8731 76.5674L79.6391 78.3134C79.4351 78.2654 79.2131 78.2414 78.9731 78.2414C78.6971 78.2414 78.4331 78.3194 78.1811 78.4754C77.9291 78.6314 77.7191 78.8474 77.5511 79.1234C77.3831 79.3874 77.2991 79.6754 77.2991 79.9874V85.9994H75.3911ZM85.3035 85.9994V84.8834C85.0155 85.3154 84.6735 85.6454 84.2775 85.8734C83.8815 86.1014 83.4555 86.2154 82.9995 86.2154C82.2435 86.2154 81.6495 85.9754 81.2175 85.4954C80.7855 85.0034 80.5695 84.3254 80.5695 83.4614C80.5695 82.5254 80.8875 81.7814 81.5235 81.2294C82.1595 80.6774 83.0655 80.3594 84.2415 80.2754L85.2495 80.2034V79.6634C85.2495 79.0034 85.1475 78.5234 84.9435 78.2234C84.7395 77.9234 84.4095 77.7734 83.9535 77.7734C83.5335 77.7734 83.2155 77.8754 82.9995 78.0794C82.7955 78.2834 82.6515 78.6254 82.5675 79.1054L80.8575 78.9254C81.0135 78.0494 81.3495 77.4014 81.8655 76.9814C82.3815 76.5614 83.1075 76.3514 84.0435 76.3514C85.0875 76.3514 85.8555 76.6334 86.3475 77.1974C86.8395 77.7614 87.0855 78.6434 87.0855 79.8434V85.9994H85.3035ZM85.2495 81.4814L84.4215 81.5534C83.0895 81.6734 82.4235 82.2614 82.4235 83.3174C82.4235 83.7734 82.5195 84.1274 82.7115 84.3794C82.9155 84.6194 83.2035 84.7394 83.5755 84.7394C84.0795 84.7394 84.4815 84.5474 84.7815 84.1634C85.0935 83.7674 85.2495 83.2454 85.2495 82.5974V81.4814ZM98.1038 85.9994V79.0514C98.1038 78.6794 98.0258 78.3974 97.8698 78.2054C97.7138 78.0134 97.4858 77.9174 97.1858 77.9174C96.7778 77.9174 96.4178 78.0854 96.1058 78.4214C95.8058 78.7574 95.6558 79.1474 95.6558 79.5914V85.9994H93.7478V79.0514C93.7478 78.6794 93.6698 78.3974 93.5138 78.2054C93.3578 78.0134 93.1298 77.9174 92.8298 77.9174C92.4218 77.9174 92.0618 78.0854 91.7498 78.4214C91.4498 78.7574 91.2998 79.1474 91.2998 79.5914V85.9994H89.3918V76.6394H91.2638V77.7194C91.5278 77.2874 91.8518 76.9514 92.2358 76.7114C92.6318 76.4714 93.0458 76.3514 93.4778 76.3514C93.9698 76.3514 94.3718 76.4714 94.6838 76.7114C94.9958 76.9514 95.2418 77.3294 95.4218 77.8454C95.7218 77.3774 96.0818 77.0114 96.5018 76.7474C96.9338 76.4834 97.3778 76.3514 97.8338 76.3514C98.5058 76.3514 99.0338 76.5854 99.4178 77.0534C99.8138 77.5094 100.012 78.1334 100.012 78.9254V85.9994H98.1038ZM102.37 82.2194L102.244 73.1474H104.296L104.17 82.2194H102.37ZM102.244 85.9994V83.5514H104.296V85.9994H102.244Z" fill="#363428"/>
</svg>
