<svg width="167" height="167" viewBox="0 0 167 167" fill="none" xmlns="http://www.w3.org/2000/svg">
<path d="M100.878 17.5987L107.975 34.8099L126.071 30.435L125.554 49.0448L143.865 52.4083L135.823 69.1989L151.183 79.7192L137.007 91.7874L146.759 107.645L128.901 112.904L131.36 131.358L112.906 128.899L107.647 146.758L91.7892 137.005L79.7211 151.181L69.2008 135.821L52.4101 143.863L49.0466 125.552L30.4368 126.069L34.8117 107.973L17.6005 100.877L28.9574 86.1247L16.1208 72.6409L32.4959 63.7837L26.2534 46.2445L44.8153 44.8134L46.2464 26.2515L63.7856 32.494L72.6428 16.1189L86.1266 28.9555L100.878 17.5987Z" fill="#EFE2C7"/>
<path d="M62.742 70.323C61.194 70.323 60.024 69.759 59.232 68.631C58.452 67.503 58.062 65.829 58.062 63.609C58.062 61.389 58.464 59.703 59.268 58.551C60.084 57.399 61.278 56.823 62.85 56.823C64.398 56.823 65.562 57.387 66.342 58.515C67.134 59.643 67.53 61.317 67.53 63.537C67.53 65.757 67.122 67.443 66.306 68.595C65.502 69.747 64.314 70.323 62.742 70.323ZM62.778 68.505C63.678 68.505 64.338 68.103 64.758 67.299C65.19 66.495 65.406 65.247 65.406 63.555C65.406 61.851 65.196 60.609 64.776 59.829C64.368 59.037 63.714 58.641 62.814 58.641C61.914 58.641 61.248 59.043 60.816 59.847C60.396 60.651 60.186 61.899 60.186 63.591C60.186 65.295 60.39 66.543 60.798 67.335C61.218 68.115 61.878 68.505 62.778 68.505ZM74.4278 69.999V63.231C74.4278 62.355 74.0498 61.917 73.2938 61.917C72.8258 61.917 72.4118 62.085 72.0518 62.421C71.7038 62.757 71.5298 63.147 71.5298 63.591V69.999H69.6218V60.639H71.4938V61.719C71.7938 61.287 72.1538 60.951 72.5738 60.711C73.0058 60.471 73.4618 60.351 73.9418 60.351C74.6738 60.351 75.2558 60.591 75.6878 61.071C76.1198 61.551 76.3358 62.199 76.3358 63.015V69.999H74.4278ZM84.0066 69.999V58.965H80.9826V57.147H89.0826V58.965H86.0586V69.999H84.0066ZM95.376 69.999V63.231C95.376 62.355 94.998 61.917 94.242 61.917C93.774 61.917 93.36 62.085 93 62.421C92.652 62.757 92.478 63.147 92.478 63.591V69.999H90.57V57.147H92.478V61.665C92.766 61.257 93.12 60.939 93.54 60.711C93.972 60.471 94.422 60.351 94.89 60.351C95.622 60.351 96.204 60.591 96.636 61.071C97.068 61.551 97.284 62.199 97.284 63.015V69.999H95.376ZM105.946 67.281C105.826 68.265 105.49 69.015 104.938 69.531C104.398 70.035 103.654 70.287 102.706 70.287C101.53 70.287 100.648 69.885 100.06 69.081C99.4838 68.277 99.1958 67.053 99.1958 65.409C99.1958 63.789 99.5018 62.541 100.114 61.665C100.738 60.789 101.62 60.351 102.76 60.351C103.828 60.351 104.632 60.741 105.172 61.521C105.724 62.301 106 63.441 106 64.941V65.787H101.104C101.104 66.735 101.248 67.485 101.536 68.037C101.836 68.577 102.244 68.847 102.76 68.847C103.18 68.847 103.492 68.727 103.696 68.487C103.912 68.235 104.056 67.833 104.128 67.281H105.946ZM104.164 64.509C104.164 63.585 104.044 62.895 103.804 62.439C103.564 61.983 103.198 61.755 102.706 61.755C102.202 61.755 101.824 61.977 101.572 62.421C101.332 62.853 101.188 63.549 101.14 64.509H104.164ZM66.1824 82.077C65.2104 81.753 64.4964 81.303 64.0404 80.727C63.5844 80.139 63.3564 79.389 63.3564 78.477C63.3564 77.385 63.7104 76.503 64.4184 75.831C65.1264 75.159 66.0624 74.823 67.2264 74.823C68.3304 74.823 69.1884 75.105 69.8004 75.669C70.4124 76.233 70.8084 77.097 70.9884 78.261L69.0624 78.567C68.8944 77.823 68.6664 77.295 68.3784 76.983C68.1024 76.671 67.7064 76.515 67.1904 76.515C66.6264 76.515 66.1944 76.677 65.8944 77.001C65.5944 77.325 65.4444 77.787 65.4444 78.387C65.4444 78.903 65.5524 79.305 65.7684 79.593C65.9844 79.869 66.3564 80.097 66.8844 80.277L68.2884 80.745C68.9844 80.973 69.5364 81.261 69.9444 81.609C70.3644 81.945 70.6704 82.353 70.8624 82.833C71.0544 83.313 71.1504 83.895 71.1504 84.579C71.1504 85.719 70.7964 86.631 70.0884 87.315C69.3804 87.987 68.4384 88.323 67.2624 88.323C64.7064 88.323 63.3384 86.985 63.1584 84.309H65.2104C65.2824 85.113 65.4804 85.701 65.8044 86.073C66.1404 86.445 66.6324 86.631 67.2804 86.631C67.8444 86.631 68.2824 86.457 68.5944 86.109C68.9064 85.761 69.0624 85.269 69.0624 84.633C69.0624 84.069 68.9364 83.625 68.6844 83.301C68.4444 82.965 68.0424 82.701 67.4784 82.509L66.1824 82.077ZM77.249 87.999V86.883C76.961 87.315 76.619 87.645 76.223 87.873C75.827 88.101 75.401 88.215 74.945 88.215C74.189 88.215 73.595 87.975 73.163 87.495C72.731 87.003 72.515 86.325 72.515 85.461C72.515 84.525 72.833 83.781 73.469 83.229C74.105 82.677 75.011 82.359 76.187 82.275L77.195 82.203V81.663C77.195 81.003 77.093 80.523 76.889 80.223C76.685 79.923 76.355 79.773 75.899 79.773C75.479 79.773 75.161 79.875 74.945 80.079C74.741 80.283 74.597 80.625 74.513 81.105L72.803 80.925C72.959 80.049 73.295 79.401 73.811 78.981C74.327 78.561 75.053 78.351 75.989 78.351C77.033 78.351 77.801 78.633 78.293 79.197C78.785 79.761 79.031 80.643 79.031 81.843V87.999H77.249ZM77.195 83.481L76.367 83.553C75.035 83.673 74.369 84.261 74.369 85.317C74.369 85.773 74.465 86.127 74.657 86.379C74.861 86.619 75.149 86.739 75.521 86.739C76.025 86.739 76.427 86.547 76.727 86.163C77.039 85.767 77.195 85.245 77.195 84.597V83.481ZM90.0493 87.999V81.051C90.0493 80.679 89.9713 80.397 89.8153 80.205C89.6593 80.013 89.4313 79.917 89.1313 79.917C88.7233 79.917 88.3633 80.085 88.0513 80.421C87.7513 80.757 87.6013 81.147 87.6013 81.591V87.999H85.6933V81.051C85.6933 80.679 85.6153 80.397 85.4593 80.205C85.3033 80.013 85.0753 79.917 84.7753 79.917C84.3673 79.917 84.0073 80.085 83.6953 80.421C83.3953 80.757 83.2453 81.147 83.2453 81.591V87.999H81.3373V78.639H83.2093V79.719C83.4733 79.287 83.7973 78.951 84.1813 78.711C84.5773 78.471 84.9913 78.351 85.4233 78.351C85.9153 78.351 86.3173 78.471 86.6293 78.711C86.9413 78.951 87.1873 79.329 87.3673 79.845C87.6673 79.377 88.0273 79.011 88.4473 78.747C88.8793 78.483 89.3233 78.351 89.7793 78.351C90.4513 78.351 90.9793 78.585 91.3633 79.053C91.7593 79.509 91.9573 80.133 91.9573 80.925V87.999H90.0493ZM100.615 85.281C100.495 86.265 100.159 87.015 99.6074 87.531C99.0674 88.035 98.3234 88.287 97.3754 88.287C96.1994 88.287 95.3174 87.885 94.7294 87.081C94.1534 86.277 93.8654 85.053 93.8654 83.409C93.8654 81.789 94.1714 80.541 94.7834 79.665C95.4074 78.789 96.2894 78.351 97.4294 78.351C98.4974 78.351 99.3014 78.741 99.8414 79.521C100.393 80.301 100.669 81.441 100.669 82.941V83.787H95.7734C95.7734 84.735 95.9174 85.485 96.2054 86.037C96.5054 86.577 96.9134 86.847 97.4294 86.847C97.8494 86.847 98.1614 86.727 98.3654 86.487C98.5814 86.235 98.7254 85.833 98.7974 85.281H100.615ZM98.8334 82.509C98.8334 81.585 98.7134 80.895 98.4734 80.439C98.2334 79.983 97.8674 79.755 97.3754 79.755C96.8714 79.755 96.4934 79.977 96.2414 80.421C96.0014 80.853 95.8574 81.549 95.8094 82.509H98.8334ZM52.9644 105.999V93.147H56.2044C57.5364 93.147 58.5624 93.495 59.2824 94.191C60.0144 94.875 60.3804 95.841 60.3804 97.089C60.3804 98.397 60.0144 99.417 59.2824 100.149C58.5504 100.869 57.5304 101.229 56.2224 101.229H54.9624V105.999H52.9644ZM56.1504 99.483C57.6384 99.483 58.3824 98.703 58.3824 97.143C58.3824 96.375 58.1964 95.811 57.8244 95.451C57.4644 95.079 56.9004 94.893 56.1324 94.893H54.9624V99.483H56.1504ZM62.0875 105.999V96.639H63.9595V97.881C64.2235 97.425 64.5235 97.077 64.8595 96.837C65.2075 96.597 65.5735 96.477 65.9575 96.477C66.1855 96.477 66.3895 96.507 66.5695 96.567L66.3355 98.313C66.1315 98.265 65.9095 98.241 65.6695 98.241C65.3935 98.241 65.1295 98.319 64.8775 98.475C64.6255 98.631 64.4155 98.847 64.2475 99.123C64.0795 99.387 63.9955 99.675 63.9955 99.987V105.999H62.0875ZM70.7608 106.287C69.6088 106.287 68.7328 105.867 68.1328 105.027C67.5328 104.187 67.2328 102.963 67.2328 101.355C67.2328 99.723 67.5448 98.481 68.1688 97.629C68.7928 96.777 69.6928 96.351 70.8688 96.351C72.0208 96.351 72.8968 96.771 73.4968 97.611C74.0968 98.451 74.3968 99.675 74.3968 101.283C74.3968 102.915 74.0848 104.157 73.4608 105.009C72.8368 105.861 71.9368 106.287 70.7608 106.287ZM70.7968 104.775C71.3728 104.775 71.7868 104.505 72.0388 103.965C72.2908 103.425 72.4168 102.537 72.4168 101.301C72.4168 100.077 72.2908 99.201 72.0388 98.673C71.7988 98.133 71.3968 97.863 70.8328 97.863C70.2568 97.863 69.8428 98.133 69.5908 98.673C69.3388 99.213 69.2128 100.101 69.2128 101.337C69.2128 102.561 69.3328 103.443 69.5728 103.983C69.8248 104.511 70.2328 104.775 70.7968 104.775ZM81.1033 104.451C80.8633 104.859 80.5513 105.177 80.1673 105.405C79.7953 105.633 79.3933 105.747 78.9613 105.747C78.0133 105.747 77.2753 105.345 76.7473 104.541C76.2313 103.725 75.9733 102.585 75.9733 101.121C75.9733 99.645 76.2493 98.481 76.8013 97.629C77.3533 96.777 78.1033 96.351 79.0513 96.351C79.4473 96.351 79.8253 96.465 80.1853 96.693C80.5573 96.909 80.8753 97.209 81.1393 97.593V96.639H83.0113V105.783C83.0113 107.019 82.7113 107.979 82.1113 108.663C81.5113 109.347 80.6593 109.689 79.5553 109.689C78.4993 109.689 77.7013 109.443 77.1613 108.951C76.6213 108.471 76.3093 107.733 76.2253 106.737H78.0973C78.1813 107.253 78.3373 107.619 78.5653 107.835C78.8053 108.051 79.1653 108.159 79.6453 108.159C80.6173 108.159 81.1033 107.469 81.1033 106.089V104.451ZM81.1393 100.635C81.1393 99.759 81.0013 99.081 80.7253 98.601C80.4493 98.121 80.0593 97.881 79.5553 97.881C79.0153 97.881 78.6133 98.145 78.3493 98.673C78.0853 99.189 77.9533 99.981 77.9533 101.049C77.9533 102.117 78.0853 102.915 78.3493 103.443C78.6133 103.959 79.0153 104.217 79.5553 104.217C80.0713 104.217 80.4613 103.989 80.7253 103.533C81.0013 103.065 81.1393 102.393 81.1393 101.517V100.635ZM85.3911 105.999V96.639H87.2631V97.881C87.5271 97.425 87.8271 97.077 88.1631 96.837C88.5111 96.597 88.8771 96.477 89.2611 96.477C89.4891 96.477 89.6931 96.507 89.8731 96.567L89.6391 98.313C89.4351 98.265 89.2131 98.241 88.9731 98.241C88.6971 98.241 88.4331 98.319 88.1811 98.475C87.9291 98.631 87.7191 98.847 87.5511 99.123C87.3831 99.387 87.2991 99.675 87.2991 99.987V105.999H85.3911ZM95.3035 105.999V104.883C95.0155 105.315 94.6735 105.645 94.2775 105.873C93.8815 106.101 93.4555 106.215 92.9995 106.215C92.2435 106.215 91.6495 105.975 91.2175 105.495C90.7855 105.003 90.5695 104.325 90.5695 103.461C90.5695 102.525 90.8875 101.781 91.5235 101.229C92.1595 100.677 93.0655 100.359 94.2415 100.275L95.2495 100.203V99.663C95.2495 99.003 95.1475 98.523 94.9435 98.223C94.7395 97.923 94.4095 97.773 93.9535 97.773C93.5335 97.773 93.2155 97.875 92.9995 98.079C92.7955 98.283 92.6515 98.625 92.5675 99.105L90.8575 98.925C91.0135 98.049 91.3495 97.401 91.8655 96.981C92.3815 96.561 93.1075 96.351 94.0435 96.351C95.0875 96.351 95.8555 96.633 96.3475 97.197C96.8395 97.761 97.0855 98.643 97.0855 99.843V105.999H95.3035ZM95.2495 101.481L94.4215 101.553C93.0895 101.673 92.4235 102.261 92.4235 103.317C92.4235 103.773 92.5195 104.127 92.7115 104.379C92.9155 104.619 93.2035 104.739 93.5755 104.739C94.0795 104.739 94.4815 104.547 94.7815 104.163C95.0935 103.767 95.2495 103.245 95.2495 102.597V101.481ZM108.104 105.999V99.051C108.104 98.679 108.026 98.397 107.87 98.205C107.714 98.013 107.486 97.917 107.186 97.917C106.778 97.917 106.418 98.085 106.106 98.421C105.806 98.757 105.656 99.147 105.656 99.591V105.999H103.748V99.051C103.748 98.679 103.67 98.397 103.514 98.205C103.358 98.013 103.13 97.917 102.83 97.917C102.422 97.917 102.062 98.085 101.75 98.421C101.45 98.757 101.3 99.147 101.3 99.591V105.999H99.3918V96.639H101.264V97.719C101.528 97.287 101.852 96.951 102.236 96.711C102.632 96.471 103.046 96.351 103.478 96.351C103.97 96.351 104.372 96.471 104.684 96.711C104.996 96.951 105.242 97.329 105.422 97.845C105.722 97.377 106.082 97.011 106.502 96.747C106.934 96.483 107.378 96.351 107.834 96.351C108.506 96.351 109.034 96.585 109.418 97.053C109.814 97.509 110.012 98.133 110.012 98.925V105.999H108.104ZM112.37 102.219L112.244 93.147H114.296L114.17 102.219H112.37ZM112.244 105.999V103.551H114.296V105.999H112.244Z" fill="#363428"/>
</svg>
