<svg width="283" height="145" viewBox="0 0 283 145" fill="none" xmlns="http://www.w3.org/2000/svg">
<g clip-path="url(#clip0_578_1821)">
<g filter="url(#filter0_d_578_1821)">
<path d="M282.999 118.93V113.467C281.26 113.467 279.769 111.978 279.769 110.24C279.769 108.502 281.26 107.012 282.999 107.012V104.033C281.26 104.033 279.769 102.543 279.769 100.805C279.769 99.0668 281.26 97.5771 282.999 97.5771V94.5976C281.26 94.5976 279.769 93.232 279.769 91.3699C279.769 89.5077 281.26 88.1421 282.999 88.1421V85.1627C281.26 85.1627 279.769 83.673 279.769 81.9349C279.769 80.1969 281.26 78.7072 282.999 78.7072V75.7277C281.26 75.7277 279.769 74.238 279.769 72.5C279.769 70.762 281.26 69.2723 282.999 69.2723V66.2928C281.26 66.2928 279.769 64.8031 279.769 63.0651C279.769 61.3271 281.26 59.8373 282.999 59.8373V56.8579C281.26 56.8579 279.769 55.3682 279.769 53.6301C279.769 51.8921 281.26 50.4024 282.999 50.4024V47.423C281.26 47.423 279.769 45.9332 279.769 44.1952C279.769 42.4572 281.26 40.9675 282.999 40.9675V37.988C281.26 37.988 279.769 36.4983 279.769 34.7603C279.769 33.0223 281.26 31.5325 282.999 31.5325V25.3253C268.589 25.3253 256.911 13.6558 256.911 -0.744858H253.805C253.805 0.993156 252.314 2.48288 250.575 2.48288C248.836 2.48288 247.345 0.993156 247.345 -0.744858H244.612C244.612 0.993156 243.121 2.48288 241.382 2.48288C239.643 2.48288 238.152 0.993156 238.152 -0.744858H235.419C235.419 0.993156 233.928 2.48288 232.189 2.48288C230.449 2.48288 228.959 0.993156 228.959 -0.744858H226.225C226.225 0.993156 224.735 2.48288 222.995 2.48288C221.256 2.48288 219.765 0.993156 219.765 -0.744858H217.032C217.032 0.993156 215.542 2.48288 213.802 2.48288C212.063 2.48288 210.572 0.993156 210.572 -0.744858H207.839C207.839 0.993156 206.348 2.48288 204.609 2.48288C202.87 2.48288 201.379 0.993156 201.379 -0.744858H198.646C198.646 0.993156 197.155 2.48288 195.416 2.48288C193.677 2.48288 192.186 0.993156 192.186 -0.744858H189.453C189.453 0.993156 187.962 2.48288 186.223 2.48288C184.484 2.48288 182.993 0.993156 182.993 -0.744858H180.26C180.26 0.993156 178.769 2.48288 177.03 2.48288C175.29 2.48288 173.8 0.993156 173.8 -0.744858H171.067C171.067 0.993156 169.576 2.48288 167.837 2.48288C166.097 2.48288 164.607 0.993156 164.607 -0.744858H161.873C161.873 0.993156 160.383 2.48288 158.643 2.48288C156.904 2.48288 155.413 0.993156 155.413 -0.744858H152.68C152.68 0.993156 151.189 2.48288 149.45 2.48288C147.711 2.48288 146.22 0.993156 146.22 -0.744858H143.487C143.487 0.993156 141.996 2.48288 140.257 2.48288C138.518 2.48288 137.027 0.993156 137.027 -0.744858H134.294C134.294 0.993156 132.803 2.48288 131.064 2.48288C129.325 2.48288 127.834 0.993156 127.834 -0.744858H125.101C125.101 0.993156 123.61 2.48288 121.871 2.48288C120.132 2.48288 118.641 0.993156 118.641 -0.744858H115.908C115.908 0.993156 114.417 2.48288 112.678 2.48288C110.938 2.48288 109.448 0.993156 109.448 -0.744858H106.715C106.715 0.993156 105.224 2.48288 103.484 2.48288C101.745 2.48288 100.254 0.993156 100.254 -0.744858H97.5214C97.5214 0.993156 96.0306 2.48288 94.2913 2.48288C92.5521 2.48288 91.0613 0.993156 91.0613 -0.744858H88.3282C88.3282 0.993156 86.9617 2.48288 85.0982 2.48288C83.2347 2.48288 81.8682 0.993156 81.8682 -0.744858H79.1351C79.1351 0.993156 77.6443 2.48288 75.905 2.48288C74.1658 2.48288 72.675 0.993156 72.675 -0.744858H69.9419C69.9419 0.993156 68.4511 2.48288 66.7119 2.48288C64.9726 2.48288 63.4819 0.993156 63.4819 -0.744858H60.7488C60.7488 0.993156 59.258 2.48288 57.5187 2.48288C55.7795 2.48288 54.2887 0.993156 54.2887 -0.744858H51.5556C51.5556 0.993156 50.0648 2.48288 48.3256 2.48288C46.5863 2.48288 45.0956 0.993156 45.0956 -0.744858H42.3625C42.3625 0.993156 40.8717 2.48288 39.1324 2.48288C37.3932 2.48288 35.9024 0.993156 35.9024 -0.744858H33.1693C33.1693 0.993156 31.6785 2.48288 29.9393 2.48288C28.2 2.48288 26.7093 0.993156 26.7093 -0.744858H24.1004C24.1004 13.6558 12.4226 25.3253 -1.98828 25.3253V31.5325C-0.249036 31.5325 1.24174 33.0223 1.24174 34.7603C1.24174 36.4983 -0.249036 37.988 -1.98828 37.988V40.9675C-0.249036 40.9675 1.24174 42.4572 1.24174 44.1952C1.24174 45.9332 -0.249036 47.423 -1.98828 47.423V50.4024C-0.249036 50.4024 1.24174 51.8921 1.24174 53.6301C1.24174 55.3682 -0.249036 56.8579 -1.98828 56.8579V59.8373C-0.249036 59.8373 1.24174 61.3271 1.24174 63.0651C1.24174 64.8031 -0.249036 66.2928 -1.98828 66.2928V69.2723C-0.249036 69.2723 1.24174 70.6378 1.24174 72.5C1.24174 74.3622 -0.249036 75.7277 -1.98828 75.7277V78.7072C-0.249036 78.7072 1.24174 80.1969 1.24174 81.9349C1.24174 83.673 -0.249036 85.1627 -1.98828 85.1627V88.1421C-0.249036 88.1421 1.24174 89.5077 1.24174 91.3699C1.24174 93.232 -0.249036 94.5976 -1.98828 94.5976V97.5771C-0.249036 97.5771 1.24174 99.0668 1.24174 100.805C1.24174 102.543 -0.249036 104.033 -1.98828 104.033V107.012C-0.249036 107.012 1.24174 108.378 1.24174 110.24C1.24174 112.102 -0.249036 113.467 -1.98828 113.467V118.93C12.4226 118.93 24.1004 130.599 24.1004 145H26.7093C26.7093 143.262 28.2 141.772 29.9393 141.772C31.6785 141.772 33.1693 143.262 33.1693 145H35.9024C35.9024 143.262 37.3932 141.772 39.1324 141.772C40.8717 141.772 42.3625 143.262 42.3625 145H45.0956C45.0956 143.262 46.5863 141.772 48.3256 141.772C50.0648 141.772 51.5556 143.262 51.5556 145H54.2887C54.2887 143.262 55.7795 141.772 57.5187 141.772C59.258 141.772 60.7488 143.262 60.7488 145H63.4819C63.4819 143.262 64.9726 141.772 66.7119 141.772C68.4511 141.772 69.9419 143.262 69.9419 145H72.675C72.675 143.262 74.1658 141.772 75.905 141.772C77.6443 141.772 79.1351 143.262 79.1351 145H81.8682C81.8682 143.262 83.3589 141.772 85.0982 141.772C86.8374 141.772 88.3282 143.262 88.3282 145H91.0613C91.0613 143.262 92.5521 141.772 94.2913 141.772C96.0306 141.772 97.5214 143.262 97.5214 145H100.254C100.254 143.262 101.745 141.772 103.484 141.772C105.224 141.772 106.715 143.262 106.715 145H109.448C109.448 143.262 110.814 141.772 112.678 141.772C114.541 141.772 115.908 143.262 115.908 145H118.641C118.641 143.262 120.007 141.772 121.871 141.772C123.734 141.772 125.101 143.262 125.101 145H127.834C127.834 143.262 129.325 141.772 131.064 141.772C132.803 141.772 134.294 143.262 134.294 145H137.027C137.027 143.262 138.518 141.772 140.257 141.772C141.996 141.772 143.487 143.262 143.487 145H146.22C146.22 143.262 147.587 141.772 149.45 141.772C151.314 141.772 152.68 143.262 152.68 145H155.413C155.413 143.262 156.904 141.772 158.643 141.772C160.383 141.772 161.873 143.262 161.873 145H164.607C164.607 143.262 165.973 141.772 167.837 141.772C169.7 141.772 171.067 143.262 171.067 145H173.8C173.8 143.262 175.29 141.772 177.03 141.772C178.769 141.772 180.26 143.262 180.26 145H182.993C182.993 143.262 184.484 141.772 186.223 141.772C187.962 141.772 189.453 143.262 189.453 145H192.186C192.186 143.262 193.677 141.772 195.416 141.772C197.155 141.772 198.646 143.262 198.646 145H201.379C201.379 143.262 202.87 141.772 204.609 141.772C206.348 141.772 207.839 143.262 207.839 145H210.572C210.572 143.262 212.063 141.772 213.802 141.772C215.542 141.772 217.032 143.262 217.032 145H219.765C219.765 143.262 221.256 141.772 222.995 141.772C224.735 141.772 226.225 143.262 226.225 145H228.959C228.959 143.262 230.449 141.772 232.189 141.772C233.928 141.772 235.419 143.262 235.419 145H238.152C238.152 143.262 239.643 141.772 241.382 141.772C243.121 141.772 244.612 143.262 244.612 145H247.345C247.345 143.262 248.836 141.772 250.575 141.772C252.314 141.772 253.805 143.262 253.805 145H256.911C256.911 130.599 268.589 118.93 282.999 118.93Z" fill="#FD6954"/>
</g>
<path d="M257.037 2.60702H252.44C252.44 2.60702 251.322 3.22774 250.577 3.22774C249.955 3.22774 249.21 2.97945 248.713 2.60702H243.371C243.371 2.60702 242.253 3.22774 241.508 3.22774C240.762 3.22774 240.141 2.97945 239.644 2.60702H234.302C234.302 2.60702 233.184 3.22774 232.439 3.22774C231.818 3.22774 231.072 2.97945 230.575 2.60702H225.233C225.233 2.60702 224.115 3.22774 223.37 3.22774C222.624 3.22774 222.003 2.97945 221.506 2.60702H216.164C216.164 2.60702 215.046 3.22774 214.301 3.22774C213.68 3.22774 212.934 2.97945 212.437 2.60702H207.095C207.095 2.60702 205.977 3.22774 205.232 3.22774C204.487 3.22774 203.865 2.97945 203.369 2.60702H198.027C198.027 2.60702 196.908 3.22774 196.163 3.22774C195.542 3.22774 194.797 2.97945 194.3 2.60702H188.958C188.958 2.60702 187.715 3.22774 187.094 3.22774C186.473 3.22774 185.728 2.97945 185.231 2.60702H179.889C179.889 2.60702 178.646 3.22774 178.025 3.22774C177.404 3.22774 176.659 2.97945 176.162 2.60702H170.82C170.82 2.60702 169.577 3.22774 168.956 3.22774C168.335 3.22774 167.59 2.97945 167.093 2.60702H161.751C161.751 2.60702 160.509 3.22774 159.887 3.22774C159.266 3.22774 158.521 2.97945 158.024 2.60702H152.682C152.682 2.60702 151.564 3.22774 150.818 3.22774C150.073 3.22774 149.452 2.97945 148.955 2.60702H143.613C143.613 2.60702 142.371 3.22774 141.75 3.22774C141.128 3.22774 140.383 2.97945 139.886 2.60702H134.544C134.544 2.60702 133.426 3.22774 132.681 3.22774C131.935 3.22774 131.314 2.97945 130.817 2.60702H125.475C125.475 2.60702 124.233 3.22774 123.612 3.22774C122.991 3.22774 122.245 2.97945 121.748 2.60702H116.406C116.406 2.60702 115.288 3.22774 114.543 3.22774C113.797 3.22774 113.176 2.97945 112.679 2.60702H107.337C107.337 2.60702 106.219 3.22774 105.474 3.22774C104.728 3.22774 104.107 2.97945 103.61 2.60702H98.2684C98.2684 2.60702 97.1504 3.22774 96.405 3.22774C95.6596 3.22774 95.0384 2.97945 94.5415 2.60702H89.1995C89.1995 2.60702 88.0814 3.22774 87.336 3.22774C86.5907 3.22774 85.9695 2.97945 85.4726 2.60702H80.1306C80.1306 2.60702 79.0125 3.22774 78.2671 3.22774C77.5217 3.22774 76.9006 2.97945 76.4036 2.60702H71.0617C71.0617 2.60702 69.9436 3.22774 69.1982 3.22774C68.4528 3.22774 67.8317 2.97945 67.3347 2.60702H61.9928C61.9928 2.60702 60.8747 3.22774 60.1293 3.22774C59.5081 3.22774 58.7627 2.97945 58.2658 2.60702H52.9238C52.9238 2.60702 51.8058 3.22774 51.0604 3.22774C50.315 3.22774 49.6938 2.97945 49.1969 2.60702H43.8549C43.8549 2.60702 42.7368 3.22774 41.9914 3.22774C41.3703 3.22774 40.6249 2.97945 40.128 2.60702H34.786C34.786 2.60702 33.6679 3.22774 32.9225 3.22774C32.1771 3.22774 31.556 2.97945 31.059 2.60702H26.9594C26.9594 3.22774 26.8352 3.84846 26.7109 4.46918H258.279C258.279 3.84846 258.031 3.22774 258.031 2.60702H257.037Z" fill="#C83632"/>
<path d="M258.155 7.94521H24.8477C24.5993 8.56592 24.475 9.18664 24.2266 9.80736H258.9C258.652 9.18664 258.403 8.56592 258.155 7.94521Z" fill="#C83632"/>
<path d="M260.513 13.2834H22.4845C22.1118 13.9041 21.6149 14.5248 21.2422 15.1455H261.755C261.755 15.1455 260.885 13.9041 260.513 13.2834Z" fill="#C83632"/>
<path d="M264.613 18.4974H18.3854C17.7642 19.1181 17.0188 19.863 16.2734 20.3596H266.849C266.104 19.7389 265.358 19.1181 264.613 18.4974Z" fill="#C83632"/>
<path d="M272.44 23.8356H10.6835C8.69577 24.7046 6.58383 25.3253 4.34766 25.6978H278.776C276.539 25.3253 274.428 24.7046 272.44 23.8356Z" fill="#C83632"/>
<path d="M283 29.1738H0V31.036H283V29.1738Z" fill="#C83632"/>
<path d="M279.769 35.5051C279.769 35.5051 279.769 34.7603 280.017 34.3878H2.98047C2.98047 34.3878 3.22893 35.1327 3.22893 35.5051C3.22893 35.7534 3.22893 36.0017 3.22893 36.3741H280.017C280.017 36.3741 280.017 35.8776 280.017 35.5051H279.769Z" fill="#C83632"/>
<path d="M283 39.726H0V41.5882H283V39.726Z" fill="#C83632"/>
<path d="M279.77 45.0642H3.22977C3.22977 45.8091 2.9813 46.4298 2.48438 46.9264H280.639C280.639 46.9264 279.894 45.6849 279.894 45.0642H279.77Z" fill="#C83632"/>
<path d="M283 51.0231V50.4024H0V51.0231C0.993854 51.0231 1.98771 51.5197 2.48464 52.2645H280.391C281.012 51.5197 281.882 51.0231 282.876 51.0231H283Z" fill="#C83632"/>
<path d="M283 57.4786C281.758 57.4786 280.64 56.7337 280.143 55.7406H2.85733C2.3604 56.7337 1.24232 57.4786 0 57.4786L283 57.6027V57.4786Z" fill="#C83632"/>
<path d="M281.136 60.9546H1.86328C2.48444 61.4512 2.98137 62.0719 3.22983 62.8168H279.894C280.018 62.0719 280.515 61.3271 281.136 60.9546Z" fill="#C83632"/>
<path d="M283 66.7896C282.379 66.7896 281.758 66.6655 281.261 66.2931H1.73924C1.73924 66.2931 0.621159 66.7896 0 66.7896V68.1552H283V66.7896Z" fill="#C83632"/>
<path d="M279.769 72.8724C279.769 72.8724 279.769 71.8793 280.017 71.5068H2.98047C2.98047 71.5068 3.22893 72.3758 3.22893 72.8724C3.22893 73.1207 3.22893 73.2448 3.22893 73.4931H279.893C279.893 73.4931 279.893 73.1207 279.893 72.8724H279.769Z" fill="#C83632"/>
<path d="M283 76.845H0V78.7072H283V76.845Z" fill="#C83632"/>
<path d="M279.77 82.3073H3.23053C3.23053 83.0522 2.98207 83.6729 2.60938 84.1695H280.392C280.392 84.1695 279.77 83.0522 279.77 82.3073Z" fill="#C83632"/>
<path d="M283 88.3904V87.5214H0V88.3904C0.869622 88.3904 1.73924 88.7628 2.3604 89.3835H280.764C280.764 89.3835 282.13 88.3904 283.124 88.3904H283Z" fill="#C83632"/>
<path d="M280.019 92.8596H2.98227C2.60957 93.8527 1.73995 94.4735 0.746094 94.7217H282.131C281.137 94.4735 280.268 93.7286 279.895 92.8596H280.019Z" fill="#C83632"/>
<path d="M281.635 98.0736H1.49219C2.23758 98.446 2.85874 99.1909 3.1072 99.9358H280.02C280.268 99.0668 280.889 98.446 281.635 98.0736Z" fill="#C83632"/>
<path d="M283.001 104.157C282.255 104.157 281.51 103.908 280.889 103.412H2.11271C2.11271 103.412 0.870391 104.157 0.125 104.157V105.274H283.125V104.157H283.001Z" fill="#C83632"/>
<path d="M279.768 110.24C279.768 110.24 279.892 109.122 280.265 108.626H2.85547C2.85547 108.626 3.22816 109.619 3.22816 110.24C3.22816 110.24 3.22816 110.488 3.22816 110.612H279.892C279.892 110.612 279.892 110.364 279.892 110.24H279.768Z" fill="#C83632"/>
<path d="M283 113.964H0V115.826H283V113.964Z" fill="#C83632"/>
<path d="M278.776 119.302H4.34766C6.58383 119.675 8.69577 120.295 10.6835 121.164H272.44C274.428 120.295 276.539 119.675 278.776 119.302Z" fill="#C83632"/>
<path d="M266.849 124.64H16.2734C17.0188 125.261 17.7642 125.882 18.3854 126.503H264.613C265.358 125.882 265.979 125.137 266.849 124.64Z" fill="#C83632"/>
<path d="M261.755 129.979H21.2422C21.7391 130.599 22.1118 131.22 22.4845 131.841H260.513C260.885 131.22 261.258 130.599 261.755 129.979Z" fill="#C83632"/>
<path d="M258.9 135.193H24.2266C24.475 135.813 24.7235 136.434 24.8477 137.055H258.031C258.279 136.434 258.528 135.813 258.776 135.193H258.9Z" fill="#C83632"/>
<path d="M257.283 140.531H25.7148C25.7148 141.152 25.9633 141.772 25.9633 142.393H30.063C30.063 142.393 31.181 141.772 31.9264 141.772C32.6718 141.772 33.293 142.021 33.7899 142.393H39.1319C39.1319 142.393 40.25 141.772 40.9954 141.772C41.7407 141.772 42.3619 142.021 42.8588 142.393H48.2008C48.2008 142.393 49.3189 141.772 50.0643 141.772C50.8097 141.772 51.4308 142.021 51.9277 142.393H57.2697C57.2697 142.393 58.3878 141.772 59.1332 141.772C59.8786 141.772 60.4997 142.021 60.9967 142.393H66.3386C66.3386 142.393 67.4567 141.772 68.2021 141.772C68.8233 141.772 69.5687 142.021 70.0656 142.393H75.4076C75.4076 142.393 76.5256 141.772 77.271 141.772C78.0164 141.772 78.6376 142.021 79.1345 142.393H84.4765C84.4765 142.393 85.5946 141.772 86.34 141.772C86.9611 141.772 87.7065 142.021 88.2034 142.393H93.5454C93.5454 142.393 94.6635 141.772 95.4089 141.772C96.1543 141.772 96.7754 142.021 97.2723 142.393H102.614C102.614 142.393 103.732 141.772 104.478 141.772C105.099 141.772 105.844 142.021 106.341 142.393H111.683C111.683 142.393 112.801 141.772 113.547 141.772C114.292 141.772 114.913 142.021 115.41 142.393H120.752C120.752 142.393 121.994 141.772 122.616 141.772C123.237 141.772 123.982 142.021 124.479 142.393H129.821C129.821 142.393 131.063 141.772 131.685 141.772C132.306 141.772 133.051 142.021 133.548 142.393H138.89C138.89 142.393 140.132 141.772 140.753 141.772C141.375 141.772 142.12 142.021 142.617 142.393H147.959C147.959 142.393 149.077 141.772 149.822 141.772C150.568 141.772 151.189 142.021 151.686 142.393H157.028C157.028 142.393 158.27 141.772 158.891 141.772C159.512 141.772 160.258 142.021 160.755 142.393H166.097C166.097 142.393 167.215 141.772 167.96 141.772C168.706 141.772 169.327 142.021 169.824 142.393H175.166C175.166 142.393 176.408 141.772 177.029 141.772C177.65 141.772 178.396 142.021 178.893 142.393H184.235C184.235 142.393 185.353 141.772 186.098 141.772C186.843 141.772 187.465 142.021 187.962 142.393H193.304C193.304 142.393 194.546 141.772 195.167 141.772C195.788 141.772 196.534 142.021 197.03 142.393H202.372C202.372 142.393 203.491 141.772 204.236 141.772C204.981 141.772 205.602 142.021 206.099 142.393H211.441C211.441 142.393 212.559 141.772 213.305 141.772C214.05 141.772 214.671 142.021 215.168 142.393H220.51C220.51 142.393 221.628 141.772 222.374 141.772C223.119 141.772 223.74 142.021 224.237 142.393H229.579C229.579 142.393 230.697 141.772 231.443 141.772C232.188 141.772 232.809 142.021 233.306 142.393H238.648C238.648 142.393 239.766 141.772 240.512 141.772C241.133 141.772 241.878 142.021 242.375 142.393H247.717C247.717 142.393 248.835 141.772 249.581 141.772C250.326 141.772 250.947 142.021 251.444 142.393H256.041C256.041 141.772 256.165 141.152 256.289 140.531H257.283Z" fill="#C83632"/>
<path d="M95.5456 53.336C95.3376 52.728 95.0096 52.296 94.5616 52.04C94.1296 51.784 93.5056 51.656 92.6896 51.656C91.8736 51.656 91.2416 51.752 90.7936 51.944C90.3616 52.12 90.1456 52.384 90.1456 52.736C90.1456 52.992 90.2416 53.184 90.4336 53.312C90.6416 53.44 91.0176 53.552 91.5616 53.648L95.4496 54.296C97.7696 54.68 99.4256 55.296 100.418 56.144C101.426 56.976 101.93 58.168 101.93 59.72C101.93 63.528 98.8976 65.432 92.8336 65.432C87.0736 65.432 84.0096 63.36 83.6416 59.216H89.7136C89.9696 60.544 91.0176 61.208 92.8576 61.208C94.8256 61.208 95.8096 60.784 95.8096 59.936C95.8096 59.664 95.6736 59.456 95.4016 59.312C95.1456 59.152 94.7296 59.024 94.1536 58.928L91.0576 58.448C88.6896 58.08 86.9376 57.448 85.8016 56.552C84.6656 55.64 84.0976 54.424 84.0976 52.904C84.0976 51.192 84.8736 49.856 86.4256 48.896C87.9936 47.92 90.1616 47.432 92.9296 47.432C95.5056 47.432 97.5056 47.888 98.9296 48.8C100.37 49.696 101.202 51.04 101.426 52.832L95.5456 53.336ZM104.37 65V47.864H119.874V52.256H110.418V54.176H119.394V58.544H110.418V60.608H120.474L119.97 65H104.37ZM123.213 65V47.864L138.717 47.864V52.256H129.261V54.176H138.237V58.544H129.261V60.608H139.317L138.813 65H123.213ZM152.991 65V52.832H146.919V47.864H165.255V52.832H159.183V65H152.991ZM179.898 65V58.736H173.538V65H167.346V47.864H173.538V53.624H179.898V47.864H186.09V65H179.898ZM189.729 65V47.864H205.233V52.256H195.777V54.176H204.753V58.544H195.777V60.608H205.833L205.329 65H189.729ZM50.5922 89L50.5922 71.864H56.7842L56.7842 89H50.5922ZM60.4359 89L60.4359 71.864H69.8919C74.8679 71.864 77.3559 73.344 77.3559 76.304C77.3559 77.92 76.4599 79.12 74.6679 79.904C75.7879 80.272 76.6199 80.792 77.1639 81.464C77.7239 82.12 78.0039 82.952 78.0039 83.96C78.0039 85.608 77.3479 86.864 76.0359 87.728C74.7399 88.576 72.8439 89 70.3479 89H60.4359ZM69.6519 78.368C70.9159 78.368 71.5479 77.944 71.5479 77.096C71.5479 76.648 71.3959 76.336 71.0919 76.16C70.7879 75.968 70.2839 75.872 69.5799 75.872H66.0519V78.368H69.6519ZM69.7959 84.992C70.6439 84.992 71.2439 84.872 71.5959 84.632C71.9639 84.392 72.1479 84.008 72.1479 83.48C72.1479 82.952 71.9559 82.576 71.5719 82.352C71.2039 82.112 70.5959 81.992 69.7479 81.992H66.0519V84.992H69.7959ZM91.8073 89L91.8073 76.832L85.7353 76.832V71.864L104.071 71.864V76.832H97.9993L97.9993 89H91.8073ZM106.162 89V71.864H121.666V76.256H112.21V78.176H121.186V82.544H112.21V84.608H122.266L121.762 89H106.162ZM143.99 82.352C143.83 84.576 142.902 86.312 141.206 87.56C139.51 88.808 137.246 89.432 134.414 89.432C132.318 89.432 130.51 89.088 128.99 88.4C127.486 87.696 126.326 86.664 125.51 85.304C124.694 83.944 124.286 82.32 124.286 80.432C124.286 78.624 124.686 77.04 125.486 75.68C126.286 74.32 127.446 73.272 128.966 72.536C130.486 71.8 132.326 71.432 134.486 71.432C137.062 71.432 139.11 71.952 140.63 72.992C142.15 74.032 143.158 75.6 143.654 77.696L137.51 78.32C137.27 77.632 136.91 77.136 136.43 76.832C135.966 76.528 135.31 76.376 134.462 76.376C133.23 76.376 132.294 76.72 131.654 77.408C131.03 78.096 130.718 79.104 130.718 80.432C130.718 83.136 131.998 84.488 134.558 84.488C136.43 84.488 137.518 83.776 137.822 82.352H143.99ZM158.886 89V82.736H152.526V89H146.334V71.864H152.526V77.624H158.886V71.864H165.078V89H158.886ZM181.331 83.504V89H175.139V71.864H189.923V76.424H181.331V78.944H189.443V83.504H181.331ZM192.389 89V71.864H207.893V76.256H198.437V78.176H207.413V82.544H198.437V84.608H208.493L207.989 89H192.389ZM221.745 77.336C221.537 76.728 221.209 76.296 220.761 76.04C220.329 75.784 219.705 75.656 218.889 75.656C218.073 75.656 217.441 75.752 216.993 75.944C216.561 76.12 216.345 76.384 216.345 76.736C216.345 76.992 216.441 77.184 216.633 77.312C216.841 77.44 217.217 77.552 217.761 77.648L221.649 78.296C223.969 78.68 225.625 79.296 226.617 80.144C227.625 80.976 228.129 82.168 228.129 83.72C228.129 87.528 225.097 89.432 219.033 89.432C213.273 89.432 210.209 87.36 209.841 83.216H215.913C216.169 84.544 217.217 85.208 219.057 85.208C221.025 85.208 222.009 84.784 222.009 83.936C222.009 83.664 221.873 83.456 221.601 83.312C221.345 83.152 220.929 83.024 220.353 82.928L217.257 82.448C214.889 82.08 213.137 81.448 212.001 80.552C210.865 79.64 210.297 78.424 210.297 76.904C210.297 75.192 211.073 73.856 212.625 72.896C214.193 71.92 216.361 71.432 219.129 71.432C221.705 71.432 223.705 71.888 225.129 72.8C226.569 73.696 227.401 75.04 227.625 76.832L221.745 77.336ZM235.081 89V76.832H229.009V71.864H247.345V76.832H241.273V89H235.081Z" fill="#FAF8EC"/>
</g>
<defs>
<filter id="filter0_d_578_1821" x="-11.9883" y="-10.7449" width="304.988" height="165.745" filterUnits="userSpaceOnUse" color-interpolation-filters="sRGB">
<feFlood flood-opacity="0" result="BackgroundImageFix"/>
<feColorMatrix in="SourceAlpha" type="matrix" values="0 0 0 0 0 0 0 0 0 0 0 0 0 0 0 0 0 0 127 0" result="hardAlpha"/>
<feOffset/>
<feGaussianBlur stdDeviation="5"/>
<feComposite in2="hardAlpha" operator="out"/>
<feColorMatrix type="matrix" values="0 0 0 0 0 0 0 0 0 0 0 0 0 0 0 0 0 0 0.25 0"/>
<feBlend mode="normal" in2="BackgroundImageFix" result="effect1_dropShadow_578_1821"/>
<feBlend mode="normal" in="SourceGraphic" in2="effect1_dropShadow_578_1821" result="shape"/>
</filter>
<clipPath id="clip0_578_1821">
<rect width="283" height="145" fill="white"/>
</clipPath>
</defs>
</svg>
