<svg width="66" height="62" viewBox="0 0 66 62" fill="none" xmlns="http://www.w3.org/2000/svg">
<g clip-path="url(#clip0_305_1881)">
<path fill-rule="evenodd" clip-rule="evenodd" d="M28.841 0.215167C28.7819 0.217231 28.7466 0.195557 28.7124 0.172852L28.7124 0.258514C28.7746 0.30599 28.8172 0.304958 28.841 0.216199L28.841 0.215167Z" fill="#E23F3A"/>
<path fill-rule="evenodd" clip-rule="evenodd" d="M24.1605 0.642411C24.1729 0.529914 24.1014 0.502048 23.9883 0.514433C23.9499 0.652731 24.1283 0.574293 24.1605 0.642411Z" fill="#E23F3A"/>
<path fill-rule="evenodd" clip-rule="evenodd" d="M25.2338 0.686024C25.214 0.604489 25.3665 0.502314 25.1902 0.514699C25.1974 0.578687 25.1746 0.672607 25.2338 0.686024Z" fill="#E23F3A"/>
<path fill-rule="evenodd" clip-rule="evenodd" d="M22.2279 0.941683C22.1605 0.937555 22.1947 0.832283 22.0993 0.856021C22.0619 0.943747 22.2103 1.04799 22.2279 0.941683Z" fill="#E23F3A"/>
<path fill-rule="evenodd" clip-rule="evenodd" d="M22.9139 4.91634C22.8776 4.88021 22.7915 4.9473 22.7852 4.95865C22.7448 5.03399 22.9439 4.94524 22.9139 4.91634Z" fill="#E23F3A"/>
<path fill-rule="evenodd" clip-rule="evenodd" d="M16.9445 7.60791L16.8159 7.60791L16.8159 7.69357L16.9445 7.69357L16.9445 7.60791Z" fill="#E23F3A"/>
<path fill-rule="evenodd" clip-rule="evenodd" d="M9.42829 8.6772C9.46045 8.53167 9.2644 8.51 9.2561 8.63488C9.31419 8.6483 9.33805 8.69577 9.42829 8.6772Z" fill="#E23F3A"/>
<path fill-rule="evenodd" clip-rule="evenodd" d="M49.4151 9.19026C49.3788 9.15414 49.2927 9.22122 49.2865 9.23258C49.246 9.30792 49.4452 9.21916 49.4151 9.19026Z" fill="#E23F3A"/>
<path fill-rule="evenodd" clip-rule="evenodd" d="M65.7362 27.5651C65.6065 27.5239 65.593 27.3659 65.4789 27.3092C65.7683 27.2865 65.5183 26.6961 65.5214 26.6683C65.5214 26.6641 65.731 26.6641 65.6075 26.6249C65.5484 26.6229 65.5131 26.6456 65.4789 26.6683C65.5349 26.4846 65.3565 26.5331 65.3067 26.4546C65.342 26.2379 65.4831 26.1574 65.3503 25.985C65.3907 25.9396 65.509 25.9716 65.4789 25.857C65.3078 25.822 65.4986 25.7084 65.4789 25.6011C65.4779 25.5928 65.4021 25.5897 65.3928 25.5588C65.3524 25.4163 65.2673 25.2316 65.2642 25.2172C65.2362 25.0809 65.2849 24.955 65.2642 24.8322C65.2621 24.8167 65.1843 24.8312 65.1781 24.7888C65.1625 24.6877 65.2393 24.5845 65.1781 24.4895C65.3814 24.44 65.203 24.2398 65.4353 24.1902C65.4426 23.8672 65.3524 23.4317 65.3928 23.0787C65.3306 22.9837 65.288 23.1324 65.2642 23.0364C65.2642 22.9342 65.4177 22.7949 65.3503 22.6091C65.286 22.6019 65.1916 22.6246 65.1781 22.5668C65.2217 22.3067 65.1625 22.2303 65.0495 22.0538C65.1459 22.0218 65.1905 21.7772 65.0069 21.8825C65.0847 21.1425 64.6729 20.7926 64.7061 20.1734C64.6553 20.1672 64.5848 20.1806 64.5775 20.1311C64.6014 19.8596 64.4354 19.646 64.4053 19.4902C64.3441 19.1609 64.1014 19.0164 64.3617 19.0195C64.3254 18.6459 64.1605 18.5262 64.147 18.165C64.0962 18.1577 64.0257 18.1722 64.0184 18.1226C64.0671 17.8522 63.6585 17.7738 63.7611 17.3961C63.6398 17.3321 63.5672 17.2196 63.4603 17.1401C63.4552 17.1917 63.4479 17.2413 63.3742 17.2258C63.4593 17.1081 63.2394 16.911 63.2456 16.7985C63.2456 16.783 63.3525 16.8036 63.3317 16.7562C63.3317 16.7551 63.1678 16.6819 63.1595 16.6705C62.9821 16.4269 63.0942 16.1111 62.9023 15.9873C62.8452 15.6704 62.7674 15.4444 62.4303 15.5177C62.3701 15.3381 62.4625 15.2638 62.3878 15.0047C61.9324 14.788 61.7882 14.2616 61.5289 13.8509C61.4169 13.8633 61.3443 13.8354 61.3567 13.7229C61.2758 13.7136 61.2623 13.7714 61.1845 13.7652C61.225 13.4566 60.9802 13.0799 60.8412 12.9963C60.808 12.9767 60.7603 13.0149 60.7125 12.954C60.7208 12.9643 60.7841 12.9003 60.7561 12.8683C60.6493 12.7496 60.5798 12.7992 60.5839 12.697C60.5881 12.6155 60.614 12.6021 60.5414 12.5257C60.392 12.3698 60.2924 12.4122 60.1545 12.312C60.1399 12.3017 60.168 12.2388 60.1545 12.2264C60.0746 12.15 59.9128 12.1459 59.8537 12.0127C59.8236 11.7444 59.614 11.6525 59.4668 11.4998C59.5404 11.4833 59.5767 11.5638 59.5954 11.4998C59.4699 11.3398 59.2562 11.2676 59.0798 11.1582C58.9605 10.7877 58.527 10.381 57.9201 10.1756C57.7832 9.78551 57.4585 9.58116 57.0613 9.44905C57.082 9.31488 56.9295 9.35204 56.9752 9.1931C56.7252 9.10021 56.5271 8.95572 56.4596 8.68016C56.2128 8.58417 56.0499 8.40356 55.9441 8.16721C55.7086 8.1734 55.7501 7.90403 55.6433 7.78225C55.4773 7.80495 55.4337 7.70587 55.2564 7.73993C55.2906 7.59131 55.1921 7.57583 55.2138 7.44063C55.08 7.46127 55.0053 7.38696 55.0852 7.31265C54.9089 7.26724 54.7201 7.43031 54.6558 7.35497C54.6693 7.25485 54.7232 7.19499 54.6983 7.05566C54.4151 7.06495 54.5946 6.87711 54.3975 6.79971C54.3923 6.90911 54.3892 7.01954 54.2689 7.01335C54.2823 6.95555 54.3301 6.93181 54.3114 6.84202C54.1185 6.82448 54.2149 6.67379 54.1392 6.58607C54.0458 6.47667 53.8747 6.45396 53.7523 6.37243C53.7181 6.34972 53.7378 6.27335 53.7098 6.24445C53.6444 6.1784 53.4816 6.22484 53.4525 6.20213C53.328 6.10615 53.2637 5.9307 53.1517 5.81717C52.9743 5.82233 52.883 5.74286 52.6797 5.77485C52.3872 5.63862 52.3136 5.28462 51.9069 5.26191C51.7337 4.94816 51.3551 4.71284 50.9194 4.79231C50.7338 4.5828 50.4309 4.59003 50.2753 4.27937C50.1498 4.39806 49.9651 4.14417 49.8033 4.27937C49.8012 4.22054 49.8241 4.18545 49.8458 4.15139C49.5886 4.12146 49.3376 3.9522 49.1156 3.89544C49.0585 3.88099 48.9745 4.01206 48.8583 3.93878C48.7743 3.88615 48.8407 3.80049 48.8583 3.76746C48.6976 3.785 48.6187 3.59201 48.4714 3.72514C48.5088 3.58788 48.3293 3.66632 48.3428 3.55382C48.0243 3.57549 47.9912 3.52182 47.6561 3.59613C47.654 3.65496 47.6769 3.69005 47.6997 3.72411C47.598 3.77881 47.6198 3.71895 47.485 3.76643C47.5067 3.63226 47.3833 3.59201 47.5275 3.55279C47.5379 3.59923 47.598 3.65496 47.6136 3.5951C47.5679 3.59304 47.5794 3.5404 47.6561 3.55279C47.7018 3.39281 47.5493 3.431 47.57 3.29683C47.292 3.30715 47.152 3.4052 47.0545 3.29683C47.0514 3.22252 47.0638 3.16369 47.097 3.12551C46.818 2.94902 46.7537 3.03778 46.4954 2.91187C46.4539 2.99134 46.624 3.05429 46.4954 3.08319C46.3927 3.1317 46.4342 2.98927 46.4518 2.99753C46.3242 2.93664 45.9477 3.09145 45.9363 2.86955C45.8108 2.85923 45.7879 2.95005 45.7216 2.99753C45.5753 2.77254 45.2932 3.27309 45.0349 3.08319L44.9913 3.08319L44.9913 3.04088C44.9405 3.04707 44.8938 3.11725 44.8627 3.04088C44.873 2.96037 44.9332 3.06565 44.9488 2.99856C44.6946 2.95212 44.8886 2.38035 44.7766 2.31532C44.5805 2.30913 44.4395 2.41544 44.1749 2.4433C43.927 2.06246 43.3762 2.89948 43.3586 2.18735L43.2943 2.20902L43.3161 2.14503C43.2227 2.10994 43.2206 1.98403 43.1013 1.97371C42.9955 2.02428 43.1895 2.13471 43.0588 2.18735C42.7404 1.87669 42.2694 1.84882 41.8991 1.88804L41.8991 1.8447L41.8348 1.86637L41.8566 1.80238C41.7072 1.69917 41.4977 1.88391 41.3411 1.76007C41.2716 1.85811 41.0475 1.95822 41.0402 1.71672C40.8743 1.69401 40.8639 1.82612 40.7394 1.8447L40.7394 1.58874C40.4355 1.77142 40.1243 1.61041 39.8805 1.71672C39.8463 1.54023 40.0361 1.58668 40.0092 1.41742C39.8142 1.28428 39.6669 1.40813 39.2789 1.3751C39.2592 1.51237 39.1856 1.59493 39.0642 1.63106C39.004 1.44528 39.1627 1.42567 39.1503 1.24609C39.0497 1.14701 38.809 1.18726 38.7209 1.07476C38.6918 1.17281 38.5487 1.15424 38.5061 1.33072C38.5186 1.23371 38.4958 1.16972 38.42 1.1594C38.3619 1.33175 38.1649 1.09128 38.0767 1.03142C38.0383 1.12121 37.8371 1.018 37.862 0.90344C37.5861 0.907568 37.3879 0.834291 37.2178 0.732115C37.1162 0.731083 37.0913 0.805392 36.9606 0.77443C36.9014 0.800232 36.9543 0.938531 36.8745 0.945755C36.5 0.896215 36.2345 0.937499 35.9295 0.90344L35.9295 0.732115C35.7583 0.761013 35.6225 0.825002 35.414 0.817777C35.3777 0.609297 35.22 0.72489 35.0706 0.732115C35.1868 0.62065 35.0177 0.603105 35.0281 0.475127C34.8227 0.469967 34.6422 0.490608 34.5561 0.603105C34.3362 0.555629 34.1889 0.548405 34.2128 0.346117C34.1692 0.46687 34.0302 0.334764 33.9555 0.346117C33.9203 0.476159 33.9503 0.563886 33.913 0.603105C33.8705 0.483384 33.7989 0.66503 33.7408 0.56079C33.7543 0.502993 33.802 0.479255 33.7833 0.389465C33.6101 0.528795 33.5956 0.3327 33.3964 0.475127C33.2782 0.493705 33.356 0.316187 33.2678 0.303802C33.1786 0.402882 33.0863 0.256326 33.0105 0.389465C32.7855 0.200594 32.3747 0.196466 32.023 0.133509C31.9919 -0.00478967 31.8882 -0.00478967 31.9805 0.133509C31.8768 0.151054 31.8872 0.0550709 31.7658 0.0911937C31.7596 0.141766 31.7731 0.212979 31.7233 0.219172C31.5646 0.132477 31.4681 0.24807 31.2513 0.219172C31.2876 0.397721 31.1984 0.451389 31.1227 0.518474C31.2098 0.343021 31.0843 0.439004 31.0366 0.347149C31.0521 0.37708 31.0459 0.239813 31.0366 0.219172C31.0573 0.265615 30.8851 0.209883 31.0366 0.133509C30.8322 0.115964 30.8156 0.28316 30.6932 0.347149C30.4775 0.303802 30.3022 0.369855 30.1352 0.219172C29.9879 0.361598 29.8478 0.243941 29.6196 0.261487L29.6196 0.133509C29.4682 0.216075 29.4277 0.113899 29.2763 0.0911937C29.3126 0.227428 29.2389 0.25323 29.1902 0.304834C29.2856 0.27284 29.3676 0.462742 29.2763 0.476159C29.1943 0.457582 29.1684 0.384304 29.0616 0.390497C28.99 0.476159 28.9464 0.588656 28.8043 0.604137L28.8043 0.390497C28.628 0.388432 28.5523 0.45655 28.5471 0.518474C28.4693 0.344053 28.3521 0.46171 28.2462 0.347149C28.1404 0.403914 28.324 0.476159 28.2037 0.518474C28.1602 0.518474 28.1529 0.483384 28.1176 0.476159L28.1176 0.518474L28.0751 0.518474C28.0284 0.715602 27.8853 0.520539 27.8604 0.518474C27.8064 0.513314 27.6664 0.684639 27.6457 0.518474C27.7255 0.512282 27.6716 0.373983 27.7318 0.347149C27.5627 0.450357 27.5482 0.389465 27.3884 0.304834C27.3822 0.383272 27.2432 0.330636 27.2162 0.390497L27.238 0.454486L27.1737 0.476159L27.1737 0.561822C27.0762 0.574207 27.0119 0.551501 27.0015 0.476159L26.9797 0.41217L27.044 0.390497C26.8998 0.348181 26.8573 0.205755 26.7007 0.176856C26.5202 0.221236 26.6706 0.346117 26.5285 0.390497C26.3677 0.345085 26.4061 0.496801 26.2712 0.476159C26.2785 0.326508 26.126 0.335796 26.099 0.220204C25.9777 0.270775 25.9165 0.22846 25.7982 0.177888C25.819 0.483384 25.3916 0.343021 25.3252 0.562854C25.3927 0.574207 25.3553 0.656773 25.3252 0.690832C25.4217 0.751724 25.5514 0.778558 25.5825 0.904472C25.2941 0.797136 25.1759 0.890023 24.9383 0.904472C24.9684 0.761013 24.8667 0.748628 24.7661 0.733147C24.7018 0.863189 24.7806 0.899312 24.7236 0.989103L24.7454 1.05309C24.6831 1.018 24.6168 1.00355 24.5732 1.01078L24.679 1.03658C24.6199 1.18004 24.8263 1.05825 24.8097 1.1594L24.8315 1.22338C24.762 1.17694 24.6863 1.17488 24.6385 1.20171L24.7672 1.21616L24.7672 1.37304C24.7049 1.3493 24.5452 1.42258 24.5524 1.33072L24.4881 1.35239L24.5099 1.28841L24.3813 1.28841C24.3356 1.12947 24.5421 1.22029 24.5099 1.07477L24.5524 1.07477L24.5742 1.01078L24.6385 0.989103C24.6541 0.835323 24.7039 0.782687 24.6385 0.647484C24.4757 0.727987 24.3585 0.852868 24.2516 0.989103C24.2143 1.00974 23.929 0.915825 23.9083 0.946787C24.0338 0.995295 23.8377 1.0696 23.8222 1.11811C23.6313 1.08405 23.6033 0.791975 23.3927 0.904472L23.3927 0.81881C23.232 0.879702 23.1708 0.926146 23.0494 0.862157C23.0453 0.994263 23.1842 0.983942 23.1355 1.16146L23.1573 1.22545L23.093 1.24712C23.149 1.30389 23.15 1.40606 23.0504 1.41845L23.0287 1.48244L22.9643 1.46076L22.9643 1.54643C22.8699 1.51237 22.7932 1.46076 22.7932 1.33278L22.7289 1.31111L22.7507 1.24712C22.7175 1.23783 22.6656 1.24609 22.6646 1.20481L22.6003 1.22648L22.5785 1.16249C22.4747 1.14495 22.4851 1.24093 22.3637 1.20481C22.3565 1.2688 22.3793 1.36272 22.3212 1.37613C22.2227 1.2915 22.2735 1.38645 22.1926 1.41845C22.1677 1.31524 22.0463 1.31214 21.9353 1.20481C21.8098 1.48244 21.481 1.372 21.4634 1.80341C21.3825 1.79412 21.369 1.85192 21.2912 1.84573C21.2414 1.78277 21.2414 1.73839 21.2912 1.6744C21.064 1.84366 20.8369 1.60216 20.6045 1.71672C20.6864 1.85915 20.6657 1.85605 20.6906 2.01602C20.6408 1.9799 20.5755 1.95926 20.4759 1.97371C20.5205 1.71259 20.3773 1.90456 20.3037 1.76007C20.3618 1.71775 20.3898 1.6455 20.4323 1.58874C20.2539 1.44012 20.0734 1.50411 20.0029 1.71672L19.9386 1.73839C19.9686 1.69608 19.9717 1.65273 19.9811 1.61041L19.9593 1.6744C19.8462 1.68679 19.9251 1.50824 19.7871 1.54643C19.6357 1.65273 19.5641 2.0635 19.3151 1.93139L19.2508 1.88185L19.2726 1.80341C19.1512 1.76832 19.1616 1.86327 19.0579 1.84573C19.0724 1.99744 19.1761 1.951 19.1004 2.10168C18.9044 2.02118 18.8338 2.29881 19.0143 2.31532C18.9137 2.38551 18.8629 2.50626 18.7135 2.52896C18.6959 2.42576 18.7913 2.43608 18.756 2.31532C18.6139 2.30191 18.4915 2.30913 18.4552 2.40099L18.4334 2.46498C18.4096 2.41337 18.3971 2.35558 18.3671 2.33597C18.2903 2.39583 18.1814 2.3886 18.1036 2.43608L18.3629 2.45878C18.3276 2.55993 18.2986 2.49078 18.1959 2.48562C18.2032 2.63527 18.1845 2.75912 18.1098 2.82724C18.1295 2.70855 17.8754 2.86026 17.8951 2.74157C17.9231 2.63733 17.866 2.40615 17.809 2.52793C17.8567 2.67552 17.7032 2.44846 17.6368 2.44227C17.6326 2.50935 17.642 2.58986 17.5507 2.57025C17.448 2.42266 17.3049 2.56715 17.1638 2.44227C17.1897 2.59399 17.1254 2.93044 16.9065 2.82724C17.0072 3.01301 16.8422 3.27619 16.6493 3.16885C16.642 3.44648 16.3516 3.44235 16.2624 3.63845C16.253 3.60542 16.2613 3.55382 16.2199 3.55279L16.2199 3.5951C16.1721 3.57549 16.0995 3.56827 16.0269 3.61678L16.0487 3.55279L15.7914 3.55279C15.8506 3.74579 15.641 3.78294 15.5767 3.72411C15.5145 3.8717 15.6244 3.92537 15.5342 4.02342C15.4118 3.9233 15.2406 4.04715 15.1473 4.10908C15.1836 3.97284 15.1099 3.94704 15.0612 3.89544C14.9004 3.85003 14.9388 4.00174 14.8039 3.9811C14.8299 4.13488 14.8766 4.26802 14.8039 4.40838L14.8257 4.47237L14.8475 4.53636C14.9025 4.53429 14.9066 4.48166 14.9761 4.49404C14.9709 4.54565 14.9637 4.59519 14.89 4.57971C14.8942 4.64679 15 4.61273 14.9761 4.70768C14.9015 4.71078 14.8423 4.69839 14.8039 4.66537L14.8039 4.62305L14.7251 4.64473L14.6753 4.58074C14.6131 4.55803 14.5706 4.7469 14.5467 4.62305L14.4824 4.64473L14.4181 4.62305C14.2334 4.67879 14.3652 4.41973 14.2034 4.45173C14.2148 4.65298 13.8901 4.79438 14.1608 4.87901C14.0612 4.97809 14.0229 4.79954 13.86 4.83669C13.8393 5.05962 13.5851 4.95332 13.6878 5.136C13.5882 5.12258 13.5229 5.14322 13.4731 5.17831C13.4409 5.32383 13.6474 5.23301 13.6017 5.39195C13.5208 5.43943 13.3984 5.44665 13.3009 5.47761L13.2791 5.5416L13.2148 5.51993C13.164 5.69745 13.0022 5.51477 12.8715 5.51993C12.7906 5.59527 12.9306 5.65204 12.7854 5.69126C12.7791 5.64068 12.7926 5.5705 12.7428 5.56328C12.6453 5.97817 12.608 5.43943 12.2709 5.64894C12.33 5.86568 12.3808 5.876 12.3995 6.07622C12.3736 6.05145 12.1962 5.97611 12.1848 6.07622C12.2242 6.17427 12.0178 6.39307 11.9275 6.5035C12.0178 6.15982 11.3643 6.62941 11.4556 6.41784C11.3695 6.5324 11.2626 6.8028 11.0686 6.67379C11.0894 6.82654 11.1516 6.90808 11.0261 6.9731C11.0313 6.89672 10.9836 6.87299 10.8975 6.88743C10.8747 7.06392 10.7751 7.16403 10.5967 7.18674C10.6133 7.39006 10.4058 7.39625 10.5106 7.5717C10.3093 7.44889 10.4473 7.83179 10.4245 7.82766C9.95978 7.51184 9.82804 8.01653 10.0376 8.42626C9.84153 8.45103 9.66311 8.30241 9.56561 8.46858C9.61228 8.49232 9.57391 8.63371 9.6517 8.72453C9.37578 8.8618 9.16729 8.7555 8.92145 8.93818C8.88929 9.06925 9.0397 9.02074 9.00754 9.15182C8.94634 9.14149 8.93493 9.08163 8.87892 9.06615C8.82187 9.19516 8.81046 9.36855 8.5781 9.32211C8.5252 9.46041 8.7171 9.35514 8.6642 9.49343C8.48267 9.68334 8.2026 9.77519 8.14866 10.092C7.82295 10.1519 7.84058 10.5544 7.5045 10.605C7.30223 10.9538 7.00556 11.409 6.73172 11.5452C6.7452 11.7733 6.3334 11.9457 6.34481 12.3141C6.28672 12.3275 6.26286 12.375 6.17262 12.3564C6.18506 12.5009 6.25767 12.6186 6.04399 12.6124C6.06681 12.8301 5.94545 12.9509 5.78674 12.8683C5.78467 13.147 5.60833 12.9942 5.52949 13.1676C5.60314 13.1656 5.63945 13.2007 5.65812 13.2533C5.59484 13.2616 5.6187 13.3565 5.61559 13.4246C5.49008 13.4133 5.48385 13.5216 5.35834 13.5103C5.4185 13.7549 5.20067 13.7239 5.18615 13.8953C5.39257 13.8787 5.22245 13.9696 5.35834 14.0232C5.30336 14.0821 5.17163 14.0655 5.05752 14.0655C5.05752 14.1791 4.93823 14.1749 4.88533 14.2369C4.9455 14.2482 4.93408 14.3308 4.97143 14.3648C4.78057 14.6549 4.35424 14.9057 4.3698 15.2628C4.27022 15.2504 4.06172 15.4733 4.02645 15.6044C4.01297 15.6539 4.07728 15.7138 4.07002 15.7324C4.02542 15.8418 3.91442 15.7705 3.94139 15.8603C3.96318 15.9357 4.20487 15.8149 4.11255 15.9883C3.85115 15.8634 3.86152 16.363 3.64058 16.2876C3.60427 16.4238 3.67792 16.4496 3.72667 16.5013L3.55448 16.5013C3.61465 16.7004 3.39059 16.7665 3.38229 16.8862C3.38229 16.8945 3.48291 16.9327 3.46839 16.9719C3.4466 17.0317 3.20906 17.0854 3.33976 17.2278C3.22255 17.1969 3.25367 17.3125 3.16757 17.3135C3.39267 17.8058 2.71739 17.8182 2.86676 18.296C2.80556 18.2795 2.79415 18.2444 2.73813 18.296C2.68523 18.4343 2.87713 18.3291 2.82423 18.4674C2.59913 18.4343 2.83356 18.7398 2.60951 18.5953C2.52652 18.9989 2.27031 19.3199 2.30869 19.6212C2.30351 19.5449 2.35122 19.5211 2.43732 19.5356C2.40412 19.6584 2.16347 19.7399 2.35122 19.8349C1.99647 19.8937 2.39894 20.4706 2.00788 20.5191C1.99024 20.6223 2.08671 20.612 2.05041 20.7328C1.76826 20.8938 1.94564 21.3345 1.79316 21.673C1.86992 21.6678 1.89377 21.7153 1.87925 21.801C1.63238 21.801 1.84813 21.9909 1.622 22.0569C1.67905 22.2644 1.72262 22.5596 1.49338 22.6122C1.50686 22.8392 1.51101 23.058 1.36475 23.1251C1.53591 23.4172 1.26621 23.7062 1.36475 23.9374C1.13966 23.926 1.24339 24.2976 1.23613 24.407C1.23613 24.4173 1.15418 24.4101 1.15003 24.4493C1.15003 24.4534 1.2382 24.4534 1.23613 24.4916C1.23302 24.5473 1.15833 24.5804 1.15003 24.6196C1.09195 24.9127 1.16559 25.3328 1.15003 25.6021C0.938426 25.5247 1.07327 26.0872 1.02141 26.243C1.01207 26.21 1.02037 26.1584 0.977843 26.1574C0.973694 26.3813 1.03489 26.3184 1.06394 26.5423C0.874114 26.6972 0.98303 27.1678 0.806689 27.3969C0.887598 27.4877 0.919755 27.626 1.02141 27.6962C0.966433 27.6941 0.962284 27.6415 0.892785 27.6539C1.02556 28.1142 0.892785 28.5983 0.806689 29.1927C1.03282 29.3888 0.817062 29.6768 0.76416 30.0896C1.08987 30.1938 0.809801 30.5138 0.97888 30.7728C0.935314 30.7728 0.928053 30.7377 0.892785 30.7305C0.839883 30.8688 1.03178 30.7636 0.97888 30.9019L0.838846 30.9019C0.977843 31.2641 0.794242 31.8545 1.05357 32.1414C0.919755 32.2931 0.960209 33.0847 1.09609 32.8246C1.07224 32.9578 1.06083 33.1033 1.01 33.2096C1.06083 33.2302 1.1075 33.255 1.13862 33.2952C0.899009 33.2767 1.2994 33.5873 1.05253 33.4666C0.974731 33.7287 1.28696 33.6038 1.26725 33.8082C1.01311 33.8918 1.35023 34.3954 1.13862 34.4491C1.20294 34.4563 1.29733 34.4336 1.31081 34.4914C1.18738 34.7701 1.35542 35.0818 1.48301 35.3037C1.29733 35.3222 1.50271 35.6009 1.5691 35.6453C1.42595 35.8837 1.66557 36.0468 1.52657 36.4142C1.72884 36.4359 1.71432 36.7001 1.61267 36.7991C1.79834 36.8487 1.68528 36.9725 1.69876 37.1408C1.83361 37.2636 1.80872 37.5443 1.99958 37.6104C1.9363 37.6186 1.96016 37.7136 1.95601 37.7817L2.02032 37.76L1.99854 37.824C1.9446 37.9922 2.01618 38.3648 2.21326 38.4226C2.32321 38.8014 2.60432 39.1771 2.51408 39.6188C2.58772 39.6353 2.62403 39.5558 2.6427 39.6188C2.66863 39.9346 2.76406 40.1813 2.94352 40.3454C2.85223 40.6922 3.20699 40.7778 3.11571 41.1999C3.46424 41.3898 3.34806 41.8016 3.71734 42.0978C3.49017 42.4549 4.18412 42.5829 3.93206 42.8244C4.13122 42.9916 4.04097 43.2032 4.2754 43.294C4.21628 43.6707 4.7287 43.8359 4.79094 44.2342C4.85525 44.2415 4.94964 44.2188 4.96313 44.2766C4.9123 44.2828 4.84073 44.2693 4.8345 44.3189C4.95172 44.3591 4.93305 44.5346 4.96313 44.6605C5.02744 44.6677 5.12184 44.645 5.13532 44.7028C5.01499 44.7451 5.19756 44.8174 5.09279 44.8741C5.23075 44.837 5.2266 44.9402 5.26498 45.0021C5.22245 45.0021 5.21415 44.967 5.17889 44.9598C5.28988 45.1631 5.48074 45.2859 5.60833 45.4727C5.43717 45.6389 6.02532 45.8546 5.90914 46.1137C5.97864 45.9929 6.04295 46.2324 6.12386 46.2416C6.03777 46.4893 6.35725 46.512 6.33858 46.7546C6.39771 46.7566 6.43298 46.7339 6.46721 46.7123C6.44854 47.0869 6.79188 47.1014 6.81055 47.4389C6.94747 47.475 6.94333 47.3718 7.02527 47.3532C6.88524 47.4905 7.12174 47.5307 7.1539 47.6091C7.15805 47.6195 7.08232 47.6927 7.11137 47.7371C7.14871 47.796 7.44849 47.6277 7.23999 47.9508C7.32505 48.022 7.29497 47.9466 7.41218 47.9508C7.39662 48.185 7.55429 48.474 7.84162 48.378L7.84162 48.7197C8.04701 48.8249 8.19015 48.9839 8.18497 49.1893C8.25965 49.1924 8.31878 49.18 8.35716 49.1469C8.40072 49.5113 8.89863 49.6031 8.91522 50.0015C9.1372 50.0232 9.3094 50.1945 9.43076 50.3865C9.45669 50.4267 9.41312 50.5124 9.43076 50.5578C9.49818 50.7343 9.9131 51.078 9.90273 50.8994C10.0645 51.1946 10.7284 51.2483 10.5469 51.626C10.7377 51.5424 10.9317 51.6921 10.9338 51.9253C11.3549 51.9759 11.2709 52.5301 11.7066 52.5662C11.6941 52.6632 11.717 52.7272 11.7927 52.7375C11.7979 52.7035 11.9348 52.6075 11.9213 52.6952C11.886 52.8882 12.3435 53.1442 12.5229 53.1225C12.3902 53.2753 12.7646 53.5457 12.8237 53.3785C12.8331 53.459 12.775 53.4724 12.7812 53.5498C12.8787 53.6086 12.943 53.4394 12.9534 53.5498C12.9026 53.5704 12.8559 53.5952 12.8248 53.6355C12.9752 53.6778 13.2376 53.8955 13.0395 54.0204C13.248 54.0369 13.2584 54.0576 13.1681 54.1917C13.2687 54.1917 13.2947 54.1185 13.4254 54.1494C13.4658 54.3641 13.5499 54.33 13.5976 54.5767C13.6785 54.586 13.692 54.5282 13.7698 54.5344C14.0623 54.7563 14.221 55.1113 14.6286 55.2176C14.4015 55.3116 14.6432 55.2661 14.6712 55.4313C14.8268 55.3219 14.9149 55.4106 15.1006 55.4736C15.0031 55.4612 14.9388 55.4839 14.9284 55.5593C15.0456 55.5634 15.0145 55.488 15.1006 55.5593L15.1649 55.5376L15.1431 55.6016C15.195 55.6067 15.2448 55.614 15.2292 55.6872L15.1867 55.6872L15.1867 55.7295L15.1442 55.7295C15.2676 55.8627 15.5166 55.8782 15.5736 55.8575C15.4772 56.0423 15.7603 56.1713 15.7883 56.3705C15.8661 56.2838 16.0383 56.4892 16.0892 56.4561C16.002 56.5294 16.1773 56.5304 16.1752 56.7121C16.336 56.7307 16.3972 56.7183 16.5186 56.8401C16.5061 56.7276 16.5777 56.6997 16.6908 56.7121C16.7717 56.7874 16.64 56.837 16.7333 56.9257C16.9418 56.9319 17.3256 57.1559 17.3349 56.9691C17.5019 57.031 17.6358 57.1249 17.7644 57.225C17.808 57.4376 17.6752 57.4077 17.6358 57.4387C17.7633 57.545 17.8795 57.7483 18.0652 57.5667C17.9148 57.7297 18.0496 57.6771 18.1077 57.738C18.1959 57.8288 18.2405 57.996 18.2799 58.0796C18.4013 58.0445 18.3909 58.1395 18.4946 58.1219C18.5216 57.9774 18.8359 58.1395 18.9241 58.0362C18.9064 58.2045 19.0817 58.2623 19.1388 58.1219C19.2425 58.3748 19.4863 58.2788 19.4821 58.5925C19.6305 58.5626 19.6699 58.5172 19.9116 58.5069C19.8234 58.6183 20.2446 58.64 19.9977 58.8062C20.1875 58.7855 20.2114 58.865 20.341 58.8062C20.3244 58.8671 20.2892 58.8784 20.341 58.9342C20.4468 58.929 20.5485 58.928 20.5983 58.9765L20.5983 58.9342L20.6408 58.9342C20.7715 58.9651 20.7974 58.8908 20.8981 58.8918C20.9364 58.9672 20.9945 59.0239 21.0702 59.0632C21.063 58.993 21.3348 58.993 21.3275 59.0632L21.3275 59.1065L21.3493 59.1705L21.285 59.1922C21.3213 59.2562 21.4229 59.2541 21.4997 59.2778C21.5069 59.2273 21.4924 59.1571 21.5422 59.1499C21.6304 59.1757 21.7206 59.2324 21.6283 59.3212C21.7953 59.1684 21.9706 59.3821 22.1864 59.2789L22.1864 59.4502C22.3897 59.3356 22.4063 59.4357 22.6594 59.4502C22.5598 59.5802 22.8803 59.5782 22.9602 59.6638C22.9042 59.6638 22.9052 59.7825 22.9602 59.7918C22.9934 59.7206 23.1677 59.8661 23.261 59.8775L23.3253 59.8991L23.3035 59.9631C23.3844 59.9538 23.3979 60.0116 23.4757 60.0055C23.4923 59.9322 23.4125 59.896 23.4757 59.8775C23.51 60.0147 23.6251 60.0705 23.8191 60.0488C23.8658 60.0921 23.9799 60.282 24.0338 60.1768C23.9902 60.1768 23.9799 60.1014 24.0338 60.0911C24.1458 60.1076 24.2693 60.1128 24.3346 60.1768L24.2485 60.1768L24.2703 60.2408L24.206 60.2624C24.2236 60.344 24.2215 60.4461 24.3346 60.4338C24.3108 60.3677 24.6323 60.2005 24.764 60.3058L24.8284 60.2841L24.8066 60.3481C24.9632 60.3202 25.0358 60.377 25.1074 60.4338C25.2547 60.1871 25.6592 60.6051 25.9237 60.4761C25.9445 60.5267 25.9694 60.5731 26.0098 60.6041C25.9901 60.4854 26.2443 60.6381 26.2246 60.5184C26.1727 60.5318 26.0762 60.3945 26.182 60.3904C26.1156 60.5421 26.3283 60.4162 26.3107 60.5184C26.2847 60.5205 26.2598 60.5246 26.2671 60.5607L26.3314 60.5824L26.3957 60.6041C26.5212 60.6412 26.4445 60.668 26.4382 60.7754L26.46 60.8394L26.4382 60.9034L26.4808 60.9034L26.5451 60.8817L26.5669 60.9457C26.6571 60.9075 26.5824 60.7042 26.6955 60.6897C26.6727 60.7991 26.6384 60.8394 26.7391 60.9034C26.8179 60.8538 26.9341 60.8414 26.9538 60.732C27.0378 60.8187 27.1146 60.9137 27.2546 60.9457L27.2546 60.9034L27.2971 60.9034C27.3521 60.9054 27.3563 60.9581 27.4258 60.9457L27.4475 60.8817L27.5118 60.9034L27.5118 60.6897C27.5668 60.7486 27.7152 60.7486 27.7691 60.6897C27.7556 60.7475 27.7079 60.7713 27.7266 60.861C27.906 60.8249 27.9299 60.9436 28.0699 60.9467C28.0772 60.8961 28.0626 60.8249 28.1124 60.8187C28.5647 60.5783 28.7784 60.8518 29.0999 60.7764C29.0564 60.9054 29.1954 60.8518 29.2721 60.8621C29.3676 60.8002 29.2182 60.7578 29.3147 60.7341C29.5366 60.7981 29.7566 60.859 29.9588 61.0334C30.0325 60.9271 30.1798 60.8941 30.1735 60.8198C30.3603 60.9374 30.5179 60.6815 30.6891 60.6918C30.6922 60.6918 30.6517 60.7785 30.6466 60.7774C30.6901 60.7867 31.0438 60.7331 30.9038 60.9488L30.9899 60.9488C31.0231 60.9395 31.075 60.9477 31.076 60.9065C31.0418 60.9013 30.9463 60.7651 31.0335 60.7785C31.0905 60.7785 31.0729 60.8538 31.1196 60.8641L31.1196 60.8218L31.1621 60.8218C31.1673 60.7702 31.1745 60.7207 31.2482 60.7362L31.2482 60.7785L31.2907 60.7785L31.2907 60.8208C31.4017 60.7073 31.3364 60.9188 31.5054 60.8631L31.5272 60.8414L31.549 60.8631L31.549 60.8208C31.6704 60.8177 31.8228 60.7424 31.9784 60.7785C31.9784 60.8352 31.9027 60.8177 31.8923 60.8641C32.1247 60.9415 32.2512 60.8776 32.3218 60.7362C32.5977 60.7331 32.6662 60.7042 32.8373 60.6505C32.8653 60.7382 32.9608 60.9075 33.0095 60.7362C32.9566 60.731 32.9079 60.7238 32.9234 60.6505C33.0583 60.699 33.0282 60.5834 33.0956 60.5648C33.5738 60.7238 33.7356 60.4771 34.1692 60.5225C34.1816 60.2593 34.5125 60.3853 34.47 60.2666C34.6329 60.247 34.6899 60.4627 34.8134 60.3522L34.8351 60.2882L34.8569 60.3522C35.0063 60.1541 35.4835 60.185 35.6733 60.2243C35.6256 60.215 35.6069 60.1768 35.5872 60.1386C35.7449 60.153 35.8258 60.0911 35.9305 60.0529C35.8455 60.2624 36.0726 60.089 36.1878 60.1809C36.1919 59.928 36.6629 60.1417 36.6597 59.8816C36.6961 59.9456 36.7977 59.9435 36.8745 59.9673C36.9004 59.7505 37.1296 59.7371 37.2614 59.6256C37.2572 59.6927 37.1514 59.6587 37.1753 59.7536L37.2614 59.7536C37.2635 59.7794 37.2676 59.8042 37.3039 59.7959C37.3101 59.7165 37.3319 59.6535 37.39 59.6246C37.3184 59.8372 37.5985 59.702 37.6473 59.7959C37.6919 59.6287 38.1452 59.5513 38.2053 59.668C38.3007 59.5059 38.5653 59.6907 38.7209 59.54C38.6804 59.154 38.9283 59.5524 38.9781 59.284C39.1129 59.2634 39.0912 59.3986 39.1928 59.412C39.1804 59.315 39.2032 59.251 39.2789 59.2407C39.3816 59.3718 39.5673 59.2768 39.7084 59.3263C39.7696 59.0384 39.9967 59.1819 40.2239 59.0704C40.2664 58.9558 40.2955 58.8289 40.4811 58.8568C40.4708 58.9176 40.4106 58.929 40.395 58.9847C40.5569 58.9744 40.5641 58.8113 40.6523 58.7288C40.7903 58.6916 40.7871 58.7948 40.8245 58.8568C40.9842 58.7339 41.1305 58.8279 41.2539 58.7711C41.3711 58.7174 41.3971 58.5574 41.5112 58.5151C41.8265 58.3975 41.9489 58.6204 42.2414 58.7288C42.2736 58.5967 42.1232 58.6462 42.1553 58.5151C42.3545 58.5523 42.1999 58.448 42.284 58.4295L42.4126 58.4295L42.3908 58.3655L42.4551 58.3871C42.6335 58.317 42.8835 58.1797 43.0567 58.3448C43.2134 58.1869 43.3399 57.9991 43.5723 57.9176L43.5723 57.9599L43.6366 57.9382L43.7009 57.9599C44.0391 57.9196 44.1428 57.7442 44.3451 57.6606C44.3451 57.7029 44.3108 57.7111 44.3025 57.7462C44.5567 57.6884 44.4996 57.3313 44.8606 57.4903C44.9757 57.3623 45.1459 57.4232 45.29 57.3623C45.2797 57.3664 45.5794 57.0826 45.7195 57.191C45.6998 56.9887 45.7568 57.128 45.8917 57.1053C45.9871 57.0434 45.8377 57.0011 45.9342 56.9773L46.235 56.9773C46.2423 56.936 46.2392 56.903 46.2775 56.8917C46.6634 56.7854 46.9974 56.6419 47.3086 56.421C47.6634 56.4737 47.821 55.9628 48.2536 55.9514C48.2712 55.8482 48.1748 55.8586 48.2111 55.7378C48.487 55.7812 48.7276 55.4499 48.9838 55.4818C48.9921 55.4829 48.9195 55.5871 48.9838 55.5675C49.0699 55.5417 49.2421 55.4344 49.2847 55.3962C49.323 55.3621 49.3759 55.3435 49.4133 55.3105C49.4112 55.3126 49.5315 55.133 49.5855 55.0969C49.6156 55.0762 49.6498 55.1526 49.6716 55.1402C49.7473 55.0959 49.8199 54.9225 49.9724 54.9689C49.8417 54.7212 50.2099 55.0133 50.0149 54.7553C50.2608 54.7006 50.268 54.4085 50.6165 54.456C50.5367 54.1629 50.9309 54.1618 50.8313 53.9864C51.2109 53.941 51.1196 53.6788 51.4329 53.6014C51.3831 53.5942 51.3862 53.5343 51.3904 53.4734C51.5553 53.4941 51.5781 53.2464 51.6912 53.3454C51.7119 53.0946 52.159 53.2691 52.0781 52.9182C52.2109 52.7892 52.3436 52.7664 52.465 52.6622C52.4505 52.6746 52.3997 52.6364 52.4225 52.6199C52.4505 52.5992 52.4889 52.6756 52.5086 52.6622C52.5521 52.6323 52.5957 52.4104 52.6808 52.5342C52.6974 52.237 52.965 52.1895 53.0241 51.9356C53.2326 51.9583 53.2139 51.754 53.411 51.7643C53.3872 51.4578 53.4338 51.4041 53.5396 51.209C53.7232 51.3174 53.7585 51.1027 53.8405 51.1667C53.7938 51.177 53.7378 51.2369 53.7979 51.2524C53.9058 51.1409 54.0241 51.1347 54.0127 50.9964C54.021 51.0594 54.1164 51.0356 54.1848 51.0387C54.2377 50.9407 54.2554 50.6507 54.5718 50.6971C54.6029 50.5661 54.4981 50.5712 54.5292 50.4412C54.8051 50.2977 54.7377 50.017 54.8726 49.8859C54.9846 49.9953 55.1433 49.9303 55.2159 49.8436C55.1558 49.8322 55.1672 49.7497 55.1298 49.7156C55.3051 49.729 55.1526 49.6258 55.1723 49.5443L55.301 49.5443L55.301 49.373C55.6018 49.3307 55.8258 49.2109 55.9877 49.0314C55.8528 49.051 55.7958 48.9942 55.8155 48.86C55.9866 48.8662 56.026 48.5876 56.2024 48.7321C56.1951 48.6113 56.3476 48.6484 56.2885 48.4761C56.4752 48.4936 56.5271 48.442 56.4607 48.3048C56.7335 48.2563 56.6723 48.0973 56.8476 47.9198C57.1899 47.8063 57.5758 47.6525 57.4492 47.1509C57.6079 47.0962 57.6214 47.024 57.5778 46.8516C57.8558 46.8516 58.0913 46.4553 58.4803 46.4243C58.4855 46.318 58.5612 46.2922 58.4803 46.2107C58.7469 46.3479 58.5965 45.9867 58.7811 45.9547C58.7738 46.124 58.8464 45.9413 58.9097 46.0404C58.8091 45.8959 59.0218 45.7142 59.167 45.8267C59.3692 45.609 59.5487 45.3138 59.3817 45.0578C59.501 45.1776 59.5207 44.9784 59.6389 44.9722C59.6338 44.8287 59.5528 44.7462 59.6815 44.6729C59.8671 44.7812 60.1036 44.3178 60.2831 44.5449C60.2354 44.4272 60.2157 44.3055 60.4117 44.3313C60.4356 44.2693 60.3619 44.1104 60.4543 44.1176C60.5497 44.1795 60.4003 44.2219 60.4978 44.2456C60.5352 44.1259 60.6005 44.034 60.6264 43.904C60.8868 43.9659 60.9262 43.2465 61.1845 43.3054C61.1575 42.9865 61.4864 43.069 61.3567 42.7501C61.5258 42.7047 61.6793 42.6283 61.7861 42.4942C61.9262 42.3187 61.8795 41.943 62.1295 41.9389C62.1212 41.5477 62.4334 41.4156 62.5164 41.3403C62.4376 41.3341 62.4905 41.1958 62.4303 41.169C62.7041 40.8955 62.6201 40.5301 63.0745 40.4424C62.9396 40.3877 63.0527 40.3536 62.9884 40.2287C63.2352 40.2184 63.1699 39.8964 63.3753 39.8438C63.3286 39.7354 63.3379 39.4196 63.5039 39.3308C63.4583 39.1471 63.5713 38.9211 63.6325 38.8179C63.5993 38.8086 63.5475 38.8169 63.5464 38.7756C64.0215 38.6755 63.841 38.0077 63.7611 37.7497C63.9302 37.6682 64.0132 37.6651 64.1045 37.5784C64.0713 37.5691 64.0547 37.5422 64.062 37.4927C63.8535 37.5949 64.0298 37.3947 63.8472 37.3214C63.8784 37.053 63.9904 36.8652 64.1481 36.7228C64.0537 36.7176 64.1294 36.5411 64.1055 36.4668C64.1605 36.4689 64.1647 36.5215 64.2342 36.5102C64.3659 36.1314 64.7601 35.9012 64.5775 35.5276C64.8327 35.3284 64.6802 34.9982 64.5775 34.8444C64.7206 34.7639 64.6045 34.672 64.62 34.5028C64.73 34.4697 64.8638 34.4605 64.9208 34.3748C64.7943 34.3449 64.8856 34.3789 64.9208 34.3325C65.0723 34.1302 64.981 33.7659 65.0495 33.4779C65.0059 33.4366 64.9623 33.3933 64.9208 33.3499C65.0298 33.3479 64.8545 33.0723 64.8783 32.965C65.1802 32.7028 64.9675 32.1548 65.0505 31.8534C65.2258 31.8668 65.0702 31.743 65.0941 31.6821C65.1387 31.5634 65.2538 31.5232 65.2663 31.3828C65.2715 31.324 65.1978 31.3095 65.2663 31.2548C65.0827 31.1021 64.925 31.1599 64.7507 31.0412C64.758 30.9772 64.7352 30.8833 64.7943 30.8699C64.9208 30.9431 65.1013 30.7656 65.1376 30.6139C65.1127 30.5251 65.0474 30.4756 65.009 30.4003C65.0982 30.3063 65.148 30.4374 65.2237 30.3579C65.1988 30.2568 65.1584 30.1588 65.3098 30.1443C65.2808 29.973 65.1812 29.8739 65.1376 29.717C65.1885 29.7108 65.26 29.7242 65.2663 29.6747C65.1262 29.3981 65.7579 29.2402 65.481 28.9481C65.6345 28.9161 65.5007 28.5972 65.6957 28.6065C65.5598 28.5157 65.5868 28.108 65.6096 27.9656C65.6179 27.9109 65.6874 27.9274 65.6957 27.8799C65.6957 27.8851 65.6106 27.8211 65.6096 27.7943C65.6055 27.6807 65.814 27.6838 65.7382 27.5806L65.7362 27.5651ZM4.48909 32.9928C4.41233 32.9619 4.48286 32.9154 4.48909 32.8649C4.56585 32.8958 4.49531 32.9423 4.48909 32.9928ZM48.9859 7.22389C48.8905 7.32297 48.8189 7.20944 48.6851 7.22389C48.7297 7.06702 48.9724 6.97722 48.9859 7.22389ZM48.1696 4.23293L48.3843 4.23293C48.3843 4.32994 48.1239 4.46514 48.1696 4.23293ZM47.654 5.08749C47.7235 5.0751 47.7277 5.12774 47.7827 5.1298C47.8003 5.21237 47.5866 5.19173 47.654 5.08749ZM46.1074 5.42911C46.0182 5.40537 46.1655 5.26397 46.2796 5.30113C46.2983 5.41879 46.1199 5.34138 46.1074 5.42911ZM46.0213 3.2927C46.0628 3.29374 46.0545 3.34534 46.0639 3.37837C46.1054 3.37733 46.0971 3.32573 46.1074 3.2927C46.1769 3.28032 46.1811 3.33295 46.2361 3.33502L46.2361 3.42068C46.1292 3.4857 45.9259 3.4083 46.0213 3.2927ZM45.4415 4.10495L45.5058 4.10495L45.5058 4.19061L45.4415 4.19061L45.4415 4.10495ZM45.0764 4.01929C45.1998 4.08431 45.2102 4.01825 45.3772 4.06263L45.4415 4.04096C45.3979 4.11217 45.3917 4.18339 45.4415 4.2546L45.3772 4.23293C45.3751 4.28763 45.3222 4.29176 45.3346 4.3609C45.3367 4.38671 45.3409 4.41148 45.3772 4.40322C45.3388 4.4507 45.2807 4.43315 45.205 4.40322C45.2091 4.33613 45.1988 4.2546 45.2911 4.27524C45.2548 4.15036 45.1531 4.30104 45.0764 4.27524C44.9923 4.19577 45.0629 4.11837 45.0764 4.01825L45.0764 4.01929ZM44.3897 4.66021L44.4758 4.66021C44.4633 4.74793 44.3606 4.74587 44.3036 4.78819C44.2009 4.7758 44.3814 4.70252 44.3897 4.66021ZM40.4386 2.86542C40.4106 2.92322 40.3463 2.94489 40.2664 2.95108C40.2768 2.87574 40.3401 2.85304 40.4386 2.86542ZM39.2789 3.89131C39.3878 3.89544 39.3806 4.05025 39.3214 4.10495C39.2644 4.11114 39.1617 3.96149 39.1493 4.06263C39.1026 4.05231 39.1202 3.978 39.0632 3.97697C39.1368 3.80565 39.3028 4.19887 39.2779 3.89131L39.2789 3.89131ZM38.7634 3.46403C38.7447 3.51666 38.7084 3.55175 38.6348 3.54969C38.6151 3.45887 38.696 3.46816 38.7634 3.46403ZM25.2339 1.15527C25.3563 1.21513 25.4891 1.09541 25.4912 1.32659C25.4341 1.27086 25.3615 1.30079 25.319 1.36891C25.2557 1.33278 25.2267 1.26157 25.2329 1.15527L25.2339 1.15527ZM21.0246 2.43711L21.1107 2.43711L21.1107 2.52277L21.0246 2.52277L21.0246 2.43711ZM19.6077 2.47942C19.728 2.55373 19.6481 2.59192 19.6502 2.73538L19.5216 2.73538C19.5444 2.61979 19.5558 2.62908 19.6077 2.47942ZM18.921 2.95005C18.8546 3.02643 18.8494 3.16369 18.6637 3.12138C18.6897 3.00475 18.782 2.95418 18.921 2.95005ZM17.8474 4.18958C18.0154 4.18236 17.9262 4.5539 17.7613 4.48888C17.7187 4.31859 17.8899 4.35987 17.8474 4.18958ZM17.4179 3.67664C17.56 3.77468 17.642 4.12043 17.6326 4.23189C17.4459 4.27524 17.4356 4.14314 17.3318 4.10392C17.3775 3.97904 17.4532 3.88305 17.4179 3.67664ZM16.1721 3.59613L16.1721 3.67664L16.086 3.67664L16.086 3.60542L16.1721 3.59613ZM15.7427 8.42007C16.0497 8.56353 15.8464 8.2054 15.9999 8.12077L15.9999 8.07845L16.0425 8.07845C15.9709 7.99382 16.0466 8.02375 16.0425 7.90713C16.2292 7.84108 16.28 8.096 16.3433 7.90713L16.3651 7.84314L16.4294 7.86481C16.4315 7.81011 16.4844 7.80598 16.4719 7.73684C16.837 7.78018 16.5601 7.44889 16.9014 7.48088C16.8785 7.31575 16.9781 7.2724 16.9439 7.09591C17.3018 6.83996 18.0559 6.97826 18.3608 6.66863C18.3567 6.60155 18.2509 6.63561 18.2747 6.54066C18.4822 6.33424 18.7643 6.2011 18.8764 5.89973C18.9905 5.92347 19.0952 5.72428 19.1772 5.85742C19.3037 5.65616 19.6834 5.70674 19.7352 5.43014L19.95 5.43014C20.1751 5.22579 20.4883 5.11019 20.6802 4.87488C20.8213 4.97293 21.1439 4.80676 21.2383 4.87488C21.4468 4.55597 22.0567 4.63441 22.2694 4.31962C22.3451 4.35884 22.483 4.33407 22.5266 4.40528C22.7797 3.9233 23.5172 4.15759 23.7724 3.72205C23.9363 3.73856 23.9384 3.78191 23.9871 3.63639C24.7288 3.63226 25.4725 3.26381 26.0493 2.95315C26.432 3.06049 26.7691 2.81279 27.1229 2.99546C27.5564 2.82724 27.9714 2.97998 28.2826 2.69616C28.3801 2.72712 28.5025 2.73435 28.5834 2.78182C28.7483 2.55993 29.1549 2.65901 29.3136 2.52587C29.8883 2.74467 30.3333 2.36177 30.9889 2.48355C31.0604 2.30088 31.4971 2.48562 31.7191 2.26991C31.7969 2.49181 31.9961 2.32461 32.1911 2.31326C32.3353 2.30397 32.5064 2.35558 32.6631 2.35558C33.0759 2.35661 33.5458 2.29055 33.8227 2.31326C33.857 2.31636 33.8725 2.35454 33.8653 2.39892C34.2024 2.29159 34.719 2.26062 35.025 2.48459C35.5851 2.44124 36.3008 2.23689 36.4855 2.78389L36.5073 2.7199L36.5716 2.74157C36.6515 2.70029 36.7147 2.86955 36.7438 2.74157C36.777 2.75086 36.7936 2.7777 36.7863 2.82724L36.8506 2.80556L36.8724 2.86955L37.001 2.86955C37.0176 2.94283 36.9367 2.97895 37.001 2.99753C37.0176 3.08009 36.805 3.06049 36.8724 2.95521L36.8081 2.97689L36.7863 2.9129C36.6224 2.86852 36.6546 3.08525 36.529 2.95521L36.5073 3.0192L36.443 2.99753C36.4056 3.1028 36.2832 3.12447 36.2282 3.21117L36.25 3.25348L36.2282 3.2958C36.2002 3.3536 36.1359 3.37527 36.056 3.38146C36.056 3.33811 36.0903 3.33089 36.0986 3.2958L36.0343 3.27413L36.056 3.21014C36.0021 3.12344 35.7832 3.09764 35.8413 2.95418C35.5592 2.93251 35.2034 3.00785 34.8963 2.91187C34.8154 2.98721 34.9472 3.03675 34.8538 3.12551L34.3383 3.12551C34.4752 2.92425 34.136 3.22046 34.2097 2.95418C34.0821 2.97173 33.8196 3.07597 33.8663 3.12551C33.6692 3.2442 33.4773 3.1286 33.3508 3.33915C33.2201 3.34121 33.1838 3.24936 33.0935 3.21117C32.9587 3.19156 32.9722 3.31851 32.9213 3.38249C32.8632 3.36908 32.8394 3.3216 32.7491 3.34018L32.7491 3.12654C32.523 3.11106 32.4711 3.32263 32.5541 3.44029C32.5624 3.44855 32.5697 3.4568 32.577 3.46816C32.5687 3.4599 32.5604 3.45061 32.5541 3.44029C32.4276 3.31438 32.2865 3.5693 32.1911 3.34018C32.078 3.32779 32.1569 3.50634 32.0189 3.46816C32.2087 3.17195 31.604 3.43203 31.6755 3.12654C31.6341 3.19878 31.5573 3.23594 31.4183 3.2122C31.3685 3.38146 31.132 3.50015 31.2036 3.55382C31.1953 3.61678 31.0998 3.59304 31.0314 3.59613C30.9743 3.52079 31.0936 3.35669 30.9028 3.34018L30.8384 3.36185C30.8685 3.31954 30.8716 3.27619 30.881 3.23387L30.8592 3.29786C30.631 3.22252 30.3499 3.24936 30.3437 3.5115C30.2607 3.45164 30.0812 3.48777 30.1289 3.29786C30.019 3.56414 29.4329 3.64774 29.2701 3.38353C29.2286 3.45577 29.1518 3.49293 29.0128 3.46919C29.0626 3.51976 29.0616 3.61987 29.0553 3.72514C28.9205 3.76127 28.8738 3.88718 28.712 3.89647C28.74 3.72618 28.5481 3.77365 28.4112 3.76849C28.4112 3.68386 28.5284 3.71379 28.4973 3.59717C28.3676 3.62503 28.2494 3.66425 28.24 3.81081C28.0263 3.74475 27.7515 3.99142 27.7245 3.72514C27.6135 3.82835 27.5067 3.93569 27.2525 3.89647C27.2722 4.10495 27.2816 4.05747 27.21 4.19577C27.1 4.24222 26.989 4.05025 26.9953 4.23809C26.9569 4.1483 26.9828 3.99968 26.8666 3.89647C26.8428 3.89647 26.8179 3.93156 26.8666 3.93982C26.8978 4.00897 26.6644 4.00897 26.6945 3.93982C26.6125 4.09669 26.4268 4.20506 26.265 4.06779C26.2152 4.07502 26.2183 4.13591 26.2225 4.19577C26.042 4.07915 25.8864 4.33407 25.6209 4.19577C25.6271 4.24634 25.6976 4.29279 25.6209 4.32375L25.6426 4.36607L25.6644 4.40838C25.7121 4.52604 25.7318 4.64782 25.5358 4.62202C25.5565 4.57145 25.5814 4.52501 25.6219 4.49404C25.6292 4.40116 25.4694 4.47443 25.4072 4.45173C25.4072 4.40941 25.4414 4.40116 25.4497 4.36607L25.3854 4.34439L25.4072 4.2804C25.208 4.25357 25.2754 4.49198 25.0638 4.45173C25.0472 4.5539 25.2599 4.42799 25.1925 4.57971C24.9943 4.55803 24.9259 4.54049 24.8128 4.65814L24.6987 4.60138C24.7651 4.66537 24.8221 4.67362 24.8709 4.68704L24.8491 4.75103C24.9497 4.90997 24.6624 4.86766 24.5919 4.75103C24.2724 4.72007 24.1479 4.943 23.9052 4.96467C23.846 5.00802 23.9238 5.03485 23.8191 5.09265C23.7091 4.93681 23.6292 4.98841 23.5618 4.83669C23.399 4.87385 23.3336 5.00802 23.1749 5.05033L23.1531 5.11432L23.1313 5.05033C23.011 5.05859 23.1106 5.24436 23.0027 5.34964C22.7766 5.2712 22.5826 5.30835 22.4447 5.22166C22.1843 5.46626 21.8565 5.43427 21.6283 5.56328L21.6065 5.62727L21.5422 5.60559C21.48 5.79653 21.2435 6.00501 21.0267 5.9049C20.9437 5.92244 21.0225 6.10099 20.8545 6.03287L20.8763 6.11131L20.812 6.16085C20.6543 6.18872 20.5765 6.29605 20.5547 6.46015C20.4479 6.46635 20.4219 6.39307 20.34 6.37449C20.3804 6.21349 20.3421 6.17427 20.3825 6.07519C20.3991 5.97301 20.1865 6.09893 20.2539 5.94721C20.1024 6.12473 19.8659 5.83162 19.7384 6.07519L19.8027 6.12473L19.7809 6.20317C19.8825 6.20317 19.9074 6.27644 20.0381 6.24548C20.0184 6.45706 19.7342 6.37243 19.7373 6.20317L19.6585 6.22484L19.6087 6.16085C19.5195 6.25477 19.4697 6.1237 19.394 6.2042C19.4313 6.27954 19.5537 6.35282 19.3514 6.33218C19.3307 6.49524 19.5029 6.46635 19.5662 6.54582L19.6305 6.52414L19.6087 6.58813C19.7622 6.6707 19.7664 6.57162 19.9095 6.54582C19.9354 6.65728 19.8919 6.6996 19.7809 6.67379C19.8473 6.76255 19.9095 6.93697 19.7384 6.9731C19.8047 6.83893 19.7529 6.71095 19.6097 6.67379L19.5879 6.60981C19.5859 6.65212 19.6077 6.69547 19.6305 6.73778L19.5662 6.71611L19.394 6.71611C19.394 6.67379 19.4282 6.66554 19.4375 6.63045L19.394 6.63045L19.394 6.58813C19.2353 6.61497 19.1544 6.72024 19.1793 6.92975C19.1222 7.03502 19.0496 6.85234 19.0071 6.97206L19.0288 7.03605C18.9614 6.9731 18.8401 6.97929 18.7716 7.03605L18.7934 6.97206L18.7509 6.97206C18.754 6.71921 18.5527 6.66657 18.3639 6.71611C18.3556 6.85131 18.1783 6.95658 18.1492 7.18571C18.0196 7.03193 17.5507 7.16816 17.7623 7.31368L17.8048 7.29201L17.8474 7.31368C17.9055 7.39831 18.1471 7.30027 18.1482 7.44166L18.2125 7.4912L18.1907 7.56964C18.3048 7.58409 18.3411 7.67594 18.448 7.69762C18.3629 7.83695 18.253 7.73993 18.1046 7.69762C18.0579 7.70794 18.0019 7.7678 18.0621 7.78328C18.0206 7.76883 17.6544 7.94428 17.6752 7.69762C17.5248 7.69039 17.5341 7.84211 17.4179 7.86894C17.282 7.75335 17.1793 7.77089 17.031 7.74096C17.0227 7.92467 17.2157 7.92674 17.031 8.16824C17.1119 8.17753 17.1254 8.11974 17.2032 8.12593C17.2063 8.27145 17.0435 8.25288 16.9024 8.25391L16.9024 8.12593C16.8391 8.14863 16.7935 8.18889 16.7302 8.21159L16.7084 8.27558C16.7053 8.2632 16.7012 8.25184 16.697 8.24049L16.6877 8.21159C16.6877 8.21159 16.6846 8.21159 16.6835 8.21262C16.6555 8.16412 16.613 8.13109 16.5684 8.10013L16.6638 8.21882C16.6327 8.2343 16.6171 8.26526 16.6016 8.29622C16.5279 8.29829 16.4916 8.2632 16.473 8.21056C16.3682 8.2343 16.3817 8.37569 16.2157 8.33854C16.2105 8.41491 16.2582 8.43865 16.3443 8.4242C16.3703 8.51193 16.2748 8.72144 16.4304 8.68016C16.4377 8.77304 16.2779 8.69977 16.2157 8.7235C16.2645 8.997 16.0466 8.97017 16.1296 9.10847C16.1089 9.1673 15.7427 9.21168 15.7863 9.06615C16.2282 9.21168 15.9066 8.68119 16.1296 8.72453C15.9688 8.62133 15.8412 8.47993 15.7427 8.72453C15.6763 8.62958 15.8143 8.62855 15.7427 8.42523L15.7427 8.42007ZM36.4876 3.42068C36.3569 3.56414 36.6463 3.55072 36.4876 3.42068V3.42068ZM35.5001 3.463C35.4918 3.49809 35.4565 3.50531 35.4565 3.54866C35.4223 3.5404 35.414 3.50634 35.3704 3.50634C35.3787 3.47125 35.4129 3.46403 35.4129 3.42068C35.4482 3.42894 35.4554 3.46403 35.499 3.463L35.5001 3.463ZM32.4504 3.97594C32.4048 4.22364 32.6361 3.99348 32.4504 3.97594V3.97594ZM32.1496 3.89028L32.1496 4.10392C32.0116 4.14107 32.0604 3.99348 31.9774 3.97594L31.9556 4.03993L31.8913 4.01825C31.8332 4.03167 31.8094 4.07915 31.7191 4.0616L31.7191 3.93362C31.8 3.92434 31.8135 3.98213 31.8913 3.97594L31.9338 3.95427C31.9338 3.95427 31.9764 3.97594 32.1486 3.89028L32.1496 3.89028ZM29.8727 3.71895L30.0874 3.71895L30.1372 3.65496C30.1372 3.65496 30.2161 3.67664 30.3022 3.54763C30.352 3.55485 30.3488 3.61574 30.3447 3.6756C30.2296 3.64258 30.2161 3.6756 30.2161 3.6756L30.1663 3.73959C30.1663 3.73959 30.0875 3.71792 29.8727 3.71792L29.8727 3.71895ZM29.8302 4.10392C29.824 4.05335 29.853 4.08121 29.8727 4.0616C30.076 3.85931 29.8541 4.29795 29.8302 4.10392ZM18.9604 7.03089C18.951 7.0567 18.9282 7.06702 18.921 7.09488C18.8815 7.08766 18.8618 7.06082 18.8463 7.03089L18.9604 7.03089ZM17.6752 11.8817C17.6669 11.9168 17.6316 11.924 17.6326 11.9673L17.5466 11.9673L17.5466 11.8393C17.5808 11.8621 17.6161 11.8837 17.6752 11.8817ZM17.2883 11.4967C17.2654 11.5978 17.085 11.5225 17.2022 11.4544C17.2374 11.4626 17.2447 11.4977 17.2883 11.4967ZM16.8163 8.67603C16.891 8.67293 16.9501 8.68532 16.9885 8.71937L16.9885 8.67603L17.0321 8.67603C17.0559 8.55218 17.0995 8.74105 17.1607 8.71937C17.1586 8.74518 17.1545 8.76995 17.1182 8.76169L17.0321 8.76169L17.0103 8.82568L16.9885 8.76169C16.9252 8.82878 16.7966 8.80916 16.8163 8.67603ZM16.9449 11.7103L16.9449 11.8817C16.9107 11.859 16.8754 11.8373 16.8163 11.8393L16.8163 11.7537C16.8505 11.731 16.8858 11.7093 16.9449 11.7114L16.9449 11.7103ZM16.6016 8.67603L16.6016 8.76169L16.5155 8.76169L16.5155 8.67603L16.6016 8.67603ZM14.9263 8.84735C14.9855 8.84942 15.0207 8.82671 15.055 8.80401C15.0871 8.6719 14.9066 8.7524 14.9689 8.59037C15.1608 8.62649 15.1919 8.82361 15.4408 8.80401C15.4149 8.91547 15.4585 8.95778 15.5695 8.93198L15.5913 8.86799L15.613 8.93198C15.6805 8.92785 15.6462 8.82258 15.7417 8.84632C15.7489 8.93714 15.7074 8.98049 15.6182 8.9743L15.5913 8.86696C15.5985 8.91547 15.5954 8.97223 15.6338 9.03829L15.5695 9.01661C15.4699 9.31076 15.1857 8.97017 15.0539 9.14459L15.0539 9.05893C14.9087 9.07647 15.168 9.22509 14.9678 9.18691C14.8994 9.03622 15.0436 8.92063 14.8817 8.84529C14.8817 8.82155 14.917 8.79678 14.9243 8.84529L14.9263 8.84735ZM15.1193 9.78758L15.0975 9.82989C15.1099 9.94136 15.0819 10.0136 14.9689 10.0012C14.9201 9.86705 15.0363 9.89698 15.055 9.82989L14.9907 9.80822L15.0124 9.74423C14.918 9.73907 14.9938 9.56258 14.9699 9.48827C15.0446 9.47589 15.2002 9.62451 15.1846 9.44596C15.3662 9.43873 15.1846 9.51201 15.1846 9.57394C15.1981 9.66476 15.3174 9.51304 15.3568 9.48827C15.4211 9.58942 15.4222 9.64618 15.5715 9.57394C15.474 9.77829 15.2562 9.59974 15.0996 9.74526L15.1214 9.78758L15.1193 9.78758ZM15.2697 12.9922C15.1877 12.7785 15.5238 12.7362 15.3122 12.6506C15.5466 12.5928 15.6193 12.4194 15.613 12.2233C15.6462 12.2326 15.6628 12.2594 15.6556 12.3089C15.9709 12.149 16.1483 12.0612 16.4283 11.924L16.4709 11.9023L16.5134 11.924L16.5134 11.7527L16.642 11.7527C16.668 11.829 16.5165 11.9302 16.642 11.9663C16.6327 11.9993 16.6057 12.0158 16.5559 12.0086L16.5134 12.0303L16.4709 12.0086L16.4709 12.0943L16.3423 12.0943C16.3557 12.1521 16.4035 12.1758 16.3848 12.2656C16.3039 12.2563 16.2904 12.3141 16.2126 12.3079L16.2126 12.4359L16.2914 12.4142L16.3412 12.4782C16.3744 12.4689 16.4263 12.4772 16.4273 12.4359C16.4895 12.4369 16.4927 12.7042 16.5559 12.5639C16.6607 12.6733 16.3962 12.6392 16.3412 12.5639L16.2914 12.6279L16.2126 12.6062C16.2427 12.7207 16.1234 12.6888 16.084 12.7342C16.0933 12.7816 16.1317 12.8002 16.1701 12.8198C16.0653 12.8446 15.8288 12.8033 15.8692 13.0758C15.6898 13.0665 15.6659 13.1449 15.5259 13.0758C15.4647 13.1284 15.4284 13.2388 15.4834 13.2894L15.5622 13.2677L15.612 13.3317C15.6452 13.3224 15.6971 13.3307 15.6981 13.2894C15.779 13.2935 15.6877 13.4721 15.5695 13.4174L15.5052 13.4391L15.4408 13.4174C15.3745 13.5371 15.3371 13.6847 15.1836 13.7167C15.3039 13.8323 15.2178 13.823 15.1836 13.9727C15.0809 13.7363 14.9544 14.0181 14.7967 13.9727C14.8247 14.0624 14.9108 14.1626 14.8392 14.2286L15.0114 14.2286C15.0114 14.3432 14.526 14.3432 14.5394 14.6136C14.4959 14.6136 14.4886 14.5795 14.4533 14.5713C14.444 14.5713 14.3226 14.8303 14.5394 14.7849C14.4482 14.9438 14.2241 14.9738 14.11 14.9985C14.1245 15.1554 14.3019 15.1492 14.3247 15.2978C14.2334 15.3835 14.1328 15.237 14.0239 15.2122C13.9191 15.3133 14.0882 15.2917 14.0664 15.4258C13.803 15.4743 13.7884 15.6488 13.5945 15.6828C13.7158 15.7499 13.497 15.9119 13.637 15.9821C13.609 16.1101 13.5447 15.9408 13.4648 15.9821C13.3611 16.0213 13.4907 16.2928 13.2926 16.2381C13.3289 16.2876 13.3497 16.3526 13.3351 16.4517C13.2605 16.4486 13.2013 16.461 13.1629 16.494C13.1889 16.5343 13.2625 16.6519 13.1204 16.622C13.1287 16.6612 13.1723 16.7066 13.1951 16.685C13.1992 16.6777 13.2034 16.6715 13.2055 16.6643C13.2034 16.6746 13.1992 16.6808 13.1951 16.685C13.1204 16.8047 12.8144 16.913 12.6049 16.9213C12.6215 16.8749 12.6567 16.8191 12.6049 16.879C12.5364 16.7252 12.5841 16.6509 12.5188 16.494C12.5541 16.3867 12.5748 16.2649 12.7335 16.2804C12.6526 16.1989 12.7594 16.203 12.7335 16.0667L12.8621 16.0667C12.8746 15.7076 13.4181 15.6518 13.2916 15.2978C13.3372 15.2731 13.4223 15.2545 13.5488 15.2122C13.555 14.9139 13.7625 14.8375 13.8496 14.4433C14.0747 14.5475 14.1816 14.1543 14.2365 14.1017C14.4222 13.9241 14.6307 14.0026 14.5374 13.5464C14.7625 13.3431 14.9046 13.0572 15.2676 12.9911L15.2697 12.9922ZM13.9378 12.2656C13.9036 12.5246 14.1349 12.2945 13.9378 12.2656V12.2656ZM14.4959 9.40261C14.4087 9.39023 14.3818 9.31695 14.3237 9.27463C14.388 9.14666 14.5166 9.3056 14.4959 9.40261ZM13.4648 10.0012C13.7003 10.0941 13.6079 9.81131 13.8081 9.74526C13.9181 9.74939 13.8693 9.91246 13.9803 9.91659L14.0301 9.8526L14.109 9.87427C14.1183 9.84124 14.1453 9.82473 14.1951 9.83196C14.1909 9.76487 14.0851 9.79893 14.109 9.70398C14.2635 9.78138 14.2355 9.69675 14.3662 9.66166C14.2168 9.77416 14.3309 9.92175 14.4948 9.83299C14.5623 10.0002 14.3828 9.92175 14.3662 10.0043L14.4087 10.0043L14.4087 10.0466C14.4845 10.1344 14.417 10.1034 14.3787 10.1519L14.4087 10.0033C14.3652 10.0311 14.3164 10.0611 14.2946 10.09C14.2905 10.1488 14.3247 10.188 14.3662 10.2169L14.3237 10.2169C14.3258 10.2716 14.3787 10.2758 14.3662 10.3449C14.333 10.3542 14.2811 10.3459 14.2801 10.3872C14.2096 10.3872 14.2563 10.2685 14.194 10.2592C14.0156 10.412 14.083 10.5658 14.1515 10.7722C13.9907 10.7681 14.0291 10.7247 13.8942 10.7722C13.888 10.5462 13.5841 10.6545 13.722 10.3872C13.5768 10.4853 13.3756 10.5276 13.3351 10.7288C13.0945 10.735 13.2542 10.3841 13.1204 10.3872C13.1827 10.1116 13.4306 10.284 13.4638 10.0022L13.4648 10.0012ZM12.4337 11.1128C12.5914 11.1757 12.7045 11.186 12.691 11.3264C12.8932 11.3491 12.9067 11.3109 12.9918 11.4121L13.0416 11.3481L13.1204 11.3698C13.1484 11.313 13.2117 11.2903 13.2926 11.2841C13.2999 11.377 13.2573 11.4203 13.164 11.4121L13.1142 11.4761L13.0354 11.4544C13.025 11.5153 12.9648 11.5266 12.9493 11.5824C12.7906 11.4554 12.6796 11.281 12.4337 11.2407C12.3144 11.2696 12.553 11.4647 12.3051 11.4121C12.3165 11.281 12.3985 11.2201 12.4337 11.1128ZM12.219 11.5824C12.2501 11.6938 12.3933 11.6949 12.4763 11.7537L12.5188 11.7537L12.5188 11.796C12.552 11.7867 12.5686 11.7599 12.5613 11.7103C12.5883 11.8713 12.8009 11.7681 12.6899 11.9663C12.6567 11.957 12.6401 11.9302 12.6474 11.8806C12.5696 11.8713 12.553 11.924 12.4846 11.9229L12.5188 11.7527C12.4908 11.8177 12.4234 11.8951 12.4763 11.9663L12.4337 11.9663C12.4337 12.0096 12.469 12.0169 12.4763 12.052L12.498 12.1159L12.4763 12.1799C12.6236 12.2181 12.6723 12.3554 12.8196 12.3936C12.8528 12.4896 12.4856 12.3946 12.6474 12.4792C12.5883 12.6279 12.496 12.2873 12.5188 12.5649C12.4607 12.5721 12.4628 12.3172 12.3902 12.4792C12.3103 12.3729 12.3902 12.1077 12.1754 12.1376C12.3248 11.9632 12.1319 11.8806 12.0893 11.7527C12.052 11.6154 12.2003 11.6639 12.218 11.5813L12.219 11.5824ZM12.1329 17.2237L12.1329 17.138L12.219 17.138L12.2833 17.1597L12.3476 17.1814C12.3902 17.0772 12.609 17.0668 12.6049 17.2237C12.5136 17.2805 12.4783 17.2031 12.3476 17.266L12.2978 17.33L12.219 17.3083C12.1568 17.4621 11.9887 17.1463 11.9618 17.266C11.7999 17.1793 12.1101 17.1432 12.1339 17.2237L12.1329 17.2237ZM10.3291 12.9499C10.578 12.9695 10.4546 12.6186 10.716 12.6506C10.6807 12.5298 10.7761 12.5401 10.7585 12.4369C11.0074 12.5432 11.1091 12.0561 11.1879 12.0096C11.1942 11.9147 11.2958 12.0654 11.4027 12.0096C11.3964 12.2006 11.5105 12.0633 11.5313 12.2656C11.6672 12.2862 11.6827 12.1882 11.8321 12.2233C11.7253 12.4586 11.9057 12.3647 11.9182 12.5649C11.7138 12.3977 11.6858 12.7445 11.3601 12.6929C11.3238 12.6433 11.3031 12.5783 11.3176 12.4792C11.1568 12.4751 11.1952 12.4318 11.0603 12.4792C11.1081 12.6134 11.0645 12.5763 11.0603 12.7352C10.9618 12.7796 10.9224 12.8828 10.7595 12.8632C10.7709 13.0758 10.7772 13.0448 10.8021 13.2048C10.6195 13.1511 10.6869 13.3472 10.5873 13.3761L10.5656 13.3121C10.5759 13.3544 10.578 13.3978 10.6081 13.4401L10.5438 13.4184C10.271 13.5732 10.2679 13.1583 10.3291 12.9488L10.3291 12.9499ZM11.7035 18.8895C11.5707 19.3064 10.9857 19.0371 10.8871 19.4447C10.2979 19.0133 11.5147 18.0824 11.7035 18.8895ZM10.2865 13.7188L10.2865 13.8044L10.1579 13.8044L10.1579 13.7188L10.2865 13.7188ZM10.1579 8.67603C10.1455 8.77511 10.0428 8.77408 9.98571 8.71937C9.9992 8.66158 10.0936 8.68428 10.1579 8.67603ZM10.1154 15.8985C10.0199 15.9223 10.0542 15.817 9.98675 15.8129C10.0044 15.7066 10.1538 15.8108 10.1154 15.8985ZM9.38512 16.1545C9.45877 16.139 9.46603 16.1875 9.47121 16.2401C9.69527 16.138 9.35296 16.4207 9.38512 16.1545ZM9.0843 15.7272L9.1704 15.7272L9.1704 15.8129L9.0843 15.8129L9.0843 15.7272ZM9.0843 15.8552L9.1704 15.8552L9.1704 15.9408L9.0843 15.9408L9.0843 15.8552ZM14.0239 49.1026C14.0612 49.0551 14.167 49.1057 14.0239 49.0169C14.0426 48.9643 14.0789 48.9292 14.1525 48.9312C14.1442 48.9674 14.1691 48.9715 14.1951 48.9736C14.1515 49.0489 14.1204 49.2027 14.0229 49.1015L14.0239 49.1026ZM14.7106 49.6155C14.6629 49.6062 14.6442 49.568 14.6245 49.5298L14.5602 49.5515L14.4959 49.5298C14.4087 49.5175 14.4118 49.4143 14.3237 49.4019C14.3278 49.3203 14.4917 49.4287 14.4959 49.4875L14.5602 49.4659L14.6245 49.4875C14.6504 49.4896 14.6753 49.4937 14.667 49.5298C14.7645 49.5061 14.6152 49.4628 14.7096 49.4019C14.8102 49.4132 14.7344 49.5897 14.7096 49.6155L14.7106 49.6155ZM15.14 49.9148C14.9958 49.9251 14.918 49.7559 15.0114 49.6589C15.1556 49.6485 15.2334 49.8178 15.14 49.9148ZM33.3508 55.3425C33.2336 55.325 33.1599 55.712 33.0935 55.4705L33.0292 55.4488L33.0074 55.3848C32.9452 55.4086 32.9027 55.4519 32.8788 55.5128C32.8031 55.5242 32.6641 55.3921 32.6216 55.5128L32.6433 55.5768L32.579 55.5551C32.5707 55.6181 32.4753 55.5943 32.4068 55.5974L32.357 55.6047L32.3643 55.5551L32.2782 55.5551C32.2876 55.5882 32.2793 55.6398 32.3207 55.6408C32.0313 55.7048 31.8457 55.8266 31.3758 55.7265C31.3778 55.6718 31.4307 55.6676 31.4183 55.5985C31.3011 55.5675 31.3322 55.6831 31.2461 55.6841L31.2679 55.7481L31.2036 55.7265C31.2129 55.7987 31.1548 55.8328 31.161 55.7265C31.0086 55.8668 30.7378 55.8493 30.5169 55.7688L30.4526 55.7904L30.4308 55.7265C30.3426 55.7388 30.3447 55.841 30.3022 55.8978C30.2223 55.8916 30.2762 55.7533 30.2161 55.7265C30.1559 55.7378 30.1673 55.8204 30.13 55.8544C30.0563 55.7017 29.9599 55.6088 29.8727 55.3848C29.7379 55.3652 29.6808 55.422 29.7005 55.5562C29.5698 55.6201 29.4184 55.4272 29.4433 55.5985L29.5076 55.6201L29.4858 55.6841C29.6238 55.646 29.5449 55.8255 29.658 55.8121C29.6466 55.8782 29.5636 55.842 29.5294 55.8121L29.5076 55.8761L29.4433 55.8544C29.2804 55.9164 29.3613 55.7368 29.2286 55.7688L29.186 55.7904L29.1435 55.7688C29.0896 55.8441 29.046 55.8864 28.9288 55.9824L28.8863 55.9607L28.8437 55.9391C28.8261 55.9927 28.7888 56.0268 28.7151 56.0247L28.7151 55.9391L28.6508 55.8895L28.6726 55.8111L28.5865 55.8111L28.6083 55.8895L28.544 55.9391C28.5491 56.0154 28.5014 56.0392 28.4153 56.0247L28.4153 55.9814L28.3935 55.9174L28.3718 55.8534C28.294 55.8647 28.1311 56.0072 28.0709 55.8957C28.0222 55.9339 28.0979 56.0154 27.8988 55.9814L27.877 56.0454L27.8552 55.9814C27.8044 55.9876 27.7577 56.0577 27.7266 55.9814L27.6623 56.003L27.684 55.9391C27.5181 56.0103 27.4828 55.9463 27.3832 56.067C27.3946 55.9793 27.2857 56.0309 27.2546 55.8957C27.2214 55.905 27.2048 55.9318 27.2121 55.9814C26.96 55.9349 26.8625 55.7605 26.654 55.9391C26.3418 55.8802 25.9383 55.9102 25.7516 55.7254C25.7038 55.7347 25.6852 55.7729 25.6655 55.8111C25.5721 55.8183 25.6458 55.6594 25.6219 55.5974C25.6219 55.5407 25.5472 55.5582 25.5358 55.5118C25.486 55.5252 25.3335 55.6439 25.4497 55.6831C25.3491 55.7853 25.2215 55.5531 25.235 55.7254C25.1582 55.7306 25.1344 55.6831 25.1489 55.5974C25.0223 55.7048 24.9103 55.6521 24.8481 55.5118C24.7983 55.519 24.8014 55.5789 24.8055 55.6398C24.7516 55.6222 24.7174 55.5851 24.7194 55.5118L24.6551 55.5335L24.6769 55.4695C24.4591 55.4468 24.5607 55.5056 24.5047 55.5974C24.4041 55.584 24.3439 55.5304 24.2039 55.5551L24.2039 55.4271C24.0566 55.4086 23.9633 55.4437 23.8606 55.4695C23.8512 55.4364 23.8595 55.3848 23.818 55.3838L23.7537 55.3621L23.6894 55.3405C23.6137 55.421 23.5566 55.2816 23.5172 55.4261C23.4892 55.3105 23.3513 55.3064 23.345 55.1702C23.4259 55.1609 23.4394 55.2187 23.5172 55.2125L23.5172 55.1268C23.4062 55.0989 23.4 55.0793 23.3886 54.8709C23.3201 54.9596 23.1262 54.9235 23.0453 54.9988L23.1096 55.0484L23.0878 55.1268C23.121 55.1361 23.1376 55.1629 23.1303 55.2125L23.0442 55.2125C23.0442 55.1702 23.0089 55.1619 23.0017 55.1268L22.9799 55.0628L23.0017 54.9988C22.9477 54.9813 22.9135 54.9441 22.9156 54.8709C22.6687 55.0587 22.4976 54.7635 22.1853 54.8285C22.2403 54.7728 22.2403 54.6706 22.1853 54.6149C22.1283 54.6149 22.1459 54.6902 22.0992 54.7006L22.0349 54.7222L22.0131 54.6583C21.7051 54.8141 21.5339 54.5003 21.5412 54.3166C21.4903 54.3373 21.4437 54.362 21.4126 54.4023C21.3368 54.392 21.315 54.329 21.3265 54.231C21.1252 54.2981 21.1833 54.1959 20.9831 54.1887L20.9188 54.2103L20.9406 54.1463C20.8763 54.1536 20.7819 54.1309 20.7694 54.1887C20.7559 54.1319 20.6958 54.0885 20.6408 53.975C20.59 54.0246 20.4894 54.0235 20.3836 54.0173C20.5028 53.8212 20.1222 53.8068 20.1263 53.59C20.007 53.5952 19.979 53.6716 20.0402 53.5477C19.896 53.5818 19.6108 53.3826 19.5682 53.59C19.4884 53.3712 19.3183 53.2402 19.0963 53.1628C19.0963 53.1204 19.1305 53.1122 19.1388 53.0771C18.7872 53.0059 18.6772 52.6498 18.4521 52.7355C18.4573 52.7334 18.448 52.6973 18.4521 52.6932L18.4521 52.6509L18.4957 52.6509C18.4148 52.5662 18.3453 52.5786 18.2384 52.6085C18.2457 52.3877 18.033 52.3856 17.9812 52.2236C17.9003 52.2143 17.8868 52.2721 17.809 52.2659C17.7716 51.9893 17.4594 51.9872 17.2509 51.8809L17.2509 51.7529C16.9107 51.6074 16.6804 51.3525 16.3485 51.1977L16.3485 51.1554L16.2842 51.177L16.3059 51.1131C16.1109 51.1368 16.1649 50.9118 16.0051 50.8994C16.1089 50.8416 16.0321 50.8138 16.0912 50.7714C15.8661 50.7147 15.9854 50.5733 15.7043 50.6001C15.7178 50.5423 15.7655 50.5186 15.7468 50.4288C15.5778 50.5217 15.5031 50.3534 15.3599 50.3008C15.3433 50.2275 15.4232 50.1914 15.3599 50.1728C15.4201 50.0903 15.5643 50.0913 15.5747 49.9592C15.6379 49.9674 15.6141 50.0624 15.6172 50.1305C15.8205 50.1625 15.8381 50.4876 16.0892 50.3442C15.9937 50.6032 16.4657 50.4505 16.3039 50.6435C16.5072 50.6269 16.5144 50.8334 16.6908 50.7291C16.6462 50.9015 16.7572 50.919 16.8194 50.9851C16.9097 50.9469 16.946 50.855 17.0767 50.8571C16.9792 50.9851 17.1731 51.1089 17.3775 51.0707C17.3215 51.3494 17.9003 51.3308 18.1503 51.4557C18.0932 51.4278 18.2156 51.6704 18.3224 51.5414C18.3121 51.6023 18.2519 51.6136 18.2364 51.6693C18.2893 51.7994 18.3837 51.6229 18.4936 51.6693L18.4936 51.8407C18.5558 51.7457 18.5984 51.8943 18.6222 51.7984C18.6575 51.9934 18.9832 52.2525 19.2239 52.0977C19.227 52.172 19.2145 52.2308 19.1813 52.269C19.3452 52.2329 19.5257 52.2133 19.7394 52.2267C19.7114 52.5394 20.0661 52.4713 20.2549 52.5683C20.1512 52.6674 20.3224 52.6828 20.341 52.7819C20.5257 52.6302 20.6636 52.9409 20.7705 52.7819C20.8223 52.7912 20.7964 52.8294 20.7705 52.8676C21.0443 52.9739 21.2362 53.1308 21.5007 53.0389C21.4416 53.2123 21.5941 53.1741 21.5868 53.2949C21.6366 53.1524 21.8814 53.2319 21.8441 53.4229C21.9436 53.234 22.1677 53.4043 22.2735 53.4652C22.2559 53.5384 22.2175 53.4559 22.1449 53.4652C22.1387 53.5715 22.2123 53.5973 22.231 53.6788C22.3918 53.622 22.5442 53.6933 22.7029 53.6365C22.7828 53.7707 23.0556 53.7944 23.1749 53.7645C23.1438 53.8347 23.26 53.9502 23.261 53.8501L23.2392 53.7861L23.3035 53.8078C23.3077 53.749 23.4135 53.7624 23.3896 53.8501C23.4228 53.8408 23.4747 53.8491 23.4757 53.8078C23.5577 54.008 23.7444 54.04 23.9913 53.9791L23.9913 54.1071C24.0898 54.1195 24.1531 54.0968 24.1635 54.0215C24.2371 54.039 24.1541 54.0762 24.1635 54.1494C24.2713 54.1339 24.4238 54.2877 24.5504 54.1494C24.5224 54.3548 24.7475 54.2155 24.8076 54.4054C24.9383 54.3528 24.7443 54.2423 24.8501 54.1917C25.0037 54.2805 25.1022 54.425 25.2371 54.5334C25.4362 54.4106 25.6489 54.456 25.7526 54.5757C25.8408 54.5633 25.8387 54.4611 25.8812 54.4044C25.9445 54.426 25.9891 54.4673 26.0534 54.49C26.0451 54.553 25.9497 54.5292 25.8812 54.5323C25.8719 54.6128 25.93 54.6263 25.9248 54.7037L25.9891 54.7253L25.9673 54.7893C25.8947 54.908 26.0451 54.9338 26.1395 55.0886L26.2038 55.067L26.2256 55.1309C26.3376 55.1567 26.3802 55.1134 26.3542 55.003C26.5233 55.0587 26.458 54.8461 26.5689 54.9607C26.5617 54.8967 26.5845 54.8027 26.5264 54.7893L26.4621 54.811L26.4403 54.747C26.377 54.7966 26.3324 54.7966 26.2681 54.747C26.2795 54.7078 26.4279 54.6035 26.4403 54.7047L26.4828 54.683L26.5254 54.7047C26.5689 54.746 26.6125 54.7893 26.654 54.8327C26.7318 54.7831 27.1301 54.5592 27.0409 54.747C27.2038 54.6438 27.2193 54.6304 27.4704 54.6613C27.4838 54.7191 27.5316 54.7429 27.5129 54.8327C27.7048 54.8151 27.9029 54.7346 28.157 54.747C28.1456 54.747 28.1238 54.8213 28.0709 54.7893C28.1892 54.8585 28.268 54.7862 28.5004 54.7893C29.0367 54.7965 29.3479 55.0866 29.7462 55.003C29.7576 55.134 29.8395 55.1949 29.8748 55.3023C30.0895 55.2249 30.3042 55.1278 30.519 55.2599C30.521 55.3188 30.4993 55.3539 30.4764 55.3879C30.658 55.359 30.7192 55.4757 30.7773 55.3456L30.7555 55.2816L30.8198 55.3033L30.8198 55.261L30.992 55.261C31.0915 55.197 31.0573 55.1567 31.0345 55.0473C31.1102 55.0866 31.2492 55.0618 31.2917 55.133L31.3561 55.1113L31.3343 55.1753C31.4349 55.1898 31.52 55.2187 31.549 55.3033C31.6009 55.2383 31.993 55.293 31.8923 55.2176C32.2523 55.0453 32.6548 55.5386 32.9234 55.2176C32.967 55.2176 32.9742 55.2527 33.0095 55.261L33.0738 55.2827L33.0956 55.3466C33.19 55.3157 33.2388 55.1464 33.3529 55.261C33.357 55.3085 33.2906 55.327 33.3529 55.3466L33.3508 55.3425ZM37.7313 57.1373C37.5259 57.1518 37.4056 57.031 37.3444 57.223C37.2593 57.193 37.2303 57.1084 37.2157 57.0093C37.418 57.2498 37.5746 56.8008 37.8174 56.967C37.8485 57.0836 37.7323 57.0527 37.7313 57.1383L37.7313 57.1373ZM47.4808 53.6334C47.4186 53.686 47.4155 53.7965 47.3522 53.847C47.2236 53.7954 47.0234 53.8377 47.0088 54.0184C46.82 54.0297 46.5991 54.0091 46.6219 54.232C46.4539 54.2661 46.3709 54.3042 46.3211 54.1463C46.2838 54.199 46.1842 54.4033 46.2786 54.4456C46.0971 54.6221 46.1302 54.3362 45.9778 54.617C45.9145 54.5943 45.8699 54.554 45.8056 54.5313C45.6852 54.5685 45.7143 54.7542 45.6334 54.8306C45.4114 54.7883 45.2828 54.8141 45.2039 55.0019C44.7828 54.9101 44.8108 55.327 44.3451 55.3012C44.2693 55.3116 44.2476 55.3745 44.259 55.4726C44.1106 55.4385 44.0702 55.5128 44.0443 55.6005C43.9945 55.4963 43.8648 55.4179 43.787 55.5582C43.7258 55.5479 43.7144 55.488 43.6584 55.4726L43.6366 55.5365L43.5723 55.5149C43.2694 55.7048 42.4686 56.1362 42.1553 55.9845C42.0921 55.9927 42.1159 56.0877 42.1128 56.1558C41.729 56.0722 41.5983 56.2673 41.34 56.2415C41.2664 56.259 41.3494 56.2962 41.34 56.3694C41.2591 56.3601 41.0558 56.259 40.9967 56.3694C40.9396 56.3158 40.9127 56.2415 40.8255 56.3271L40.8473 56.3911L40.783 56.4128C40.4085 56.4747 40.3141 56.5728 39.9666 56.5408C39.8982 56.6718 39.7322 56.7069 39.5372 56.7121L39.4947 56.7338L39.4511 56.7121L39.4511 56.7978C39.4034 56.7885 39.3847 56.7503 39.365 56.7121C39.3069 56.7534 39.309 56.8566 39.2364 56.8834C39.0362 56.8731 38.6451 56.7296 38.6348 57.0114L38.4626 57.0114L38.4408 56.9897L38.419 56.968C38.4034 57.0516 38.0269 57.1373 38.0321 56.968C38.0829 56.9185 38.1835 56.9195 38.2893 56.9247L38.2893 56.8824L38.3319 56.8824C38.3298 56.8277 38.2769 56.8236 38.2893 56.7544C38.4076 56.7482 38.5103 56.7461 38.418 56.8401C38.4999 56.8215 38.4958 56.7183 38.6327 56.7544C38.6451 56.6574 38.6223 56.5934 38.5466 56.5831C38.7022 56.5119 38.835 56.4551 38.9335 56.5831C38.9791 56.4541 39.1669 56.4995 39.2768 56.5408C39.1451 56.6409 39.2436 56.582 39.3194 56.6687C39.3526 56.6595 39.3692 56.6326 39.3629 56.5831L39.3412 56.5191L39.4055 56.5408C39.4148 56.5077 39.4418 56.4912 39.4916 56.4984L39.4698 56.4345L39.5341 56.4561C39.5569 56.3932 39.5974 56.3488 39.6202 56.2848L39.5766 56.2848L39.5766 56.2425C39.5154 56.1671 39.5372 56.1455 39.6627 56.1568L39.727 56.1352L39.7052 56.1991C40.0299 56.3725 40.2809 55.9752 40.478 56.1991C40.5911 56.2115 40.5123 56.033 40.6502 56.0712C40.6481 56.1259 40.5952 56.13 40.6077 56.1991C40.7176 56.1919 40.9064 56.0443 40.8224 55.9855C40.9189 56.0371 40.978 55.8544 41.0797 55.8142C41.1678 55.7801 41.3473 55.8369 41.4666 55.8142C41.6429 55.7801 41.84 55.7172 41.8535 55.6005C41.9686 55.647 42.0734 55.6088 42.1968 55.5582L42.175 55.4942L42.2394 55.5159C42.173 55.4106 42.3856 55.39 42.368 55.4736C42.5122 55.4354 42.3732 55.3776 42.4541 55.3023C42.6532 55.1557 42.9696 55.3683 43.0557 55.0886C43.2144 55.2156 43.2767 54.9606 43.3565 54.875C43.5712 54.9813 43.731 54.7986 43.7434 54.5757C43.8586 54.748 43.9333 54.4849 44.0443 54.6613C44.1013 54.5798 44.0318 54.5086 44.1729 54.4477C44.231 54.5323 44.2922 54.6139 44.4737 54.5757C44.65 54.3765 45.0515 54.3352 45.0753 54.1061C45.3388 54.1412 45.5172 53.9595 45.6334 53.9348C45.7288 53.9141 45.8958 54.0535 45.8906 53.8491C46.0711 53.9606 46.0711 53.781 46.234 53.7634L46.2983 53.7418L46.2765 53.8058C46.3564 53.7996 46.4197 53.7779 46.4487 53.7201C46.5358 53.7325 46.5327 53.8357 46.6209 53.8481C46.4736 53.6675 47.0005 53.6138 47.0929 53.8058C47.2184 53.7686 47.1416 53.7418 47.1354 53.6344C47.1489 53.5653 47.1966 53.6375 47.1779 53.7201C47.3387 53.7366 47.4217 53.5477 47.5213 53.6344C47.5213 53.6582 47.486 53.6829 47.4787 53.6344L47.4808 53.6334ZM48.2111 53.0781C48.264 53.0967 48.2992 53.1328 48.2972 53.2061C48.1478 53.2433 48.1499 53.1401 48.2111 53.0781ZM59.0985 28.656L59.0342 28.6344C59.0259 28.7273 59.0695 28.7706 59.1628 28.7623C59.1462 29.1153 59.2354 29.4363 59.0342 29.7449C59.1006 29.7965 59.1722 29.9059 59.0342 29.9162C59.1576 30.1175 59.1597 30.361 59.0342 30.5571C59.0249 30.68 59.0446 30.7739 59.1203 30.8131C58.9429 31.0051 59.029 31.2992 58.9917 31.6253C58.9751 31.7709 58.8786 31.9288 58.863 32.0526C58.8226 32.3715 58.972 32.8029 58.7769 32.9505C58.7697 32.9557 58.6877 33.2694 58.6908 33.2498C58.6297 33.5801 58.5705 33.7205 58.6483 33.9764C58.4979 34.0951 58.5653 34.3149 58.5197 34.4894C58.5176 34.4966 58.4357 34.4821 58.4336 34.4894C58.3703 34.7164 58.3776 35.0735 58.3475 35.3016C58.3288 35.443 58.2012 35.4616 58.3475 35.5152C58.3382 35.5483 58.3112 35.5648 58.2614 35.5576C58.3081 35.989 58.0851 36.152 58.0892 36.5401C58.1006 36.6 58.1836 36.5886 58.2178 36.6258C58.0882 36.6258 58.1006 36.7228 57.917 36.7537C57.943 36.9344 57.9482 37.1428 57.917 37.309C57.9035 37.3792 57.8164 37.4328 57.7884 37.5226C57.7552 37.6279 57.8185 37.7755 57.7884 37.8643C57.7863 37.8694 57.6245 37.9809 57.6162 38.0356C57.6017 38.145 57.6691 38.1739 57.5301 38.2492C57.6546 38.4133 57.5519 38.5382 57.6162 38.7188C57.4108 38.9005 57.2397 39.2638 57.359 39.5311C57.1474 39.82 57.0208 40.1689 57.0582 40.5136C56.8497 40.5301 56.7687 40.7685 56.8434 40.9409C56.7584 40.9409 56.7885 41.0575 56.6712 41.0265C56.7573 41.1339 56.7065 41.3785 56.5426 41.3682C56.525 41.4714 56.6204 41.4611 56.5851 41.5818C56.3051 41.7026 56.2957 42.0917 56.0271 42.2227C56.1225 42.4488 55.8207 42.4983 55.941 42.6077C55.6142 42.7109 55.3539 43.1062 55.3394 43.3766C55.273 43.4674 55.1485 43.5004 55.0385 43.5479C55.0821 43.6687 54.8414 43.8224 54.7377 43.9329C54.7429 44.2084 54.5572 44.2941 54.3508 44.3602C54.3415 44.4407 54.3996 44.4541 54.3933 44.5315L54.2211 44.5315C54.2108 44.6915 54.1568 44.7761 54.2211 44.8308C54.1496 44.8876 54.1299 44.9959 53.9639 44.9588C53.8228 45.2323 53.4712 45.2942 53.4058 45.642C53.3239 45.5182 53.2253 45.6234 53.105 45.7277C52.8208 45.9733 52.4868 46.1993 52.547 46.4966C52.3851 46.4037 52.326 46.64 52.0314 46.7102C52.0449 46.8093 52.0242 46.8743 51.9889 46.9238C51.8686 46.9238 52.0916 46.8072 51.9028 46.8382C51.7825 46.8805 51.965 46.9517 51.8603 47.0095C51.5574 47.0209 51.5325 47.3098 51.2161 47.3088C50.991 47.4956 51.1072 47.5359 50.8728 47.6938C50.8935 47.4327 50.4921 47.9208 50.4008 47.8218C50.5512 48.0127 50.212 48.0127 50.2286 48.2067C50.0574 48.1644 50.0989 48.3347 49.9278 48.2924C49.878 48.2996 49.8811 48.3595 49.8853 48.4204C49.7276 48.474 49.4703 48.5886 49.4133 48.634C49.2701 48.7465 49.2255 48.923 49.1125 49.019C49.0295 49.0902 48.8708 49.0179 48.8552 49.1903C48.5565 49.0221 48.5752 49.4122 48.4258 49.3183C48.4351 49.3657 48.4735 49.3843 48.5119 49.4039C48.516 49.4514 48.2505 49.4122 48.2546 49.3183C48.1291 49.3647 48.0295 49.4359 48.0399 49.6176C47.8719 49.6372 47.7401 49.9158 47.7391 49.9592C47.5856 50.0036 47.3439 49.9644 47.3097 50.2585C47.1779 50.1801 47.1167 50.2967 47.0088 50.2162C46.9155 50.209 46.9891 50.3679 46.9663 50.4298C46.8615 50.402 46.7454 50.3431 46.7516 50.5155C46.6707 50.5248 46.6572 50.467 46.5794 50.4732C46.4445 50.5279 46.5576 50.5619 46.4933 50.6868C46.2775 50.6166 46.18 50.885 46.0203 50.7291C45.8834 50.7632 45.8979 50.949 45.8056 51.0284C45.6178 50.9954 45.4705 51.144 45.3336 51.0284C45.2921 51.1079 45.4622 51.1708 45.3336 51.1997C45.1687 51.208 45.318 51.1647 45.2911 51.0718C45.1438 51.0955 45.0774 51.2018 45.0338 51.3277C44.8212 51.3577 44.7112 51.4918 44.6905 51.7127C44.5214 51.6353 44.4301 51.5331 44.261 51.6704L44.2828 51.7344L44.2185 51.756C44.1563 52.0079 43.8565 51.7426 43.8752 52.012C43.5028 51.9274 43.4613 52.1524 43.1449 52.0543C43.0298 52.1678 42.8036 52.1699 42.7155 52.3103C42.6522 52.2112 42.5796 52.3939 42.5868 52.2246C42.4219 52.333 42.1937 52.5353 42.0713 52.3526C42.0205 52.4166 41.9634 52.4733 41.9002 52.5239C41.8327 52.5053 41.8628 52.3897 41.728 52.4382C41.3825 52.625 41.1398 52.7375 40.6969 52.6519C40.644 52.6467 40.5952 52.6395 40.6108 52.5662C40.4863 52.6034 40.5621 52.6302 40.5683 52.7375L40.3536 52.7375L40.3753 52.8015L40.311 52.7799C40.3069 52.8387 40.2011 52.8253 40.2249 52.7375C40.144 52.7427 40.1949 52.8789 40.0963 52.8655C39.9521 52.8666 39.8691 52.8067 39.7955 52.7375C39.6689 52.7541 39.6762 52.9233 39.5808 52.9512C39.4968 52.976 39.5476 52.8418 39.4521 52.8232C39.3235 52.7984 39.0279 52.9615 38.808 52.8666C38.8173 52.914 38.8557 52.9326 38.8941 52.9522C38.7022 52.8955 38.3765 53.0451 38.0777 52.9945C38.0279 53.0018 38.0311 53.0616 38.0352 53.1225C37.8153 53.0823 37.6473 53.1411 37.5632 52.9089C37.3195 52.9512 37.3817 52.8408 37.2199 52.9945L37.1556 52.9729L37.0913 52.9512C37.0456 53.0616 36.8433 52.9739 36.834 52.9089C36.5446 53.0379 36.5228 52.9842 36.1473 53.0802L36.1473 52.9522C35.859 53.042 35.637 53.1937 35.4171 52.9945C35.3787 53.1834 34.9534 52.8841 34.859 53.1659C34.5603 52.9987 34.1837 53.0513 33.8279 53.1659C33.8414 53.0668 33.7035 53.1184 33.6993 53.0379L33.6775 53.0596L33.6557 53.0379C33.5043 53.1824 33.2367 53.1813 33.1838 52.9099C33.1329 53.1432 32.8632 52.8841 32.6682 52.9956C32.6309 52.9326 32.6039 52.8604 32.496 52.8676L32.4743 52.9316L32.4525 52.8676C32.1973 52.9811 32.0759 52.9512 31.8083 52.9956C31.7264 52.7427 31.3467 53.0544 31.1216 52.8242C31.0781 52.8242 31.0677 52.8996 31.1216 52.9099C30.771 52.816 30.3986 52.9687 30.0045 52.8242C29.5999 52.9935 29.2597 52.655 29.017 52.7386C29.0097 52.5177 28.6 52.7386 28.4589 52.5673C28.544 52.6663 28.4485 52.6147 28.4164 52.6952C28.4247 52.527 28.0969 52.6756 28.0295 52.6952C27.8863 52.4517 27.4133 52.4609 27.1706 52.4393C27.1758 52.3877 27.183 52.3381 27.2567 52.3536C27.1343 52.2855 26.9299 52.334 26.9559 52.4816C26.7795 52.5012 26.9901 52.3743 26.8698 52.3103C26.7795 52.4362 26.6021 52.3794 26.5689 52.2246C26.4393 52.238 26.4154 52.3567 26.2256 52.3103L26.2038 52.2886L26.182 52.2669C26.1768 52.3712 26.0399 52.2762 26.0534 52.2246L25.9891 52.2029L26.0534 52.1813C26.0493 52.0626 25.6862 52.1379 25.5804 52.1813C25.3574 51.8892 24.7506 52.1596 24.5493 51.7963C24.4031 51.852 24.2496 51.7013 24.206 51.7963C24.1386 51.7849 24.1759 51.7024 24.206 51.6683C23.8543 51.4856 23.233 51.6239 23.0888 51.241C22.9218 51.3288 22.6023 51.1884 22.4447 51.0697C22.4322 51.0604 22.4581 50.9913 22.4447 50.984C22.3098 50.9077 22.149 50.9882 22.2725 50.8561C21.8939 51.0893 21.5184 50.4185 21.0702 50.6001C21.2611 50.4216 20.8545 50.2926 20.6833 50.3008C20.8337 50.1842 20.6885 50.2079 20.5972 50.1728L20.5972 50.0872L20.5329 50.1088L20.5547 50.0449C20.2767 49.9767 20.1968 49.954 19.9105 49.8735C19.9282 49.7703 19.8317 49.7806 19.868 49.6599C19.6409 49.6671 18.9552 49.5876 19.0952 49.3183C18.8494 49.0737 18.3743 49.1449 18.1928 48.763C18.1119 48.7537 18.0984 48.8115 18.0206 48.8053C18.003 48.7744 18.0766 48.7393 18.0631 48.7197C17.9407 48.5463 17.5403 48.4493 17.5051 48.1644C17.3754 48.1211 17.4293 48.2594 17.419 48.3357C17.3246 48.1159 17.0269 48.0984 16.947 47.8661C16.8962 47.8734 16.8246 47.8589 16.8184 47.9085C16.5912 47.7495 16.4833 47.4729 16.1742 47.3955C16.1628 47.0167 15.5321 47.0446 15.5726 46.7546C15.4906 46.8351 15.4647 46.7587 15.3579 46.7546C15.3454 46.5812 15.335 46.4068 15.1431 46.413C14.999 46.1013 14.6297 46.0125 14.499 45.6864C14.4015 45.7452 14.3372 45.576 14.3268 45.6864C14.2697 45.4727 14.1328 45.3386 14.026 45.1734C13.6266 45.1435 13.6308 44.7111 13.2957 44.6182C13.1007 44.1145 12.7584 43.7564 12.3933 43.422C12.3798 42.9658 11.7709 42.8079 11.663 42.3105C11.6516 42.2506 11.5686 42.2619 11.5344 42.2248C11.5157 41.973 11.4452 41.7727 11.2771 41.6695C11.3031 41.5674 11.3394 41.4745 11.3197 41.3279C11.2274 41.2433 11.0261 41.107 11.105 40.9863C10.9182 41.0823 10.9131 40.783 10.8477 40.9006C10.7481 40.8366 10.7824 40.7964 10.8052 40.687C10.7813 40.59 10.7377 40.7386 10.6765 40.6447C10.633 40.4352 10.2927 40.3289 10.3757 40.1317C10.2513 40.0698 10.2513 39.8851 10.1185 39.8324C10.132 39.7746 10.1797 39.7509 10.161 39.6611C9.89443 39.626 9.938 38.9552 9.60295 38.8489C9.64133 38.724 9.64133 38.7178 9.60295 38.5929C9.66208 38.595 9.69734 38.5733 9.73157 38.5506C9.82908 37.9344 9.19633 37.5825 9.08741 37.1831C9.09364 37.0892 9.19529 37.0912 9.30213 37.0974C9.29695 36.9901 9.22019 36.9632 9.34466 36.9261L9.36645 36.9478C9.35711 36.9282 9.34674 36.9096 9.32392 36.9055L9.3457 36.8838C9.39238 36.3182 8.89448 36.0881 9.21708 35.6019C9.08015 35.5183 9.08949 35.4802 9.00236 35.3026C9.0926 35.2634 9.13305 35.1767 9.13098 35.0467C8.76274 34.67 9.14446 34.1199 8.70154 33.8505C8.70569 33.5254 8.74407 33.3788 8.74407 33.2096C9.09468 32.8752 8.95568 32.0526 9.38823 31.7998C9.17351 31.517 9.52619 31.2311 9.30213 30.9019C9.50337 30.6748 9.30525 30.2578 9.60295 30.0896C9.55938 29.7676 9.6766 29.4848 9.77514 29.1927C9.82804 29.1979 9.87679 29.2051 9.86124 29.2784C10.0386 29.0833 10.2637 28.9192 10.076 28.6798C10.1091 28.6705 10.161 28.6788 10.1621 28.6375C10.1621 28.5941 10.0874 28.5838 10.076 28.6375C10.1361 28.463 9.77722 28.4207 9.90376 28.1679C10.0894 28.2504 10.3145 28.0471 10.4618 27.9542C10.2253 27.8748 10.6153 27.6591 10.3332 27.6549C10.4369 27.368 10.5127 27.207 10.4618 26.8427C10.6724 26.724 10.8467 26.3432 10.8052 26.1161C10.8446 26.0408 10.885 25.9675 11.0199 25.9881C10.996 25.7507 11.2325 25.7724 11.1921 25.5185C11.5769 25.3131 11.7149 25.0747 11.6641 24.4926C11.7647 24.4782 11.8414 24.441 11.9213 24.407C11.9182 24.3327 11.9306 24.2738 11.9638 24.2357C11.7356 24.0798 11.8176 23.6752 12.136 23.5947C12.0582 23.4647 12.2335 23.282 12.3082 23.1674C12.329 23.0333 12.1931 23.055 12.1796 22.9538C12.1713 22.7742 12.3424 22.7742 12.3518 22.6122C12.6225 22.8 12.6401 22.2902 12.7812 22.3562C12.6765 22.2757 12.6899 22.0776 12.609 21.9713C12.8155 21.7421 12.8414 21.5264 13.2532 21.4583C13.2366 21.385 13.3175 21.3489 13.2532 21.3303C13.5073 21.1012 13.6277 20.9949 13.6826 20.5615C13.9627 20.4551 13.9803 20.0877 14.1982 19.9205C14.2614 19.9432 14.306 19.9835 14.3704 20.0062C14.5342 19.9649 14.6463 19.807 14.5851 19.6646C14.7116 19.3911 15.0415 19.0938 15.057 18.8523C15.3018 18.7956 15.1743 18.457 15.444 18.3394C15.3952 18.1815 15.4118 18.004 15.6161 17.9121C15.6711 17.6964 15.695 17.4497 15.9595 17.4415C15.9937 17.3517 16.0809 17.3537 16.1317 17.3135C16.4543 17.0544 16.4595 16.6065 16.8619 16.4156C16.7634 16.3206 16.9366 16.3083 16.9906 16.2443C16.9885 16.043 17.0663 15.9202 17.0767 15.7313C17.2561 15.7385 17.2883 15.6002 17.4636 15.6033C17.4231 15.1915 18.0196 15.1884 17.893 14.8344C18.1959 14.5372 18.5434 14.2843 18.7094 13.8519C18.7913 13.8333 18.7872 13.7301 18.9241 13.7662C19.0807 13.5051 19.1274 13.2244 19.311 12.9973C19.4749 12.794 19.8379 12.7445 19.6979 12.5277C19.9707 12.4431 20.0319 12.1479 20.1273 11.8868C20.2404 11.9983 20.1605 11.8177 20.2995 11.8445C20.4593 11.5762 20.7549 11.443 20.9437 11.2036C21.2041 11.3109 21.2953 11.0963 21.4167 10.9476C21.5422 10.9961 21.7279 10.9383 21.8887 10.9053C21.8679 11.089 22.0048 10.96 22.0173 11.0333C22.1532 10.9105 22.1843 10.8207 22.1895 10.6483C22.287 10.6607 22.3513 10.638 22.3617 10.5627C22.7185 10.6535 23.0224 10.2788 23.3927 10.0931C23.6873 9.94445 23.9674 9.69882 24.2516 9.66579C24.3014 9.6596 24.3616 9.7143 24.3803 9.70811C24.7827 9.58322 25.1147 9.23541 25.5825 9.19516C25.6696 9.06822 25.8511 9.03519 26.0555 9.02384C26.5275 8.7813 26.8687 8.40872 27.516 8.3406C27.7525 8.25081 27.8479 8.06504 27.988 7.86997C28.0502 7.78431 28.1851 7.77605 28.2452 7.742C28.4081 7.64911 28.6332 7.51287 28.8033 7.48604C29.1539 7.43031 29.5366 7.57893 29.7483 7.23008C30.5366 7.20531 30.9017 6.59226 31.5521 6.67483C31.717 6.5551 31.9006 6.4519 32.1537 6.41887C32.2274 6.40133 32.1444 6.36417 32.1537 6.29089C32.3259 6.30947 32.6745 6.10615 32.9265 6.29089C33.3134 6.10615 33.7947 6.01533 34.3435 5.99159C34.469 5.77485 34.8082 5.76969 34.9876 5.60662C35.0986 5.67371 35.4741 5.78724 35.5032 5.56431C35.5291 5.68093 35.7283 5.6252 35.804 5.69229C35.9917 5.5705 36.2199 5.69022 36.4481 5.60662C36.8268 5.46833 37.3817 5.51064 37.7365 5.4353C37.9865 5.38266 38.3526 5.31248 38.6389 5.30732C38.7229 5.30526 38.7364 5.38989 38.7675 5.39298C38.8401 5.40021 38.9387 5.31248 39.0248 5.30732C39.2125 5.297 39.4407 5.39298 39.5828 5.39298C39.7664 5.39298 39.949 5.20824 40.0559 5.4353C40.2187 5.28255 40.533 5.48587 40.4853 5.47761C41.1502 5.58082 41.8504 5.54986 42.5039 5.69125C42.6657 5.72635 42.7476 5.87187 42.9333 5.94721C43.0101 5.97817 43.1833 5.84503 43.148 6.03287C43.5432 5.92347 43.647 6.18872 43.9208 6.11854C44.1003 6.2816 44.4146 6.3105 44.6936 6.37449C44.8471 6.64283 44.9291 6.71921 45.3378 6.71611C45.3554 6.97 45.6448 6.83996 45.8097 6.97206C45.8211 6.98135 45.7973 7.05153 45.8097 7.05773C45.8564 7.08043 45.9321 7.04121 45.9819 7.05773C46.011 7.06702 46.0535 7.18054 46.068 7.1857C46.1085 7.20222 46.1583 7.12275 46.2402 7.14339C46.2651 7.14958 46.2983 7.26208 46.3263 7.27137C46.4197 7.30336 46.4601 7.23112 46.541 7.27137C46.7319 7.36632 46.7257 7.58615 47.0566 7.52732C47.0068 7.65427 47.3159 7.7389 47.486 7.78328C47.5327 8.07845 47.9351 8.01962 48.0441 8.25287C48.1011 8.25287 48.0835 8.17753 48.1302 8.16721C48.2774 8.289 48.4299 8.44381 48.5596 8.46652L48.5596 8.63784C48.7297 8.57179 48.822 8.79988 48.9029 8.68016C48.9859 8.95366 49.2546 9.04242 49.461 9.1931C49.2867 9.37371 49.4309 9.54504 49.8043 9.4924C49.7473 9.70707 49.9879 9.66063 50.0616 9.74836C50.0834 9.77416 50.0077 9.81338 50.0191 9.83402C50.0222 9.83918 50.213 9.95993 50.2338 10.0053C50.2421 10.0229 50.2058 10.1116 50.1913 10.091C50.2846 10.219 50.4081 10.186 50.406 10.347C50.5128 10.2912 50.6145 10.4419 50.6207 10.347C50.6207 10.5554 50.7763 10.8403 51.0927 10.8599C51.0532 10.9352 50.9423 10.9383 50.8779 10.9879C50.9433 11.1468 51.0647 11.0013 51.0501 11.2015C51.2275 11.0601 51.4111 11.3264 51.4796 11.1592L51.5014 11.0952L51.5231 11.1592C51.5864 11.0983 51.659 11.1262 51.6518 11.2449C51.5989 11.2428 51.5926 11.1933 51.5283 11.2015L51.5014 11.0952C51.5086 11.1437 51.5055 11.2005 51.5439 11.2665L51.4796 11.2449C51.2275 11.4358 51.6984 11.4296 51.7368 11.6722L51.8011 11.6938L51.7794 11.7578C51.8841 11.8383 51.6953 11.9126 51.908 11.8435C51.8001 11.9725 51.993 12.0757 51.9505 12.2708C51.9557 12.3647 52.1331 12.2893 52.2078 12.3131C52.1185 12.4679 52.2078 12.3987 52.3364 12.4411C52.3125 12.503 52.269 12.5453 52.2078 12.569C52.2596 12.6805 52.408 12.6475 52.4225 12.6547C52.6704 13.052 52.7254 13.277 53.0241 13.4669C53.0179 13.5464 52.9961 13.6094 52.938 13.6383C52.9837 13.663 53.0687 13.6816 53.1953 13.7239C53.1953 13.824 53.1216 13.8498 53.1527 13.9799C53.2233 14.1089 53.3809 14.1512 53.4961 14.2358C53.5272 14.3834 53.5013 14.562 53.7108 14.6208C53.6268 14.8024 53.7948 14.9542 53.9681 15.0058C53.856 15.0594 53.9048 15.2493 54.0106 15.1337C54.1423 15.1761 53.9608 15.2473 53.9681 15.3051C54.0106 15.4248 54.0832 15.2431 54.1402 15.3484C54.2481 15.6126 54.2139 15.6457 54.1828 15.818C54.327 15.6188 54.272 16.2009 54.5697 16.1173C54.5572 16.269 54.3975 16.3537 54.6558 16.3733C54.5583 16.5271 54.6993 16.6003 54.6983 16.6303C54.6942 16.8212 55.0043 16.7923 55.0852 16.8862C55.0043 16.9626 54.9431 17.0999 55.1713 17.0575C55.2097 17.1958 55.0313 17.1174 54.9991 17.1855C55.0997 17.5178 55.2657 17.489 55.4286 17.8688C55.4348 17.9482 55.5738 17.8946 55.6008 17.9544C55.5842 18.1175 55.5406 18.1196 55.6868 18.1681C55.4566 18.4158 55.8393 18.6284 55.9877 18.7667C55.9026 18.9277 56.0292 19.0433 56.0302 19.2373C56.3559 19.5418 56.3766 20.0681 56.7604 20.3912C56.6069 20.5202 56.7719 20.8298 56.9752 20.8608C56.8725 21.0445 57.0125 20.9216 57.0613 20.9887C57.1131 21.062 57.0696 21.3273 57.276 21.2024C57.2812 21.2963 57.2023 21.3603 57.1899 21.4583C57.1577 21.7205 57.388 22.0621 57.2324 22.1416C57.5114 22.4481 57.7905 22.7546 57.8766 23.2531C57.9316 23.251 57.9357 23.1984 58.0052 23.2108C57.9056 23.2738 58.0892 23.346 57.9191 23.3388C58.111 23.409 57.9606 23.6298 57.9616 23.6381C57.972 23.6948 58.1867 23.8239 58.0042 23.8094C58.1867 23.9549 58.2438 24.2264 58.3475 24.4503C58.1504 24.4514 58.4108 24.5721 58.3475 24.7063L58.4118 24.728L58.39 24.7919L58.4326 24.7919C58.4201 24.954 58.361 25.0912 58.6048 25.0912C58.5788 25.2502 58.6857 25.5423 58.4761 25.5185C58.612 25.5825 58.5954 25.7982 58.7769 25.8178C58.6068 26.0067 58.9025 26.3256 58.9491 26.4164C58.9066 26.5475 58.835 26.3669 58.7769 26.3741C58.89 26.5599 58.8267 26.6239 58.863 26.8447C58.8713 26.8964 58.945 26.98 58.9491 27.0161C58.9637 27.1544 58.8319 27.3608 58.9917 27.401C58.8174 27.8005 59.1462 28.107 59.1203 28.4692L59.1846 28.4476L59.1628 28.5116C59.1587 28.5487 59.1535 28.5838 59.1244 28.5952L59.1836 28.4465C59.1068 28.4878 58.9989 28.5745 59.0975 28.6602L59.0985 28.656ZM59.2489 21.1559C59.0477 21.0145 58.9554 20.7637 58.9481 20.4293C58.8205 20.2714 58.7106 20.096 58.6473 19.8741C58.4253 19.839 58.5581 19.4499 58.3465 19.4035C58.3537 19.3395 58.3309 19.2455 58.389 19.2321C58.3154 19.1908 58.3029 19.0897 58.2168 19.0608C58.3081 18.8678 58.1235 18.7615 58.0446 18.6335C57.8683 18.3456 57.638 17.8904 57.3579 17.779C57.4129 17.7191 57.4637 17.5684 57.444 17.4797C57.4295 17.4146 57.3455 17.4384 57.3154 17.394C57.2801 17.3434 57.3237 17.2413 57.3154 17.2227C57.2998 17.1896 57.2594 17.2041 57.2729 17.2227C57.0592 16.913 56.9358 16.3795 56.5426 16.1545C56.4845 15.6137 56.1599 15.3391 55.9846 14.9149C55.9026 14.9954 55.9068 14.8891 55.7698 14.9149L55.7698 14.6156C55.6754 14.5083 55.4732 14.3339 55.5551 14.1884C55.4244 14.0191 55.2512 13.8922 55.0831 13.7611L55.0831 13.5898C54.8715 13.3018 54.6413 13.0324 54.4815 12.6918C54.2077 12.3657 53.8685 12.1046 53.7087 11.666C53.2119 10.9776 52.6123 10.3913 52.1196 9.69985C51.9308 9.79067 51.8416 9.55845 51.7327 9.44389C51.742 9.41087 51.769 9.39435 51.8188 9.40158C51.2586 9.23128 51.2358 8.6399 50.573 8.50367C50.6342 8.10013 49.9143 8.31686 49.8427 7.86275C49.5824 7.82663 49.4382 7.84417 49.2411 7.69142C49.2919 7.62743 49.294 7.517 49.3697 7.47778L49.3479 7.45611L49.3262 7.43444C49.3262 7.39212 49.3614 7.38386 49.3687 7.34877L49.4548 7.34877C49.4454 7.3818 49.4537 7.4334 49.4123 7.43444L49.434 7.47675L49.4123 7.51907C49.6571 7.51907 49.6716 7.48604 49.8842 7.51907C49.8936 7.59957 49.8355 7.61299 49.8417 7.69039C50.0232 7.70691 50.4776 7.75128 50.5284 8.03201C50.6809 8.03717 50.8002 8.07433 50.8292 8.20334C51.1352 8.16928 51.3188 8.257 51.3873 8.45929C51.4993 8.5078 51.7202 8.73176 51.8592 8.88657C52.0895 8.85458 52.3146 9.12705 52.632 9.14356C52.6372 9.33759 52.8208 9.3541 52.8893 9.48518C53.0106 9.52027 53.0003 9.42532 53.104 9.44286C53.159 9.49859 53.159 9.60077 53.104 9.6565C53.1361 9.70191 53.3187 9.70811 53.4473 9.6565C53.3664 9.73804 53.4432 9.76384 53.4473 9.87014C53.6901 9.79274 53.6776 10.1447 53.9193 10.0415C53.9328 10.1405 53.912 10.2056 53.8768 10.2551C53.8425 10.3263 54.0718 10.2345 54.0054 10.2128C54.133 10.2551 54.6236 10.7226 54.6496 10.8537C54.8456 10.8434 54.9016 11.0034 55.1651 11.025C55.2304 11.377 55.7864 11.4544 55.7232 11.7939C55.9016 11.6928 55.8902 11.9405 55.9379 11.9653C55.9877 11.99 56.1287 11.7816 56.024 11.9653C56.1443 11.9426 56.247 11.9023 56.3673 11.8796C56.2802 11.9673 56.3849 11.9653 56.4534 12.0076C56.4555 12.0664 56.4337 12.1015 56.4109 12.1356C56.5488 12.2728 56.5903 12.4545 56.8403 12.5628C56.7957 12.7238 56.9482 12.9076 57.0125 12.8188C57.0862 12.8363 57.0032 12.8735 57.0125 12.9468C57.0768 12.9963 57.1173 13.0706 57.2272 13.0747C57.2573 13.4442 57.6536 13.4484 57.7428 13.758C57.7324 13.8385 57.6722 13.7332 57.6567 13.8003C57.8029 13.9262 57.8403 14.1595 58.0436 14.2276C57.7988 14.6373 58.4492 14.819 58.2158 15.0821C58.2396 15.1792 58.2832 15.0305 58.3444 15.1245C58.2645 15.3783 58.5736 15.656 58.5591 15.851L58.6234 15.8294C58.5902 15.883 58.5757 15.9408 58.6016 15.979L58.6442 15.979C58.6421 15.9542 58.638 15.9315 58.6079 15.9357L58.6141 15.8944C58.6794 15.8965 58.7126 15.9295 58.7303 15.979L58.7521 16.043L58.6877 16.0213C58.6421 16.1803 58.8485 16.0884 58.8164 16.235C58.7292 16.3093 58.7323 16.203 58.6442 16.2783C58.7085 16.525 58.8755 16.8367 58.7728 17.0049C58.8496 17.1133 58.889 17.0503 58.9875 17.1762C58.8724 17.2185 58.9087 17.3599 58.9875 17.4322C58.7168 17.7263 59.0643 18.0339 59.1161 18.4581C59.1421 18.456 59.167 18.4519 59.1597 18.4158C59.2935 18.4023 59.0508 18.5396 59.2022 18.5437C59.195 18.5933 59.1348 18.5902 59.0736 18.586C59.0829 18.6191 59.1099 18.6356 59.1597 18.6284C59.1483 18.6882 59.0653 18.6769 59.0311 18.714C59.1504 18.9277 59.3278 19.5046 59.1597 19.6119C59.3703 20.1507 59.3589 20.3746 59.417 21.1074C59.3091 21.1621 59.2821 21.0857 59.2448 21.1497L59.2489 21.1559ZM60.6233 39.5321C60.4418 39.4671 60.7312 39.3174 60.7094 39.1471C60.8266 39.2524 60.6742 39.4516 60.6233 39.5321ZM60.8381 38.4205L60.8163 38.4422C60.8163 38.4422 60.7945 38.4205 60.4086 38.4205C60.4802 38.2802 60.7053 38.3462 60.7955 38.4205L60.8173 38.3566C60.8173 38.3566 60.8391 38.4205 61.0102 38.2069C61.0849 38.2038 61.1441 38.2162 61.1824 38.2492C61.171 38.3091 61.088 38.2977 61.0538 38.3349C61.1949 38.4144 61.1575 38.4216 61.226 38.5908C61.0746 38.7198 61.03 38.4691 60.8391 38.4195L60.8381 38.4205ZM61.5247 37.6516C61.698 37.889 61.3401 37.9086 61.31 38.0789C61.0974 37.9819 61.1793 37.8519 61.1378 37.6083C61.171 37.599 61.2229 37.6073 61.2239 37.566C61.3318 37.5092 61.3277 37.7652 61.3961 37.6083L61.364 37.566L61.3961 37.5237C61.3847 37.3472 61.5631 37.4669 61.5683 37.3957C61.6202 37.405 61.5953 37.4432 61.5683 37.4814L61.5901 37.5237L61.5683 37.566C61.6274 37.5701 61.6139 37.6744 61.5258 37.6516L61.5247 37.6516Z" fill="#E23F3A"/>
<path fill-rule="evenodd" clip-rule="evenodd" d="M22.9142 1.36907L22.936 1.30508L23.0003 1.32676C23.0096 1.27928 23.048 1.2607 23.0864 1.24109L23.0646 1.19878L23.0428 1.15646C23.0148 1.09867 22.9505 1.07699 22.8706 1.0708L22.8706 1.19878L22.9204 1.26277L22.8706 1.32676C22.8727 1.35256 22.8768 1.37733 22.9131 1.36907L22.9142 1.36907Z" fill="#E23F3A"/>
<path fill-rule="evenodd" clip-rule="evenodd" d="M17.8459 7.52315C17.8667 7.60572 18.1312 7.66145 18.1893 7.56547L18.125 7.51593L18.1468 7.43749C17.9611 7.38382 17.9766 7.40756 17.8459 7.52315Z" fill="#E23F3A"/>
<path fill-rule="evenodd" clip-rule="evenodd" d="M20.6809 5.98453C20.6695 6.096 20.6664 6.19817 20.8095 6.15586L20.7877 6.07742L20.8521 6.02788L20.8521 5.8999C20.7846 5.91848 20.8158 6.03407 20.6799 5.98557L20.6809 5.98453Z" fill="#E23F3A"/>
<path fill-rule="evenodd" clip-rule="evenodd" d="M24.6759 4.31751C24.4155 4.30822 24.4778 4.82426 24.7194 4.65912L24.6977 4.59514L24.762 4.57346C24.7827 4.43929 24.6302 4.47645 24.6759 4.31751Z" fill="#E23F3A"/>
<path fill-rule="evenodd" clip-rule="evenodd" d="M58.6066 16.0277L58.6066 15.9854L58.563 15.9854C58.5651 16.0112 58.5692 16.0359 58.6066 16.0277Z" fill="#E23F3A"/>
<path fill-rule="evenodd" clip-rule="evenodd" d="M20.7667 1.62602C20.7999 1.61674 20.8518 1.62499 20.8528 1.58268C20.8269 1.58061 20.802 1.57648 20.8092 1.54036C20.8331 1.54036 20.858 1.50527 20.8092 1.49805C20.8092 1.55481 20.7346 1.53727 20.7231 1.58371C20.7491 1.58577 20.774 1.5899 20.7667 1.62706L20.7667 1.62602Z" fill="#E23F3A"/>
<path fill-rule="evenodd" clip-rule="evenodd" d="M41.8345 1.86155C41.8469 1.84297 41.8552 1.82749 41.8646 1.81201L41.8345 1.86155Z" fill="#E23F3A"/>
<path fill-rule="evenodd" clip-rule="evenodd" d="M41.8635 1.81067L41.8988 1.75391C41.8863 1.77145 41.876 1.79003 41.8635 1.81067Z" fill="#E23F3A"/>
<path fill-rule="evenodd" clip-rule="evenodd" d="M43.2944 2.20296L43.3805 2.16064C43.3515 2.16993 43.3235 2.18025 43.2944 2.20296Z" fill="#E23F3A"/>
<path fill-rule="evenodd" clip-rule="evenodd" d="M44.9907 3.07897C45.0416 3.01808 45.0613 2.9479 45.0841 2.87256L44.9907 3.07897Z" fill="#E23F3A"/>
<path fill-rule="evenodd" clip-rule="evenodd" d="M13.2721 5.53542L13.2296 5.32178C13.1798 5.38577 13.214 5.48691 13.2721 5.53542Z" fill="#E23F3A"/>
<path fill-rule="evenodd" clip-rule="evenodd" d="M14.4751 4.51074L14.4751 4.63872C14.4792 4.59434 14.4751 4.55925 14.4751 4.51074Z" fill="#E23F3A"/>
<path fill-rule="evenodd" clip-rule="evenodd" d="M14.7183 4.63861L14.8189 4.46729C14.7826 4.53127 14.7442 4.57565 14.7183 4.63861Z" fill="#E23F3A"/>
<path fill-rule="evenodd" clip-rule="evenodd" d="M19.2427 1.87499C19.2717 1.86364 19.2997 1.85228 19.3288 1.83887L19.2427 1.87499Z" fill="#E23F3A"/>
<path fill-rule="evenodd" clip-rule="evenodd" d="M22.5923 1.2195C22.6151 1.14829 22.611 1.07707 22.6141 1.00586L22.5923 1.2195Z" fill="#E23F3A"/>
<path fill-rule="evenodd" clip-rule="evenodd" d="M22.7212 1.30501L22.9214 1.2627C22.8405 1.27095 22.7741 1.2854 22.7212 1.30501Z" fill="#E23F3A"/>
<path fill-rule="evenodd" clip-rule="evenodd" d="M28.0464 0.450195L28.1107 0.514184C28.0889 0.493543 28.0754 0.463612 28.0464 0.450195Z" fill="#E23F3A"/>
<path fill-rule="evenodd" clip-rule="evenodd" d="M27.1079 0.429688L27.2303 0.450329C27.1919 0.431752 27.1494 0.43072 27.1079 0.429688Z" fill="#E23F3A"/>
<path fill-rule="evenodd" clip-rule="evenodd" d="M26.9731 0.408203C27.0157 0.430909 27.0624 0.429877 27.108 0.430909L26.9731 0.408203Z" fill="#E23F3A"/>
<path fill-rule="evenodd" clip-rule="evenodd" d="M24.6323 1.19873L24.4819 1.34838C24.5514 1.31536 24.6074 1.27407 24.6323 1.19873Z" fill="#E23F3A"/>
<path fill-rule="evenodd" clip-rule="evenodd" d="M24.5676 1.00586L24.6133 1.14313C24.6008 1.09668 24.5936 1.04817 24.5676 1.00586Z" fill="#E23F3A"/>
<path fill-rule="evenodd" clip-rule="evenodd" d="M24.6324 1.19874L24.6138 1.14404C24.619 1.16262 24.6241 1.1812 24.6324 1.19874Z" fill="#E23F3A"/>
<path fill-rule="evenodd" clip-rule="evenodd" d="M23.0649 1.19873L23.151 1.2204C23.122 1.20905 23.094 1.20389 23.0649 1.19873Z" fill="#E23F3A"/>
<path fill-rule="evenodd" clip-rule="evenodd" d="M22.936 1.30518L23.0221 1.4765C23.0356 1.41148 23.0014 1.36091 22.936 1.30518Z" fill="#E23F3A"/>
<path fill-rule="evenodd" clip-rule="evenodd" d="M36.2504 3.24951C36.1788 3.25158 36.1072 3.24745 36.0356 3.27119L36.2504 3.24951Z" fill="#E23F3A"/>
<path fill-rule="evenodd" clip-rule="evenodd" d="M36.5083 2.71631L36.5083 2.77927C36.5104 2.75862 36.5114 2.73798 36.5083 2.71631Z" fill="#E23F3A"/>
<path fill-rule="evenodd" clip-rule="evenodd" d="M36.508 3.01515L36.508 2.77881C36.4997 2.85931 36.4676 2.93775 36.508 3.01515Z" fill="#E23F3A"/>
<path fill-rule="evenodd" clip-rule="evenodd" d="M16.567 8.09607L16.3647 7.84424C16.3782 7.9846 16.4778 8.03517 16.567 8.09607Z" fill="#E23F3A"/>
<path fill-rule="evenodd" clip-rule="evenodd" d="M17.8035 7.28809L17.7817 7.39542C17.7983 7.38717 17.8004 7.33763 17.8035 7.28809Z" fill="#E23F3A"/>
<path fill-rule="evenodd" clip-rule="evenodd" d="M19.586 6.60352C19.5165 6.60558 19.4408 6.60145 19.3931 6.62519L19.586 6.60352Z" fill="#E23F3A"/>
<path fill-rule="evenodd" clip-rule="evenodd" d="M19.6292 6.51904C19.6095 6.54794 19.5908 6.57581 19.5867 6.60471L19.6292 6.51904Z" fill="#E23F3A"/>
<path fill-rule="evenodd" clip-rule="evenodd" d="M19.6567 6.21968L19.7999 6.12061C19.7459 6.14331 19.6879 6.15982 19.6567 6.21968Z" fill="#E23F3A"/>
<path fill-rule="evenodd" clip-rule="evenodd" d="M21.6041 5.62131L21.5823 5.53564C21.5864 5.56454 21.5916 5.59241 21.6041 5.62131Z" fill="#E23F3A"/>
<path fill-rule="evenodd" clip-rule="evenodd" d="M25.384 4.33937L25.6413 4.36105C25.5656 4.31151 25.4681 4.29706 25.384 4.33937Z" fill="#E23F3A"/>
<path fill-rule="evenodd" clip-rule="evenodd" d="M15.9998 8.07861L16.1284 8.1426C16.1159 8.10854 16.0568 8.09513 15.9998 8.07861Z" fill="#E23F3A"/>
<path fill-rule="evenodd" clip-rule="evenodd" d="M36.8516 2.80078C36.8309 2.85755 36.8246 2.91431 36.8091 2.97211L36.8516 2.80078Z" fill="#E23F3A"/>
<path fill-rule="evenodd" clip-rule="evenodd" d="M31.9549 4.04025L31.9331 3.95459C31.9373 3.98349 31.9424 4.01135 31.9549 4.04025Z" fill="#E23F3A"/>
<path fill-rule="evenodd" clip-rule="evenodd" d="M58.4125 24.7231C58.3762 24.7366 58.3534 24.7489 58.3264 24.7655L58.4125 24.7231Z" fill="#E23F3A"/>
<path fill-rule="evenodd" clip-rule="evenodd" d="M51.7986 11.6899L51.6057 11.6899C51.6576 11.7323 51.7416 11.7075 51.7986 11.6899Z" fill="#E23F3A"/>
<path fill-rule="evenodd" clip-rule="evenodd" d="M49.3511 7.45947L49.3905 7.46979C49.3791 7.4667 49.3666 7.46257 49.3511 7.45947Z" fill="#E23F3A"/>
<path fill-rule="evenodd" clip-rule="evenodd" d="M49.4358 7.4801L49.3892 7.46875C49.4058 7.47288 49.4203 7.47701 49.4358 7.4801Z" fill="#E23F3A"/>
<path fill-rule="evenodd" clip-rule="evenodd" d="M16.9868 8.67725L17.0086 8.8269C17.0117 8.78045 17.0045 8.72163 16.9868 8.67725Z" fill="#E23F3A"/>
<path fill-rule="evenodd" clip-rule="evenodd" d="M14.0308 9.85156L14.0453 9.97954C14.0463 9.92484 14.037 9.89181 14.0308 9.85156Z" fill="#E23F3A"/>
<path fill-rule="evenodd" clip-rule="evenodd" d="M15.1193 9.78767C15.0768 9.78664 15.0333 9.79696 14.9907 9.80934L15.1193 9.78767Z" fill="#E23F3A"/>
<path fill-rule="evenodd" clip-rule="evenodd" d="M13.0435 11.3481C13.0642 11.3905 13.0901 11.4338 13.115 11.4761L13.0435 11.3481Z" fill="#E23F3A"/>
<path fill-rule="evenodd" clip-rule="evenodd" d="M12.4987 12.1172L12.4126 12.1389C12.4416 12.1368 12.4696 12.1275 12.4987 12.1172Z" fill="#E23F3A"/>
<path fill-rule="evenodd" clip-rule="evenodd" d="M15.5634 13.271C15.5395 13.3401 15.5229 13.3732 15.5063 13.4423L15.5634 13.271Z" fill="#E23F3A"/>
<path fill-rule="evenodd" clip-rule="evenodd" d="M16.2932 12.6301L16.2932 12.4165C16.2787 12.4877 16.2766 12.5589 16.2932 12.6301Z" fill="#E23F3A"/>
<path fill-rule="evenodd" clip-rule="evenodd" d="M16.4712 11.9033C16.4774 11.9281 16.4899 11.9601 16.5002 11.991L16.4712 11.9033Z" fill="#E23F3A"/>
<path fill-rule="evenodd" clip-rule="evenodd" d="M16.5152 12.0315C16.511 12.0191 16.5069 12.0057 16.5017 11.9912L16.5152 12.0315Z" fill="#E23F3A"/>
<path fill-rule="evenodd" clip-rule="evenodd" d="M58.6069 15.9844L58.7573 16.0484C58.7034 16.0102 58.6453 15.9968 58.6069 15.9844Z" fill="#E23F3A"/>
<path fill-rule="evenodd" clip-rule="evenodd" d="M12.2837 17.1597C12.2858 17.2164 12.2847 17.2732 12.2982 17.331L12.2837 17.1597Z" fill="#E23F3A"/>
</g>
<defs>
<clipPath id="clip0_305_1881">
<rect width="65" height="61" fill="white" transform="translate(0.752441 0.0263672)"/>
</clipPath>
</defs>
</svg>
