<svg width="145" height="41" viewBox="0 0 145 41" fill="none" xmlns="http://www.w3.org/2000/svg">
<path d="M138.808 20.5C138.808 17.4776 141.557 15.0132 145 14.8851V5.37197C141.566 5.37197 138.781 2.97167 138.744 0H6.25324C6.14564 2.91827 3.38794 5.25716 0 5.25716V14.8797C3.57547 14.8797 6.47152 17.3975 6.47152 20.5C6.47152 23.6025 3.5724 26.1203 0 26.1203V35.628C3.43098 35.628 6.21634 38.0283 6.25631 41H138.747C138.854 38.0817 141.612 35.7428 145 35.7428V26.1149C141.557 25.9868 138.808 23.5224 138.808 20.5Z" fill="#FAF8EC"/>
<path d="M29.6501 19.196C29.5288 18.8413 29.3374 18.5893 29.0761 18.44C28.8241 18.2907 28.4601 18.216 27.9841 18.216C27.5081 18.216 27.1394 18.272 26.8781 18.384C26.6261 18.4867 26.5001 18.6407 26.5001 18.846C26.5001 18.9953 26.5561 19.1073 26.6681 19.182C26.7894 19.2567 27.0088 19.322 27.3261 19.378L29.5941 19.756C30.9474 19.98 31.9134 20.3393 32.4921 20.834C33.0801 21.3193 33.3741 22.0147 33.3741 22.92C33.3741 25.1413 31.6054 26.252 28.0681 26.252C24.7081 26.252 22.9208 25.0433 22.7061 22.626H26.2481C26.3974 23.4007 27.0088 23.788 28.0821 23.788C29.2301 23.788 29.8041 23.5407 29.8041 23.046C29.8041 22.8873 29.7248 22.766 29.5661 22.682C29.4168 22.5887 29.1741 22.514 28.8381 22.458L27.0321 22.178C25.6508 21.9633 24.6288 21.5947 23.9661 21.072C23.3034 20.54 22.9721 19.8307 22.9721 18.944C22.9721 17.9453 23.4248 17.166 24.3301 16.606C25.2448 16.0367 26.5094 15.752 28.1241 15.752C29.6268 15.752 30.7934 16.018 31.6241 16.55C32.4641 17.0727 32.9494 17.8567 33.0801 18.902L29.6501 19.196ZM41.7694 16.004H45.3814V21.492C45.3814 23.116 44.9427 24.3153 44.0654 25.09C43.1974 25.8647 41.8534 26.252 40.0334 26.252C38.2134 26.252 36.8647 25.8647 35.9874 25.09C35.1194 24.3153 34.6854 23.116 34.6854 21.492V16.004H38.2974V21.786C38.2974 22.3367 38.4327 22.738 38.7034 22.99C38.9741 23.242 39.4174 23.368 40.0334 23.368C40.6494 23.368 41.0927 23.242 41.3634 22.99C41.6341 22.738 41.7694 22.3367 41.7694 21.786V16.004ZM47.4029 26V16.004H52.9189C55.8215 16.004 57.2729 16.8673 57.2729 18.594C57.2729 19.5367 56.7502 20.2367 55.7049 20.694C56.3582 20.9087 56.8435 21.212 57.1609 21.604C57.4875 21.9867 57.6509 22.472 57.6509 23.06C57.6509 24.0213 57.2682 24.754 56.5029 25.258C55.7469 25.7527 54.6409 26 53.1849 26H47.4029ZM52.7789 19.798C53.5162 19.798 53.8849 19.5507 53.8849 19.056C53.8849 18.7947 53.7962 18.6127 53.6189 18.51C53.4415 18.398 53.1475 18.342 52.7369 18.342H50.6789V19.798H52.7789ZM52.8629 23.662C53.3575 23.662 53.7075 23.592 53.9129 23.452C54.1275 23.312 54.2349 23.088 54.2349 22.78C54.2349 22.472 54.1229 22.2527 53.8989 22.122C53.6842 21.982 53.3295 21.912 52.8349 21.912H50.6789V23.662H52.8629ZM65.4567 19.196C65.3354 18.8413 65.1441 18.5893 64.8827 18.44C64.6307 18.2907 64.2667 18.216 63.7907 18.216C63.3147 18.216 62.9461 18.272 62.6847 18.384C62.4327 18.4867 62.3067 18.6407 62.3067 18.846C62.3067 18.9953 62.3627 19.1073 62.4747 19.182C62.5961 19.2567 62.8154 19.322 63.1327 19.378L65.4007 19.756C66.7541 19.98 67.7201 20.3393 68.2987 20.834C68.8867 21.3193 69.1807 22.0147 69.1807 22.92C69.1807 25.1413 67.4121 26.252 63.8747 26.252C60.5147 26.252 58.7274 25.0433 58.5127 22.626H62.0547C62.2041 23.4007 62.8154 23.788 63.8887 23.788C65.0367 23.788 65.6107 23.5407 65.6107 23.046C65.6107 22.8873 65.5314 22.766 65.3727 22.682C65.2234 22.5887 64.9807 22.514 64.6447 22.458L62.8387 22.178C61.4574 21.9633 60.4354 21.5947 59.7727 21.072C59.1101 20.54 58.7787 19.8307 58.7787 18.944C58.7787 17.9453 59.2314 17.166 60.1367 16.606C61.0514 16.0367 62.3161 15.752 63.9307 15.752C65.4334 15.752 66.6001 16.018 67.4307 16.55C68.2707 17.0727 68.7561 17.8567 68.8867 18.902L65.4567 19.196ZM81.678 22.122C81.5847 23.4193 81.0434 24.432 80.054 25.16C79.0647 25.888 77.744 26.252 76.092 26.252C74.8694 26.252 73.8147 26.0513 72.928 25.65C72.0507 25.2393 71.374 24.6373 70.898 23.844C70.422 23.0507 70.184 22.1033 70.184 21.002C70.184 19.9473 70.4174 19.0233 70.884 18.23C71.3507 17.4367 72.0274 16.8253 72.914 16.396C73.8007 15.9667 74.874 15.752 76.134 15.752C77.6367 15.752 78.8314 16.0553 79.718 16.662C80.6047 17.2687 81.1927 18.1833 81.482 19.406L77.898 19.77C77.758 19.3687 77.548 19.0793 77.268 18.902C76.9974 18.7247 76.6147 18.636 76.12 18.636C75.4014 18.636 74.8554 18.8367 74.482 19.238C74.118 19.6393 73.936 20.2273 73.936 21.002C73.936 22.5793 74.6827 23.368 76.176 23.368C77.268 23.368 77.9027 22.9527 78.08 22.122H81.678ZM89.9894 26L88.1274 22.948H86.4054V26H83.0454V16.004H88.3514C91.4968 16.004 93.0694 17.1473 93.0694 19.434C93.0694 20.1153 92.9341 20.6847 92.6634 21.142C92.4021 21.5993 91.9774 21.9727 91.3894 22.262L93.8254 26H89.9894ZM88.1414 20.442C88.7014 20.442 89.0934 20.3673 89.3174 20.218C89.5414 20.0687 89.6534 19.8167 89.6534 19.462C89.6534 19.1167 89.5414 18.874 89.3174 18.734C89.0934 18.5847 88.7108 18.51 88.1694 18.51H86.4054V20.442H88.1414ZM94.9536 26V16.004H98.5656V26H94.9536ZM100.696 26V16.004H106.212C109.115 16.004 110.566 16.8673 110.566 18.594C110.566 19.5367 110.043 20.2367 108.998 20.694C109.651 20.9087 110.137 21.212 110.454 21.604C110.781 21.9867 110.944 22.472 110.944 23.06C110.944 24.0213 110.561 24.754 109.796 25.258C109.04 25.7527 107.934 26 106.478 26H100.696ZM106.072 19.798C106.809 19.798 107.178 19.5507 107.178 19.056C107.178 18.7947 107.089 18.6127 106.912 18.51C106.735 18.398 106.441 18.342 106.03 18.342H103.972V19.798H106.072ZM106.156 23.662C106.651 23.662 107.001 23.592 107.206 23.452C107.421 23.312 107.528 23.088 107.528 22.78C107.528 22.472 107.416 22.2527 107.192 22.122C106.977 21.982 106.623 21.912 106.128 21.912H103.972V23.662H106.156ZM112.618 26V16.004H121.662V18.566H116.146V19.686H121.382V22.234H116.146V23.438H122.012L121.718 26H112.618Z" fill="#0A0A0A"/>
</svg>
