<svg width="325" height="33" viewBox="0 0 325 33" fill="none" xmlns="http://www.w3.org/2000/svg">
<path d="M155.21 11.8664C155.213 10.7704 154.706 10.4249 153.702 10.4306C152.407 10.4391 151.111 10.4957 149.816 10.4929C148.018 10.4929 147.694 10.6968 147.673 12.4101C147.643 14.7634 147.772 17.1167 147.763 19.47C147.76 20.4073 147.562 21.3447 147.451 22.282C146.438 21.4495 145.664 20.6792 145.095 19.7928C143.482 17.2809 141.953 14.7209 140.385 12.1864C139.773 11.198 138.988 10.5609 137.639 10.6147C135.447 10.7025 133.253 10.6232 131.061 10.6826C130.186 10.7081 129.317 10.9177 128.195 11.0819C128.339 17.853 128.468 24.3776 128.627 30.8995C128.645 31.6754 129.176 32.069 130.015 32.069C131.457 32.069 132.902 32.1285 134.344 32.0747C135.66 32.0265 136.101 31.531 136.065 30.2594C136.002 28.0109 135.798 25.7596 135.855 23.5139C135.888 22.2311 135.243 20.8293 136.398 19.4048C137.276 20.4753 138.142 21.373 138.82 22.3811C140.685 25.1621 142.417 28.0223 144.33 30.772C144.72 31.3327 145.655 31.8368 146.363 31.8651C148.695 31.9586 151.039 31.834 153.381 31.7688C153.953 31.7518 154.523 31.6471 155.147 31.5763C155.198 30.5908 155.282 29.7525 155.279 28.9143C155.258 23.2307 155.195 17.5471 155.216 11.8635L155.21 11.8664Z" fill="#FAF8EC"/>
<path d="M289.181 13.4759C285.783 10.3651 281.618 9.59477 277.272 9.53008C274.219 9.48598 271.253 10.074 268.387 11.2266C264.266 12.8849 261.65 16.7719 261.812 21.2587C261.95 25.1781 264.099 27.9125 267.059 30.0588C268.905 31.3967 271.017 32.0612 273.318 32.2111C274.769 32.3052 276.201 32.7256 277.641 32.9991C281.843 33.0403 285.573 31.6701 288.853 29.2209C290.097 28.2918 291.002 26.754 291.779 25.3339C292.713 23.6315 292.531 21.7027 292.364 19.7856C292.136 17.1982 291.031 15.1636 289.181 13.4729V13.4759ZM282.223 26.1777C281.428 27.0657 279.113 27.8566 277.192 27.8419C275.196 28.0889 273.289 27.295 271.941 25.7249C270.354 23.8785 270.072 21.5174 270.605 19.1065C271.169 16.5602 272.935 15.3312 275.273 14.8049C277.854 14.2256 280.314 14.6373 282.189 16.5749C284.369 18.8301 284.268 23.902 282.226 26.1777H282.223Z" fill="#FAF8EC"/>
<path d="M319.33 22.5235C320.131 21.9518 320.611 21.4561 321.202 21.2167C324.853 19.7353 326.032 14.7534 322.177 12.23C320.093 10.8641 317.726 10.6219 315.4 10.5261C311.202 10.3487 306.992 10.4726 302.788 10.4726C301.277 10.4726 299.763 10.4726 297.932 10.4726C297.932 12.1568 297.897 13.6381 297.938 15.1195C298.08 20.2479 298.261 25.3735 298.395 30.4991C298.415 31.237 298.561 31.8369 299.39 31.9383C301.475 32.1945 303.551 32.172 305.743 31.6397C305.743 31.0708 305.749 30.5667 305.743 30.0598C305.728 28.7474 305.723 27.4378 305.688 26.1255C305.659 24.9849 306.037 24.4188 307.382 24.4864C308.91 24.5624 310.456 24.3737 311.994 24.3118C314.556 24.2104 315.391 25.0834 315.604 27.5702C315.732 29.0769 316.25 30.5526 316.573 31.9439H325.001C323.391 30.4963 323.511 28.6038 323.161 26.9028C322.751 24.9088 322 23.2303 319.333 22.5206L319.33 22.5235ZM313.764 19.6875C311.228 19.8226 308.678 19.7213 305.819 19.7213C305.749 18.606 305.67 17.35 305.571 15.7588C307.239 15.6686 308.669 15.5701 310.098 15.5194C311.161 15.4828 312.224 15.5081 313.286 15.4997C314.227 15.4912 314.902 15.7982 315.379 16.6797C316.18 18.1554 315.551 19.5889 313.764 19.6847V19.6875Z" fill="#FAF8EC"/>
<path d="M231.586 11.9397C229.148 10.6771 226.758 9.54717 223.806 9.63941C221.192 9.72012 218.581 9.27333 215.94 9.75471C212.803 10.3283 210.009 11.3949 207.781 13.7095C202.83 18.8462 204.784 25.7729 210.135 29.1945C213.242 31.1805 216.648 32.1058 220.364 32.0972C221.547 32.0107 222.748 32.0078 223.914 31.8147C225.488 31.5524 227.003 31.1517 228.523 30.555C229.892 30.0189 231.227 29.5634 232.446 28.7102C239.201 23.9857 236.614 14.5397 231.589 11.9339L231.586 11.9397ZM227.618 22.1957C227.287 24.5017 225.87 26.0957 223.576 26.8683C222.987 27.0672 222.315 27.0441 221.574 27.1363C220.663 27.0844 219.641 27.0989 218.647 26.9547C216.253 26.6088 214.894 25.0696 214.034 23.0259C213.263 21.1926 213.932 17.5145 215.244 16.2836C217.661 14.0151 222.097 13.4559 224.909 15.2286C227.511 16.8688 228.013 19.4458 227.618 22.1957Z" fill="#FAF8EC"/>
<path d="M57.5029 27.4624C55.3079 27.4913 53.1129 27.5811 50.918 27.6013C48.178 27.6274 45.438 27.6071 42.7222 27.6071C42.0568 24.8912 42.4271 24.289 44.6462 24.2311C47.895 24.1471 51.1438 24.1732 54.3956 24.1645C55.3621 24.1645 56.2985 24.0574 56.3888 22.9079C56.4701 21.8684 56.422 20.8087 56.3075 19.7693C56.2835 19.5492 55.7294 19.2336 55.4073 19.2162C53.8205 19.1323 52.2277 19.1149 50.6349 19.1062C47.904 19.0917 45.1731 19.1033 42.4361 19.1033C42.385 18.7037 42.3458 18.3708 42.3006 18.0378C42.0959 16.5496 42.4723 16.066 43.9988 16.0313C47.9522 15.9415 51.9056 15.8605 55.8619 15.8228C58.09 15.8025 58.2677 15.6983 58.37 13.5876C58.4032 12.9187 58.3791 12.247 58.3188 11.581C58.2556 10.8832 57.9244 10.4055 57.0783 10.4316C55.7776 10.4692 54.4769 10.4837 53.1792 10.4982C47.63 10.5619 42.0839 10.6024 36.5347 10.695C34.7673 10.724 34.3518 11.1902 34.3427 12.9129C34.3247 16.4251 34.2705 19.9401 34.3367 23.4522C34.3879 26.142 34.6137 28.829 34.7462 31.5188C34.7944 32.5033 35.231 33.0331 36.3269 32.9984C37.4771 32.9636 38.6273 33.0071 39.7805 32.9839C45.2875 32.8797 50.7975 32.7986 56.3015 32.622C57.1084 32.5959 58.5146 32.1935 58.5838 31.7939C58.8126 30.4794 58.5778 29.0838 58.4393 27.7258C58.4272 27.6071 57.8311 27.4595 57.5089 27.4624H57.5029Z" fill="#FAF8EC"/>
<path d="M119.701 16.126C119.689 14.8295 119.819 13.5331 119.805 12.2394C119.79 10.9769 119.069 10.3752 117.804 10.4345C116.556 10.4938 115.307 10.5588 114.056 10.5927C112.707 10.6294 112.519 10.8469 112.568 12.2027C112.632 13.8409 112.675 15.482 112.669 17.123C112.663 18.7104 112.252 19.1454 110.622 19.168C107.674 19.2104 104.723 19.1793 101.482 19.1793C101.311 18.2981 101.054 17.5383 101.042 16.7728C101.022 15.5074 101.178 14.242 101.227 12.9766C101.309 10.9317 100.77 10.4176 98.737 10.5447C97.6858 10.6097 96.6317 10.669 95.5805 10.7255C94.0369 10.8102 93.8719 10.9542 93.8921 12.5134C93.9529 16.9027 94.0311 21.2921 94.1209 25.6814C94.1528 27.2293 94.1788 28.7799 94.3091 30.3221C94.4308 31.7796 94.8536 32.079 96.3479 32.079C97.5468 32.079 98.7457 32.0677 99.9446 32.0959C100.886 32.1185 101.355 31.8446 101.288 30.7882C101.19 29.2008 101.254 27.6049 101.265 26.0119C101.274 24.4782 101.589 24.1675 103.087 24.1533C103.657 24.1477 104.228 24.1166 104.798 24.1166C107.286 24.111 109.77 24.1166 112.429 24.1166C112.545 24.9244 112.704 25.5882 112.721 26.2576C112.756 27.6614 112.75 29.068 112.69 30.4718C112.655 31.322 113.066 31.8559 113.842 31.9039C115.47 32.0056 117.106 31.9801 118.739 31.9773C119.657 31.9773 120.112 31.6158 120.068 30.5905C119.941 27.4496 119.924 24.303 119.848 21.1565C119.808 19.4787 119.706 17.8038 119.695 16.126H119.701Z" fill="#FAF8EC"/>
<path d="M88.6812 23.2577C87.3161 23.2632 85.9481 23.346 84.583 23.2963C83.5541 23.2604 82.9987 23.6277 82.5953 24.5278C82.2065 25.392 81.7301 26.3225 81.0168 26.9354C79.3039 28.4126 75.0537 28.6197 72.987 27.5705C69.5085 25.8034 68.959 21.6093 70.213 18.7709C71.5693 15.7034 75.0595 14.8502 78.6667 15.6702C80.5696 16.1037 82.0195 17.0342 82.7649 18.8537C82.911 19.2127 83.5599 19.5882 83.9926 19.6075C85.7347 19.6848 87.4857 19.6517 89.2337 19.5992C89.9791 19.5772 90.4731 19.1658 90.1866 18.4065C89.2892 16.0236 87.9768 13.9225 85.5418 12.633C82.6012 11.073 79.45 10.3193 76.6117 10.4546C70.6661 10.1343 64.7351 13.0527 62.5223 17.1474C60.2364 21.3829 61.4904 27.5594 65.5886 30.3039C69.6576 33.0291 74.3551 33.2114 79.0057 32.8745C81.1279 32.7199 83.3027 31.7204 85.2057 30.6933C87.4915 29.4563 89.146 27.4959 90.0229 25.0745C90.5666 23.5752 90.3036 23.2494 88.6783 23.2549L88.6812 23.2577Z" fill="#FAF8EC"/>
<path d="M191.504 13.5038C192.756 13.8566 194.006 14.4126 194.478 15.7936C195.052 17.4736 196.145 17.925 197.658 17.7935C198.079 17.7576 198.506 17.7875 198.93 17.7875C198.93 17.7875 198.93 17.7905 198.93 17.7935C199.26 17.7935 199.588 17.7875 199.919 17.7935C200.295 17.8025 200.671 17.8443 201.047 17.8413C202.107 17.8293 202.454 17.372 202.067 16.3437C201.007 13.5337 199.379 11.211 196.742 9.85088C191.321 7.05588 185.846 6.99011 180.438 9.79109C175.269 12.4665 172.609 19.2194 175.3 24.9917C177.044 28.7314 180.181 30.6146 183.774 31.5025C187.666 32.465 191.623 32.2707 195.459 30.8358C198.836 29.5714 200.934 27.0006 202.056 23.4971C202.429 22.3313 201.999 21.8231 200.826 21.8201C199.368 21.8141 197.906 21.8739 196.448 21.844C195.56 21.8261 195.026 22.2057 194.755 23.0846C194.639 23.4582 194.483 23.8289 194.297 24.1697C193.065 26.4296 190.091 27.6104 187.202 26.7465C185.936 26.3668 184.412 25.8078 183.68 24.7885C181.883 22.2834 181.626 19.2523 183.067 16.4782C184.822 13.0973 187.674 12.4217 191.507 13.5038H191.504Z" fill="#FAF8EC"/>
<path d="M168.527 16.7966C168.491 14.5553 168.519 12.314 168.519 9.97839C166.188 9.31866 164.09 9.6986 161.876 9.52777C161.769 10.161 161.59 10.7176 161.598 11.2713C161.678 17.689 161.795 24.1097 161.881 30.5273C161.894 31.5552 162.265 32.1031 163.182 32.0972C164.604 32.0913 166.024 32.0707 167.447 32.0412C168.543 32.0206 168.849 31.57 168.818 30.3065C168.701 25.8032 168.602 21.2999 168.527 16.7937V16.7966Z" fill="#FAF8EC"/>
<path d="M259.152 26.4371C256.011 26.3398 252.871 26.2625 249.73 26.1794C249.689 26.1222 249.631 26.0964 249.563 26.0993C249.48 24.5647 249.351 23.0273 249.321 21.4927C249.255 17.851 249.236 14.2064 249.201 10.5618C248.66 10.2297 248.145 9.6743 247.577 9.61131C246.271 9.4653 244.938 9.55692 243.619 9.54834C242.151 9.53975 241.945 9.72584 241.945 11.2461C241.945 14.3839 241.959 17.5217 241.992 20.6624C242.011 22.5119 242.074 24.3614 242.118 26.2109C242.137 27.4792 242.115 28.7504 242.203 30.0158C242.233 30.4539 242.546 30.8719 242.727 31.3013C242.919 31.4072 243.111 31.5103 243.303 31.6162C246.927 31.6735 250.553 31.7336 254.176 31.7909C254.56 31.7966 254.947 31.8023 255.331 31.8081C257.079 31.9025 258.826 31.997 260.699 32.0972C260.872 30.0931 261.245 28.3238 260.162 26.6804C259.824 26.5974 259.49 26.4543 259.152 26.4428V26.4371Z" fill="#FAF8EC"/>
<path d="M32.3785 0.57553C30.0905 0.587037 27.7997 0.587039 25.5117 0.61293C22.1228 0.650328 18.7368 0.702111 15.348 0.748139C13.9999 0.768277 12.649 0.788412 11.3009 0.80855C11.0278 0.80855 10.7548 0.80855 10.4817 0.80855C9.78898 0.802796 9.09627 0.797043 8.40355 0.79129C6.65882 0.86321 4.91408 0.920748 3.16935 1.01856C4.91121 0.920748 6.65882 0.86321 8.40355 0.79129C5.99485 0.751014 3.58614 0.710738 1.17743 0.67334C1.14294 0.67334 1.10845 0.664713 1.0797 0.650329C0.0564332 0.181412 0.0104404 0.894853 0.00756606 1.61693C-0.00105699 4.05933 -0.00679727 6.06158 0.0161975 8.50686C0.0161975 8.6622 0.0420646 8.80892 0.0679338 8.92112C0.0966773 9.0477 0.220269 9.12536 0.349615 9.10523C1.53385 8.92974 2.59162 9.07646 3.60914 9.03906C6.39438 8.94125 10.5133 8.97289 13.3014 8.94988C13.3014 9.3814 13.3302 9.50798 13.3072 10.0574C13.3331 14.4331 13.3503 19.6487 13.3877 23.8833C13.3934 24.4903 13.5084 25.0945 13.5745 25.7015C13.5745 25.7101 13.5745 25.7216 13.5745 25.7302V32.4849C13.5745 32.6058 13.6607 32.7065 13.7786 32.7295C14.3448 32.8417 14.8248 32.974 15.3077 32.9826C17.0755 33.0143 18.8461 32.9941 20.6167 32.9884C22.3614 32.9855 22.5712 32.6403 22.5339 30.8452C22.3786 23.7625 22.2895 16.6798 22.1861 9.59716C22.1861 9.41879 22.2522 9.23756 22.3154 9.01893C22.3442 8.92112 22.4304 8.85207 22.531 8.84344C22.9851 8.80316 23.399 8.75138 23.8158 8.74275C26.7304 8.67658 29.6421 8.62192 32.5567 8.56439C33.2839 8.55 34.0399 8.59892 34.2267 7.62656C34.2526 5.82568 34.3474 4.02193 34.2842 2.22393C34.2325 0.7769 33.9019 0.5669 32.3814 0.57553H32.3785Z" fill="#FAF8EC"/>
</svg>
