<svg width="128" height="45" viewBox="0 0 128 45" fill="none" xmlns="http://www.w3.org/2000/svg">
<path fill-rule="evenodd" clip-rule="evenodd" d="M127.602 16.1254C123.208 16.2642 119.701 18.9339 119.701 22.2082C119.701 25.4824 123.208 28.1521 127.602 28.291V38.7211C123.279 38.7211 119.76 41.2549 119.623 44.4163H7.98316C7.93216 41.197 4.37799 38.5967 0 38.5967V28.2967C4.55844 28.2967 8.25777 25.5692 8.25777 22.2082C8.25777 18.8471 4.56237 16.1196 0 16.1196V5.69522C4.32307 5.69522 7.84195 3.16144 7.97925 0H119.619C119.666 3.21929 123.22 5.81959 127.602 5.81959V16.1254ZM29.9881 20.7709V27.8689H33.6001V20.7709H37.1421V17.8729H26.4461V20.7709H29.9881ZM38.362 17.8729V27.8689H41.974V17.8729H38.362ZM53.4038 27.0289C54.3931 26.3009 54.9344 25.2882 55.0278 23.9909H51.4298C51.2524 24.8216 50.6178 25.2369 49.5258 25.2369C48.0324 25.2369 47.2858 24.4482 47.2858 22.8709C47.2858 22.0962 47.4678 21.5082 47.8318 21.1069C48.2051 20.7056 48.7511 20.5049 49.4698 20.5049C49.9644 20.5049 50.3471 20.5936 50.6178 20.7709C50.8978 20.9482 51.1078 21.2376 51.2478 21.6389L54.8318 21.2749C54.5424 20.0522 53.9544 19.1376 53.0678 18.5309C52.1811 17.9242 50.9865 17.6209 49.4838 17.6209C48.2238 17.6209 47.1504 17.8356 46.2638 18.2649C45.3771 18.6942 44.7004 19.3056 44.2338 20.0989C43.7671 20.8922 43.5338 21.8162 43.5338 22.8709C43.5338 23.9722 43.7718 24.9196 44.2478 25.7129C44.7238 26.5062 45.4004 27.1082 46.2778 27.5189C47.1644 27.9202 48.2191 28.1209 49.4418 28.1209C51.0938 28.1209 52.4144 27.7569 53.4038 27.0289ZM61.1832 24.0189L63.8012 27.8689H67.8892L63.5772 21.7229L67.5252 17.8729H63.5072L60.0072 21.2889V17.8729H56.3952V27.8689H60.0072V25.0689L61.1832 24.0189ZM78.1404 17.8729H69.0964V27.8689H78.1964L78.4904 25.3069H72.6244V24.1029H77.8604V21.5549H72.6244V20.4349H78.1404V17.8729ZM82.7206 20.7709V27.8689H86.3326V20.7709H89.8745V17.8729H79.1786V20.7709H82.7206ZM96.6524 20.3089C96.9137 20.4582 97.1051 20.7102 97.2264 21.0649L100.656 20.7709C100.526 19.7256 100.04 18.9416 99.2004 18.4189C98.3697 17.8869 97.2031 17.6209 95.7004 17.6209C94.0857 17.6209 92.8211 17.9056 91.9064 18.4749C91.0011 19.0349 90.5484 19.8142 90.5484 20.8129C90.5484 21.6996 90.8797 22.4089 91.5424 22.9409C92.2051 23.4636 93.2271 23.8322 94.6084 24.0469L96.4144 24.3269C96.7504 24.3829 96.9931 24.4576 97.1424 24.5509C97.3011 24.6349 97.3804 24.7562 97.3804 24.9149C97.3804 25.4096 96.8064 25.6569 95.6584 25.6569C94.5851 25.6569 93.9737 25.2696 93.8244 24.4949H90.2824C90.4971 26.9122 92.2844 28.1209 95.6444 28.1209C99.1817 28.1209 100.95 27.0102 100.95 24.7889C100.95 23.8836 100.656 23.1882 100.068 22.7029C99.4897 22.2082 98.5237 21.8489 97.1704 21.6249L94.9024 21.2469C94.5851 21.1909 94.3657 21.1256 94.2444 21.0509C94.1324 20.9762 94.0764 20.8642 94.0764 20.7149C94.0764 20.5096 94.2024 20.3556 94.4544 20.2529C94.7157 20.1409 95.0844 20.0849 95.5604 20.0849C96.0364 20.0849 96.4004 20.1596 96.6524 20.3089Z" fill="#FAF8EC"/>
</svg>
