<svg width="553" height="148" viewBox="0 0 553 148" fill="none" xmlns="http://www.w3.org/2000/svg">
<path fill-rule="evenodd" clip-rule="evenodd" d="M526.692 9.96143C526.213 9.91455 525.907 9.39746 525.788 8.58301C524.661 13.2197 520.542 16.6816 515.527 16.9634L509.511 17.3081C504.279 17.6055 499.016 17.6055 493.781 17.3081L487.429 16.9478C481.832 16.6343 477.306 12.3579 476.806 6.92236L476.246 0.766602C476.222 0.51123 476.202 0.255859 476.183 0H84.3755C84.3769 0.447754 84.3691 0.897461 84.3608 1.354L84.3603 1.37646C84.4077 2.36035 84.4262 3.32959 84.4008 4.31348L84.3867 4.29883H84.1689L83.7651 8.54297C83.3056 13.3896 78.8115 17.1787 73.2309 17.4722L67.2153 17.7808C61.9677 18.0449 56.7197 18.0449 51.4848 17.7808L45.1333 17.4575C39.5356 17.1787 35.0117 13.375 34.5141 8.51367L34.0771 4.29883H33.8452C33.7978 3.2417 33.8081 2.18408 33.8476 1.12695C33.83 0.748535 33.8169 0.374512 33.813 0H1.41012L1.42673 4.22559H2.81882C2.78854 7.66211 2.7153 11.0986 2.58346 14.5352C2.55612 15.1338 2.23727 15.7261 1.9194 16.3159C1.7778 16.5791 1.6362 16.8423 1.52096 17.105C1.35739 19.209 1.16305 21.3145 0.96823 23.4204L0.966765 23.4292L0.965301 23.438C0.517547 28.2788 0.0697927 33.1226 0.00778103 37.959C-0.0537424 42.7681 0.260222 47.5771 0.573699 52.3862C0.713347 54.5239 0.852996 56.6611 0.959441 58.7988C0.974578 59.0044 0.992644 59.2104 1.01071 59.4146L1.01511 59.4644L1.01755 59.4893C1.03464 59.6821 1.05173 59.873 1.06589 60.0615L1.15671 61.1191C1.59079 64.585 2.02487 68.0361 2.4736 71.502C2.58932 75.2026 3.87887 78.7129 9.14938 80.5483C14.8261 82.5317 20.812 84.1357 26.7661 85.731L26.7734 85.7324L27.8154 86.0117C28.2021 86.1162 28.7539 86.1465 29.3208 86.1162C30.2641 86.0659 31.2495 85.8481 31.583 85.5269C34.8432 82.373 39.6172 82.4692 44.1601 82.5605C45.0117 82.5776 45.8549 82.5942 46.6787 82.5898C52.7549 82.5557 58.833 82.9326 64.9038 83.3091C66.6118 83.415 68.3188 83.521 70.0249 83.6177C74.4482 83.8677 76.4292 86.2612 77.6206 90.6523C77.8061 91.3154 77.915 91.9849 78.0234 92.6519C78.0786 92.9897 78.1333 93.3271 78.1982 93.6631C83.519 95.0952 88.5346 94.0488 93.5107 93.0103L93.5649 92.9985C94.0815 92.8911 94.5976 92.7842 95.1137 92.6792C99.7368 91.7344 104.333 90.7148 108.929 89.6958L108.935 89.6943C118.48 87.5776 128.022 85.4614 137.792 84.0146L139.565 83.749L141.656 83.4321C152.602 81.7681 163.747 80.0742 175.216 81.2827C178.145 81.5913 181.019 82.1348 183.862 82.7075C188.099 83.5444 192.19 84.2788 193.928 80.064L194.262 80.1489L194.606 80.2344C194.886 80.3037 195.164 80.3726 195.437 80.4458C195.499 81.2822 195.557 82.1152 195.614 82.9482C195.672 83.7822 195.729 84.6162 195.79 85.4536C197.534 86.1045 199.287 86.7461 201.04 87.3872C202.649 87.9761 204.258 88.5649 205.86 89.1611C208.183 90.0259 210.492 90.9067 212.764 91.8271C216.028 93.1499 219.234 94.5386 222.439 95.9268L222.476 95.9429C227.66 98.187 232.84 100.43 238.25 102.387C239.977 103.013 241.603 103.801 243.234 104.591C247.226 106.526 251.247 108.475 256.845 108.1C256.995 108.089 257.162 108.104 257.335 108.138C257.864 108.243 258.451 108.528 258.79 108.804C260.194 109.96 261.534 111.148 262.87 112.332L262.889 112.35C263.346 112.755 263.802 113.16 264.261 113.562C268.646 115.442 273.018 117.322 273.149 121.346C274.428 122.015 275.709 122.681 276.991 123.347L277.493 123.608L279.668 124.738C280.392 125.114 281.115 125.492 281.837 125.87C284.652 127.977 287.467 130.075 290.288 132.179L290.653 132.45L292.976 134.182C293.616 134.332 294.255 134.484 294.895 134.637C295.854 134.866 296.813 135.098 297.771 135.33C299.572 135.765 301.374 136.201 303.181 136.622C305.22 137.097 307.267 137.553 309.33 137.971C312.972 138.709 316.658 139.354 320.344 139.999C323.325 140.52 326.307 141.042 329.265 141.613C333.727 142.468 338.16 143.397 342.595 144.327L345.219 144.877C346.155 145.072 347.09 145.267 348.026 145.46C353.636 145.123 358.869 144.829 364.314 147.062C366.356 147.901 369.309 147.751 372.268 147.6C373.602 147.532 374.937 147.464 376.19 147.487L378.694 145.231C381.011 143.144 383.331 141.053 385.667 138.969C386.455 138.268 387.273 137.578 388.103 136.891C388.56 136.513 389.02 136.136 389.479 135.76C392.406 133.363 395.334 130.965 397.384 128.278C400.922 123.656 403.282 118.586 405.602 113.601L405.763 113.254C407.273 110.005 408.433 106.685 409.592 103.362C410.1 101.91 410.607 100.457 411.144 99.0088C412.016 95.8003 412.884 92.5913 413.752 89.3828L413.834 89.0781C414.675 85.9707 415.516 82.8628 416.36 79.7554C416.75 79.1113 417.152 78.4717 417.554 77.833C418.445 76.417 419.333 75.0049 420.077 73.5581C422.019 69.7983 423.816 66.0093 425.614 62.2056C430.115 52.7041 442.228 51.0298 452.562 49.9868C456.091 49.6323 459.433 49.9727 462.73 50.3091C465.987 50.6411 469.202 50.9688 472.514 50.6187C472.926 50.5762 473.366 50.5835 473.794 50.5908C475.295 50.6167 476.653 50.6401 476.159 48.5039C475.735 46.7065 476.189 44.8101 476.641 42.9243C476.816 42.1909 476.992 41.4585 477.115 40.7349C478.021 35.4038 480.944 33.7441 488.789 34.0381C489.406 34.0576 490.03 34.0249 490.655 33.9927C490.97 33.9761 491.286 33.9595 491.601 33.9497C492.101 33.979 492.602 34.0049 493.102 34.0308C493.602 34.0562 494.103 34.082 494.603 34.1113H497.285C497.874 34.0723 498.462 34.0234 499.05 33.9741L499.074 33.9727C500.242 33.8755 501.409 33.7783 502.59 33.7588C511.187 33.627 517.904 31.0566 523.818 27.0474C526.337 25.3354 529.164 23.8281 531.993 22.3198L532.023 22.3037C533.26 21.644 534.497 20.9844 535.709 20.3066C537.005 19.4077 538.283 18.4927 539.56 17.5781L539.577 17.5649L539.58 17.562C542.613 15.3892 545.647 13.2163 548.94 11.2451C552.324 9.21875 552.793 6.72217 552.899 4.22559L552.883 0H526.634C526.613 0.375977 526.587 0.751465 526.556 1.12695L526.113 6.43701C526.228 6.31152 526.388 6.21777 526.561 6.20215C527.315 6.09229 527.42 7.0791 527.453 8.14453C527.486 9.14697 527.287 10.0083 526.706 9.9458L526.692 9.96143ZM94.937 21.731C98.2724 18.1772 103.561 17.2812 109.061 18.5298L109.215 19.1104C109.267 19.3047 109.318 19.499 109.37 19.6899C106.964 20.0273 104.559 20.3691 102.154 20.7104L101.525 20.7998C99.3296 21.1113 97.1333 21.4229 94.937 21.731ZM158.424 6.61914C159.427 6.17432 160.305 5.78662 161.12 5.42773L161.895 5.08643C162.481 4.82715 163.043 4.57861 163.605 4.32812C163.729 4.43115 163.856 4.53027 163.983 4.62939C164.111 4.72852 164.238 4.82764 164.362 4.93066C163.879 5.13086 163.68 5.59619 163.474 6.07812C163 7.18652 162.489 8.37988 158.41 6.61914H158.424ZM170.906 9.45312L170.808 9.15967C170.746 8.97266 170.684 8.78516 170.625 8.60205C171.176 8.52832 171.723 8.4585 172.27 8.38916C172.817 8.31934 173.364 8.24951 173.915 8.17578C173.966 8.32275 174.02 8.47363 174.076 8.62402C174.13 8.77441 174.186 8.9248 174.237 9.07178C173.15 9.29199 172.078 9.49756 170.992 9.70312L170.906 9.45312ZM212.977 31.3359C212.615 31.5415 212.268 31.7471 211.906 31.9673L211.68 31.6294C211.603 31.5156 211.527 31.4019 211.454 31.2915L211.975 29.5786L212.234 28.729C212.496 27.8735 212.757 27.0181 213.014 26.1665L213.827 26.2764L214.639 26.3867C214.367 27.2085 214.091 28.0337 213.816 28.8589C213.54 29.686 213.264 30.5127 212.991 31.3359H212.977ZM222.884 32.6279C222.656 32.5884 222.428 32.5527 222.198 32.5171L221.961 32.48L221.607 32.4224C221.745 32.0464 221.883 31.6704 222.025 31.2881C222.149 30.9531 222.277 30.6133 222.411 30.2637C222.597 30.3208 222.772 30.3711 222.926 30.415L222.976 30.4297C223.307 30.5244 223.523 30.5869 223.514 30.6162C223.385 31.1235 223.216 31.6309 223.048 32.1318L222.884 32.6279Z" fill="#FAF8EC"/>
</svg>
