<svg width="3" height="209" viewBox="0 0 3 209" fill="none" xmlns="http://www.w3.org/2000/svg">
<g clip-path="url(#clip0_314_2908)">
<path d="M2.77579 206.663C2.61565 206.472 2.46618 206.233 2.43416 205.809C2.43416 205.689 2.3274 205.456 2.3274 205.456C2.11387 205.217 2.16725 204.745 2.16725 204.273C2.11387 203.921 1.90035 203.681 2.11387 203.209C2.00711 202.737 2.06049 202.146 1.90035 201.793C1.68683 201.321 1.63345 200.849 1.79359 200.257L1.95373 200.257C1.84697 199.546 1.79359 198.961 1.68683 198.249C1.74021 198.01 1.84697 197.897 1.95373 197.777C1.84697 197.425 1.58007 197.186 1.95373 196.953C1.95373 196.481 1.95373 196.008 1.74021 195.656L1.74021 194.479C1.68683 194.24 1.63345 194.007 1.58007 193.534C1.74021 193.773 1.84697 193.887 2.00711 194.126C1.84697 193.415 1.74021 192.829 1.58007 192.238L1.95373 192.238C1.90035 191.646 1.84697 191.174 1.79359 190.702C1.90035 190.582 1.95373 190.463 2.00711 190.349C1.95373 190.11 1.84697 189.877 1.84697 189.525C2.06049 189.172 2.06049 188.7 1.95373 188.228C1.84697 187.756 1.68683 187.403 1.95373 187.045L1.95373 186.806C1.90035 186.453 1.95373 185.981 1.95373 185.742C1.90035 185.389 1.95373 185.15 1.95373 184.798C1.95373 184.559 1.90035 184.445 1.90035 184.206C1.84697 183.854 1.79359 183.495 1.79359 183.142C1.84697 182.551 1.74021 182.079 1.58007 181.487L1.95373 181.487C1.95373 181.248 1.84697 181.015 1.95373 180.662L1.95373 180.31C1.84697 180.071 1.79359 179.838 1.95373 179.718L1.95373 178.535C1.90035 178.416 1.79359 178.182 1.68683 177.83C1.95373 177.477 2.11387 177.005 1.95373 176.294C1.84697 175.941 1.95373 175.469 1.95373 174.997C1.95373 174.525 1.84697 174.173 1.84697 173.701L1.84697 172.876C1.79359 172.756 1.68683 172.523 1.58007 172.165L1.84697 172.165C2.00711 171.46 1.58007 171.221 1.58007 170.629C1.63345 170.509 1.74021 170.509 1.79359 170.509L1.79359 168.854C2.00711 168.382 1.79359 167.671 1.79359 166.966L1.79359 166.374C1.95373 165.43 1.95373 164.605 1.63345 163.894C1.68683 163.775 1.74021 163.661 1.84697 163.542C1.74021 163.303 1.63345 163.069 1.52669 162.717C1.63345 162.478 1.74021 162.245 1.79359 162.012C1.84697 161.892 1.84697 161.659 1.84697 161.42C1.79359 160.715 1.74021 160.004 1.68683 159.412C1.58007 158.701 1.68683 158.115 1.68683 157.524L1.68683 156.46C1.90035 156.108 1.68683 155.869 1.68683 155.516C1.63345 155.163 1.47331 154.452 1.47331 154.452L1.74021 154.452C1.79359 153.747 1.84697 153.036 1.63345 152.564C1.68683 152.092 1.68683 151.62 1.68683 151.148C1.84697 151.148 1.79359 150.676 1.79359 150.436C1.74021 150.197 1.74021 149.845 1.74021 149.492L1.74021 148.901C1.79359 148.548 1.63345 148.076 1.63345 147.604L1.79359 147.604C1.74021 147.371 1.68683 147.132 1.68683 147.132C1.63345 147.012 1.58007 146.779 1.58007 146.779C1.52669 146.188 1.52669 145.955 1.41993 145.716C1.58007 145.477 1.68683 145.243 1.79359 145.004C1.79359 144.532 1.47331 144.06 1.79359 143.469C1.74021 143.349 1.63345 143.116 1.63345 142.997C1.7758 142.602 1.74021 142.05 1.52669 141.341L1.79359 141.341C1.74021 140.989 1.68683 140.75 1.63345 140.397C1.68683 140.277 1.74021 140.158 1.79359 140.158C1.74021 139.919 1.63345 139.686 1.63345 139.447C1.68683 139.208 1.74021 139.208 1.74021 139.208C1.63345 138.503 1.84697 137.792 1.58007 137.2C1.90035 136.256 1.74021 135.312 1.47331 134.487C1.68683 134.134 1.74021 133.543 1.79359 132.951C1.84697 132.126 1.63345 131.654 1.52669 131.182C1.63345 130.83 1.79359 130.477 1.79359 130.119C1.74021 129.766 1.58007 129.527 1.47331 129.055C1.58007 129.288 1.68683 129.288 1.74021 129.288L1.74021 129.168C1.68683 128.929 1.58007 128.577 1.58007 128.344C1.68683 128.105 1.79359 127.872 1.79359 127.752C1.79359 127.16 1.74021 126.688 1.58007 126.336C1.47331 126.097 1.36655 125.864 1.31317 125.511C1.41993 125.631 1.52669 125.75 1.63345 125.75C1.74021 125.511 1.52669 125.159 1.74021 125.039C1.74021 125.039 1.79359 124.447 1.74021 124.334C1.52669 123.629 1.52669 123.037 1.79359 122.446C1.68683 122.093 1.58007 121.74 1.47331 121.382C1.52669 121.501 1.63345 121.621 1.68683 121.621L1.68683 119.613C1.68683 118.902 1.58007 118.316 1.47331 117.605L1.68683 117.605C1.63345 117.133 1.58007 116.541 1.58007 116.069C1.58007 115.597 1.58007 115.245 1.68683 114.886L1.68683 114.294C1.52669 113.822 1.52669 113.583 1.68683 113.35C1.58007 112.878 1.47331 112.406 1.36655 111.934L1.68683 111.934C1.58007 110.751 1.74021 109.573 1.58007 108.39L1.58007 108.038C1.68683 107.566 1.63345 107.213 1.41993 106.974C1.47331 106.854 1.47331 106.621 1.47331 106.621C1.68683 105.916 1.68683 105.558 1.47331 104.966C1.31317 104.494 1.20641 104.022 1.41993 103.43L1.41993 103.078C1.15303 102.367 1.47331 101.661 1.31317 100.95L1.31317 100.711L1.52669 100.711C1.47331 100.359 1.41993 100.12 1.41993 99.7671C1.41993 99.5281 1.52669 99.1755 1.52669 98.8229C1.52669 98.4703 1.36655 98.2313 1.25979 97.8787C1.36655 97.7592 1.41993 97.5261 1.52669 97.5261C1.41993 97.054 1.31317 96.582 1.52669 96.1099C1.36655 95.7573 1.25979 95.3987 1.09965 95.1657C1.20641 95.4047 1.31317 95.4047 1.47331 95.4047C1.36655 94.6996 1.31317 93.9884 1.47331 93.3968C1.47331 93.2773 1.36655 93.0442 1.36655 92.8052C1.36655 92.5662 1.15303 92.3331 1.36655 91.9805C1.47331 91.861 1.31317 91.5084 1.47331 91.1559C1.63345 90.9168 1.63345 90.4507 1.47331 90.0922C1.36655 89.7396 1.25979 89.5005 1.36655 89.0285C1.36655 89.0285 1.31317 88.9089 1.31317 88.6759L1.52669 88.6759L1.52669 85.8433C1.52669 85.4907 1.31317 84.8991 1.31317 84.8991C1.3879 84.5047 1.36655 83.9549 1.25979 83.2438L1.58007 83.2438C1.47331 82.8912 1.36655 82.5327 1.25979 82.1801C1.36655 82.1801 1.47331 82.4132 1.58007 82.4132C1.47331 82.0606 1.36655 81.8216 1.25979 81.3495C1.31317 81.1104 1.41993 80.8774 1.52669 80.5248C1.52669 80.2858 1.41993 79.8196 1.41993 79.3416C1.47331 79.2221 1.52669 79.1025 1.58007 79.1025C1.31317 78.3974 1.31317 77.5667 1.41993 76.6226C1.47331 76.1505 1.41993 75.7979 1.52669 75.3258C1.58007 75.0927 1.41993 74.7342 1.41993 74.3816C1.41993 74.1426 1.52669 73.79 1.52669 73.4374C1.52669 73.1984 1.41993 72.9653 1.36655 72.8458C1.25979 72.6068 1.15303 72.3737 1.15303 72.0211C1.25979 72.1407 1.36655 72.2542 1.52669 72.3737L1.52669 71.9016C1.52669 71.1965 1.41993 70.4853 1.52669 69.7742C1.58007 69.4216 1.41993 69.0691 1.36655 68.7105C1.41993 68.4775 1.47331 68.2384 1.52669 68.0054C1.47331 67.7723 1.36655 67.5333 1.47331 67.1807C1.52669 67.0612 1.36655 66.7086 1.25979 66.356C1.31317 66.2365 1.47331 66.2365 1.47331 66.2365L1.47331 65.6449C1.41993 65.1728 1.36655 64.7007 1.36655 64.2286L1.36655 63.9896C1.58007 63.398 1.47331 62.8064 1.36655 62.3343C1.25979 62.2147 1.36655 61.8622 1.36655 61.7426C1.52669 61.0375 1.52669 60.4459 1.36655 59.8543L1.36655 59.5017C1.36655 59.1491 1.58007 58.9101 1.47331 58.438C1.41993 58.0854 1.36655 57.6133 1.36655 57.2548C1.31317 56.7827 1.31317 56.4301 1.31317 55.958C1.36655 55.958 1.41993 56.0775 1.58007 56.197C1.36655 55.7249 1.41993 55.3724 1.41993 55.0138C1.47331 54.7748 1.41993 54.4222 1.41993 54.1892L1.41993 52.8924C1.63345 52.3008 1.52669 51.5956 1.52669 51.004C1.58007 50.2929 1.58007 49.7073 1.31317 49.1156C1.20641 48.9961 1.20641 48.7631 1.20641 48.524C1.31317 48.524 1.41993 48.7631 1.52669 48.7631L1.52669 48.524C1.47331 48.1714 1.41993 47.9324 1.41993 47.6994C1.52669 46.9882 1.41993 46.4026 1.31317 45.811C1.36655 45.6915 1.47331 45.5719 1.52669 45.4584C1.41993 45.1058 1.36655 44.8668 1.25979 44.6337C1.47331 44.2812 1.63345 44.0421 1.47331 43.4505L1.47331 43.0979C1.58007 42.5063 1.52669 42.0342 1.41993 41.5621C1.36655 41.4426 1.31317 41.09 1.47331 40.9705L1.47331 40.3789C1.36655 39.9068 1.31317 39.4347 1.20641 38.9626C1.09965 38.7236 1.09965 38.6101 1.20641 38.371C1.31317 38.132 1.31317 37.7794 1.36655 37.4268C1.47331 37.1878 1.47331 36.8352 1.36655 36.6022L1.36655 36.2496C1.52669 35.658 1.41993 35.0664 1.25979 34.5943C1.20641 34.4748 1.20641 34.2417 1.20641 34.2417L1.41993 34.2417C1.31317 34.0027 1.25979 33.7696 1.15303 33.417L1.47331 33.417C1.41993 33.178 1.36655 32.9449 1.31317 32.7059C1.58007 32.4669 1.41993 31.9948 1.41993 31.6422C1.41993 31.2896 1.20641 30.9311 1.41993 30.459C1.47331 30.3395 1.31317 29.9869 1.25979 29.6343L1.47331 29.6343C1.52669 28.4511 1.25979 27.3934 1.25979 26.0906C1.31317 26.2101 1.36655 26.2101 1.47331 26.2101C1.31317 25.8576 1.63346 25.499 1.47331 25.0269C1.31317 24.6743 1.31317 24.2022 1.20641 23.7302C1.31317 23.6106 1.36655 23.4911 1.41993 23.4911C1.36655 23.2521 1.25979 23.019 1.15303 22.5469C1.31317 22.6664 1.41993 22.8995 1.52669 22.8995L1.52669 22.3079C1.58007 21.8358 1.58007 21.3637 1.58007 20.8916C1.58007 20.3 1.58007 19.5949 1.25979 19.1228C1.20641 19.1228 1.20641 18.8837 1.15303 18.6507C1.25979 18.7702 1.31317 18.8897 1.41993 18.8897C1.31317 18.4176 1.68684 18.1786 1.58007 17.5929C1.47331 17.0013 1.41993 16.5292 1.31317 15.9376L1.52669 15.9376L1.52669 15.4655C1.36655 14.6409 1.58007 13.8102 1.36655 13.1051C1.36655 13.1051 1.47331 12.866 1.47331 12.7525C1.41993 12.633 1.36655 12.5134 1.31317 12.2804C1.63346 11.6888 1.36655 11.0972 1.31317 10.392C1.36655 10.153 1.41993 10.0394 1.52669 9.8004C1.41993 9.56137 1.31317 9.20879 1.20641 8.97573C1.31317 8.7367 1.41993 8.50364 1.52669 8.2646C1.36655 7.79251 1.25979 7.32042 1.15303 6.72881L1.52669 6.72881C1.47331 5.90414 1.15303 5.31252 1.20641 4.36834C1.25979 4.48785 1.31317 4.60737 1.41993 4.60737C1.63346 3.89624 1.20641 3.7827 1.20641 3.19109C1.31317 3.31061 1.41993 3.31061 1.52669 3.31061C1.41993 2.95803 1.31317 2.719 1.20641 2.36642C1.25979 1.89433 1.52669 1.65529 1.36655 1.1832L1.41993 0.944165C1.63346 0.824647 1.7936 0.352554 2.04982 0.352554C2.16726 0.352554 2.29538 0.310723 2.41281 0.310723C1.92171 -0.0777087 1.46264 -0.0717329 0.950184 0.15535C1.00356 0.746961 0.950184 0.98002 0.843423 0.98002C0.736662 0.860503 0.57652 0.627444 0.57652 0.98002C0.6299 1.3326 0.416378 1.3326 0.416378 1.57163C0.523139 2.04372 0.202855 2.63534 0.416378 3.22695C0.469758 3.34646 0.416378 3.69904 0.416378 3.69904C0.256236 4.05162 0.309616 4.29065 0.416378 4.64323C0.523139 4.88226 0.683281 5.70693 0.683281 5.70693L0.416378 5.70693C0.416378 6.05951 0.469758 6.41806 0.416377 6.5316C0.149475 7.24273 0.309616 7.82837 0.416377 8.41998C0.149474 9.01159 0.309616 9.6032 0.309616 10.1888C0.256236 10.9 0.68328 11.2525 0.68328 11.8441L0.469758 11.8441C0.523139 12.0832 0.576519 12.1967 0.6299 12.4358L0.469758 12.4358C0.202855 13.1469 0.469758 13.852 0.6299 14.4437C0.523139 14.6827 0.469758 14.9157 0.362997 15.0353C0.416377 15.5074 0.523139 15.8599 0.6299 16.332C0.309616 16.4515 0.523138 17.0432 0.416377 17.2762C0.256235 17.7483 0.523138 17.9873 0.523138 18.4594C0.469758 18.579 0.362996 18.6985 0.362996 18.812L0.362996 19.5231C0.309616 19.9952 0.362996 20.4673 0.416377 20.9394L0.416377 21.6505C0.309616 22.0031 0.309616 22.4752 0.309616 22.8338C0.256235 23.1863 0.309616 23.5449 0.309616 23.8975C0.309616 24.6086 0.256235 25.3138 0.523138 25.9054C0.576519 26.0249 0.469758 26.2579 0.469758 26.497C0.362996 26.3775 0.309616 26.3775 0.256235 26.3775C0.0960932 27.2021 0.309616 27.7937 0.576519 28.5049C0.416377 28.2658 0.362996 28.2658 0.309616 28.2658C0.362996 28.3854 0.469757 28.6184 0.469757 28.8574L0.309616 28.8574C0.309616 29.0965 0.523138 29.3295 0.309616 29.5686L0.309615 30.0407C0.362996 30.2797 0.469757 30.3932 0.523138 30.6323L0.523138 30.8713L0.202854 30.8713C0.309615 31.4629 0.416377 31.8155 0.523138 32.2876C0.416377 32.4071 0.362996 32.4071 0.309615 32.4071C0.416377 32.7597 0.523138 33.1182 0.309615 33.4708C0.256235 33.5903 0.256235 33.8234 0.256235 33.9429C0.309615 34.5345 0.256235 35.1261 0.469757 35.5982L0.469757 36.0703L0.202854 36.0703C0.256235 36.4229 0.362996 36.895 0.416376 37.2535L0.309615 37.2535C0.309615 38.1977 0.0960927 39.0224 0.309615 39.853L0.309615 40.3251C0.256234 41.0363 0.0427118 41.7414 0.309615 42.4525C0.362995 42.6916 0.362995 43.2772 0.309615 43.2772C0.149473 43.3967 0.202854 43.7493 0.202854 43.9883C0.202854 44.4604 0.309615 45.052 0.362995 45.6437C0.0960921 46.3548 0.0960921 46.7074 0.362995 47.6516C0.469756 48.0041 0.576518 48.4762 0.683279 48.8348C0.576518 48.7153 0.416376 48.4822 0.256234 48.2432L0.256234 48.9543C0.256234 49.4264 0.362995 49.8985 0.362995 50.3706C0.309615 51.0817 0.416376 51.5538 0.629898 52.0259L0.629898 52.3785C0.469756 52.3785 0.362995 52.1394 0.202853 52.1394C0.256234 52.9641 0.256234 53.7947 0.309614 54.6194C0.309614 54.972 0.309614 55.3305 0.202853 55.5636C0.256234 55.8026 0.309614 55.9162 0.362995 56.1552C0.149472 56.3942 0.149472 56.7468 0.256234 57.0994C0.309614 57.3384 0.416376 57.5715 0.469756 57.8105L0.469756 57.93L0.256234 57.93C0.256234 58.5217 0.629898 59.2268 0.256233 59.9379C0.523137 60.6491 0.523137 61.4737 0.523137 62.2984C0.469756 62.5315 0.362995 62.651 0.362995 62.7705L0.362995 63.1231C0.202853 63.3621 0.256233 63.5952 0.362994 63.9477L0.362994 64.3003C0.202853 65.0055 0.362995 65.5971 0.523136 66.1887C0.469756 66.3082 0.416375 66.4277 0.416375 66.5413C0.256233 67.1329 0.256233 67.605 0.523136 68.0771C0.576517 68.1966 0.629897 68.4296 0.683278 68.5492C0.523136 68.3101 0.416375 68.0771 0.309614 67.9575C0.416375 68.5492 0.683278 69.0213 0.469756 69.7264C0.416375 69.8459 0.309614 69.8459 0.309614 69.8459L0.309614 71.2622C0.309614 71.7343 0.416375 72.0869 0.523136 72.559L0.362994 72.559C0.416375 73.1506 0.469756 73.7422 0.469756 74.0948C0.416375 74.4473 0.309614 74.6864 0.309614 74.8059C0.309614 75.278 0.416374 75.7501 0.416374 76.2222C0.416374 76.5748 0.469755 77.0468 0.416374 77.2859C0.309613 77.758 0.416375 77.997 0.523136 78.3496C0.576517 78.5886 0.683278 78.7022 0.683277 78.9412C0.629897 78.8217 0.523136 78.5886 0.469755 78.5886C0.523136 78.9412 0.523136 79.2997 0.523136 79.2997C0.362994 79.6523 0.416375 79.8913 0.523136 80.3634L0.523136 80.9551C0.309613 81.5467 0.416374 81.8992 0.523136 82.3713C0.629897 82.6104 0.736658 82.9629 0.843419 83.435C0.629897 83.3155 0.523136 83.3155 0.416374 83.3155C0.149471 83.7876 0.576516 84.0207 0.469755 84.6123C0.416374 84.8513 0.629897 85.3174 0.736658 85.909C0.576516 85.7895 0.523135 85.5565 0.416374 85.5565L0.362994 85.5565C0.523135 86.1481 0.629897 86.7397 0.736658 87.4449C0.683277 87.7974 0.523135 88.389 0.416374 88.8611C0.629897 89.2137 0.576516 89.6858 0.469755 90.1579C0.629897 90.63 0.736658 91.1021 0.843419 91.4547C0.736658 91.3351 0.629896 91.1021 0.523135 90.9826C0.309613 91.3351 0.736658 91.6877 0.523135 92.1658C0.416374 92.4048 0.683277 92.7574 0.629896 93.2295C0.629896 93.4685 0.736658 93.9346 0.790038 94.4067L0.469755 94.4067C0.576516 94.8788 0.683277 95.1179 0.790038 95.4704L0.523135 95.4704C0.576516 95.7095 0.683277 95.9425 0.683277 96.1816C0.629896 96.3011 0.523135 96.5341 0.523135 96.6537C0.523135 97.0062 0.523135 97.4783 0.683277 97.8309L0.683277 98.0699L0.523135 98.0699L0.523135 99.4862C0.576516 99.9583 0.683277 100.197 0.683277 100.669C0.683277 101.142 0.523135 101.494 0.523135 101.853L0.523135 103.388C0.469754 104.213 0.469754 104.924 0.736657 105.516L0.736657 105.749L0.523135 105.749C0.576515 106.102 0.629896 106.341 0.629896 106.574L0.629896 107.757C0.629896 108.109 0.469754 108.468 0.629896 108.821L0.576515 109.06L0.576515 109.532C0.629896 109.884 0.736657 110.123 0.790038 110.476C0.683276 110.595 0.629896 110.709 0.523134 110.709C0.576515 111.181 0.683276 111.773 0.736657 112.245C0.629896 112.364 0.576515 112.364 0.523134 112.364L0.523134 112.836C0.362993 113.308 0.683276 113.781 0.523134 114.253C0.736657 114.605 0.576515 114.844 0.523134 115.077C0.629895 115.782 0.683276 116.374 0.790037 116.966C0.576515 116.846 0.469754 117.085 0.469754 117.438C0.469754 118.143 0.523134 118.734 0.736657 119.207C0.790037 119.326 0.790037 119.559 0.790037 119.559L0.576515 119.559C0.718863 120.189 0.701069 120.621 0.523134 120.856C0.629895 121.209 0.736656 121.681 0.896798 122.153C0.736656 122.272 0.576515 122.392 0.469753 122.505C0.523134 122.738 0.469753 123.097 0.469753 123.449L0.469753 126.754C0.469753 126.987 0.629895 127.226 0.683275 127.465C0.736656 127.585 0.843417 127.818 0.843417 127.937C0.790037 127.818 0.736656 127.704 0.629895 127.585C0.683275 127.818 0.790037 128.057 0.790037 128.176C0.683276 128.768 0.629895 128.296 0.469753 128.176C0.576514 128.648 0.576514 128.882 0.683275 129.121C0.896798 129.593 0.790037 130.065 0.790037 130.537C0.736656 130.889 0.629895 131.242 0.576514 131.481C0.683275 131.953 0.736656 132.186 0.843417 132.545C0.790037 132.664 0.683275 132.897 0.683275 132.897C0.790036 133.136 0.790037 133.369 0.790037 133.369C0.683275 133.608 0.576514 133.722 0.576514 133.841C0.523133 134.194 0.523133 134.433 0.523133 134.786C0.523133 135.258 0.469753 135.73 0.523133 136.082C0.629894 136.555 0.576514 136.907 0.523133 137.266C0.416372 137.857 0.416372 138.443 0.576514 138.921C0.683275 139.154 0.790036 139.393 0.576514 139.626L0.576514 141.042C0.683275 141.281 0.523133 141.514 0.523133 141.634C0.576514 142.106 0.629894 142.578 0.576514 142.811C0.469752 143.636 0.523133 144.347 0.576514 145.172C0.683275 145.763 0.790036 146.355 0.576514 146.827C0.683275 147.299 0.790036 147.771 0.896797 148.243L0.843416 148.243C0.736655 148.124 0.683275 147.891 0.576514 147.891C0.629894 148.482 0.683274 148.954 0.683274 149.546C0.416371 150.138 0.523133 150.371 0.736655 151.201C0.683275 151.673 0.576513 152.146 0.576513 152.498C0.683274 153.323 0.576513 154.034 0.576513 154.739C0.576513 155.564 0.629894 156.275 0.843416 156.98C0.790036 157.1 0.683274 157.1 0.683274 157.1C0.790035 157.691 0.736655 158.277 0.523132 158.868C0.683274 159.341 0.683274 159.693 0.523132 160.165C0.629893 160.398 0.736655 160.757 0.896797 161.109C0.576513 160.99 0.950177 161.934 0.576513 161.815C0.629893 161.934 0.683274 162.167 0.736655 162.406C0.416371 162.998 0.523132 163.703 0.736655 164.295C0.683274 164.414 0.576513 164.414 0.576513 164.414C0.523132 164.886 0.843416 165.239 0.576513 165.711C0.629893 165.95 0.683274 166.183 0.790035 166.422C0.629893 166.775 0.576512 167.247 0.629893 167.719L0.629893 168.424C0.523132 168.896 0.629893 169.488 0.523132 169.96C0.523132 170.079 0.629893 170.312 0.629893 170.551C0.683273 170.671 0.683273 170.904 0.683273 171.023C0.629893 171.376 0.683274 171.615 0.790035 171.848L0.790035 172.087C0.683274 172.207 0.576512 172.207 0.523132 172.207C0.309609 173.031 0.736654 173.27 0.736654 173.862L0.469751 173.862L0.469751 174.567C0.36299 175.159 0.41637 175.631 0.576512 176.103C0.683273 176.342 0.736654 176.694 0.843415 177.167C0.629893 176.928 0.523132 176.694 0.41637 176.342C0.36299 176.814 0.36299 177.286 0.523131 177.639C0.576512 177.758 0.683273 177.991 0.683273 178.23L0.683273 178.35C0.576512 178.23 0.523131 178.111 0.41637 178.111C0.523131 178.35 0.576512 178.702 0.683273 178.935C0.576512 179.055 0.523131 179.174 0.41637 179.174C0.523131 179.647 0.683273 179.999 0.790035 180.471C0.683273 180.352 0.576512 180.119 0.523131 180.119C0.309609 180.943 0.576512 181.415 0.736654 182.127C0.629892 182.007 0.576512 181.893 0.41637 181.893C0.469751 182.485 0.576512 182.957 0.576512 183.429C0.523131 184.14 0.629892 184.493 0.736654 185.085C0.790034 185.437 0.790034 185.676 0.629892 185.909L0.629892 186.148C0.790034 186.387 0.629892 186.62 0.629892 186.859L0.629892 187.571C0.683273 187.69 0.736653 187.81 0.629892 188.043C0.576511 188.282 0.683273 188.634 0.629892 188.867C0.46975 189.459 0.576512 189.811 0.736654 190.164C0.790034 190.284 0.843415 190.403 0.950176 190.756C0.790034 190.636 0.683273 190.517 0.523131 190.403C0.629892 190.875 0.736654 191.114 0.736654 191.347C0.790034 191.586 0.790034 192.058 0.790034 192.058C0.576512 192.531 0.736653 193.122 0.576512 193.594L0.576511 194.066C0.736653 194.419 0.629892 194.658 0.576511 195.01C0.587187 195.064 0.597863 195.112 0.619216 195.16L0.736653 195.483C0.736653 195.483 0.672596 195.339 0.619216 195.16L0.266904 194.216C0.266904 194.216 0.213523 194.186 0.202847 194.186C0.256228 194.305 0.256228 194.658 0.256228 194.658C0.0427051 195.13 0.202847 195.483 0.256228 195.841L0.256228 196.08C0.202847 195.961 0.0960858 195.841 -0.0106754 195.841C0.0960858 196.313 0.0960855 196.666 0.0960855 197.024C0.0960855 197.735 0.149466 197.969 0.0960854 198.68L0.0960854 199.391C0.149466 199.863 0.309608 200.335 0.416369 200.927C0.256227 200.807 0.202847 200.688 0.0960854 200.688C-0.0106759 201.632 0.0427048 201.751 0.362988 202.223C0.256227 202.343 0.202846 202.462 0.0960853 202.462L0.0960853 202.934C0.0960852 203.646 -0.0106758 204.351 0.202847 205.062C0.256227 205.301 0.256227 205.773 0.202847 206.006C0.0427046 206.831 0.0960851 207.542 0.096085 208.367C0.0427045 208.839 0.202846 209.078 0.416369 208.839C0.576511 208.839 0.736653 208.719 0.896794 208.839L1.1637 208.839C1.11032 208.6 1.05694 208.367 1.05694 208.014C1.32384 208.367 1.48398 208.606 1.63345 208.958L1.63345 208.247C1.79359 208.367 1.95373 208.486 2.06049 208.6C2.27401 209.072 2.54092 209.072 2.79714 209.072C2.87188 209.072 2.93593 209.042 2.99999 209.018C2.79714 208.271 2.73309 207.506 2.77579 206.735L2.77579 206.663Z" fill="#FBF8EC"/>
</g>
<defs>
<clipPath id="clip0_314_2908">
<rect width="209" height="2.99999" fill="white" transform="translate(3) rotate(90)"/>
</clipPath>
</defs>
</svg>
