<svg width="3" height="497" viewBox="0 0 3 497" fill="none" xmlns="http://www.w3.org/2000/svg">
<path d="M2.77578 491.444C2.61564 490.989 2.46617 490.421 2.43415 489.412C2.43415 489.127 2.32739 488.573 2.32739 488.573C2.11386 488.005 2.16724 486.882 2.16724 485.759C2.11386 484.921 1.90034 484.353 2.11386 483.23C2.0071 482.107 2.06048 480.7 1.90034 479.862C1.68682 478.739 1.63344 477.617 1.79358 476.21L1.95372 476.21C1.84696 474.519 1.79358 473.126 1.68682 471.435C1.7402 470.867 1.84696 470.597 1.95372 470.313C1.84696 469.474 1.58006 468.906 1.95372 468.351C1.95372 467.229 1.95372 466.106 1.7402 465.268L1.7402 462.468C1.68682 461.9 1.63344 461.346 1.58006 460.223C1.7402 460.791 1.84696 461.061 2.0071 461.63C1.84696 459.939 1.7402 458.546 1.58006 457.139L1.95372 457.139C1.90034 455.733 1.84696 454.61 1.79358 453.487C1.90034 453.203 1.95372 452.919 2.0071 452.649C1.95372 452.08 1.84696 451.526 1.84696 450.688C2.06049 449.849 2.06049 448.727 1.95372 447.604C1.84696 446.481 1.68682 445.643 1.95372 444.79L1.95372 444.222C1.90034 443.384 1.95372 442.261 1.95372 441.693C1.90034 440.854 1.95373 440.286 1.95373 439.447C1.95373 438.879 1.90034 438.609 1.90034 438.04C1.84696 437.202 1.79358 436.349 1.79358 435.511C1.84696 434.104 1.7402 432.981 1.58006 431.575L1.95373 431.575C1.95373 431.006 1.84696 430.452 1.95373 429.614L1.95373 428.775C1.84696 428.207 1.79358 427.652 1.95373 427.368L1.95373 424.555C1.90035 424.27 1.79358 423.716 1.68682 422.878C1.95373 422.039 2.11387 420.917 1.95373 419.226C1.84697 418.387 1.95373 417.265 1.95373 416.142C1.95373 415.019 1.84697 414.181 1.84697 413.058L1.84697 411.097C1.79359 410.813 1.68682 410.259 1.58006 409.406L1.84697 409.406C2.00711 407.729 1.58006 407.161 1.58006 405.754C1.63344 405.47 1.7402 405.47 1.79359 405.47L1.79359 401.533C2.00711 400.411 1.79359 398.72 1.79359 397.043L1.79359 395.636C1.95373 393.391 1.95373 391.43 1.63344 389.739C1.68683 389.454 1.74021 389.185 1.84697 388.9C1.74021 388.332 1.63345 387.778 1.52668 386.939C1.63345 386.371 1.74021 385.817 1.79359 385.262C1.84697 384.978 1.84697 384.424 1.84697 383.856C1.79359 382.179 1.74021 380.488 1.68683 379.081C1.58006 377.39 1.68683 375.997 1.68683 374.59L1.68683 372.061C1.90035 371.222 1.68683 370.654 1.68683 369.815C1.63345 368.977 1.4733 367.286 1.4733 367.286L1.74021 367.286C1.79359 365.609 1.84697 363.918 1.63345 362.795C1.68683 361.673 1.68683 360.55 1.68683 359.428C1.84697 359.428 1.79359 358.305 1.79359 357.737C1.74021 357.168 1.74021 356.33 1.74021 355.491L1.74021 354.084C1.79359 353.246 1.63345 352.123 1.63345 351.001L1.79359 351.001C1.74021 350.446 1.68683 349.878 1.68683 349.878C1.63345 349.594 1.58007 349.04 1.58007 349.04C1.52669 347.633 1.52669 347.079 1.41993 346.51C1.58007 345.942 1.68683 345.388 1.79359 344.819C1.79359 343.696 1.47331 342.574 1.79359 341.167C1.74021 340.883 1.63345 340.329 1.63345 340.044C1.77579 339.106 1.74021 337.794 1.52669 336.108L1.79359 336.108C1.74021 335.27 1.68683 334.701 1.63345 333.863C1.68683 333.579 1.74021 333.294 1.79359 333.294C1.74021 332.726 1.63345 332.172 1.63345 331.603C1.68683 331.035 1.74021 331.035 1.74021 331.035C1.63345 329.358 1.84697 327.667 1.58007 326.26C1.90035 324.015 1.74021 321.77 1.47331 319.809C1.68683 318.97 1.74021 317.563 1.79359 316.156C1.84697 314.195 1.63345 313.073 1.52669 311.95C1.63345 311.112 1.79359 310.273 1.79359 309.421C1.74021 308.582 1.58007 308.014 1.47331 306.891C1.58007 307.445 1.68683 307.445 1.74021 307.445L1.74021 307.161C1.68683 306.593 1.58007 305.754 1.58007 305.2C1.68683 304.632 1.79359 304.077 1.79359 303.793C1.79359 302.386 1.74021 301.264 1.58007 300.425C1.47331 299.857 1.36655 299.303 1.31317 298.464C1.41993 298.748 1.52669 299.033 1.63345 299.033C1.74021 298.464 1.52669 297.626 1.74021 297.342C1.74021 297.342 1.79359 295.935 1.74021 295.665C1.52669 293.988 1.52669 292.581 1.79359 291.174C1.68683 290.336 1.58007 289.497 1.47331 288.645C1.52669 288.929 1.63345 289.213 1.68683 289.213L1.68683 284.438C1.68683 282.747 1.58007 281.355 1.47331 279.664L1.68683 279.664C1.63345 278.541 1.58007 277.134 1.58007 276.012C1.58007 274.889 1.58007 274.051 1.68683 273.198L1.68683 271.791C1.52669 270.668 1.52669 270.1 1.68683 269.546C1.58007 268.423 1.47331 267.301 1.36655 266.178L1.68683 266.178C1.58007 263.364 1.74021 260.565 1.58007 257.751L1.58007 256.913C1.68683 255.79 1.63345 254.952 1.41993 254.383C1.47331 254.099 1.47331 253.545 1.47331 253.545C1.68683 251.868 1.68683 251.015 1.47331 249.608C1.31317 248.486 1.20641 247.363 1.41993 245.956L1.41993 245.118C1.15303 243.427 1.47331 241.75 1.31317 240.059L1.31317 239.49L1.52669 239.49C1.47331 238.652 1.41993 238.084 1.41993 237.245C1.41993 236.677 1.52669 235.838 1.52669 235C1.52669 234.161 1.36655 233.593 1.25979 232.755C1.36655 232.47 1.41993 231.916 1.52669 231.916C1.41993 230.794 1.31317 229.671 1.52669 228.548C1.36655 227.71 1.25979 226.857 1.09965 226.303C1.20641 226.871 1.31317 226.871 1.47331 226.871C1.36655 225.195 1.31317 223.504 1.47331 222.097C1.47331 221.812 1.36655 221.258 1.36655 220.69C1.36655 220.121 1.15303 219.567 1.36655 218.729C1.47331 218.445 1.31317 217.606 1.47331 216.768C1.63345 216.199 1.63345 215.091 1.47331 214.238C1.36655 213.4 1.25979 212.831 1.36655 211.709C1.36655 211.709 1.31317 211.425 1.31317 210.87L1.52669 210.87L1.52669 204.135C1.52669 203.296 1.31317 201.889 1.31317 201.889C1.3879 200.951 1.36655 199.644 1.25979 197.953L1.58007 197.953C1.47331 197.115 1.36655 196.262 1.25979 195.424C1.36655 195.424 1.47331 195.978 1.58007 195.978C1.47331 195.139 1.36655 194.571 1.25979 193.448C1.31317 192.88 1.41993 192.326 1.52669 191.487C1.52669 190.919 1.41993 189.81 1.41993 188.673C1.47331 188.389 1.52669 188.105 1.58007 188.105C1.31317 186.428 1.31317 184.453 1.41993 182.208C1.47331 181.085 1.41993 180.247 1.52669 179.124C1.58007 178.57 1.41993 177.717 1.41993 176.879C1.41993 176.31 1.52669 175.472 1.52669 174.633C1.52669 174.065 1.41993 173.511 1.36655 173.227C1.25979 172.658 1.15303 172.104 1.15303 171.266C1.25979 171.55 1.36655 171.82 1.52669 172.104L1.52669 170.981C1.52669 169.305 1.41993 167.613 1.52669 165.922C1.58007 165.084 1.41993 164.246 1.36655 163.393C1.41993 162.839 1.47331 162.27 1.52669 161.716C1.47331 161.162 1.36655 160.593 1.47331 159.755C1.52669 159.471 1.36655 158.632 1.25979 157.794C1.31317 157.51 1.47331 157.51 1.47331 157.51L1.47331 156.103C1.41993 154.98 1.36655 153.858 1.36655 152.735L1.36655 152.167C1.58007 150.76 1.47331 149.353 1.36655 148.23C1.25979 147.946 1.36655 147.108 1.36655 146.823C1.52669 145.147 1.52669 143.74 1.36655 142.333L1.36655 141.494C1.36655 140.656 1.58008 140.088 1.47331 138.965C1.41993 138.127 1.36655 137.004 1.36655 136.151C1.31317 135.029 1.31317 134.19 1.31317 133.068C1.36655 133.068 1.41993 133.352 1.58008 133.636C1.36655 132.513 1.41993 131.675 1.41993 130.822C1.47332 130.254 1.41993 129.415 1.41993 128.861L1.41993 125.778C1.63346 124.371 1.5267 122.694 1.5267 121.287C1.58008 119.596 1.58008 118.203 1.31317 116.797C1.20641 116.512 1.20641 115.958 1.20641 115.39C1.31317 115.39 1.41994 115.958 1.5267 115.958L1.5267 115.39C1.47332 114.551 1.41994 113.983 1.41994 113.429C1.5267 111.738 1.41994 110.345 1.31317 108.938C1.36656 108.654 1.47332 108.37 1.5267 108.1C1.41994 107.261 1.36656 106.693 1.25979 106.139C1.47332 105.3 1.63346 104.732 1.47332 103.325L1.47332 102.486C1.58008 101.08 1.5267 99.957 1.41994 98.8344C1.36656 98.5501 1.31318 97.7117 1.47332 97.4275L1.47332 96.0207C1.36656 94.898 1.31318 93.7754 1.20641 92.6528C1.09965 92.0843 1.09965 91.8143 1.20641 91.2459C1.31318 90.6775 1.31318 89.8391 1.36656 89.0006C1.47332 88.4322 1.47332 87.5938 1.36656 87.0396L1.36656 86.2012C1.5267 84.7943 1.41994 83.3875 1.2598 82.2648C1.20642 81.9806 1.20642 81.4264 1.20642 81.4264L1.41994 81.4264C1.31318 80.858 1.2598 80.3038 1.15303 79.4654L1.47332 79.4654C1.41994 78.8969 1.36656 78.3427 1.31318 77.7743C1.58008 77.2059 1.41994 76.0833 1.41994 75.2448C1.41994 74.4064 1.20642 73.5538 1.41994 72.4311C1.47332 72.1469 1.31318 71.3085 1.2598 70.4701L1.47332 70.4701C1.5267 67.6564 1.2598 65.1411 1.2598 62.0432C1.31318 62.3274 1.36656 62.3274 1.47332 62.3274C1.31318 61.489 1.63346 60.6364 1.47332 59.5137C1.31318 58.6753 1.31318 57.5527 1.20642 56.43C1.31318 56.1458 1.36656 55.8616 1.41994 55.8616C1.36656 55.2932 1.2598 54.739 1.15304 53.6164C1.31318 53.9006 1.41994 54.4548 1.5267 54.4548L1.5267 53.0479C1.58008 51.9253 1.58008 50.8027 1.58008 49.68C1.58008 48.2732 1.58008 46.5963 1.2598 45.4737C1.20642 45.4737 1.20642 44.9053 1.15304 44.3511C1.2598 44.6353 1.31318 44.9195 1.41994 44.9195C1.31318 43.7969 1.68684 43.2284 1.58008 41.8358C1.47332 40.429 1.41994 39.3063 1.31318 37.8995L1.5267 37.8995L1.5267 36.7768C1.36656 34.8158 1.58008 32.8405 1.36656 31.1637C1.36656 31.1637 1.47332 30.5953 1.47332 30.3253C1.41994 30.041 1.36656 29.7568 1.31318 29.2026C1.63346 27.7958 1.36656 26.3889 1.31318 24.7121C1.36656 24.1437 1.41994 23.8737 1.5267 23.3052C1.41994 22.7368 1.31318 21.8984 1.20642 21.3442C1.31318 20.7758 1.41994 20.2215 1.5267 19.6531C1.36656 18.5305 1.2598 17.4079 1.15304 16.001L1.5267 16.001C1.47332 14.04 1.15304 12.6331 1.20642 10.3878C1.2598 10.672 1.31318 10.9563 1.41994 10.9563C1.63346 9.2652 1.20642 8.9952 1.20642 7.58836C1.31318 7.87257 1.41994 7.87257 1.5267 7.87257C1.41994 7.03415 1.31318 6.46572 1.20642 5.6273C1.2598 4.50467 1.5267 3.93624 1.36656 2.81361L1.41994 2.24519C1.63346 1.96098 1.7936 0.838343 2.04983 0.838343C2.16727 0.838343 2.29538 0.738869 2.41282 0.738869C1.92172 -0.184817 1.46264 -0.170607 0.950193 0.369394C1.00357 1.77624 0.950193 2.33045 0.843432 2.33045C0.736671 2.04624 0.57653 1.49203 0.57653 2.33045C0.62991 3.16887 0.416389 3.16887 0.416389 3.7373C0.52315 4.85993 0.202867 6.26678 0.416388 7.67362C0.469769 7.95783 0.416388 8.79625 0.416388 8.79625C0.256247 9.63468 0.309628 10.2031 0.416388 11.0415C0.523149 11.6099 0.68329 13.571 0.68329 13.571L0.416388 13.571C0.416388 14.4094 0.469769 15.2621 0.416388 15.5321C0.149486 17.2231 0.309627 18.6158 0.416388 20.0226C0.149486 21.4294 0.309627 22.8363 0.309627 24.2289C0.256247 25.92 0.68329 26.7584 0.683289 28.1652L0.469768 28.1652C0.523148 28.7337 0.576529 29.0037 0.629909 29.5721L0.469768 29.5721C0.202866 31.2631 0.469768 32.94 0.629909 34.3468C0.523148 34.9153 0.469768 35.4695 0.363007 35.7537C0.416387 36.8763 0.523148 37.7147 0.629909 38.8374C0.309626 39.1216 0.523148 40.5284 0.416387 41.0826C0.256246 42.2053 0.523148 42.7737 0.523148 43.8963C0.469768 44.1805 0.363007 44.4648 0.363007 44.7348L0.363006 46.4258C0.309626 47.5484 0.363006 48.6711 0.416387 49.7937L0.416386 51.4848C0.309626 52.3232 0.309626 53.4458 0.309626 54.2985C0.256245 55.1369 0.309626 55.9895 0.309626 56.8279C0.309626 58.519 0.256245 60.1958 0.523147 61.6027C0.576528 61.8869 0.469767 62.4411 0.469767 63.0095C0.363006 62.7253 0.309626 62.7253 0.256245 62.7253C0.0961037 64.6864 0.309625 66.0932 0.576527 67.7843C0.416386 67.2159 0.363006 67.2159 0.309625 67.2159C0.363006 67.5001 0.469767 68.0543 0.469766 68.6227L0.309625 68.6227C0.309625 69.1911 0.523147 69.7453 0.309625 70.3138L0.309625 71.4364C0.363005 72.0048 0.469766 72.2748 0.523147 72.8432L0.523147 73.4117L0.202864 73.4117C0.309625 74.8185 0.416386 75.6569 0.523146 76.7796C0.416386 77.0638 0.363005 77.0638 0.309625 77.0638C0.416386 77.9022 0.523146 78.7548 0.309625 79.5933C0.256244 79.8775 0.256244 80.4317 0.256244 80.7159C0.309625 82.1227 0.256244 83.5296 0.469766 84.6522L0.469766 85.7748L0.202864 85.7748C0.256244 86.6133 0.363005 87.7359 0.416385 88.5885L0.309624 88.5885C0.309624 90.8338 0.0961025 92.7949 0.309624 94.7701L0.309624 95.8928C0.256243 97.5838 0.0427219 99.2607 0.309624 100.952C0.363004 101.52 0.363004 102.913 0.309624 102.913C0.149483 103.197 0.202863 104.035 0.202863 104.604C0.202863 105.726 0.309623 107.133 0.363004 108.54C0.0961017 110.231 0.0961017 111.07 0.363004 113.315C0.469764 114.153 0.576525 115.276 0.683286 116.129C0.576525 115.844 0.416384 115.29 0.256243 114.722L0.256243 116.413C0.256243 117.535 0.363003 118.658 0.363003 119.781C0.309623 121.472 0.416384 122.594 0.629905 123.717L0.629905 124.555C0.469764 124.555 0.363003 123.987 0.202862 123.987C0.256242 125.948 0.256242 127.923 0.309623 129.884C0.309623 130.723 0.309622 131.575 0.202862 132.13C0.256242 132.698 0.309622 132.968 0.363003 133.537C0.149481 134.105 0.149481 134.943 0.256242 135.782C0.309622 136.35 0.416383 136.904 0.469763 137.473L0.469763 137.757L0.256242 137.757C0.256242 139.164 0.629904 140.841 0.256242 142.532C0.523143 144.223 0.523143 146.184 0.523143 148.145C0.469763 148.699 0.363002 148.983 0.363002 149.268L0.363002 150.106C0.202861 150.674 0.256241 151.229 0.363002 152.067L0.363002 152.906C0.202861 154.582 0.363002 155.989 0.523143 157.396C0.469763 157.68 0.416382 157.964 0.416382 158.234C0.256241 159.641 0.256241 160.764 0.523143 161.887C0.576523 162.171 0.629903 162.725 0.683284 163.009C0.523143 162.441 0.416382 161.887 0.309621 161.602C0.416382 163.009 0.683284 164.132 0.469762 165.809C0.416382 166.093 0.309621 166.093 0.309621 166.093L0.309621 169.461C0.309621 170.583 0.416381 171.422 0.523142 172.545L0.363001 172.545C0.416381 173.951 0.469762 175.358 0.469762 176.197C0.416381 177.035 0.30962 177.603 0.30962 177.888C0.30962 179.01 0.416381 180.133 0.416381 181.256C0.416381 182.094 0.469761 183.217 0.416381 183.785C0.30962 184.908 0.416381 185.476 0.523142 186.315C0.576522 186.883 0.683283 187.153 0.683283 187.721C0.629902 187.437 0.523142 186.883 0.469761 186.883C0.523142 187.721 0.523141 188.574 0.523141 188.574C0.363 189.412 0.416381 189.981 0.523141 191.103L0.523141 192.51C0.30962 193.917 0.41638 194.756 0.523141 195.878C0.629902 196.447 0.736663 197.285 0.843424 198.408C0.629902 198.124 0.523141 198.124 0.41638 198.124C0.149478 199.246 0.576521 199.8 0.469761 201.207C0.41638 201.776 0.629902 202.884 0.736663 204.291C0.576521 204.007 0.523141 203.452 0.41638 203.452L0.363 203.452C0.523141 204.859 0.629902 206.266 0.736662 207.943C0.683282 208.781 0.523141 210.188 0.41638 211.311C0.629901 212.149 0.576521 213.272 0.46976 214.395C0.629901 215.517 0.736662 216.64 0.843423 217.478C0.736662 217.194 0.629901 216.64 0.52314 216.356C0.309619 217.194 0.736662 218.033 0.52314 219.169C0.416379 219.738 0.683281 220.576 0.629901 221.699C0.629901 222.267 0.736662 223.376 0.790042 224.498L0.46976 224.498C0.57652 225.621 0.683281 226.189 0.790042 227.028L0.52314 227.028C0.57652 227.596 0.683281 228.15 0.683281 228.719C0.6299 229.003 0.52314 229.557 0.52314 229.841C0.52314 230.68 0.52314 231.803 0.683281 232.641L0.683281 233.209L0.52314 233.209L0.523139 236.577C0.57652 237.7 0.68328 238.268 0.68328 239.391C0.68328 240.514 0.523139 241.352 0.523139 242.205L0.523139 245.857C0.469759 247.818 0.469759 249.509 0.73666 250.916L0.73666 251.47L0.523139 251.47C0.576519 252.308 0.629899 252.877 0.629899 253.431L0.629899 256.245C0.629899 257.083 0.469758 257.936 0.629899 258.774L0.576519 259.343L0.576519 260.465C0.629899 261.304 0.73666 261.872 0.79004 262.71C0.683279 262.995 0.629899 263.265 0.523138 263.265C0.576519 264.387 0.683279 265.794 0.73666 266.917C0.629899 267.201 0.576519 267.201 0.523138 267.201L0.523138 268.324C0.362997 269.446 0.683279 270.569 0.523138 271.692C0.73666 272.53 0.576518 273.098 0.523138 273.653C0.629898 275.329 0.683279 276.736 0.79004 278.143C0.576518 277.859 0.469757 278.427 0.469757 279.266C0.469757 280.943 0.523137 282.349 0.736659 283.472C0.790039 283.756 0.790039 284.311 0.790039 284.311L0.576518 284.311C0.718865 285.807 0.701072 286.835 0.523137 287.394C0.629898 288.233 0.736659 289.355 0.8968 290.478C0.736658 290.762 0.576517 291.046 0.469757 291.316C0.523137 291.871 0.469757 292.723 0.469757 293.562L0.469756 301.42C0.469756 301.974 0.629897 302.543 0.683277 303.111C0.736658 303.395 0.843419 303.95 0.843419 304.234C0.790038 303.95 0.736658 303.68 0.629897 303.395C0.683278 303.95 0.790038 304.518 0.790038 304.802C0.683278 306.209 0.629897 305.086 0.469756 304.802C0.576517 305.925 0.576517 306.479 0.683277 307.047C0.896799 308.17 0.790038 309.293 0.790038 310.415C0.736658 311.254 0.629897 312.092 0.576517 312.661C0.683277 313.783 0.736657 314.337 0.843418 315.19C0.790038 315.474 0.683277 316.029 0.683277 316.029C0.790038 316.597 0.790038 317.151 0.790038 317.151C0.683277 317.72 0.576516 317.99 0.576516 318.274C0.523136 319.112 0.523136 319.681 0.523136 320.519C0.523136 321.642 0.469755 322.764 0.523136 323.603C0.629896 324.725 0.576516 325.564 0.523135 326.416C0.416375 327.823 0.416375 329.216 0.576516 330.353C0.683276 330.907 0.790037 331.475 0.576516 332.03L0.576516 335.397C0.683276 335.966 0.523135 336.52 0.523135 336.804C0.576515 337.927 0.629896 339.05 0.576515 339.604C0.469754 341.565 0.523135 343.256 0.576515 345.217C0.683276 346.624 0.790036 348.031 0.576515 349.153C0.683276 350.276 0.790036 351.399 0.896797 352.521L0.843417 352.521C0.736656 352.237 0.683276 351.683 0.576515 351.683C0.629895 353.09 0.683275 354.212 0.683275 355.619C0.416373 357.026 0.523134 357.58 0.736656 359.555C0.683275 360.678 0.576514 361.801 0.576514 362.639C0.683275 364.6 0.576514 366.291 0.576514 367.968C0.576514 369.929 0.629894 371.62 0.843416 373.297C0.790035 373.581 0.683274 373.581 0.683274 373.581C0.790035 374.988 0.736655 376.381 0.523133 377.788C0.683274 378.91 0.683274 379.749 0.523133 380.871C0.629894 381.426 0.736654 382.278 0.896796 383.117C0.576513 382.832 0.950176 385.078 0.576513 384.793C0.629894 385.078 0.683274 385.632 0.736655 386.2C0.416372 387.607 0.523133 389.284 0.736654 390.691C0.683274 390.975 0.576513 390.975 0.576513 390.975C0.523133 392.098 0.843415 392.936 0.576513 394.059C0.629893 394.627 0.683274 395.181 0.790034 395.75C0.629893 396.588 0.576513 397.711 0.629893 398.833L0.629893 400.51C0.523132 401.633 0.629893 403.04 0.523132 404.162C0.523132 404.447 0.629893 405.001 0.629893 405.569C0.683273 405.853 0.683273 406.408 0.683273 406.692C0.629893 407.53 0.683273 408.099 0.790034 408.653L0.790034 409.221C0.683273 409.506 0.576512 409.506 0.523132 409.506C0.30961 411.467 0.736653 412.035 0.736653 413.442L0.469751 413.442L0.469751 415.119C0.362991 416.526 0.416371 417.648 0.576512 418.771C0.683273 419.339 0.736653 420.178 0.843414 421.3C0.629892 420.732 0.523131 420.178 0.41637 419.339C0.36299 420.462 0.36299 421.585 0.523131 422.423C0.576512 422.707 0.683272 423.261 0.683272 423.83L0.683272 424.114C0.576511 423.83 0.523131 423.546 0.41637 423.546C0.523131 424.114 0.576511 424.952 0.683272 425.507C0.576511 425.791 0.523131 426.075 0.41637 426.075C0.523131 427.198 0.683272 428.036 0.790033 429.159C0.683272 428.875 0.576511 428.32 0.523131 428.32C0.309609 430.281 0.576511 431.404 0.736653 433.095C0.629892 432.811 0.576511 432.541 0.41637 432.541C0.46975 433.948 0.576511 435.07 0.576511 436.193C0.523131 437.884 0.629892 438.723 0.736652 440.129C0.790032 440.968 0.790032 441.536 0.629891 442.09L0.629891 442.659C0.790032 443.227 0.629891 443.781 0.629891 444.35L0.629891 446.041C0.683271 446.325 0.736652 446.609 0.629891 447.164C0.57651 447.732 0.683271 448.57 0.629891 449.125C0.46975 450.531 0.57651 451.37 0.736652 452.208C0.790032 452.493 0.843412 452.777 0.950173 453.615C0.790032 453.331 0.683271 453.047 0.52313 452.777C0.629891 453.899 0.736652 454.468 0.736652 455.022C0.790032 455.59 0.790032 456.713 0.790032 456.713C0.57651 457.836 0.736651 459.243 0.57651 460.365L0.57651 461.488C0.736651 462.326 0.62989 462.895 0.57651 463.733C0.587186 463.861 0.597862 463.975 0.619214 464.088L0.736651 464.856C0.736651 464.856 0.672595 464.515 0.619214 464.088L0.266904 461.843C0.266904 461.843 0.213523 461.772 0.202847 461.772C0.256228 462.056 0.256228 462.895 0.256228 462.895C0.042706 464.017 0.202847 464.856 0.256227 465.708L0.256227 466.277C0.202847 465.993 0.0960862 465.708 -0.0106746 465.708C0.0960861 466.831 0.0960861 467.669 0.096086 468.522C0.096086 470.213 0.149466 470.767 0.0960859 472.458L0.0960858 474.149C0.149466 475.272 0.309607 476.395 0.416368 477.802C0.256227 477.517 0.202846 477.233 0.0960857 477.233C-0.0106752 479.478 0.0427051 479.763 0.362987 480.885C0.256227 481.169 0.202846 481.454 0.0960855 481.454L0.0960854 482.576C0.0960854 484.267 -0.0106755 485.944 0.202846 487.635C0.256226 488.204 0.256226 489.326 0.202846 489.881C0.0427048 491.842 0.096085 493.533 0.0960849 495.494C0.0427043 496.616 0.202846 497.185 0.416367 496.616C0.576508 496.616 0.73665 496.332 0.896791 496.616L1.16369 496.616C1.11031 496.048 1.05693 495.494 1.05693 494.655C1.32383 495.494 1.48398 496.062 1.63344 496.901L1.63344 495.209C1.79358 495.494 1.95372 495.778 2.06048 496.048C2.274 497.171 2.54091 497.171 2.79713 497.171C2.87187 497.171 2.93592 497.099 2.99998 497.043C2.79713 495.266 2.73308 493.447 2.77578 491.614L2.77578 491.444Z" fill="#363428"/>
</svg>
