<svg width="3" height="460" viewBox="0 0 3 460" fill="none" xmlns="http://www.w3.org/2000/svg">
<g clip-path="url(#clip0_845_1117)">
<path d="M2.77578 454.857C2.61564 454.437 2.46618 453.91 2.43415 452.977C2.43415 452.714 2.32739 452.201 2.32739 452.201C2.11387 451.674 2.16725 450.635 2.16725 449.596C2.11387 448.82 1.90034 448.294 2.11387 447.255C2.0071 446.216 2.06049 444.914 1.90034 444.138C1.68682 443.099 1.63344 442.06 1.79358 440.758L1.95372 440.758C1.84696 439.193 1.79358 437.904 1.68682 436.339C1.7402 435.812 1.84696 435.562 1.95372 435.299C1.84696 434.523 1.58006 433.997 1.95372 433.484C1.95372 432.445 1.95372 431.406 1.7402 430.63L1.7402 428.039C1.68682 427.513 1.63344 427 1.58006 425.961C1.7402 426.487 1.84696 426.737 2.00711 427.263C1.84696 425.698 1.7402 424.409 1.58006 423.107L1.95373 423.107C1.90034 421.805 1.84696 420.766 1.79358 419.727C1.90034 419.464 1.95373 419.201 2.00711 418.951C1.95373 418.425 1.84696 417.912 1.84696 417.136C2.06049 416.36 2.06049 415.321 1.95373 414.282C1.84696 413.242 1.68682 412.466 1.95373 411.677L1.95373 411.151C1.90035 410.375 1.95373 409.336 1.95373 408.81C1.90035 408.034 1.95373 407.508 1.95373 406.732C1.95373 406.206 1.90035 405.956 1.90035 405.43C1.84697 404.654 1.79358 403.865 1.79358 403.089C1.84697 401.787 1.7402 400.747 1.58006 399.445L1.95373 399.445C1.95373 398.919 1.84697 398.406 1.95373 397.63L1.95373 396.854C1.84697 396.328 1.79359 395.815 1.95373 395.552L1.95373 392.948C1.90035 392.685 1.79359 392.172 1.68682 391.396C1.95373 390.62 2.11387 389.581 1.95373 388.016C1.84697 387.24 1.95373 386.201 1.95373 385.162C1.95373 384.123 1.84697 383.347 1.84697 382.308L1.84697 380.492C1.79359 380.229 1.68682 379.716 1.58006 378.927L1.84697 378.927C2.00711 377.375 1.58006 376.849 1.58006 375.547C1.63344 375.284 1.74021 375.284 1.79359 375.284L1.79359 371.641C2.00711 370.602 1.79359 369.036 1.79359 367.484L1.79359 366.182C1.95373 364.104 1.95373 362.289 1.63345 360.724C1.68683 360.461 1.74021 360.211 1.84697 359.948C1.74021 359.422 1.63345 358.909 1.52668 358.133C1.63345 357.607 1.74021 357.094 1.79359 356.581C1.84697 356.318 1.84697 355.805 1.84697 355.279C1.79359 353.727 1.74021 352.162 1.68683 350.86C1.58007 349.294 1.68683 348.005 1.68683 346.703L1.68683 344.362C1.90035 343.586 1.68683 343.06 1.68683 342.284C1.63345 341.508 1.47331 339.943 1.47331 339.943L1.74021 339.943C1.79359 338.391 1.84697 336.826 1.63345 335.787C1.68683 334.748 1.68683 333.708 1.68683 332.669C1.84697 332.669 1.79359 331.63 1.79359 331.104C1.74021 330.578 1.74021 329.802 1.74021 329.026L1.74021 327.724C1.79359 326.948 1.63345 325.909 1.63345 324.87L1.79359 324.87C1.74021 324.357 1.68683 323.831 1.68683 323.831C1.63345 323.568 1.58007 323.055 1.58007 323.055C1.52669 321.753 1.52669 321.24 1.41993 320.714C1.58007 320.188 1.68683 319.675 1.79359 319.149C1.79359 318.109 1.47331 317.07 1.79359 315.768C1.74021 315.505 1.63345 314.992 1.63345 314.729C1.7758 313.861 1.74021 312.647 1.52669 311.086L1.79359 311.086C1.74021 310.31 1.68683 309.784 1.63345 309.008C1.68683 308.745 1.74021 308.482 1.79359 308.482C1.74021 307.956 1.63345 307.443 1.63345 306.917C1.68683 306.391 1.74021 306.391 1.74021 306.391C1.63345 304.838 1.84697 303.273 1.58007 301.971C1.90035 299.893 1.74021 297.815 1.47331 296C1.68683 295.224 1.74021 293.922 1.79359 292.62C1.84697 290.805 1.63345 289.766 1.52669 288.727C1.63345 287.951 1.79359 287.174 1.79359 286.385C1.74021 285.609 1.58007 285.083 1.47331 284.044C1.58007 284.557 1.68683 284.557 1.74021 284.557L1.74021 284.294C1.68683 283.768 1.58007 282.992 1.58007 282.479C1.68683 281.953 1.79359 281.44 1.79359 281.177C1.79359 279.875 1.74021 278.836 1.58007 278.06C1.47331 277.534 1.36655 277.021 1.31317 276.245C1.41993 276.508 1.52669 276.771 1.63345 276.771C1.74021 276.245 1.52669 275.469 1.74021 275.206C1.74021 275.206 1.79359 273.904 1.74021 273.654C1.52669 272.102 1.52669 270.799 1.79359 269.497C1.68683 268.721 1.58007 267.945 1.47331 267.156C1.52669 267.419 1.63345 267.682 1.68683 267.682L1.68683 263.263C1.68683 261.698 1.58007 260.409 1.47331 258.844L1.68683 258.844C1.63345 257.805 1.58007 256.503 1.58007 255.464C1.58007 254.424 1.58007 253.648 1.68683 252.859L1.68683 251.557C1.52669 250.518 1.52669 249.992 1.68683 249.479C1.58007 248.44 1.47331 247.401 1.36655 246.362L1.68683 246.362C1.58007 243.758 1.74021 241.167 1.58007 238.562L1.58007 237.786C1.68683 236.747 1.63345 235.971 1.41993 235.445C1.47331 235.182 1.47331 234.669 1.47331 234.669C1.68683 233.117 1.68683 232.328 1.47331 231.026C1.31317 229.987 1.20641 228.948 1.41993 227.646L1.41993 226.87C1.15303 225.305 1.47331 223.753 1.31317 222.187L1.31317 221.661L1.52669 221.661C1.47331 220.885 1.41993 220.359 1.41993 219.583C1.41993 219.057 1.52669 218.281 1.52669 217.505C1.52669 216.729 1.36655 216.203 1.25979 215.427C1.36655 215.164 1.41993 214.651 1.52669 214.651C1.41993 213.612 1.31317 212.573 1.52669 211.534C1.36655 210.758 1.25979 209.969 1.09965 209.456C1.20641 209.982 1.31317 209.982 1.47331 209.982C1.36655 208.43 1.31317 206.865 1.47331 205.562C1.47331 205.299 1.36655 204.786 1.36655 204.26C1.36655 203.734 1.15303 203.221 1.36655 202.445C1.47331 202.182 1.31317 201.406 1.47331 200.63C1.63345 200.104 1.63345 199.078 1.47331 198.289C1.36655 197.513 1.25979 196.987 1.36655 195.948C1.36655 195.948 1.31317 195.685 1.31317 195.172L1.52669 195.172L1.52669 188.937C1.52669 188.161 1.31317 186.859 1.31317 186.859C1.3879 185.991 1.36655 184.781 1.25979 183.216L1.58007 183.216C1.47331 182.44 1.36655 181.651 1.25979 180.875C1.36655 180.875 1.47331 181.388 1.58007 181.388C1.47331 180.612 1.36655 180.086 1.25979 179.047C1.31317 178.521 1.41993 178.008 1.52669 177.232C1.52669 176.706 1.41993 175.68 1.41993 174.627C1.47331 174.364 1.52669 174.101 1.58007 174.101C1.31317 172.549 1.31317 170.721 1.41993 168.643C1.47331 167.604 1.41993 166.828 1.52669 165.789C1.58007 165.276 1.41993 164.487 1.41993 163.711C1.41993 163.185 1.52669 162.409 1.52669 161.633C1.52669 161.107 1.41993 160.594 1.36655 160.331C1.25979 159.804 1.15303 159.291 1.15303 158.515C1.25979 158.779 1.36655 159.028 1.52669 159.291L1.52669 158.252C1.52669 156.7 1.41993 155.135 1.52669 153.57C1.58007 152.794 1.41993 152.018 1.36655 151.229C1.41993 150.716 1.47331 150.19 1.52669 149.677C1.47331 149.164 1.36655 148.638 1.47331 147.862C1.52669 147.599 1.36655 146.823 1.25979 146.047C1.31317 145.784 1.47331 145.784 1.47331 145.784L1.47331 144.482C1.41993 143.443 1.36655 142.404 1.36655 141.364L1.36655 140.838C1.58007 139.536 1.47331 138.234 1.36655 137.195C1.25979 136.932 1.36655 136.156 1.36655 135.893C1.52669 134.341 1.52669 133.039 1.36655 131.737L1.36655 130.961C1.36655 130.185 1.58008 129.659 1.47331 128.62C1.41993 127.844 1.36655 126.804 1.36655 126.015C1.31317 124.976 1.31317 124.2 1.31317 123.161C1.36655 123.161 1.41993 123.424 1.58008 123.687C1.36655 122.648 1.41993 121.872 1.41993 121.083C1.47331 120.557 1.41993 119.781 1.41993 119.268L1.41993 116.414C1.63346 115.112 1.5267 113.56 1.5267 112.258C1.58008 110.692 1.58008 109.404 1.31317 108.101C1.20641 107.838 1.20641 107.325 1.20641 106.799C1.31317 106.799 1.41993 107.325 1.5267 107.325L1.5267 106.799C1.47332 106.023 1.41993 105.497 1.41993 104.984C1.5267 103.419 1.41993 102.13 1.31317 100.828C1.36655 100.565 1.47332 100.302 1.5267 100.052C1.41994 99.276 1.36655 98.7499 1.25979 98.237C1.47332 97.461 1.63346 96.9348 1.47332 95.6327L1.47332 94.8567C1.58008 93.5546 1.5267 92.5156 1.41994 91.4765C1.36656 91.2135 1.31317 90.4374 1.47332 90.1744L1.47332 88.8723C1.36656 87.8332 1.31317 86.7942 1.20641 85.7551C1.09965 85.229 1.09965 84.9791 1.20641 84.453C1.31317 83.9269 1.31318 83.1509 1.36656 82.3749C1.47332 81.8488 1.47332 81.0728 1.36656 80.5598L1.36656 79.7838C1.5267 78.4817 1.41994 77.1796 1.25979 76.1405C1.20641 75.8775 1.20641 75.3645 1.20641 75.3645L1.41994 75.3645C1.31318 74.8384 1.25979 74.3255 1.15303 73.5495L1.47332 73.5495C1.41994 73.0234 1.36656 72.5104 1.31318 71.9843C1.58008 71.4582 1.41994 70.4191 1.41994 69.6431C1.41994 68.8671 1.20641 68.078 1.41994 67.0389C1.47332 66.7759 1.31318 65.9999 1.2598 65.2239L1.47332 65.2239C1.5267 62.6196 1.2598 60.2916 1.2598 57.4243C1.31318 57.6874 1.36656 57.6874 1.47332 57.6874C1.31318 56.9114 1.63346 56.1222 1.47332 55.0832C1.31318 54.3072 1.31318 53.2681 1.20642 52.2291C1.31318 51.966 1.36656 51.7029 1.41994 51.7029C1.36656 51.1768 1.2598 50.6639 1.15304 49.6248C1.31318 49.8879 1.41994 50.4008 1.5267 50.4008L1.5267 49.0987C1.58008 48.0597 1.58008 47.0206 1.58008 45.9816C1.58008 44.6794 1.58008 43.1274 1.2598 42.0884C1.20642 42.0884 1.20642 41.5623 1.15304 41.0493C1.2598 41.3124 1.31318 41.5754 1.41994 41.5754C1.31318 40.5364 1.68684 40.0103 1.58008 38.7213C1.47332 37.4192 1.41994 36.3801 1.31318 35.078L1.5267 35.078L1.5267 34.039C1.36656 32.2239 1.58008 30.3957 1.36656 28.8437C1.36656 28.8437 1.47332 28.3176 1.47332 28.0677C1.41994 27.8046 1.36656 27.5416 1.31318 27.0286C1.63346 25.7265 1.36656 24.4244 1.31318 22.8724C1.36656 22.3463 1.41994 22.0964 1.5267 21.5703C1.41994 21.0442 1.31318 20.2682 1.20642 19.7552C1.31318 19.2291 1.41994 18.7161 1.5267 18.19C1.36656 17.151 1.2598 16.1119 1.15304 14.8098L1.5267 14.8098C1.47332 12.9948 1.15304 11.6926 1.20642 9.61452C1.2598 9.87758 1.31318 10.1406 1.41994 10.1406C1.63346 8.57547 1.20642 8.32557 1.20642 7.02346C1.31318 7.28651 1.41994 7.28651 1.5267 7.28651C1.41994 6.5105 1.31318 5.9844 1.20642 5.20839C1.2598 4.16934 1.5267 3.64323 1.36656 2.60417L1.41994 2.07807C1.63346 1.81502 1.7936 0.775957 2.04983 0.775957C2.16727 0.775957 2.29538 0.683889 2.41282 0.683889C1.92172 -0.171032 1.46264 -0.15788 0.950192 0.34192C1.00357 1.64403 0.950192 2.15698 0.843431 2.15698C0.73667 1.89393 0.576529 1.38098 0.576529 2.15698C0.629909 2.93299 0.416387 2.93299 0.416387 3.45909C0.523148 4.49815 0.202865 5.80026 0.416387 7.10237C0.469767 7.36543 0.416387 8.14143 0.416387 8.14143C0.256246 8.91744 0.309626 9.44354 0.416387 10.2195C0.523148 10.7457 0.683289 12.5607 0.683289 12.5607L0.416387 12.5607C0.416387 13.3367 0.469767 14.1259 0.416387 14.3758C0.149485 15.9409 0.309626 17.2299 0.416387 18.532C0.149484 19.8341 0.309626 21.1362 0.309626 22.4252C0.256245 23.9904 0.683288 24.7664 0.683288 26.0685L0.469767 26.0685C0.523147 26.5946 0.576528 26.8445 0.629908 27.3706L0.469767 27.3706C0.202865 28.9357 0.469766 30.4878 0.629908 31.7899C0.523147 32.316 0.469766 32.8289 0.363006 33.092C0.416386 34.131 0.523147 34.907 0.629907 35.9461C0.309625 36.2091 0.523147 37.5113 0.416386 38.0242C0.256244 39.0633 0.523147 39.5894 0.523147 40.6284C0.469766 40.8915 0.363005 41.1545 0.363005 41.4044L0.363005 42.9696C0.309625 44.0087 0.363005 45.0477 0.416385 46.0868L0.416385 47.6519C0.309624 48.4279 0.309624 49.467 0.309624 50.2562C0.256244 51.0322 0.309624 51.8213 0.309624 52.5973C0.309624 54.1625 0.256244 55.7145 0.523146 57.0166C0.576526 57.2797 0.469766 57.7926 0.469765 58.3187C0.363005 58.0557 0.309624 58.0557 0.256244 58.0557C0.0961025 59.8707 0.309624 61.1728 0.576526 62.738C0.416385 62.2119 0.363004 62.2119 0.309624 62.2119C0.363004 62.475 0.469765 62.9879 0.469765 63.514L0.309624 63.514C0.309624 64.0401 0.523145 64.5531 0.309624 65.0792L0.309624 66.1182C0.363004 66.6443 0.469765 66.8942 0.523145 67.4203L0.523145 67.9464L0.202863 67.9464C0.309624 69.2486 0.416384 70.0246 0.523145 71.0636C0.416384 71.3267 0.363004 71.3267 0.309623 71.3267C0.416384 72.1027 0.523145 72.8918 0.309623 73.6678C0.256243 73.9309 0.256243 74.4438 0.256243 74.7069C0.309623 76.009 0.256243 77.3111 0.469765 78.3502L0.469765 79.3892L0.202862 79.3892C0.256243 80.1652 0.363004 81.2043 0.416384 81.9935L0.309623 81.9935C0.309623 84.0716 0.0961011 85.8866 0.309623 87.7149L0.309623 88.7539C0.256242 90.3191 0.0427206 91.8711 0.309622 93.4362C0.363003 93.9624 0.363003 95.2513 0.309622 95.2513C0.149481 95.5144 0.202862 96.2904 0.202862 96.8165C0.202862 97.8555 0.309622 99.1576 0.363003 100.46C0.0961004 102.025 0.0961004 102.801 0.363002 104.879C0.469763 105.655 0.576524 106.694 0.683285 107.483C0.576524 107.22 0.416383 106.707 0.256242 106.181L0.256242 107.746C0.256242 108.785 0.363002 109.824 0.363002 110.863C0.309622 112.429 0.416383 113.468 0.629904 114.507L0.629904 115.283C0.469763 115.283 0.363002 114.757 0.202861 114.757C0.256241 116.572 0.256241 118.4 0.309621 120.215C0.309621 120.991 0.309621 121.78 0.20286 122.293C0.256241 122.819 0.309621 123.069 0.363002 123.595C0.14948 124.121 0.14948 124.897 0.256241 125.673C0.309621 126.199 0.416382 126.712 0.469762 127.239L0.469762 127.502L0.256241 127.502C0.256241 128.804 0.629904 130.356 0.256241 131.921C0.523142 133.486 0.523142 135.301 0.523142 137.116C0.469762 137.629 0.363001 137.892 0.363001 138.155L0.363001 138.931C0.20286 139.457 0.25624 139.97 0.363001 140.746L0.363001 141.522C0.20286 143.074 0.363001 144.376 0.523142 145.678C0.469762 145.942 0.416381 146.205 0.416381 146.454C0.25624 147.757 0.25624 148.796 0.523142 149.835C0.576522 150.098 0.629902 150.611 0.683283 150.874C0.523142 150.348 0.416381 149.835 0.30962 149.572C0.416381 150.874 0.683283 151.913 0.469761 153.465C0.416381 153.728 0.30962 153.728 0.30962 153.728L0.30962 156.845C0.30962 157.884 0.416381 158.66 0.523141 159.699L0.363 159.699C0.416381 161.001 0.469761 162.303 0.469761 163.079C0.41638 163.855 0.309619 164.382 0.309619 164.645C0.309619 165.684 0.41638 166.723 0.41638 167.762C0.41638 168.538 0.46976 169.577 0.41638 170.103C0.309619 171.142 0.41638 171.668 0.523141 172.444C0.576521 172.97 0.683282 173.22 0.683282 173.746C0.629901 173.483 0.523141 172.97 0.46976 172.97C0.523141 173.746 0.523141 174.535 0.523141 174.535C0.362999 175.311 0.41638 175.837 0.523141 176.877L0.523141 178.179C0.309619 179.481 0.41638 180.257 0.52314 181.296C0.629901 181.822 0.736662 182.598 0.843423 183.637C0.629901 183.374 0.52314 183.374 0.416379 183.374C0.149477 184.413 0.576521 184.926 0.46976 186.228C0.416379 186.754 0.629901 187.78 0.736662 189.082C0.576521 188.819 0.52314 188.306 0.416379 188.306L0.362999 188.306C0.52314 189.608 0.629901 190.91 0.736662 192.462C0.683281 193.238 0.52314 194.541 0.416379 195.58C0.6299 196.356 0.57652 197.395 0.469759 198.434C0.629901 199.473 0.736661 200.512 0.843422 201.288C0.736661 201.025 0.629901 200.512 0.52314 200.249C0.309618 201.025 0.736661 201.801 0.523139 202.853C0.416379 203.379 0.683281 204.155 0.6299 205.194C0.6299 205.72 0.736661 206.746 0.790041 207.785L0.469759 207.785C0.57652 208.824 0.683281 209.35 0.790041 210.126L0.523139 210.126C0.57652 210.652 0.68328 211.165 0.68328 211.692C0.6299 211.955 0.523139 212.468 0.523139 212.731C0.523139 213.507 0.523139 214.546 0.68328 215.322L0.68328 215.848L0.523139 215.848L0.523139 218.965C0.576519 220.004 0.68328 220.53 0.68328 221.569C0.68328 222.608 0.523139 223.384 0.523138 224.173L0.523138 227.554C0.469758 229.369 0.469758 230.934 0.73666 232.236L0.73666 232.749L0.523138 232.749C0.576519 233.525 0.629899 234.051 0.629899 234.564L0.629899 237.168C0.629899 237.944 0.469757 238.733 0.629899 239.509L0.576518 240.035L0.576518 241.075C0.629899 241.851 0.736659 242.377 0.79004 243.153C0.683279 243.416 0.629899 243.666 0.523138 243.666C0.576518 244.705 0.683279 246.007 0.736659 247.046C0.629898 247.309 0.576518 247.309 0.523137 247.309L0.523137 248.348C0.362996 249.387 0.683279 250.426 0.523137 251.465C0.736659 252.241 0.576518 252.767 0.523137 253.28C0.629898 254.832 0.683279 256.134 0.790039 257.436C0.576518 257.173 0.469757 257.699 0.469757 258.475C0.469757 260.027 0.523137 261.33 0.736659 262.369C0.790039 262.632 0.790039 263.145 0.790039 263.145L0.576517 263.145C0.718865 264.53 0.701072 265.481 0.523137 265.999C0.629898 266.775 0.736658 267.814 0.896799 268.853C0.736658 269.116 0.576517 269.379 0.469756 269.629C0.523137 270.142 0.469756 270.931 0.469756 271.707L0.469756 278.98C0.469756 279.493 0.629897 280.019 0.683277 280.546C0.736658 280.809 0.843419 281.322 0.843419 281.585C0.790038 281.322 0.736658 281.072 0.629897 280.809C0.683277 281.322 0.790038 281.848 0.790038 282.111C0.683277 283.413 0.629897 282.374 0.469756 282.111C0.576516 283.15 0.576516 283.663 0.683277 284.189C0.896799 285.228 0.790038 286.267 0.790038 287.306C0.736657 288.082 0.629897 288.858 0.576516 289.384C0.683277 290.423 0.736657 290.936 0.843418 291.725C0.790038 291.988 0.683277 292.501 0.683277 292.501C0.790037 293.027 0.790038 293.54 0.790038 293.54C0.683277 294.066 0.576516 294.316 0.576516 294.579C0.523135 295.355 0.523135 295.882 0.523135 296.658C0.523135 297.697 0.469755 298.736 0.523135 299.512C0.629896 300.551 0.576516 301.327 0.523135 302.116C0.416374 303.418 0.416374 304.707 0.576515 305.759C0.683276 306.272 0.790037 306.798 0.576515 307.311L0.576515 310.428C0.683276 310.954 0.523135 311.467 0.523135 311.73C0.576515 312.77 0.629896 313.809 0.576515 314.322C0.469754 316.137 0.523134 317.702 0.576515 319.517C0.683276 320.819 0.790036 322.121 0.576515 323.16C0.683275 324.199 0.790036 325.238 0.896797 326.277L0.843417 326.277C0.736656 326.014 0.683275 325.501 0.576515 325.501C0.629895 326.803 0.683275 327.842 0.683275 329.145C0.416373 330.447 0.523134 330.96 0.736656 332.788C0.683275 333.827 0.576514 334.866 0.576514 335.642C0.683275 337.457 0.576514 339.022 0.576514 340.574C0.576514 342.389 0.629894 343.954 0.843416 345.506C0.790035 345.77 0.683274 345.77 0.683274 345.77C0.790035 347.072 0.736655 348.361 0.523133 349.663C0.683274 350.702 0.683274 351.478 0.523133 352.517C0.629894 353.03 0.736655 353.819 0.896796 354.595C0.576513 354.332 0.950176 356.41 0.576513 356.147C0.629894 356.41 0.683274 356.923 0.736655 357.449C0.416372 358.751 0.523133 360.303 0.736654 361.605C0.683274 361.868 0.576513 361.868 0.576513 361.868C0.523132 362.907 0.843415 363.683 0.576513 364.722C0.629893 365.249 0.683274 365.761 0.790034 366.288C0.629893 367.064 0.576513 368.103 0.629893 369.142L0.629893 370.694C0.523132 371.733 0.629893 373.035 0.523132 374.074C0.523132 374.337 0.629893 374.85 0.629893 375.376C0.683273 375.639 0.683273 376.152 0.683273 376.415C0.629893 377.191 0.683273 377.717 0.790034 378.23L0.790034 378.756C0.683273 379.019 0.576512 379.019 0.523132 379.019C0.30961 380.834 0.736654 381.361 0.736654 382.663L0.469751 382.663L0.469751 384.215C0.36299 385.517 0.416371 386.556 0.576512 387.595C0.683273 388.121 0.736653 388.897 0.843414 389.936C0.629892 389.41 0.523131 388.897 0.41637 388.121C0.36299 389.16 0.36299 390.199 0.523131 390.975C0.576512 391.238 0.683272 391.751 0.683272 392.277L0.683272 392.54C0.576512 392.277 0.523131 392.014 0.41637 392.014C0.523131 392.54 0.576512 393.316 0.683272 393.829C0.576512 394.092 0.523131 394.355 0.41637 394.355C0.523131 395.394 0.683272 396.17 0.790033 397.209C0.683272 396.946 0.576511 396.433 0.523131 396.433C0.309609 398.249 0.576511 399.288 0.736653 400.853C0.629892 400.59 0.576511 400.34 0.41637 400.34C0.46975 401.642 0.576511 402.681 0.576511 403.72C0.523131 405.285 0.629892 406.061 0.736652 407.363C0.790033 408.139 0.790033 408.665 0.629891 409.178L0.629891 409.704C0.790033 410.231 0.629891 410.743 0.629891 411.27L0.629891 412.835C0.683271 413.098 0.736652 413.361 0.629891 413.874C0.576511 414.4 0.683271 415.176 0.629891 415.689C0.46975 416.991 0.576511 417.767 0.736652 418.543C0.790032 418.806 0.843413 419.069 0.950173 419.845C0.790032 419.582 0.683271 419.319 0.52313 419.069C0.629891 420.108 0.736652 420.634 0.736652 421.147C0.790032 421.673 0.790032 422.712 0.790032 422.712C0.57651 423.751 0.736651 425.054 0.57651 426.093L0.57651 427.132C0.736651 427.908 0.629891 428.434 0.57651 429.21C0.587186 429.328 0.597862 429.433 0.619214 429.539L0.736651 430.249C0.736651 430.249 0.672595 429.933 0.619214 429.539L0.266904 427.46C0.266904 427.46 0.213523 427.395 0.202847 427.395C0.256228 427.658 0.256228 428.434 0.256228 428.434C0.0427058 429.473 0.202847 430.249 0.256227 431.038L0.256227 431.564C0.202847 431.301 0.0960863 431.038 -0.0106747 431.038C0.0960862 432.077 0.0960859 432.853 0.0960859 433.642C0.0960858 435.207 0.149466 435.72 0.0960857 437.285L0.0960857 438.851C0.149466 439.89 0.309607 440.929 0.416368 442.231C0.256227 441.968 0.202847 441.705 0.0960856 441.705C-0.0106753 443.783 0.042705 444.046 0.362988 445.085C0.256227 445.348 0.202846 445.611 0.0960854 445.611L0.0960853 446.65C0.0960853 448.215 -0.0106755 449.767 0.202846 451.333C0.256227 451.859 0.256227 452.898 0.202846 453.411C0.0427047 455.226 0.0960849 456.791 0.0960848 458.606C0.0427045 459.645 0.202845 460.171 0.416367 459.645C0.576509 459.645 0.73665 459.382 0.896791 459.645L1.16369 459.645C1.11031 459.119 1.05693 458.606 1.05693 457.83C1.32383 458.606 1.48398 459.132 1.63344 459.908L1.63344 458.343C1.79358 458.606 1.95372 458.869 2.06048 459.119C2.27401 460.158 2.54091 460.158 2.79713 460.158C2.87187 460.158 2.93592 460.092 2.99998 460.04C2.79713 458.395 2.73308 456.712 2.77578 455.015L2.77578 454.857Z" fill="#FAF8EC"/>
</g>
<defs>
<clipPath id="clip0_845_1117">
<rect width="460" height="2.99998" fill="white" transform="translate(3) rotate(90)"/>
</clipPath>
</defs>
</svg>
